<?xml version="1.0" encoding="utf-8"?>
<!-- Generator: Adobe Illustrator 19.2.1, SVG Export Plug-In . SVG Version: 6.00 Build 0)  -->
<svg version="1.1" id="Шар_1" xmlns="http://www.w3.org/2000/svg" xmlns:xlink="http://www.w3.org/1999/xlink" x="0px" y="0px"
	 viewBox="0 0 340 328" style="enable-background:new 0 0 340 328;" xml:space="preserve">
<style type="text/css">
	.st0{stroke:#FFFFFF;stroke-width:0.5;}
</style>
<title>africa</title>
<desc>Created with Sketch.</desc>
<g id="africa" transform="translate(-1.000000, 0.000000)">
	<path id="AO" d="M162.8,195.2l8.7,0.3l1.1,3.3c0.6,1.9,1.6,3.6,2.9,5c2.4,2.2,6.9,1.1,8.3-2.1c0.9-2,1.6-2.3,4.2-1.8
		c4.5,1,4.6,1.1,4.6,6.2c0,2.8,0.5,5.5,1.3,8.2c1.1,3.1,1.6,3.5,4.7,3.5c3.4,0,3.5,0.1,3.1,3.5c-0.5,4.6-0.8,5-4.2,5
		c-3.7,0-5,2.3-5,8.7c0,3.6,0.6,5.7,2.5,8.3l2.1,3.9c-8.1,1.4-9,1.3-13.1,0l0,0c-2.7-0.9-16.9-1.9-28.2-2c-3.5,0-4.2-0.4-4.2-2
		c0-3.1,3-11.9,6.2-18.1l3-5.8l-1.7-5c-0.9-2.8-1.4-6.1-1-7.5c0.4-2-0.1-4.1-1.3-5.7c-0.5-0.9-1.8-3.9-2.2-5L162.8,195.2z"/>
	<path id="BF" d="M81.5,120.8l-2.1-2.3l3.7-5.5c4-6.1,5.3-7,10.8-8.1c2-0.4,3.9-1.3,5.4-2.6c2.1-2.3,4.9-2.6,4-0.3
		c-0.9,2.3,1.1,5.2,5.4,7.4c3.6,1.8,3.8,2.2,2.7,4c-1.5,2-3.7,3.3-6.2,3.5l-2,0.4c-0.5,0.1-3.7,0.3-7,0.4c-5.8,0.2-6,0.3-5.8,2.7
		c0.2,2.4-0.2,2.5-3.3,2.5C85,123.1,83,122.3,81.5,120.8L81.5,120.8L81.5,120.8z"/>
	<path id="BI" d="M224.1,185.3c-0.5-1.7-0.1-2.7,1.5-4.1c3.2-2.6,4.4-2.3,3.5,0.9c-0.2,1-0.5,1.9-0.9,2.8c-0.6,0.4-1.2,0.8-1.8,1.3
		C225,187.4,224.7,187.2,224.1,185.3L224.1,185.3L224.1,185.3z"/>
	<path id="BJ" d="M110.2,136.3c-0.4-2.2-0.6-4.5-0.6-6.8c-0.1-2.6-0.6-5.2-1.6-7.6c-1.3-3-1.3-3.9-0.3-4.3c1.3-0.7,2.5-1.7,3.5-2.8
		c2.7-2.9,2.9-2.9,4.9,0.1c1.5,2.3,1.5,2.9-0.4,8.5c-1.1,3.4-1.8,6.9-2,10.4C113.6,139.2,111.2,141,110.2,136.3L110.2,136.3
		L110.2,136.3z"/>
	<path id="BW" d="M188,285.8c0-2.3-0.6-4.1-1.7-4.9c-2.4-1.8-2.1-6.5,0.8-13.1c1.6-3.4,2.4-7.1,2.5-10.9v-5.3l4-0.7
		c1.9-0.4,3.9-0.4,5.8-0.1c1.6,0.2,3.2-0.1,4.6-0.9c2.7-1.4,2.9-1.3,4.7,1.8c2.9,4.9,6.3,9.4,10.2,13.5l2.7,2.6l-5.7,5.3
		c-3.1,2.9-6,5.3-6.5,5.3s-1.3,1.1-1.9,2.4c-1.5,3.3-3.4,3.8-7,2c-3.2-1.6-5.9-0.7-5.9,2.1c0,1.5-1.8,3-4.5,3.9
		C188.2,289.4,188,289,188,285.8L188,285.8L188,285.8z"/>
	<path id="CD" d="M155.4,190.4c1.3-0.6,2.8-0.8,4.2-0.5c4,1.3,10.1-3.9,11.6-9.8c0.3-1.4,2.2-4.9,4.1-7.9c2.5-3.9,3.3-6,2.9-7.9
		c-0.3-1.5,0.2-4.4,1.3-7c1-2.4,1.8-5.7,1.6-7.2c-0.5-4.3,2.5-5.2,8-2.6c4.5,2.2,4.6,2.2,10.3,0.4c3-1,6.1-1.6,9.3-1.9
		c1.7,0,3.3-0.4,4.9-1c0.9-0.6,2,0,3.6,2c2.1,2.6,2.5,2.7,5,1.6c2.3-1.1,3.1-1,5.5,0.8c4.4,3.1,4.6,6.3,1.1,12.6
		c-2.5,4.4-2.9,5.8-2,8c1.3,3.4,1.3,3.5-0.5,3.5c-2.2,0-4.1,4.5-2.6,6.3c0.8,1,0.8,1.7,0,2.5c-0.8,0.8-0.9,1.8,0,3.7
		c0.7,1.6,1.1,3.3,1.2,5.1c0,1.4,1.1,4.7,2.5,7.4c3,5.9,3,6,0.8,6c-3.4,0.1-6.7,2.7-7.1,5.6c-1.1,10-0.8,11,4.8,14.4
		c1.3,0.8,1.3,1,0,1.9c-2.3,1.6-3,1.3-6.5-2.6c-1.8-2-3.8-3.3-4.4-3c-0.6,0.3-2.4,0-4-0.9c-1.7-0.8-3.6-1.4-5.5-1.5
		c-1.4,0-2.8-0.5-3.1-1.1s-1.9-0.8-3.5-0.4c-2.6,0.6-2.9,0.3-3.9-3.2c-0.7-2.8-1.1-5.6-1.1-8.5c0-4.7,0-4.7-4.2-5.8
		c-4.2-1.1-5.8-0.4-7,3.2c-0.2,0.5-1.6,1-3.3,1.1c-2.7,0.2-3.2-0.3-5.3-4.5l-2.5-4.8l-8.7,0.2l-8.5,0.9l-1.1-3.7L155.4,190.4z"/>
	<path id="CF" d="M170.2,155.3c0-0.6-1.4-2.1-1.8-2.9c-0.5-1-2.4-3.5-3.8-5.9c-2.7-4.8-2.3-5-0.4-8.3c1.6-2.7,2.8-3.5,7.1-4.3
		c2.8-0.6,6.2-2,7.5-3.1c1.5-1.3,3.1-2.5,4.8-3.4c2.6-1.5,5.2-3.2,7.6-5.1c3.1-2.3,5.7-3.7,6.7-3.3c1,0.4,2.1,2.8,2.7,5.5
		c0.9,3.8,1.8,5.3,4.1,6.5c1.6,0.8,2.9,1.9,2.9,2.5c0,0.6,1.9,2.8,4.1,5.1c3.8,3.8,4,4.2,2.2,5.2c-1.7,0.8-3.5,1.2-5.4,1.2
		c-3.2,0.3-6.3,1-9.3,1.9c-5.8,1.8-5.8,1.8-10.4-0.4c-4.3-2.1-4.7-2.1-7-0.6c-1.7,1.1-2.3,2.2-1.8,3.5c0.6,1.8,0.1,1.9-4.5,1.9
		c-4.3,0-5.1,0.3-5.1,1.9L170.2,155.3z"/>
	<path id="CG" d="M153,191.3c-0.4-0.8-1.6-3.9-2-4.5c-1.2-1.8-1.2-2.3,0-3.3c0.8-0.6,1.1-1.6,0.9-2.5c-0.7-1.9,3.1-3.7,6-2.9
		c1.9,0.5,2.8,0,4.1-1.9c1.5-2.3,1.5-2.7,0-5.7c-1.2-2.4-1.4-3.5-0.5-4.5c0.9-1,0.6-1.9-1.4-4c-1-0.9-1.9-1.9-2.6-3.1
		c0-0.3,2.2-0.2,4.9,0.2c4.2,0.6,5.2,0.3,7-1.5c1.1-1,1.8-2.2,2.1-3.6c0-1.1,1.2-1.5,4.5-1.5h4.5l-2,4.7c-1.2,2.8-1.8,5.7-1.4,7.2
		c0.4,1.9-0.4,4.1-3,8c-1.4,2-2.5,4.1-3.5,6.3c-0.4,1.5-0.9,2.9-1.6,4.3c-1.9,4-6.3,6.7-9.6,5.8c-1.5-0.3-3.1,0.1-4.3,1L153,191.3z"
		/>
	<path id="CI" d="M71.3,144.6c0.2-1.7-0.3-3.3-1.5-4.5c-2.1-2.3-2.3-4.9-0.5-8.2c0.6-1.1,0.9-4.1,0.6-6.6l-0.5-4.6l5.5,0.1
		c3.7,0,6.1,0.6,7.4,1.8c1.1,0.9,2.5,1.4,3.9,1.2c3.9-0.9,4.7,0.7,3.5,7.2c-0.7,3.1-0.7,6.3-0.1,9.4c1.3,4.4,1.3,4.2-1,3.5
		c-1.1-0.3-5.4,0.3-9.5,1.4s-6.8,1.7-7.8,1.9V144.6L71.3,144.6z"/>
	<path id="CM" d="M170,155.9c-1.1,0.9-3.7,2.4-5.2,2.3c-1.5-0.1-6.8-0.4-11.9-0.5c-8.9-0.3-9.2-0.4-9.2-2.6c0-1.3-1.1-3.5-2.5-5
		c-2.3-2.5-2.4-3.1-1.5-6.5c1-3.9,5.2-7.7,7.1-6.5c0.6,0.4,2.4,0.1,4-0.6c3.2-1.3,5.9-5.5,5.9-9.2c0-1.3,1.5-4.9,3.3-8.1l3.3-5.8
		l1.2,2.6c1.8,4,1.4,6.1-1.4,7.4c-1.9,0.9-2.3,1.5-1.6,2.4c0.5,0.7,1.9,2.9,3,4.9c1.7,3,1.8,3.9,0.7,4.8c-1.1,1.2-1.9,2.5-2.5,4
		c-1,2.4-0.9,3.5,1,7.2L170,155.9z"/>
	<path id="CV" d="M10.6,98.4c0-0.5,0.5-1,1-1c0.6,0,1,0.4,1,1s-0.4,1-1,1C11.1,99.4,10.6,98.9,10.6,98.4z M1.1,90.4
		c-0.3-0.5-0.1-1,0.4-1c0.6,0,1,0.4,1.1,1C2.6,91.7,1.9,91.7,1.1,90.4z"/>
	<path id="DJ" d="M277.2,116.9c-1.3-1.3-1.4-2-0.5-3c1.7-2.1,4.9-1.8,4.9,0.5C281.6,117.4,279.1,118.8,277.2,116.9L277.2,116.9
		L277.2,116.9z"/>
	<path id="DZ" d="M116.6,79.6c0-0.4-10.6-8.6-23.5-18.2C70.7,44.8,69.6,43.8,69.6,40.7c0-2.8,0.6-3.6,4-5.3c1.7-0.9,3.5-1.6,5.4-2
		c2.6,0,11.5-6.1,11-7.5c-0.6-1.7,3.2-3.8,5.5-3c3,1,4.1-1.5,3.2-7.6l-0.8-5.6l4.9-2.8c7.5-4.2,13.1-5.3,24-4.8
		c11.2,0.6,12,1.5,8.5,8.8l-2.1,4.4l3.2,4.3c3.6,4.8,6.4,10.6,5.7,11.7c-0.3,0.4,0,3.5,0.5,6.9c0.7,4.3,0.7,6.8-0.1,8.2
		c-1.8,3.4,0.5,8.6,5.1,11.2c2.1,1.2,3.8,2.5,3.7,2.9c-0.1,0.4-6,5-13,10.2c-11.7,8.8-13.1,9.6-17.2,9.6
		C118.6,80.4,116.6,80.1,116.6,79.6L116.6,79.6L116.6,79.6z"/>
	<path id="EG" d="M222.4,67.7l-17.8-0.3v-21c0-11.5,0.3-21,0.8-21s4.2,0.7,8.4,1.5c5.6,1.1,8.6,1.2,11.3,0.4c2.2-0.7,4.6-0.7,6.8,0
		c1.7,0.6,3.5,0.8,5.2,0.5c1.8-0.4,2.5,0.2,4.2,3.8c1.2,2.2,1.7,4.8,1.5,7.3l-0.6,3l-3.4-4.3c-5.2-6.6-5.9-3.6-1,4.4
		c4.9,8,11.3,20.4,10.7,20.8c-0.2,0.1-1.9,1.5-3.7,3s-3.6,2.6-4,2.5C240.4,68.2,232.1,67.9,222.4,67.7L222.4,67.7L222.4,67.7z"/>
	<path id="EH" d="M35.6,69.1c0-0.7,1.3-3.1,2.9-5.3c1.7-2.3,3.3-4.8,4.6-7.4c1.5-2.8,3.1-5.6,4.9-8.2l3.2-4.7h17.6v6h-14v6.3
		c0,5.8-0.2,6.4-2.5,7.5c-1.9,0.8-2.5,1.9-2.5,4.2v3h-7C37.4,70.4,35.6,70.1,35.6,69.1L35.6,69.1L35.6,69.1z"/>
	<path id="ER" d="M273.9,106.9c-3.3-3.4-5.1-4.5-8.7-5c-2.5-0.4-5-0.4-7.5,0c-2.2,0.5-3.1,0.2-3.6-1c-1.1-2.9,1.2-8.9,4.3-11.2
		c3.3-2.5,4.4-1.8,5.5,3.4c0.5,2.2,2.4,4.5,6.4,7.8c6.2,5,11,10.7,8.9,10.5C278.7,111.3,276.2,109.3,273.9,106.9L273.9,106.9
		L273.9,106.9z"/>
	<path id="ET" d="M258.6,148.9c-4.8-2.8-12-10-12-12.1c0-0.7-1.6-2.1-3.5-3s-3.5-1.9-3.5-2.2s1.4-1.3,3.1-2.3
		c2.3-1.3,2.9-2.2,2.5-3.6c-0.7-2.1,1.6-7.6,5.6-13.6c1.3-1.8,2.3-3.9,3-6c0.5-2.6,5.5-4,11.4-3.1c3.6,0.5,5.6,1.6,8.7,4.7
		c3.8,3.8,3.9,4.1,2.3,5.9c-1.6,1.8-1.6,2,0.8,4.2c1.4,1.3,2.5,2.8,3.2,4.6c1,3.1,6.9,6.7,13.6,8.2c2.1,0.4,4.2,1,6.3,1.7
		c0.4,0.2-0.7,2.1-2.5,4.2c-1.8,2.1-4.3,4.9-5.5,6.4c-1.6,1.7-3.7,2.9-6,3.3c-2.2,0.5-4.3,1.3-6.3,2.4c-1.9,1.3-3,1.5-4.7,0.7
		c-1.7-0.8-3.3-0.6-6.3,0.6C263.5,151.9,263.9,151.9,258.6,148.9L258.6,148.9L258.6,148.9z"/>
	<path id="GA" d="M145.9,181.2c-5-5.3-5.6-7.2-4.3-12.8c1.2-4.8,1.2-4.9,5.1-4.9c3.5,0,3.9-0.3,3.9-2.5c0-2,0.5-2.5,2.5-2.5
		c3.4,0,9,5.6,7.5,7.5c-0.8,1-0.7,2.1,0.5,4.4c2.2,4.2,0.6,7.5-3.2,6.6c-3-0.8-7.7,1.9-6.9,4c0.2,0.9-0.1,1.8-0.7,2.4
		C149.3,184.1,148.2,183.6,145.9,181.2L145.9,181.2L145.9,181.2z"/>
	<path id="GH" d="M90.7,141c-0.8-3.1-0.8-6.4-0.1-9.6c0.5-3,0.7-6.1,0.5-9.1l-0.5-3.9H96c5.2,0,5.5,0.1,6.5,3.1
		c0.7,2.4,1.1,5,1.1,7.5c0,2.6,0.6,5.1,1.6,7.5c0.9,1.7,1.2,3.4,0.7,3.9c-0.8,0.8-11.9,4.9-13.3,4.9C92.2,145.4,91.3,143.5,90.7,141
		L90.7,141L90.7,141z"/>
	<path id="GM" d="M37.4,106.1c1.7-0.6,3.7-0.6,5.4,0c1.7,0.8,1,1-3.3,1C34.4,107.1,34.3,107.1,37.4,106.1L37.4,106.1z"/>
	<path id="GN" d="M63.6,132.9c-0.2-1.1-1-2.1-2-2.6s-1.8-1.5-2-2.6c0-1.6-4.5-6.2-6-6.2c-0.6,0-2.1,1.1-3.3,2.4l-2.2,2.4l-3.3-4.3
		l-3.3-4.3l3.1-3.1c2.5-2.5,3.8-3,6.9-2.8c2.1,0.1,4.5,0.8,5.3,1.5c1,0.9,2.4,0.9,4.9,0.2c1.9-0.5,3.5-1,3.6-1
		c0.5,0.9,0.9,1.8,1.3,2.8c1.9,4.5,3.1,14.3,2.1,16.3C67.4,133.7,63.6,134.8,63.6,132.9L63.6,132.9L63.6,132.9z"/>
	<path id="GQ" d="M142.6,159.4c0-1.6,0.7-2,3-2s3,0.4,3,2c0,1.6-0.7,2-3,2S142.6,161,142.6,159.4z M136.6,152c0.2-0.4,0.6-0.8,1-1.1
		c0.6-0.3,1-0.1,1,0.4c0,0.6-0.4,1.1-1,1.1C137.1,152.4,136.6,152.3,136.6,152z"/>
	<path id="GW" d="M38.1,114.6l-3-1.5l3-1.3c1.9-0.7,3.8-1.2,5.8-1.3c2.5,0,2.7,0.2,1.7,1.9C43.9,115.6,41.5,116.3,38.1,114.6
		L38.1,114.6L38.1,114.6z"/>
	<path id="KE" d="M275.8,174.7c-3.2,3.6-9,10.5-9.7,12.1l-1.2,2.9l-2.1-3.5l0,0c-1-1.4-1.7-2.9-2.1-4.5c0-0.6-4-3-8.8-5.4l-8.8-4.4
		l1.3-3.6c0.8-2.1,1.7-4.1,2.8-6c1.3-1.9,1.4-3.1,0.5-6.3c-0.4-1.7-1.1-3.4-1.9-5c-1.2-1.4,0-2.8,3.6-4.1c2.4-0.9,3.5-0.8,5,0.3
		c1.9,1.2,3.8,2.4,5.8,3.4c3.7,1.9,4.1,1.9,8.2,0.3c2.4-0.9,5.3-1.4,6.4-1c2.1,0.7,2.4,0.9-0.2,4.3c-3,3.9-2.2,11.4-0.4,17.3
		L275.8,174.7z"/>
	<path id="KM" d="M286.1,229.5c-0.3-0.1-0.2-0.7,0.2-0.5s1.3,0.6,0.9,0.6C286.9,229.5,286.5,229.5,286.1,229.5L286.1,229.5
		L286.1,229.5z M288.1,228.3c-0.4-0.2,0.4,0.2,0.8-0.2c0.4-0.4,0.5-0.1,0.5,0.2c0,0.8,0,0.1-0.6,0H288.1L288.1,228.3z M285.3,224.4
		c-0.4,0.7,0,1.5-0.4,2.2c1.1,0.4,1,1.1,1.3,0.7c-0.1-0.4-0.2-0.8-0.3-1.2C285.6,225.3,286.1,224.8,285.3,224.4L285.3,224.4
		L285.3,224.4z"/>
	<path id="LR" d="M56.5,134.4c0.9-1.9,2-3.1,2-3.7c0.1-2,3.1-0.2,4,2.3c0.7,1.7,1.4,2.1,3,1.7c1.8-0.5,2.1-0.2,1.5,1.4
		c-0.4,1.3,0.1,2.6,1.4,3.8c1.2,1.2,2,2.7,2.2,4.4l-0.1,2.9c-0.7-0.2-2.2-0.8-3.2-1l0,0c-2.3-0.6-8.7-5.9-12.8-9.7L56.5,134.4z"/>
	<path id="LS" d="M219.6,304.4c2.5-2.5,2.5-4.6,0-6c-2.2-1.2-4.7-0.3-7,2.5c-1.1,1.3-1,1.9,0.5,3.6C215.4,307,217.1,307,219.6,304.4
		L219.6,304.4L219.6,304.4z"/>
	<path id="LY" d="M186.6,71c-12.2-7.3-18.9-9.7-21.3-7.7c-1.4,1.1-12-1.3-12.5-2.8c-0.2-0.5-2.1-1.9-4.2-3.1
		c-4.5-2.5-6.8-7.4-5-10.8c0.8-1.4,0.8-3.9,0.1-8.3c-0.8-5.1-0.7-6.7,0.5-8.5c0.8-1.1,1.3-2.4,1.5-3.7c0-0.8,1.4-2.9,3.1-4.6
		c3.3-3.3,3-3.3,11.9-1c2.1,0.6,4,1.9,5.2,3.8c1.1,2,3.1,3.4,5.4,3.6c2.3,0.5,4.5,1.2,6.6,2.2c2.7,1.4,3,1.3,5.3-0.8
		c1.5-1.4,2.2-2.9,1.8-4c-0.3-1.3-0.1-2.6,0.5-3.8c1.5-2.8,5.8-2.6,12.5,0.7l5.5,2.7v25.8c0,22.3-0.2,25.8-1.5,25.8
		c-0.7-0.1-1.3,0.3-1.5,1C200.6,79.1,199.6,78.6,186.6,71L186.6,71L186.6,71z"/>
	<path id="MA" d="M55.9,40c5.8-3.5,9.7-7.7,9.7-10.3c0-5.2,3.1-10.1,8.6-13.7c3-2,5.4-4,5.4-4.4c0.4-1.1,1.1-2.2,2-3l2-2.2l4.2,2.2
		c2.3,1.2,5.5,2.1,7,1.9c2.6-0.3,2.8,0,2.9,3.8c0.1,2.2,0.2,4.9,0.2,5.8c0.1,1.3-0.6,1.7-2.3,1.5c-2.8-0.3-7.4,2.4-6.8,4.1
		c0.5,1.4-7.5,6.7-10.1,6.7c-2,0.4-4,1.2-5.7,2.3c-2.9,1.6-4.1,3-4.3,5c-0.3,2.7-0.3,2.7-8.5,2.7H52L55.9,40L55.9,40L55.9,40z"/>
	<path id="MG" d="M284.1,282.3c-2.8-1.6-3.2-2.4-4-8.3c-0.6-4.7-0.3-5.7,2.5-10.3c2.8-4.6,3.1-5.6,2.4-10.6
		c-0.9-7.3,0.6-11.2,4.9-12.1c4-0.9,12.7-8.5,14.7-13l1.6-3.4l1.1,2.4c2.8,6.1,2.5,8.8-2.3,22.1c-2.6,7.1-5.4,15.7-6.2,19
		c-2.6,10.6-4,13.1-8.2,14.4C286.2,283.7,286.6,283.7,284.1,282.3L284.1,282.3L284.1,282.3z"/>
	<path id="ML" d="M68.2,117.5c-1-4.8-2.7-6.2-6.6-5.1c-3.5,1-6.7-0.2-5.5-2.1c0.3-0.5-0.4-2.5-1.5-4.4c-1.6-2.7-1.8-4-1-5.5
		c0.9-1.8,2.2-1.9,13-1.9h12V55.4h2.5c2.9,0,34.4,22.7,34.4,24.8c0,0.7,0.9,1.2,2,1.2c1.8,0,2,0.7,2,6.2c0,3.4-0.4,6.9-1,7.7
		c-0.6,0.8-4,1.9-9.1,2.6c-5.5,0.8-8.8,1.8-10.3,3.2c-1.7,1.3-3.6,2.2-5.7,2.7c-5.2,1-7.5,2.9-11.6,9.2c-2.1,3.2-3.9,6-4.2,6.3
		c-0.3,0.3-2.3,0.5-4.7,0.5C69.3,120,68.7,119.7,68.2,117.5L68.2,117.5L68.2,117.5z"/>
	<path id="MR" d="M49.7,98.1C47,93.7,42.4,91,39,91.9c-2.2,0.6-2.3,0.4-1.4-2.1c1.2-3.1,0.3-10.6-1.7-14.6c-0.6-1-1.1-2.1-1.4-3.2
		c0-0.3,3.6-0.5,8-0.5h8v-3.3c0-2.6,0.6-3.6,2.5-4.5c2.3-1,2.5-1.7,2.5-7.2v-6h6.9c6.7,0,6.9-0.1,7.2-2.5l0.3-2.5l5.8,4.3
		c4.8,3.5,5.5,4.3,3.8,4.6c-2.1,0.3-2.1,0.8-2.1,21.8v21.2H65.6c-11.2,0-11.9,0.1-12.8,2.2S51.9,101.6,49.7,98.1L49.7,98.1z"/>
	<path id="MU" d="M337.9,255.8c0-0.2,0.5-0.8,0.8-0.3c0.1,0.2,0,0.4-0.2,0.5c-0.1,0.1-0.2,0.1-0.4,0.1
		C338,256,337.9,255.9,337.9,255.8L337.9,255.8z M340.2,256.6c0-0.2,0.5-0.8,0.8-0.3c0.1,0.2,0,0.4-0.2,0.5
		C340.4,257.2,340.2,256.9,340.2,256.6L340.2,256.6L340.2,256.6z M336.7,260.2c0.2-0.4,0.6-0.8,1-1.1c0.6-0.3,1-0.1,1,0.4
		c0,0.6-0.4,1.1-1,1.1C337.1,260.7,336.7,260.5,336.7,260.2L336.7,260.2z"/>
	<path id="MW" d="M245.9,241.6c-0.7-0.4-1.1-2-1-3.6c0.2-2.3-0.5-3.4-3-5.1c-1.8-1.2-3-2.4-2.8-2.7c1.3-1.3,2.4-11.1,1.4-12.9
		c-1.2-2.3-0.3-5.9,1.5-5.9c2.8,0,4.5,6.4,3.2,11.8c-0.7,2.8-0.4,3.8,1.7,6c3.5,3.6,4.4,9.2,2,11.4
		C247.9,241.6,246.5,242,245.9,241.6L245.9,241.6L245.9,241.6z"/>
	<path id="MZ" d="M269,217.5c-0.3,1.3,0.9,7.1,1.5,9.9c0.9,4.4,0.8,5.6-0.8,8.8c-2.4,4.6-4.2,6.3-10.9,9.6c-2.9,1.4-5.2,3.1-5.2,3.6
		s-2,3.2-4.5,6c-2.5,2.8-4.5,5.5-4.5,6.1c0.5,1.8,1.2,3.4,2.1,5c3.4,6.6-0.1,9.5-7,14.8c-3.2,2.5-3.9,3.1-4.2,6.7l-1.5,0.1
		c-0.4-0.4-1.4-7.9-1.9-16c-0.1-2.1,0.1-3.8,0.6-3.8c1.3,0,4.5-7.1,6.2-13.4c1.4-5.2,1.4-6.2,0-8.8c-1.5-2.9-8.1-6.7-11.7-6.7
		c-2.7,0-1.3-1.5,4.9-5l5.6-3.1l3.2,1.9c2.6,1.6,3.1,2.4,2.9,5c-0.4,4.5,2.7,6,5.7,2.7c2.8-2.9,2.1-7.7-1.7-11.7
		c-2-2.2-2.4-3.2-1.8-5.9c0.7-3.2,0.7-3.2,5.7-2.5c3.8,0.5,6.6,0.1,11.5-1.5L269,217.5z"/>
	<path id="NA" d="M174.6,297c-1.3-0.8-2.7-1.1-4.2-0.9c-2.6,0.8-4.6-3.2-5.3-10.6c-1-10-4.2-20.8-8.5-28.6c-2.2-3.9-3.9-7.8-3.9-8.7
		c0-2.4,3.4-3,9.6-1.7c3.1,0.6,6.3,0.8,9.5,0.5c3.7-0.3,7.4,0,10.9,1c5.6,1.4,7.8,1.5,12,0.6c6.8-1.5,11.8-1.5,10.3,0
		c-1.2,0.8-2.6,1.2-4,1.1c-1.6,0-5,0.2-7.6,0.5l-4.8,0.5v5.8c0,3.9-0.9,7.8-2.5,11.4c-2.2,4.9-2.5,7.1-2.5,17
		c0,11.2,0,11.3-2.5,12.5C177.9,298.7,177.7,298.7,174.6,297L174.6,297L174.6,297z"/>
	<path id="NE" d="M110.7,109.8c-6.7-4-6.4-3.8-6.6-7.2c-0.2-2.7,0.1-2.9,4.3-3.5c2.5-0.3,5.7-0.6,7.2-0.6c3.5,0,5-3.3,5-11
		c0-5.7,0.1-6,2.5-6c1.6,0,7.1-3.5,15.7-9.9l13.2-9.9l3.9,1.4c1.8,0.7,3.7,1.2,5.6,1.4c3,0,5.9,9.5,5.6,17.9
		c-0.3,6.8-0.6,7.8-4.3,13.1c-1.8,2.6-3.4,5.3-4.7,8.2c-0.4,1.6-1.6,2.9-3.1,3.6c-1.5,0.7-3.2,0.7-4.7,0c-1.8-0.8-3-0.7-5.3,0.4
		c-3.4,1.7-9.2,0.8-15.5-2.4c-4.6-2.4-7.9-1.2-11.1,4.1l-2.2,3.6L110.7,109.8L110.7,109.8L110.7,109.8z"/>
	<path id="NG" d="M126.2,144.4c-0.4-2.1-1.7-3.4-4.7-5c-2.3-1.2-4.8-1.9-5.5-1.6c-2.2,0.8-1.8-7.3,0.6-14.5c1.5-4.6,1.8-6.4,0.9-7.4
		s-0.6-2.3,1.1-5.3c3.1-5.5,6-6.7,10.8-4.2c6.3,3.3,12.2,4.2,15.5,2.4c2.3-1.2,3.5-1.3,5.3-0.4c1.8,0.9,3.1,0.8,5.3-0.4
		c2.8-1.4,2.9-1.4,4.9,1.7l2,3.2L159,119c-1.9,3.4-3.4,7.1-3.4,8.2c0.1,3.5-1.9,6.7-5.1,8.2c-1.5,0.6-3.3,0.9-3.9,0.5
		c-1.9-1.2-7,3.4-8,7.3c-1,3.7-1.1,3.7-6.4,3.9C126.9,147.3,126.8,147.1,126.2,144.4L126.2,144.4L126.2,144.4z"/>
	<path id="RE" d="M332.8,260.4c0-0.5,0-1,0.6-1c0.6,0,1.2,0.4,1.4,1c0,0.5,0.1,1-0.4,1S332.8,261,332.8,260.4L332.8,260.4z"/>
	<path id="RW" d="M224.1,179.4c-0.4-0.9-0.4-2,0-2.9c1-3.1,6.5-3.6,6.5-0.5C230.6,177.8,224.9,180.8,224.1,179.4L224.1,179.4
		L224.1,179.4z"/>
	<path id="SD" d="M241.1,119.1c-1.3-2.9-1.4-1.9-1.9-2.5c-0.7,0-0.8,0.5-1.5,1.5c-0.9,0.9-0.5,2.2-1.1,3.2l-4.3,4l-3.8-1
		c-0.6-0.4-1.5-0.8-2.1,0c-0.3,0.4-0.1,1.2-0.8,1.6c-0.2,0.3-1,0-2.2,1.1c-0.8,0.8-2,1-3,0.4c-0.7-0.6-1.7-0.9-2.6-0.8
		c-1.5-0.1-2.2,0.6-4.4,0.2c-1.2-1-1.3-2-2.5-3c-1-0.3-2.2-0.2-3.1,0.3l-1.6,3.3c-0.4,0.8-0.7,1.6-0.8,2.4l-0.9,0.4
		c-1.3-0.4-2.2-2.2-3-5.6c-0.7-2.7-1.9-5.4-2.8-5.9c-0.9-0.5-1.3-1-0.9-1c0.4,0-0.2-1.9-1.3-4.2c-1.6-3.1-1.9-5.1-1.4-7.8
		c0.8-4.5,3.1-8.1,5-8.1c1.2,0,1.5-1.8,1.5-10s0.3-10,1.5-10s1.5-1.2,1.5-4.6v-4.6l19,0.2l19,0.2l3.1-2.6l3.1-2.6l2.9,3.8
		c1.7,2,2.7,4.5,2.9,7.1c0,3.7,1.3,6.6,4.4,10l2.1,2.3l-3.3,2.7c-3.8,3.1-5.9,9.1-4.3,12.1c0.7,1.3,0.7,2.2,0,2.6
		c-0.7,0.5-1,1.3-1,2.1c0,0.8-1.3,3.4-2.9,5.7c-3.9,5.6-5.8,11.7-6.3,11.9C243.2,123.8,240.8,121.1,241.1,119.1L241.1,119.1
		L241.1,119.1z"/>
	<path id="SH" class="st0" d="M52,195.8h-0.1v-0.3H52l0.1,0.1l0.1,0.1v0.1H52L52,195.8z M76.3,218.7H76v-0.1l0.2-0.1h0.1V218.7
		L76.3,218.7L76.3,218.7z"/>
	<path id="SL" d="M54.1,136.1c-1.4-1.7-5.5-6.5-5.5-7.2c0-2.1,3.4-6.4,5-6.4c1.4,0,5,3.8,5,5.3c-0.4,1.8-1.1,3.6-2,5.2L54.1,136.1z"
		/>
	<path id="SN" d="M34.1,110.4c-1-1.7,0-2.1,5.4-2.3c2.8-0.1,5.3-0.5,5.7-0.8c1.2-1.2-3.7-3-6.6-2.5c-2.4,0.5-3.1,0.1-4.4-2.4
		c-1.4-2.8-1.4-3.2,0.7-6c4.8-6.5,9.9-4.8,16.3,5.3c2.5,3.9,4.5,7.4,4.5,7.8c0,1.5-2.8,1.7-7.5,0.7c-2.8-0.7-5.7-0.7-8.5,0.1
		C35,111.7,34.9,111.7,34.1,110.4L34.1,110.4L34.1,110.4z"/>
	<path id="SO" d="M275.3,171.7c-1.3-1.9-2.9-8.9-1.8-13c1.6-5.8,6.7-10.8,12.1-11.6c2.7-0.3,5.2-1.7,6.9-3.8
		c1.4-1.7,4.1-4.8,5.9-6.8c3.9-4.4,3.4-5.1-4.8-7c-3-0.7-5.9-1.8-8.7-3.2c-3.9-2.3-5.9-7.1-3.8-8.9c1-0.8,1.4-0.8,1.4-0.1
		c0,0.7,1.4,1.8,3,2.7c2.8,1.5,3.8,1.4,12.6-0.5c4.2-0.8,8.4-2,12.4-3.5l2.8-1.5l0.7,4c0.6,3.6,0,5.3-7.2,19
		c-7.7,14.7-8,15.2-15.6,21.2c-4.3,3.4-8.8,7.5-10,9.2c-0.6,0.9-3.5,4-5,5.8L275.3,171.7z"/>
	<path id="SS" d="M209.2,134.5c1.4,2.1,3.1,3.9,5,5.5c1.4,0.9,2.3,2.2,2,2.9c-0.3,0.7,0.3,2.3,1.3,3.6c1.6,2.2,2.1,2.3,4.5,1.2
		c2.4-1.1,3.1-1,5.8,1.1l0,0c2.8,2.2,3.5,2.3,9.6,1.5c3.9-0.5,6.9-1.5,7.4-2.3c0.6-0.8,1.5-1.4,2.5-1.4c4.1,0,4.5-1.6,1.3-4.9
		c-1.7-1.7-3.1-3.7-3.1-4.4s-1.6-2-3.5-2.9c-4.3-2-4.4-3.2-0.4-5.2c0.8-0.4,1.6-0.9,2.2-1.6l-0.5-2.9c-0.9-0.7-1.7-1.5-2.4-2.4
		c-0.4-1.8-0.8-3.7-1.8-4.5c-0.7,0.5-1.2,1.2-1.4,2.1c0,1.1-0.4,2.1-1.1,2.9l-3.9,3.5c-1.8-0.3-3.6-0.8-5.3-1.4
		c-0.5,0.1-0.7,0.9-1,1.4l-4.4,2.3l-3.9-1.1l-4.4,0.4l-3.2-3.2h-2.1C204.1,132.2,206.3,129.1,209.2,134.5L209.2,134.5L209.2,134.5z"
		/>
	<path id="ST" d="M131.6,165c0.2-0.4,0.6-0.8,1-1.1c0.6-0.3,1-0.1,1,0.4c0,0.6-0.4,1.1-1,1.1C132.1,165.4,131.6,165.3,131.6,165
		L131.6,165z"/>
	<path id="SZ" d="M230.1,290.1c-2-1.5-1.4-4.6,0.9-4.6c1.5,0,2.9,4.7,1.7,5.5C231.8,291,230.9,290.7,230.1,290.1L230.1,290.1
		L230.1,290.1z"/>
	<path id="TD" d="M165.9,131.8c-0.7-1.6-1.5-3.1-2.5-4.5c-1.8-2.6-1.8-2.6,0.7-3.7c3.6-1.6,3.1-4.8-1.6-12.1
		c-4.7-7.3-4.6-7.8,1.3-16.1c3.7-5.2,4-6.1,4.2-13.5c0.2-6.2-0.1-8.7-1.7-11.8c-4.8-9.4,2.2-8.7,20.9,2.1l13.3,7.7v8.2
		c0,6.1-0.3,8.2-1.3,8.2c-1.7,0-4.4,4.6-5.2,9.1c-0.5,2.5-0.1,5.2,1.3,7.4l2,3.8l-6.5,4.8c-3.6,2.6-6.9,4.8-7.3,4.8
		c-0.4,0-2.3,1.3-4.1,2.9C175,133.2,167,134.6,165.9,131.8L165.9,131.8L165.9,131.8z"/>
	<path id="TG" d="M106.3,136.7c-1.1-3-1.8-6.1-2.1-9.2c-0.3-3-0.6-6.4-0.8-7.4c-0.6-3.8,1.9-2.6,3.4,1.6c1.8,4.9,3.1,17.5,1.8,18.2
		C108.2,140.2,107.2,138.7,106.3,136.7L106.3,136.7L106.3,136.7z"/>
	<path id="TN" d="M141.7,26.7c-1.2-2.5-2.6-4.8-4.3-7l-3.2-4.3l2.2-4.5c1.6-3.4,1.9-5.1,1.2-6.9c-0.8-2.2-0.6-2.6,2.1-3.5
		c3.7-1.3,7.3,0.2,6.4,2.6c-0.3,0.9-0.1,2,0.4,2.8c0.7,0.9,0.7,2.1,0,4c-0.9,2.4-0.7,3.1,1.6,5.6l2.7,2.8l-3.1,2.9
		c-1.7,1.6-3.1,3.9-3.1,5C144.6,29.5,142.9,29.7,141.7,26.7L141.7,26.7L141.7,26.7z"/>
	<path id="TZ" d="M267.7,191.8c0-0.7,0.2-1.3-0.2-1.3c-0.6,0.1-1.1,0.7-1.1,1.3c0,0.7-0.2,1.3,0.1,1.3
		C267.2,192.9,267.6,192.4,267.7,191.8L267.7,191.8z M265.7,197c0-0.9-0.3-1.8,0.3-1.8c0.9,0.2,1.6,0.9,1.7,1.8
		c0,0.9,0.4,1.8-0.2,1.8C266.6,198.7,265.9,197.9,265.7,197L265.7,197z M268.7,216.7c-0.2-0.2-2.5,0.6-5.7,1.7
		c-7.5,2.6-16.4,1.9-16.4-1.2c0-2.8-3-7-4.9-6.7c-3.2,0.5-10.1-5.5-13.2-11.4c-3.5-6.8-3.8-11-0.8-12.9c1.3-1.1,2.2-2.7,2.4-4.4
		c0.6-6.4,2.1-8.3,6.9-9c4-0.6,5.5-0.2,13.5,3.7c5,2.4,9,4.8,9,5.2c0.5,1.6,1.3,3.1,2.3,4.5c1.7,2.8,2.3,5.3,2.4,10.8
		c-0.1,4.8,1,9.6,3.3,13.9L268.7,216.7z"/>
	<path id="UG" d="M229.9,173.6c-1-1-1.7-2.2-2.2-3.5c-0.9-2.4-0.6-3.6,2-8.1c2.1-3.7,2.8-6.1,2.4-7.8c-0.6-2.4-0.4-2.5,5.7-3.1
		c3.4-0.4,6.6-0.3,7,0.1c0.8,1.4,1.4,3,1.7,4.6c0.9,3.3,0.7,4.4-1.4,8.4c-1.3,2.5-2.4,5.1-2.4,5.8s-2,1.5-4.6,1.9
		c-2.6,0.4-5.2,1.1-5.8,1.6C231.6,173.9,230.7,173.9,229.9,173.6L229.9,173.6z"/>
	<path id="YT" d="M289.4,231c-0.6-0.3-0.1-1,0.4-1c0.6,0,1,0.4,1.1,1C290.9,232.3,290.1,231.5,289.4,231L289.4,231z"/>
	<path id="ZA" d="M235.6,291.8c-0.1,0.9-0.4,6.1-1.5,6.9c-1.6,1.3-2.9,2.8-4,4.5c-2.6,4.9-15.9,17.8-21.2,20.5
		c-4.5,2.3-5.6,2.4-8.9,1.5c-2.9-0.8-5.2-0.7-10.1,0.5c-7.9,2-7,2.1-10.1-1l0,0c-2.1-2.1-2.5-3.2-2-6.1c0.4-2.7,0-4.4-1.9-7.2
		c-1.4-2-2.5-4.1-2.5-4.7c-0.4-1.4-1.1-2.6-2-3.7c-2.6-3.3-1-4.3,3.1-2.1c2.9,1.5,3.5,1.5,6.5,0.1l3.3-1.6v-7.5c0-4.3,0.4-7.5,1-7.5
		c1,0,1.3,1.2,1.4,6c0.1,2,0.5,2.5,2.5,2.2c2.8-0.3,6.1-2.9,6.1-4.8c0-2.2,1.8-2.5,5-0.9c3.4,1.8,6.5,0.8,7.5-2.3
		c0.6-1.3,1.7-2.4,3.1-3c1.4-0.6,2.5-1.6,2.5-2.1s2-2.6,4.5-4.6c4.1-3.4,4.9-3.6,8.8-3c4.1,0.6,4.3,0.8,4.3,3.9
		c0,2.4,0.3,4.8,0.8,7.2c0.7,3.6,0.5,4.1-1.6,5c-3.3,1.4-3.5,4.9-0.5,6.3c1.9,0.9,2.7,0.8,3.5-0.2c0.3-0.7,0.6-1.4,0.8-2.2
		L235.6,291.8z"/>
	<path id="ZW" d="M225.2,270.7c-2.6-0.3-5-1.7-6.6-3.8c-3.2-3.6-6.1-7.4-8.6-11.5l-2-3.5h3.5c2.9,0,4.2-0.8,7.8-4.7l4.3-4.7l4.1,1.1
		c10.7,2.9,12.6,5.6,10.3,14.6c-1.7,6.4-4,11.5-5.7,12.7C231.1,271.4,230.1,271.4,225.2,270.7L225.2,270.7L225.2,270.7z"/>
	<path id="ZM" d="M197.6,249.1c-0.5-1.2-1.1-2.3-2-3.3c-1.4-1.7-2-4.1-2-7.3c0-6.5,0.7-7.9,3.9-7.9c3.5,0,5.1-1.7,5.1-5.2
		c0-2.3,0.4-2.8,2.5-2.8c1.9,0.1,3.8,0.7,5.5,1.5c1.6,0.8,3.4,1.3,4,0.9c0.6-0.4,2.5,1,4.3,3c3.8,4,4.4,4.2,7.2,2.1
		c1.9-1.5,1.9-1.5-0.1-3.1c-1.1-0.9-2.7-1.9-3.4-2.4c-1.3-0.8-1.6-3.7-1-11.7c0.2-2,1.5-2.9,7-4.6c0.9-0.3,3.6,1,6,2.8
		c3.5,2.6,4.5,4,4.7,6.6c1.1,13.1,0.5,14.6-6.9,18.8c-3.3,1.9-6.9,4-8,4.5c-2.1,1.6-4,3.4-5.7,5.4c-3.2,3.6-4.5,4.4-7.8,4.5
		c-1.9,0.1-3.9-0.2-5.7-0.9c-0.6-0.4-4.7,0.1-6.1,0.1L197.6,249.1z"/>
</g>
</svg>
