<?xml version="1.0" encoding="utf-8"?>
<!-- Generator: Adobe Illustrator 19.2.1, SVG Export Plug-In . SVG Version: 6.00 Build 0)  -->
<svg version="1.1" id="Шар_1" xmlns="http://www.w3.org/2000/svg" xmlns:xlink="http://www.w3.org/1999/xlink" x="0px" y="0px"
	 viewBox="0 0 529 392" style="enable-background:new 0 0 529 392;" xml:space="preserve">
<title>asia</title>
<desc>Created with Sketch.</desc>
<g id="asia">
	<path id="AE" d="M143.9,241.4c-4-0.8-8.8-3.8-9.5-5.9c-0.3-1,0-1,1.8-0.1c3.9,2.1,8.5,0.4,13-4.7c2.2-2.5,4.1-4.2,4.1-3.7
		c0.5,5.7,0.2,7.3-1.8,10.3c-1,1.3-1.7,2.7-2.3,4.2c0,0.2-0.1,0.4-0.2,0.5s-0.4,0.2-0.6,0.2C148.1,242.2,146.1,241.8,143.9,241.4
		L143.9,241.4z"/>
	<path id="AF" d="M171.6,207.1c0.5-2.9,0.2-4-0.9-4.4c-0.8-0.3-2.4-3-3.5-6.1c-1.8-4.8-1.9-6-0.8-8.9c0.8-2.2,1.7-3.2,2.6-2.9
		c2.1,0.8,8.7-3,10-5.9c1.5-3.3,5.2-4.2,9.2-2.1c3.8,2,6.6,1.3,10.2-2.7c2.3-2.5,3-2.7,4.8-1.8c1,0.5,1.8,1.4,2,2.5
		c0,2.2,1.4,2.5,5.5,1.4c2.5-0.7,4.1-0.7,4.8-0.1c0.7,0.6-0.4,1.2-3,1.7c-2.1,0.4-4.1,1.3-5.8,2.7c-1.5,1.7-1.6,2.4-0.6,5.1
		s0.9,3.3-0.7,4.5c-1,0.7-2.6,3.6-3.6,6.3s-2.1,4.8-2.6,4.5c-1.4-0.9-6.9,2.4-8.1,4.9c-1.7,3.7-4.9,5-12.7,5.1l-7.3,0.1L171.6,207.1
		L171.6,207.1L171.6,207.1z"/>
	<path id="AM" d="M102.8,166.3c-1.1-1.2-2.5-1.8-3.6-1.4s-2.8-0.4-4.5-2.1c-2.6-2.6-2.6-2.8-0.8-3.5c1-0.4,2-0.7,3.1-0.8
		c1.6-0.1,10.5,8.5,9.7,9.3C105.6,168.8,104.7,168.5,102.8,166.3L102.8,166.3z"/>
	<path id="AZ" d="M112.7,156.8c0.9,1,3.8,4.2,5.1,5.7c1.7,1.8,2,3.3,0.5,2.4c-0.6-0.3-1.3,0.7-1.6,2.5l-0.6,3.1l-2.4-2.6
		c-1.5-1.6-3-2.4-4.2-2c-1.2,0.4-3-0.5-5.1-2.5l-3.3-3l2.6-2c1.9-1.5,3-1.8,4.4-1c1,0.6,2.3,0.6,3.3,0L112.7,156.8z M100.2,166.8
		c-0.7-0.8-0.8-1.5-0.2-1.5c0.9,0.2,1.7,0.8,2.2,1.5c0.7,0.8,0.8,1.5,0.2,1.5C101.6,168,100.8,167.5,100.2,166.8L100.2,166.8z"/>
	<path id="BD" d="M284.5,227.1c-1,0.2-0.7,2,1.2,5.4c1.4,2.5,2.3,5.2,1.9,6.1c-0.2,1.2-0.1,2.5,0.4,3.6l1.1,2.3
		c1.4-0.3,2.8-0.8,4.1-1.3c2.6-1.4,5,0.2,7.1,4.5l2.6-0.9c0.1,0,0,0,0.1-0.1c1.1-0.4,2.1-1.3,2.1-2.1s-0.4-1.2-0.9-0.9
		c-0.1,0.1-0.3,0-0.5-0.2l-0.3-0.2h-0.1l-0.2-0.1l0,0c-1-0.5-1.8-1.2-2.5-2.1c-1.9-2.2-2.5-4-2.3-6.2c0.3-3.1-0.2-3.3-3.3-2.1
		c-1,0.4-3.2-0.7-5.9-3C286.9,227.9,285.2,227,284.5,227.1L284.5,227.1L284.5,227.1z"/>
	<path id="BH" d="M129.8,228.5c0.1,0.2,0.4,0.5,0.6,0.8c0.1-0.1,0-0.5,0.1-0.7c0-0.2,0-0.5-0.1-0.7c-0.2,0-0.4,0-0.6,0.1
		C129.7,228.1,129.7,228.3,129.8,228.5L129.8,228.5L129.8,228.5z"/>
	<path id="BN" d="M400.2,325.3c0.2,0.2,0.4,0.4,0.6,0.5c0.3,0.1-0.2,0.6,0.7,0.4c0.5-0.1,0.7-1.9,0.9-2.2c0.2-0.3,0.9,0.7,1.2,0.3
		c1.2-1.5,1.3-2.8-2.7-1.4c-0.7,0.4-1.4,0.8-2.1,1.3L400.2,325.3z"/>
	<path id="BT" d="M287.5,223.3c-2.4-1-2.8-2.5-1.3-4.9c0.7-1.1,1.6-1.2,3.6-0.5c3.6,1.3,5.4,4.2,3.4,5.5
		C291.5,224.5,290.5,224.5,287.5,223.3L287.5,223.3z"/>
	<path id="CN" d="M371.5,261.2c-2.6-2.6,0-5.8,4.8-5.8c2.1,0,2.1,0,0.3,3.2C374.5,262.2,373.1,262.9,371.5,261.2z M373.4,250
		c-0.4-1.3-1.3-2.3-2.5-2.9c-1.2-0.6-2.6-0.7-3.9-0.2c-1.9,0.7-5.7-1.2-7.5-3.7c-2.5-3.5-4.8-4-10-2.3c-2.3,0.8-4.7,1.4-7.2,1.8
		c-2,0.2-2.5,0.7-2.3,2.7c0.1,2.3-0.2,2.5-3.4,2.2c-1.3,0-2.5-0.2-3.7-0.6c-0.1-0.2-1.4-2.4-2.9-5c-1.5-2.6-3.6-5-4.6-5.3
		c-2.8-0.9-3.4-3.8-1.6-8c1.4-3.3,1.4-4,0-6.7c-1.4-2.2-3.4-3.9-5.7-5c-2.3-1.1-5.3-2.6-6.7-3.4c-1.3-0.8-2.8-1.2-4.3-1.4
		c-2.8,0-7.5,2.8-8.2,4.9c-0.9,2.7-3.8,3.1-6.5,1c-2.8-2.3-5.9-2.4-6.7-0.3c-0.4,1.2-0.9,1.3-2,0.4c-0.9-0.7-2-0.8-3-0.5
		c-0.9,0.4-3-0.5-5-2s-4.1-2.4-5-2c-2.4,0.9-8.5-1-12.4-3.9c-1.8-1.4-4-2.2-6.3-2.5c-1.6,0-5-1.1-7.7-2.5c-4.7-2.4-6.7-4.8-5.5-6.6
		c0.5-1.8,0.8-3.6,0.9-5.5c0.4-5-1.7-8.3-5.5-8.6c-1.1-0.1-2.6-0.2-3.2-0.2c-0.6,0-3.9-1.8-7.2-3.8s-6.2-3.8-6.5-3.8
		s-0.7-1.2-0.7-2.6c-0.1-1.6-1.4-3.7-3.5-5.4l-3.1-2.1l3.1-2.3c1.6-1.2,3.7-1.4,4.2-1.1c1.3,0.8,10.1-3.8,12.6-6.6
		c3.4-3.8,3.7-6.1,0.9-9.8c-0.9-1.2-1.8-2.4-2.5-3.7c0.9-0.8,1.8-1.4,2.9-1.8c1.8-1,3.3-2.5,4.3-4.3c0.8-1.7,2.1-2.7,3.3-2.6
		c3.6,0.3,5.7-1.6,5-4.6c-0.5-1.6,0-3.4,1.3-4.5c1.8-1.7,2.1-1.6,5,0.9c2,1.5,4.2,2.8,6.6,3.6c2.6,0.7,4.3,2.3,6.7,6
		c3.8,5.8,7.7,8.3,11.8,7.4c3.5-0.8,11.2,2.9,15.5,7.5c2.8,3,3.3,3.1,8.1,2.5c3.8-0.5,7.8,0,15.8,2.1c10.2,2.6,10.9,2.6,14.4,1.1
		c2.8-1.1,5.7-1.9,8.7-2.3c5.5-0.7,10.1-2.7,10.8-4.6c0.1-1.4-0.3-2.8-0.9-4c-1.5-3-0.5-4.3,2.6-3.3c2.1,0.7,9.2-2.5,12.6-5.6
		c1.2-1.1,2.8-1.7,4.5-1.6c1.4,0.1,2.7-0.2,2.9-0.8c0.7-1.7-5.5-4.6-10.4-4.9c-8-0.5-10-4.4-3.8-7.3c3.4-1.6,3.7-2.1,3.8-5.8
		c0-2.4-0.6-4.7-1.8-6.7l-1.8-2.7l4.3-1.2c3.3-0.9,5.6-0.9,9.8,0c4.7,1,6.3,2,11,6.9c7.7,8,11.8,10.8,17.5,12.1
		c2.8,0.6,5.6,1.8,8,3.4c4.7,3.6,6.9,3.9,10.7,1.7c3.4-2,6.8-1.5,5.4,0.9c-0.4,0.6,0,2.3,0.9,3.7c1.6,2.5,1.6,2.6-1.8,5.8l-3.5,3.3
		l1.9,2.9c2.3,3.5,9.2,9.7,1,5.5c-0.8-0.4-3.6,1.2-5.2,2.8c-1.6,1.6-3.5,2.7-4.2,2.5c-0.7-0.2-2.6,1.3-4.2,3.4
		c-1.9,2.4-4.1,4.4-6.7,6c-3.7,2.1-3.8,2.1-4.8,0.2c-0.6-1.1-0.9-2.3-1-3.5c-0.1-1.1-0.9-2.1-1.9-2.5c-1.5-0.8-2.5-0.3-5.3,2.7
		c-1.6,1.8-3.4,3.4-5.4,4.8c-1.7,0.9-1.7,1.3-0.6,2.7c1.7,1.6,3.6,2.9,5.7,4c3.8,2.1,4.5,2.2,5.8,1c1.3-1.2,2.2-1.3,5.8-0.3l4.4,1.2
		l-2.4,1.6c-4.5,3-6,4.6-6.6,7.4c-0.5,2.2-0.2,2.9,1.8,3.8c1.3,0.6,3.4,3.1,4.5,5.4c1.2,2.4,3,4.5,5.1,6.1c3.7,2.2,4.7,4.5,2.6,5.6
		c-1.9,1.1-1,2.8,1.5,2.8c0.9-0.1,1.9,0.3,2.5,1c0.3,0.5-0.6,5.5-2.1,11.1c-3.6,13.3-6.8,17.5-16.1,21.1c-3.7,1.5-7.2,2.3-7.7,1.8
		c-1.2-1.2-8,2.4-10.5,5.6l-2.1,2.6L373.4,250z"/>
	<path id="GE" d="M88.7,149.3c2.8,0.3,11.4,3.7,15,5.7c1.7,1,1.7,1.1-0.5,2.6c-1.7,1.2-2.8,1.3-4.2,0.6c-1.2-0.6-2.6-0.7-3.9-0.4
		c-3.3,1-8.9-1.4-9.5-4.1c-0.5-1.2-1.3-2.2-2.4-2.9c-1.9-1.3-3.8-2.6-5.8-3.7C81.4,146.1,85.1,149.6,88.7,149.3L88.7,149.3
		L88.7,149.3z"/>
	<path id="HK" d="M393.2,247.6c0,0.7-0.5,1.2-1.2,1.2c-0.6,0-1.2-0.6-1.2-1.2c0-0.7,0.5-1.2,1.2-1.2
		C392.7,246.4,393.2,246.9,393.2,247.6L393.2,247.6z"/>
	<path id="ID" d="M421.2,389.8c-1.4-0.8-1.9-1.4-1-1.4c1.8,0,4.6,1.6,4,2.3C424,391,422.6,390.6,421.2,389.8z M438.2,388.3
		c2-2.8,4-3.2,4-0.8c0,1.3-3,3.7-4.8,3.8C436.5,391.3,436.8,390.4,438.2,388.3z M409.5,385.7c-0.3-0.1-0.6-0.3-0.7-0.5
		c-0.1-0.3-0.1-0.6,0-0.9c0.8-1.2,7.2-1.2,7.9,0.1c0.3,0.5,0,1-0.7,1c-1.1,0.1-2.2,0.2-3.3,0.4C411.6,386,410.5,385.9,409.5,385.7
		L409.5,385.7z M424.4,385c-1.8-2.2,0.3-2.9,5-1.6c4.7,1.3,4.7,1.5-0.2,2.4C426.5,386.2,425.1,386,424.4,385z M507.2,383.8
		c-1.7-1.9-3.1-2.4-4.9-2c-4.1,0.9-5.7-0.8-2.6-2.8c2.5-1.7,2.5-1.7,0.8-5.3c-1.4-2.9-3.3-4.4-9.5-7.5c-4.3-2.1-9.1-3.9-10.7-3.9
		c-3.7,0-5.3-3.4-2.5-5.5c1.7-1.2,1.4-1.5-2.9-3.6c-4.6-2.2-4.7-2.3-2.5-3.6c1.4-0.8,2.9-1.2,4.5-1.3c2.3,0,5.3,3.3,5.3,6.1
		c0,0.9,1,2.9,2.2,4.4c2.1,2.7,2.2,2.7,3.8,0.8c1.8-1.8,3.9-3.4,6.2-4.6l4.7-2.7l5.6,2.7l5.6,2.7V372c0,7.9-0.1,14.3-0.3,14.3
		C509,385.6,508.1,384.7,507.2,383.8L507.2,383.8z M393.2,383.2c-3.8-0.6-7.5-1.4-11.2-2.4c-2.6-0.8-5.6-1.2-6.8-0.9
		c-2.3,0.7-12-2.1-12-3.5c0-3.2,9-3.4,13.7-0.4c1.8,1.1,3.2,1.2,6.9,0.4c4.2-0.9,5-0.8,7.5,1c1.1,0.9,2.4,1.6,3.8,2
		c2,0,8,3.3,7.5,4.2c-0.4,0.5-1,0.8-1.7,0.7C400.2,384.1,396.9,383.7,393.2,383.2L393.2,383.2z M357.6,370
		c-3.7-2.1-10.3-10.2-12.5-15.2c-1.6-3.5-3.6-6.8-5.9-9.9c-2-2.5-3.7-5.2-5.3-8c-1.6-2.6-3.5-4.9-5.7-7c-4.8-4.6-7.8-9.5-5.8-9.5
		c2.6,0,9.4,3.8,12.3,6.8c8,8.3,9.6,9.8,13.4,12.2c3.6,2.2,5.4,4.6,5.5,7.5c0,0.5,1.1,2.1,2.3,3.5c1.2,1.4,3.6,4,5.2,5.7
		c1.6,1.8,2.8,3.9,3.6,6.2C366,367.6,361.6,372.3,357.6,370z M420.8,369.3c-0.3-1-0.3-2,0-3c0.3-1.5,0-3-0.9-4.2
		c-1.4-2-1.4-2.4,0.1-4.8c1.3-2.5,2.1-5.2,2.4-8c0.5-3.7,1.5-6.2,3.1-7.8c2.2-2.2,2.7-2.3,7.6-1.3c4.2,0.8,5.9,0.7,8.2-0.5
		c3.8-2,4.1-1.9,2.8,0.9c-1.6,3.6-4.9,4.7-8.3,2.9c-6.1-3.2-14.2,1.6-9.9,5.8c1.6,1.6,2.4,1.7,5.3,0.9c5-1.4,6.9-1.2,3.9,0.5
		c-3.5,1.9-4.2,4-2.4,7.5c0.8,1.7,1.4,3.6,1.5,5.5c0,2.3-0.2,2.5-2,1.5c-1.6-1.2-2.8-2.8-3.5-4.7c-1.5-3.6-1.5-3.6-3.5-1.7
		c-1.7,1.7-1.8,2.5-0.9,5.8c0.8,3,0.8,4.1-0.3,4.7C422.4,370.6,421.5,370.6,420.8,369.3L420.8,369.3z M410.8,325.4
		c-1.7,0.2-3.7,2.1-5.1,5.6c-1.9,4.9-5.3,7.8-9.4,8c-2.5,0.4-4.9,1-7.3,1.9c-4.8,1.7-4.8,1.7-7-0.6l-0.5-0.5l-1.4-1.4
		c-0.2,0.2-0.3,0.4-0.5,0.6c-0.8,1.3-1.1,2.9-0.8,4.4c1.2,5.2,3.5,12.5,4.3,13.7c1,1.5,10.9,3.5,13.4,2.7c1.6-0.2,3.1,0.1,4.5,0.9
		c1.9,1,3.2,1.1,4.3,0.4c1.6-1,8-14.2,8-16.5c0-0.7,1.1-1.9,2.5-2.8l2.5-1.6l-2.2-3.1c-1.4-2-2.1-4.4-2.2-6.9
		C413.8,326.7,412.5,325.2,410.8,325.4z M459,360.7c-2.1-0.5-2.4-2.3-0.4-2.3c1.6,0.1,3.2,0.3,4.7,0.7c2.8,0.6,3,0.8,1.4,1.4
		C462.9,361.2,460.9,361.3,459,360.7z M455.5,345.2c-0.8-0.8-0.8-1.7-0.2-3c0.5-0.8,0.6-1.9,0.4-2.8c-0.9-1.5,1.4-5,3.2-5
		c1.5,0,1.5,0.2-0.1,1.9c-1.3,1.5-1.5,2.4-0.7,4.5C459.8,344.9,458,347.8,455.5,345.2L455.5,345.2z"/>
	<path id="IN" d="M318.2,314.3c0-0.5,0.5-1,1-1c0.4,0,0.8,0.2,0.9,0.6c0.2,0.4,0.1,0.8-0.2,1.1c-0.3,0.3-0.7,0.4-1.1,0.2
		C318.5,315,318.2,314.7,318.2,314.3z M231.1,185c-1.2,0.4-2.2,1-3.1,1.9c-2.4,2-3.7,2.4-6.3,1.9c-1.8-0.3-3.5-0.2-3.8,0.3
		c-1.1,1.8,1.3,6,4.4,7.6c2.6,1.4,2.9,1.9,2,3.6c-0.6,0.9-0.7,1.9-0.5,2.9c1.1,1.7-8.7,14-12.1,15.1c-1.8,0.6-3.3,1.9-4.2,3.5
		c-1,2.2-0.8,2.9,2.9,6.4l4.1,3.9l-2.2,2.2c-1.1,1.3-2.8,1.9-4.4,1.5c-3.4-0.9-5.2,1.7-2.8,4c1,0.9,2.3,1.4,3.7,1.4
		c2.7-0.5,2.9,2.1,0.3,3l-2.3,0.8l2.7,2.7c4,4,9.1,3.3,9.2-1.3c0-0.8,0.5-1.5,1.3-1.8c1.7-0.6,3.5,4.5,2.7,7.8
		c-1.1,5,0.8,10.2,13.6,37.7c1.8,3.7,3.3,7.6,4.5,11.6c0.4,2.1,1.5,3.8,2.8,4.4c3,1.4,3.5,1.2,7-3.6c3.9-5.4,5.4-14.1,4.4-25.1
		c-0.2-1.8,0.9-3.3,4.2-5.9c2.4-1.8,4.4-3.8,6.2-6.2c0.8-1.5,2.1-2.6,3.6-3.4c1.4-0.6,2.5-1.7,3.1-3.1c1.1-1.9,2.7-3.3,4.7-4.2
		c2.5-1.2,3.4-2.2,3.1-3.4c-0.7-2.8,1.5-4.7,6.7-5.8c0.7-0.2,1.1-0.4,1.8-0.6l-1.5-3.8c-0.2-0.7-0.3-1.5-0.2-2.2
		c0.3-1.1-0.6-4-2-6.4c-2.1-3.7-2.3-4.6-1.1-5.8c1.2-1.2,2-0.8,5.6,2.2c4.6,3.9,4.9,4,7,2.6s4,0.7,3.4,3.8c-0.2,1.7,0.2,3.4,1.3,4.8
		l2.9,2.8l1.1-3.1c1.6-4.4,2.8-8.9,3.7-13.5c0.4-1.7,1.6-3.2,3.3-3.8c3.3-1.4,6.1-5.1,3.9-5.1c-1-0.1-1.9-0.6-2.6-1.4
		c-3.2-3.8-11.8-2.6-13.9,2c-0.6,1.3-1.8,2.4-2.6,2.4c-0.8,0-1.5,0.7-1.5,1.5c0,0.8-1,2-2.3,2.6c-3.4,1.3-7.2-0.3-8.7-3.6
		c-0.5-1.4-1.6-2.5-2.5-2.5c-1.3,0-1.4,0.4-0.5,2.1s0.8,2.5-0.6,4c-1.9,2.1-2.4,2.1-15.5-2.1c-12.6-4-18.9-7.5-18.9-10.3
		c0-1.2,0.3-2.3,1-3.3c0.7-0.7-0.2-1.6-3.1-2.9c-4.4-2-7.6-5.6-6.4-7.4c0.8-1.4,1.4-9.1,0.8-10.7c-0.3-0.7-2.1-1.7-4-2.2
		C233.4,185,232.2,184.8,231.1,185z M313,292.4c-0.7-2.5-0.3-3.9,0.8-2.8c0.4,0.9,0.4,1.9,0.2,2.9l-0.4,2.3L313,292.4z M222.2,295.3
		c0-0.6,0.4-1,1-1s1,0.4,1,1c0,0.6-0.4,1-1,1S222.2,295.8,222.2,295.3z"/>
	<path id="IQ" d="M103.8,210.7c-2.2-1.3-4.4-2.8-6.3-4.5c-3.7-3.2-10.4-6.9-12.6-6.9c-1.4,0-4.6-3.6-4.6-5.2c0-0.4,1.8-1.7,3.9-2.7
		c3.5-1.8,4-2.4,4.6-7c0.4-2.8,1.1-5.3,1.6-5.6c0.5-0.4,0.6-1.1,0.3-1.6c-0.4-0.6,1.2-0.8,4.4-0.6c4.2,0.3,5.5,0.9,8.1,4
		c2.4,2.8,3,4.2,2.5,6.1c-0.8,3.2,2.5,8.9,6.6,11.3c1.8,1.1,3.1,2.8,3.9,4.7c0.7,1.8,1.6,3.4,2.8,4.9c1.7,1.8,1.6,1.9-1.9,1.2
		c-3.1-0.6-3.9-0.3-5,1.4C110.6,212.7,107.8,212.9,103.8,210.7L103.8,210.7L103.8,210.7z"/>
	<path id="IR" d="M164.4,230.3c-3-0.5-5.6-2.1-7.5-4.5l-3.1-3.6l-4.3,1.3c-4,1.2-4.6,1.1-10.3-1.6c-5.1-2.4-6.5-3.7-8.4-7.6
		c-2.3-4.6-4.7-6.3-8.9-6.3c-1.4,0-2.7-1.4-4.1-4.3c-1.1-2.4-2.8-4.5-4.9-6.1c-4.3-2.8-6.7-7.1-6.1-10.5c0.4-2.2,0-3.6-1.9-5.5
		c-3.4-3.5-8.6-13.9-7.4-14.6c0.5-0.3,1.8,0.1,2.7,1c2.2,2,4.5,2,7.5,0.1c3-1.9,4.9-1.2,7.2,3.2c1.4,2.6,3.6,4.4,8.6,7
		c6.5,3.3,6.9,3.4,9.8,1.9c1.6-0.8,3-1.9,3-2.4s2.3-1.8,5.1-3c5-2.1,5.2-2.1,10.2-0.5c13.8,4.6,16.5,7.2,14,13.5
		c-1.3,3.3-1.3,4.1,0.7,9.3c1.2,3.1,2.8,6,3.5,6.3c1,0.4,1.2,1.6,0.8,4.3c-0.5,3.3-0.2,4.2,2.8,7.6c4.8,5.4,5.3,7.2,2.7,10
		c-1.2,1.3-1.8,2.8-1.4,3.5C176.4,231.1,172.2,231.8,164.4,230.3L164.4,230.3L164.4,230.3z"/>
	<path id="JO" d="M69.6,198.4c1.4,0.9,2.6,0.6,5.8-1.1c3.9-2.2,4-2.2,5.4-0.3c1.2,1.7,1.1,2-0.8,3c-1.2,0.6-2.8,2.9-3.6,5.2
		c-0.9,2.5-2.5,4.8-4.2,5.7c-2.7,1.6-2.8,1.6-4.4-1.8c-1.1-2.1-1.4-4.5-0.9-6.8c0.4-1.8,0.8-3.7,0.9-4.3L69.6,198.4z"/>
	<path id="JP" d="M445.2,201.9c0-0.8-1.1-2.7-2.4-4.3c-3.2-3.8-2-6.3,1.7-3.8c2.7,1.8,4.1,5.4,3.1,8
		C446.9,203.7,445.2,203.8,445.2,201.9z M450.9,194.7c-0.6-1.7,0.9-3.3,3.2-3.3c1.6,0,1.6,2.2,0,3.8
		C452.5,196.8,451.5,196.7,450.9,194.7z M460,191c-1.9-3-4.7-3.4-11-1.6c-2.6,0.7-4.3,0.7-5.5,0c-1-0.6-1.2-1-0.6-1s2.5-1.2,4.2-2.6
		c2.1-1.8,3.7-2.4,5.4-1.9c1.7,0.5,3.7-0.4,7.8-3.5c7.9-5.9,8.6-7.8,5.4-14.2c-3.1-6.1-2.2-8.1,2.3-5.4c3.3,2,6.5,7.6,5.6,10
		c-0.3,0.9,0.2,3.5,1.1,6c1.3,3.4,1.4,4.9,0.6,6.5c-1.3,2.4-4.9,4-8.9,4c-2.3,0-3,0.6-3.7,3.2l-0.9,3.2L460,191L460,191z
		 M459.4,154.5c-1.8-2.6-1.9-3-0.5-5s1.3-2.5,0-5.1c-2.2-4.4-1.9-4.6,2-1.6c2.6,1.8,5.5,3.2,8.5,4.1c5.6,1.7,7,3,4.1,3.9
		c-1,0.3-1.8,1.1-2,2.1c0,1.1-0.7,1.3-2.8,0.7c-5.3-1.4-6.8-1-6.4,1.4C462.5,158.1,461.9,157.9,459.4,154.5z"/>
	<path id="KG" d="M229.4,155.7c-2.1,2.4-10.9,6.9-12.1,6.1c-1.2-0.8-4.7,1-7.7,3.8c-1.9,1.8-2.6,1.9-5.2,0.8
		c-1.6-0.7-3.5-0.9-5.2-0.5c-1.4,0.4-2.5,0.2-3-0.6c-1.2-2-0.1-3,2.1-1.9s4.7,0.2,6.8-2.4c1-1.2,0.8-1.7-0.9-2.6
		c-1.2-0.6-2.6-0.9-3.9-0.7c-1.1,0.2-2.3,0-3.3-0.7c-1.3-1-1.4-1.4-0.2-3c1.1-1.4,2.1-1.7,4.9-1.2c2.2,0.5,4.4,0.2,6.4-0.8
		c1.9-1.1,4.2-1.3,6.3-0.5c2.1,0.5,4.3,0.7,6.5,0.4c2-0.4,4.3,0.7,6.3,1c1.7,0.9,3.1,1.1,3,1.5C230,154.8,229.7,155.3,229.4,155.7
		L229.4,155.7L229.4,155.7z"/>
	<path id="KH" d="M352.4,294.8c-1.3-2-2.5-4.5-2.6-5.7c-0.1-1.3-0.4-2.6-0.9-3.9c-1.1-2.4,3-6.2,5.8-5.4c6.8,2,7.1,2,10.4,1
		c1.8-0.6,2.4-0.2,3.3,2.2c1.9,5.1,0.2,8.2-6.8,12c-3.4,1.9-6.4,3.4-6.5,3.4C354.1,297.2,353.2,296,352.4,294.8L352.4,294.8
		L352.4,294.8z"/>
	<path id="KP" d="M422.2,158.8c1.5,1.8,0.4,4-2.5,5.4c-3.1,1.4-3.1,2.5,0.3,5c2,1.5,2.3,2.1,1.1,2.1c-1.1,0.1-2.2,0.7-2.9,1.5
		c-1.4,1.6-1.4,1.6-5,0.6l0,0c-1.8-0.5-2.4-1.3-2.3-2.9c0.1-1.6-0.7-2.8-2.7-4l-3-1.8l2.8-3.6c1.5-2,3.3-3.4,3.9-3.2
		c0.6,0.2,2.7-0.9,4.4-2.6c1.9-1.7,3.8-4.3,8.9-1.3C425.1,157.6,421.5,157.9,422.2,158.8L422.2,158.8z"/>
	<path id="KR" d="M423.2,184.1c-1-2.6-2.4-5.1-4.1-7.3c-2.1-2.2-1.5-3.3,2.5-4.7c2.7-0.9,9.2,4.1,11.3,8.6c0.9,2.1,1.5,3.9,1.3,4.1
		c-0.2,0.2-2.3,1.3-4.5,2.5l-4.1,2.1L423.2,184.1L423.2,184.1L423.2,184.1z"/>
	<path id="KW" d="M114.4,213.1c-2.4-1.2-2.8-2.3-1.2-3.3c2-1.2,5.5,0.4,5.5,2.5C118.8,214.6,117.8,214.7,114.4,213.1L114.4,213.1
		L114.4,213.1z"/>
	<path id="KZ" d="M220.9,150.8c-2.2,0.3-4.4,0.2-6.5-0.4c-2-0.8-4.3-0.6-6.2,0.5c-2.1,1-4.5,1.3-6.8,0.9c-3.3-0.5-4.1-0.3-5,1.4
		c-1.2,1.7-2.7,3.1-4.5,4.1c-3.4,2.1-3.4,2.1-7.8,0.2c-2.9-1.5-5.5-3.5-7.7-6c-2.9-3.6-3.8-4.1-7.4-4.1c-2.6,0-7-1.4-12.7-4
		c-8.3-3.9-8.8-4-13.9-2.9c-2.9,0.6-5.5,1.4-5.8,1.9s0.4,3.6,1.5,7.1c0.7,2.1,1.3,4.4,1.7,6.6c-1.4-0.6-2.8-1.4-4-2.4
		c-3.1-2.2-4-2.5-5.9-1.5l-2.9,0.9c-0.9-0.7-1.8-1.3-2.8-1.7c-4.8-2.5-6.5-5.2-5-8c1.1-2.1,5.2-3.6,6.9-2.5c2.3,1.4,3-0.7,1.1-3.4
		c-3.1-4.3-7.3-5.7-12-3.8c-3.8,1.5-3.9,1.5-7.1-1.4c-1.8-1.6-4.3-3.6-5.6-4.5c-3.6-2.4-2.8-9.2,0.9-7.8c1.2,0.5,1.9-0.1,2.6-1.9
		c0.9-1.8,2.3-3.3,4.1-4.2c2.7-1.4,3.9-1.5,8.3-0.4c2.7,0.6,5.3,1.5,7.8,2.5c1.9,1,4.1,1.1,6.1,0.4c2.5-0.7,5.3-0.5,7.7,0.5
		c3.8,1.3,4.5,1.3,7.3-0.1l3.1-1.6l-2.6-2.2c-2.3-1.9-2.4-2.4-1.2-4.1c0.8-1,1.1-2.3,0.8-3.6c-0.4-1.3,0.1-1.9,2.2-2.4
		c1.5-0.3,6.9-1.7,11.8-3c10.9-2.9,11.9-3,15.3-0.5c2,1.3,4.3,2.2,6.7,2.6c2,0.3,3.9,0.9,5.7,1.6c1.1,0.6,2.7,0.4,4.6-0.6
		c2.6-1.3,3.1-1.3,6,0.6c1.8,1.1,3.2,2.5,3.2,3s2.2,1.9,4.9,3c3,1.2,5.3,3,6,4.4c0.8,1.8,1.9,2.4,4.4,2.4c7.5,0,11.6,0.8,16.6,3.4
		c2.9,1.5,5.7,2.5,6.3,2.1c1-0.4,2.1-0.3,3,0.1l2.1,0.7l-2.1,2.3c-1.5,1.6-2,3-1.5,4.8c0.6,2.6-1.6,4.5-3.7,3.2
		c-1.2-0.7-4.8,2.4-4.8,4.2c0,0.7-1.3,2-2.9,2.8c-4.2,2.1-4.3,2.8-1.5,6.6c1.1,1.3,1.8,3,1.9,4.7c0,0.8-0.2,1.5-0.6,2.2
		C227.7,152.1,224.3,151.2,220.9,150.8L220.9,150.8L220.9,150.8z"/>
	<path id="LA" d="M360.2,280.3c-0.8-0.5-1-1.7-0.6-3.4c0.5-2,0.1-3.4-1.9-5.7c-1.4-1.7-2.5-3.6-2.5-4.3c0-0.7-1.1-2.3-2.4-3.5
		c-2-1.9-2.8-2.1-4.5-1.1c-1,0.6-2.1,0.7-3.2,0.5c-0.6-0.4-1.9,0.1-2.9,1c-1.7,1.5-1.9,1.5-2.4,0c-0.4-1.3-0.4-2.6,0-3.9
		c0.4-1.5,0.1-2.6-0.9-3.2c-4-2.4-4.3-8.7-0.4-8.1c1.8,0.2,2.1-0.2,1.8-2.5c-0.4-3.6,1.3-3.5,3.3,0.2c0.8,1.6,2,2.9,3.4,4
		c1.3,1,2.2,2.4,2.6,4c0.4,1.8,1.5,3.3,3.1,4.3c3,1.6,14.4,16.4,14.4,18.6C367.2,279.2,362,281.5,360.2,280.3L360.2,280.3
		L360.2,280.3z"/>
	<path id="LK" d="M258,316.6c-1.1-1.8-1.8-10-0.9-12.1c0.9-2.3,0.9-2.3,3.5,1.5c3.1,4.5,4,7.4,3,9
		C262.5,316.4,258.5,317.6,258,316.6L258,316.6L258,316.6z"/>
	<path id="MO" d="M388.2,248.6c0,0.7-0.5,1.2-1.2,1.2c-0.6,0-1.2-0.6-1.2-1.2c0-0.7,0.5-1.2,1.2-1.2
		C387.7,247.4,388.2,247.9,388.2,248.6L388.2,248.6z"/>
	<path id="MM" d="M304.2,247.4l-3.1,1.5c0.9,2,2.4,3.6,4.3,4.6c3.4,1.4,9.3,11.9,8.3,14.9c-0.5,1.7,1.7,5.1,3.3,5.1
		c1.2-0.6,2.3-1.5,3.2-2.5c3.5-3.4,5.5-2.4,6.9,3.3c0.9,3.4,2.2,6.8,3.7,10c2.1,4.3,2.4,6.2,2,10c-0.4,3.8-0.4,4.3,0.5,2.2
		c2-4.6-1.1-20.3-5.8-29.3c-3.1-5.9-2.5-8.5,2.5-12.3c5.3-4,6.8-6.4,3.8-6.4c-0.8,0-2.6-2.2-4.1-4.9s-3.7-5.4-5-5.9
		c-3.2-1.4-3.9-4.3-2.1-8.7c1.3-3.2,1.4-4,0.1-6.4c-1.9-3.7-4.5-4.6-6.5-2.3c-1.2,1.3-2.6,2.5-4.1,3.5c-2,1.2-2.8,2.7-3.2,6.2
		c-0.3,2.6-1.1,5.2-2.2,7.6c-1,1.8-1.3,3.9-1,5.9C306.2,245.6,306,246.4,304.2,247.4L304.2,247.4L304.2,247.4z"/>
	<path id="MN" d="M313.8,153.7c-6.7-1.8-10.4-2.3-14.5-1.8c-5.2,0.5-5.7,0.4-8.5-2.6c-4.3-4.6-12-8.2-15.5-7.5
		c-4,0.9-7.2-1.1-11.2-7c-2.5-3.6-4.5-5.4-7.3-6.3c-2-0.7-4-1.6-5.7-2.9c-1.7-1.5-1.7-1.7,0.6-3.2c1.3-0.9,3.6-2.4,5-3.4
		c3.4-2.4,8.6-2.5,16.8-0.1c5.6,1.6,7.1,1.7,9.4,0.7c2.6-1.2,2.7-1.3,0.9-3.2c-1.6-1.7-1.6-2.2-0.4-3.4c1.2-1.2,2.2-1.2,6.4-0.1
		c3.5,1,6.8,2.3,10,4c3.8,2,5.9,2.6,8.6,2.1c2.4-0.4,6.5,0.3,11.9,1.9c9.7,2.9,12.4,3,17.4,1c4.5-1.9,15.4-0.6,14,1.6
		c-1.6,2.6,4,8,6.6,6.4c1.3-0.8,8.2,1.2,10.5,3.1c1.9,1.5,1.8,1.5-1.1,1c-2.2-0.4-3.5-0.1-4.4,1c-2.2,2.7-10.9,6.6-13.1,5.9
		c-1.2-0.3-2.4-0.1-3.4,0.6c-1.2,1-1.2,1.6,0,3.9c2.2,4.3-0.3,6.4-9.5,7.6c-2.8,0.4-5.6,1.1-8.2,2.1
		C325.5,156.7,324.5,156.7,313.8,153.7L313.8,153.7L313.8,153.7z"/>
	<path id="MY" d="M398.5,324.4c-0.7,0.7-1.3,1.5-1.7,2.4c-1.3,2.3-3.1,4.2-5.4,5.5c-2,1-3.7,2.6-4.9,4.5c-1,2.3-1.4,2.5-3.3,1.5
		c-1.4-0.7-2-0.9-2.8-0.2l1.9,1.9c1.9,1.5,2.4,1.5,6.8-0.1c2.4-0.9,4.8-1.6,7.3-2c4.5-0.4,6.1-1.8,8.5-7.1c2.5-5.6,5.1-7.3,8.4-5.5
		c1.6,0.9,2.3,0.6,3.5-1.2c1.5-2.1,1.3-2.4-1.7-5.5c-1.8-1.8-3.7-3.3-4.4-3.3c-1.4,0-5.7,5.6-6,7.8c-0.1,0.8-0.2,2.1-1.9,1.2
		c-0.5,2-1.3,2.8-2.6,1.2L398.5,324.4z M340.6,315.6c-0.1,0-0.2,0.1-0.2,0.2c0.3,0.9,0.6,1.9,1,3.1c2.3,8.5,4.8,12.9,9.4,16.3
		c4,3,6.5,3.9,6.5,2.2c0-2-4.3-14.8-5.7-16.9c-1-1.6-2-2.1-3.4-1.7c-1.2,0.4-2.9-0.1-4.6-1.4c-0.4-0.3-0.8-0.6-1.1-1
		C342.5,316.5,341.2,315.5,340.6,315.6z"/>
	<path id="NP" d="M275.9,224.6c-8.1-2.3-16.1-5.1-23.9-8.4c-4.1-2-4.7-2.7-4.5-4.9c0.4-3.7,5.7-4,10.7-0.6c4.4,3,9.8,4.8,12.3,4
		c1.9-0.6,9.3,4.1,10.3,6.4c0.5,1.4-1.1,4.2-2.4,4C277.5,225,276.7,224.9,275.9,224.6L275.9,224.6L275.9,224.6z"/>
	<path id="OM" d="M141.1,264.2c-0.8-1.4-1.4-2.9-1.8-4.4c1.8-0.9,3.6-1.8,5.5-2.5c4.1-1.7,5.5-3,6.8-6c1.3-3,1.5-4.3,0.6-5.9
		c-0.6-1.2-1.6-2.1-2.1-2.1s-0.2-1.5,0.7-3.2c2.9-5.6,3.3-5.9,6.8-4.1c4.2,2.1,10.6,7.4,10.6,8.6c0,0.5-1.5,2.7-3.2,4.7
		c-2.2,2.7-4.3,5.5-6.1,8.4c-3.3,5.4-7.9,9.1-12.4,9.9C143.4,268.3,143.1,268,141.1,264.2L141.1,264.2z"/>
	<path id="PH" d="M440.2,314.9c-1.9-4.4-2.2-4.6-5.1-4c-2.9,0.6-3,0.6-1.9-1.5c0.9-1.7,1.7-2,3.9-1.6c2.2,0.4,3.4,0,5.4-1.9
		c1.5-1.4,2.7-3.3,2.7-4.3c0-2.5,3.7,5.9,4.6,10.5c0.6,3.4,0.6,3.6-1,2.3c-2.3-1.9-4.6,0.1-2.6,2.4c0.8,0.9,0.9,1.5,0.2,1.5
		c-0.9,0.1-1.8,0.3-2.6,0.6C442.6,319.4,441.8,318.3,440.2,314.9L440.2,314.9z M411.2,305.6c0-0.4,2-3,4.5-5.8
		c3.6-4,4.5-4.6,4.5-2.9c0,1.1-1.5,3.7-3.3,5.8C413.8,306.1,411.2,307.4,411.2,305.6z M433,302.9c-0.4-1-0.3-2.2,0.2-3.2
		c0.7-1.3,1-1.3,2-0.1s0.8,1.8-0.2,3.2C433.6,304.5,433.5,304.5,433,302.9z M439.6,298.7c-0.4-1-0.9-2.2-1.1-2.6
		c-0.1-0.2-0.1-0.4,0-0.6c0.1-0.2,0.3-0.3,0.5-0.2c1,0,2.4,4.1,1.7,4.8C440.5,300.4,440,299.8,439.6,298.7L439.6,298.7z
		 M429.5,296.1c-0.6-0.7-0.8-1.7-0.3-2.6c0.5-0.8,1.4-1.2,2.4-1c1.3,0.3,1.4,0.7,0.3,2.7S430.4,297.2,429.5,296.1L429.5,296.1z
		 M441.4,292.7c-1.1-1.5-1.9-2.8-1.7-3c0.8-0.8,3.6,1,5.1,3.3C447,296.4,444,296.2,441.4,292.7z M424.9,288.8
		c-0.8-0.7-1.4-1.7-1.6-2.8c0-0.7,1-0.2,2.2,1c1.2,1.2,1.9,2.5,1.6,2.8C426.8,290.1,425.8,289.7,424.9,288.8L424.9,288.8z
		 M435,285.2c-1.3-0.6-2.8-0.8-4.2-0.4c-1.9,0.5-3.3-0.3-6.9-4c-5.1-5.3-6.1-7.5-4.6-10.3c0.7-1.6,1.1-3.3,1.1-5
		c0-5.4,3.6-5.2,6.3,0.4c1.5,3.1,1.5,3.8,0.1,7.1c-1.5,3.6-1.5,3.7,1.2,6.5c1.9,2,3.4,2.7,4.9,2.3c1.2-0.3,2.5,0.1,3.4,1
		C438,284.9,437.1,286.5,435,285.2L435,285.2z"/>
	<path id="PK" d="M199.9,235.8c-0.8-0.7-1.3-1.5-1.6-2.5c0-0.5-1.4-1.6-3.1-2.5c-2.5-1.3-3.6-1.4-5.7-0.5
		c-3.4,1.6-12.9,0.4-13.7-1.7c-0.3-0.9,0.3-2.5,1.5-3.7c2.5-2.6,1.7-5.6-2.4-9.4c-1-0.8-1.9-1.9-2.6-3c0-0.3,3-0.6,6.8-0.6
		c7.2,0,11.6-1.9,12.8-5.5c0.7-2.1,5.6-5.1,7.6-4.7c0.7,0.1,2-2,3.1-4.7c1.1-2.7,2.8-5.7,3.8-6.5c1.7-1.3,1.8-1.9,0.8-4.7
		c-1.5-4-0.2-5.8,4.8-6.8c1.9-0.4,4.1-0.9,4.7-1.1c0.6-0.2,3.8,1.2,7.1,3.2l5.9,3.7l-2.4,1.9c-1.5,1.3-3.6,1.8-5.5,1.3
		c-4.2-0.8-5.8,1.1-4.4,5.2c0.7,1.9,2.2,3.5,4,4.3c2.5,1,2.7,1.5,1.9,3.1c-0.6,1.1-0.8,2.3-0.4,2.8c1.1,1.8-7.8,12.9-11.2,14.1
		c-2,0.8-3.7,2.2-4.8,4c-1.5,2.8-1.4,3,2.5,6.9c3.6,3.6,3.8,4.1,2.4,5.5c-1,0.9-2.4,1.3-3.8,1c-1.3-0.4-2.7,0-3.6,1
		C202.6,237.8,201.8,237.8,199.9,235.8L199.9,235.8L199.9,235.8z"/>
	<path id="QA" d="M132.1,231.8c-0.3-0.8-0.2-1.7,0.2-2.5c0.6-1.4,1.1-1.3,1.9,0c1.2,1.9,1.3,2.7,0.1,3.4
		C133.9,233,131.9,234.2,132.1,231.8L132.1,231.8L132.1,231.8z"/>
	<path id="RU" d="M183.2,5.6c-6.7-0.5-7.5-1-5.5-3s6.5-2.1,10.8-0.4c2.4,0.9,2.7,1.4,1.6,2.6c-0.7,0.8-1.5,1.4-1.9,1.3
		C188.1,6.1,185.8,5.8,183.2,5.6L183.2,5.6L183.2,5.6z M191.4,6.2c0.5-1.5,7.6-1.8,8-0.3c0.1,0.5-1.7,1.1-4.1,1.3
		C192.1,7.4,191.1,7.1,191.4,6.2L191.4,6.2L191.4,6.2z M204.6,9.8c0.5-3.1,2.1-3.6,7.7-2.3l5.4,1.3l-5,0.3c-2.8,0.2-5.4,0.7-6,1.2
		C205.4,11.8,204.4,11.5,204.6,9.8L204.6,9.8L204.6,9.8z M363.8,19.3c-0.4-0.6,0.8-1,2.9-1c1.9,0,3.8,0.5,4.1,1s-0.8,1-2.9,1
		C366,20.3,364,19.9,363.8,19.3L363.8,19.3z M357,19.7c-1.3-1.3-0.7-2.4,1.4-2.4c1.2,0,1.9,0.5,1.7,1.2
		C359.5,20,357.9,20.6,357,19.7L357,19.7z M344.9,19.9c-1-2.7,0.1-3.4,5.4-3.2c4,0.2,5,0.6,5,2c0,0.5-0.2,1-0.6,1.3
		c-0.4,0.3-0.8,0.5-1.3,0.5c-1.6,0.1-3.3,0.3-4.9,0.6C346.2,21.4,345.4,21.1,344.9,19.9L344.9,19.9L344.9,19.9z M96.8,34.6
		c-5.1-2-5-1.9-3.5-3.7c0.7-0.8,0.9-1.5,0.4-1.6s0-0.7,1.1-1.5c0.9-0.5,1.6-1.3,2-2.2c0-0.4,1.5-2.4,3.3-4.4
		c3.2-3.5,3.6-3.7,11.5-4.2c4.5-0.3,10-0.8,12.3-1.2c2.3-0.4,4.4-0.2,4.8,0.3c0.7,1.1-0.6,1.6-8.4,3s-12.3,3.5-15.4,7.2
		s-3.3,6.2-0.4,8.3l2.2,1.6h-3C101.3,35.9,99,35.4,96.8,34.6L96.8,34.6L96.8,34.6z M453,134.6c-1.7-2.5-3.2-5.1-4.5-7.8
		c-2.8-4.8-6-9.4-9.7-13.5c-4.1-4.6-6.2-7.6-5.4-7.9c0.8-0.3,2.2,0.8,3.3,2.3c2.8,3.7,6.1,6.8,11.5,10.8c4.4,3.3,6.6,6.3,3.8,5.2
		c-3.3-1.3-2.5,1.7,1.8,6.5c1.7,1.7,3.2,3.6,4.5,5.6C458.2,137.1,454.4,136.2,453,134.6z M2.8,99.6c-0.8,0.1-1.6,0-2.3-0.3l2.2-1.8
		c0.6-0.5,1.4-0.9,2.2-1.1c0.8-0.2,1.4,0.5,2,0.6c0.5,0,1,0,1.5,0.2c0.4,0.3,0.2,0.5,0.2,1.1c0,1,0.2,1.3-0.8,1.4
		C6.7,99.8,7.4,99.5,2.8,99.6L2.8,99.6z M45.8,108.8c2.8-0.5,3.8-0.2,6.5,2.5c4.1,4.1,7.1,5.6,14.2,7c4.5,0.9,6.2,1.8,7.8,4.1
		c2.2,3,2,3.9-1.4,7.7c-1.1,1.2-1.7,2.2-1.2,2.2s0.2,0.7-0.5,1.5c-0.7,0.8-1,1.8-0.7,2.1c0.3,0.3,0,1.8-0.8,3.3l-1.4,2.7l8.2,4.5
		l3-0.2c1,0,3.8,0,5.3,0.9c1.9,1.2,2,0.8,3.4,0.8c1.1-0.7,4.3,1.2,15.4,6.1c3.2,1.5,5.1,2.1,6,2l2.2-0.6c-1.9-2.5-4.5-6.1-4.5-6.7
		c0-0.6-1-2-2.1-2.8c-1.8-1.2-2-1.8-1-3.6c1.1-1.7,2.5-3.2,4.2-4.3l3-2.2l-2.5-2.3c-1.4-1.3-4.1-3.5-6-5c-1.9-1.5-3.5-3.6-3.5-4.6
		c0-3.2,1.9-6,3.8-5.4c1.1,0.4,2-0.2,2.7-1.7c1-1.7,2.5-3.1,4.2-4.1c2.9-1.7,3.8-1.8,8.5-0.7c2.7,0.6,5.4,1.5,7.9,2.6
		c1.9,1,4.1,1.1,6.1,0.4c2.5-0.7,5.3-0.5,7.7,0.5c3.6,1.3,4.6,1.3,6.8,0.1l2.6-1.4l-2.7-1.8c-2.2-1.4-2.5-2-1.5-3.2
		c0.8-1.2,1.2-2.6,1.3-4.1c-0.2-1.6,0.9-3.1,2.5-3.3c9.7-2.8,21.9-5.8,23.4-5.8c1.6,0.3,3.2,0.9,4.5,1.9c2,1.3,4.3,2.2,6.7,2.6
		c2,0.3,3.9,0.9,5.7,1.6c1.2,0.6,2.7,0.4,4.6-0.6c2.7-1.4,3.1-1.3,6.5,1c2,1.4,3.7,2.9,3.7,3.3s2.1,1.6,4.6,2.6
		c2.8,1.1,5,2.7,5.7,4.1c0.8,1.8,1.9,2.4,4.2,2.4c7.4,0,11.4,0.8,16.3,3.3c2.9,1.5,5.9,2.4,6.8,2.1c1.4-0.2,2.9,0.2,4.1,1
		c2.2,1.5,2.8,1.5,5.3,0.2c1.5-0.8,2.9-1.8,4.1-3c2.7-3.3,8.4-3.8,16.3-1.4c4.7,1.4,8.4,1.9,10.2,1.5c2.7-0.7,2.7-0.8,1-2.7
		c-1.7-1.9-1.7-2.1,0.1-3.9c1.8-1.8,2.3-1.8,6.9-0.6c3.5,1,6.8,2.3,10,4c3.8,2,5.9,2.6,8.6,2.1c2.4-0.4,6.5,0.3,11.9,1.9
		c9.7,2.9,12.4,3,17.3,1c3.5-1.5,10-1.2,13.6,0.5c0.8,0.4,2.8,0.2,4.5-0.5c2.6-1.1,3-1.8,3-5.1c0-2.3-0.7-4.6-1.8-6.6
		c-1.7-2.6-1.7-2.7,0-3.7c3.9-2.1,9.1-2.3,14.6-0.7c4.4,1.3,6.5,2.7,10.3,6.9c6.7,7.3,11,10.4,16.8,11.7c2.8,0.6,5.6,1.8,8,3.4
		c4.7,3.6,6.9,3.9,10.6,1.7c3.7-2.2,7.6-1.3,6.5,1.6c-0.2,1.4,0.2,2.8,1,4c1.5,2.3,1.4,2.5-1.8,5.8c-3.2,3.3-3.3,3.5-1.8,5.7
		c0.9,1.2,5.5,5.6,4.7,6.2c1,5.5,1.5-1.9,3-1.3c3.9,1.5,6.5-0.6,8.9-7.1c3.4-9.4,2.6-23.7-1.5-25.9c-1.1-0.6-2.8-2.7-3.9-4.8
		c-2.6-5.1-10.9-11.5-13.6-10.6c-3.5,1.2-8.2,0.6-12.4-1.5c-3.9-2-4.1-2.2-2.7-4.3c1.2-2.2,2.1-4.5,2.6-6.9c0.6-2.6,1.9-5,3.6-7
		c2.2-2,3.5-2.3,10.7-2.4c3.6,0.1,7.2-0.2,10.8-0.8c2.2-0.4,4.5-0.1,6.5,0.9c2.2,0.9,5,1.4,6.6,1c2.4-0.5,2.7-1,2.2-3.3
		c-0.2-1.9,0-3.8,0.6-5.6c1-2.7,1.3-2.8,5.3-2.2c2.3,0.4,4.5,1.1,6.6,2.2c3,1.9,5.5,1.1,4.7-1.6c-0.9-2.9,2.7-4.6,4.7-2.3
		c3.1,3.5,3.6,5.6,2.2,8.2c-0.8,1.5-1.3,3.1-1.4,4.8c-0.2,1.8-0.7,3.6-1.5,5.2c-1.4,2.8-1.4,3,3,8.8c2.4,3.2,5.2,6.1,8.2,8.7
		c2.6,2,5.1,4.3,7.4,6.7c2.9,3.2,4.1,3.9,5.8,3.3c1.7-0.6,2-1.2,1.5-2.4c-0.5-1.4-0.8-2.8-1-4.2c-0.2-1.4-0.5-2.8-1-4.2
		c-0.3-0.4-0.3-0.9-0.1-1.4c0.2-0.5,0.6-0.8,1-1c1.4-0.5,1.4-0.9,0.1-3.3c-0.9-1.7-1.7-3.5-2.4-5.3c-0.6-1.6-2.6-3.4-5.3-4.7
		c-5-2.4-8.5-7.3-6.5-9c1.3-0.8,2.7-1.5,4.2-1.8c2-0.5,3.9-1.2,5.7-2.1c2.4-1.2,3.2-1.2,5.6,0.1c2.6,1.4,3,1.3,5-0.5
		c1-0.8,1.7-1.8,2.1-2.9c0-1.5,6.1-4.2,8.6-3.7c2.3,0.4,5.3-0.7,4.4-1.6c-0.3-0.3-4.5-2-9.5-4c-9.1-3.6-10.8-5.4-4.6-4.9
		c3.3,0.2,3.4,0.2,1.6-1.7c-2.5-2.8-0.1-3.5,5.5-1.6c2.4,0.8,4.7,1.3,5.2,1c0.7-0.2,1.5-0.1,2.1,0.4c2.3,1.8,8.8,3.4,11.3,2.8
		l2.5-0.6l-3.3-2.8c-5.2-4.6-7.5-5.4-10.9-4.2c-2.5,0.9-3.8,0.7-7.7-1.3c-3.4-1.5-7-2.6-10.7-3.1c-3.6-0.5-7.1-1.3-10.5-2.5
		c-4.8-1.8-18.8-4.4-30.5-5.6c-7-0.7-7-0.7-5.2,1.3c2.5,2.8,0.7,3.5-4,1.6c-2.9-1.2-7.2-1.7-16.9-1.8c-10.5-0.1-13.7-0.5-16.4-2
		c-2.7-1.5-6.3-1.9-17.6-2.2c-11.9-0.3-15-0.7-19.1-2.6c-2.7-1.2-5.5-2-8.4-2.4c-1.9-0.1-6.4-0.8-9.9-1.4
		c-7.7-1.4-13.9-0.6-12.1,1.5c0.9,1.1,0.5,1.7-1.9,2.9c-2.4,1.2-4,1.4-8.3,0.5c-4.3-0.9-6-0.7-8.9,0.6c-3.5,1.6-3.7,1.5-8.8-1.2
		c-2.9-1.6-7.1-3.9-9.4-5.1c-4.6-2.5-12.5-3-18.9-1.2c-2.8,0.8-5.1,0.7-9.6-0.5c-4.3-1.1-6.8-1.3-9.2-0.6c-2.4,0.7-4.7,0.6-8.3-0.5
		c-4.4-1.3-5.6-1.3-11,0.1c-8.2,2.1-9.7,0.5-2.9-3.3c2.8-1.6,5.1-3.1,5.1-3.5s-1.2-1.5-2.7-2.5c-2.2-1.5-4.7-1.9-12.2-1.9
		c-7,0-10.3-0.5-12.7-1.8c-4.6-2.5-8-2.1-12.4,1.3c-3.4,2.7-4.4,3-8.2,2.4c-3.8-0.6-20.3,1.7-21.6,3c-0.3,0.3,0.1,1.1,0.7,1.9
		c1.7,2-0.2,3-6,3.1c-2.6,0-5.1,0.7-7.4,2c-7.3,5.2-10,6.4-13.3,5.8c-2.2-0.4-3.2-0.2-3.2,0.6c0,2.3,2.1,5,5,6.5
		c3.7,1.9,5.2,4.7,4.4,8c-0.7,2.8-5.7,6-8.1,5.1c-1.2-0.5-1.1-1.1,0.7-3.6c2.4-3.4,2.6-2.9-4.8-12.7c-5.7-7.6-7.5-8.8-11.6-7.7
		c-7.1,1.8-6.6,7.6,0.9,11.3c2.4,1.2,4.4,2.6,4.4,3.1c0,1.6-3.6,3.1-4.7,2c-1.6-1.6-28.7-8-29.7-6.9c-0.6,0.6,0.2,1.2,2,1.6
		c1.6,0.4,3.5,0.8,4.2,1.1c1.7,0.5,0.9,3-0.9,2.6c-0.7-0.2-4.4,0.2-8.2,0.8c-5.3,0.9-7.2,0.9-8.3-0.1c-2-1.7-7.5-0.5-14.5,3.2
		c-4.8,2.5-6.1,2.8-7.9,1.9c-1.2-0.6-2-1.7-1.9-2.3c0.1-0.6-1-1.4-2.6-1.5c-3-0.3-3-0.5-0.9,4.6c0.5,1.3,0.1,1.6-6.5,3.3
		c-3.1,0.8-4.2,1.5-3.8,2.5c0.8,2.2-2.7,3.7-5.9,2.5c-3.9-1.5-5.4-1.1-2.3,0.6c3.4,1.8,3.4,2.2,0.2,3.4c-3.2,1.2-9.8-1.9-11.9-5.8
		c-1-1.7-2.4-3.1-4.2-4c-2-0.9-2.4-1.5-1.6-2.4c0.8-0.9,2.6-0.8,6.9,0.1c3.2,0.7,7.5,1.5,9.6,1.8c4.5,0.7,9.8-1.2,9-3.3
		c-0.7-1.9-19.1-7.7-22.3-7.1c-1.6,0.3-2.7-1.6-8.3-4l-4.4,0.5L23,38.1l-1.5,0.3c-0.5,1.1-0.1,2.4,0.8,3.1c1.1,0.4,2.4,0.6,3.3,1.5
		c0,1.4-0.6,2.7-1.6,3.7c0.6,0.9,1.5,1.7,2.6,2.1c0.6,1.1,0.9,2.4,0.7,3.6l-0.7,1.4l1.9,2l1.5,1.8l-0.4,2.1c1.5,0.9,2.6,1.2,3.8,2
		l0.6,2.6l-9.2,7.6l-1.6,0.7l0.7,1.3c2.3,0.5,4.6,0.4,6.9,1.6c-2.2,1-0.3-1.1-6.2,0.9l0.4,0.9l-1.3,2.3l-0.4,2.2l1.5,2.1l-0.9,1.3
		c0.8,0.9,0.3,2.5,2,3.5l1.1,2.1c1.2,0.7,2.6,1.2,4,1.5l4.6,0.6l1,1.9l0.1,2.6c0.9,1.2,2,2.3,3.2,3.2l2.9,1.4l0.6,2.1
		c-1.1,0.6-2.3,1-3.5,1.1l0.7,2.7c1.6,2,0.2,1.5,1.2,2.1l1.3-1.2H45.8z"/>
	<path id="SA" d="M97.8,265.2c-1.4-1.7-2.5-3.4-2.5-3.9s-1.8-2.8-4-5.1c-2.7-2.7-4.6-6.1-5.6-9.8c-0.9-3.1-2.2-6-4-8.6
		c-9.2-11.5-11.9-15.5-13.4-19.9c-1.7-5.3-1.6-7.4,0.4-5.7s7.2-2.4,8.5-6.9c1.3-4.5,4-6.1,8.4-4.9c3.6,1,10.9,5.3,12.7,7.4
		c2.1,2.5,8.6,5.5,11.7,5.4c7.3-0.3,14.2,5.3,16.3,13.3c0.7,2.5,1.8,4.1,3.4,4.7c1.6,0.8,2.9,2.1,3.7,3.7c1.6,3.4,7.3,7.3,10.4,7.3
		c1.7,0.1,3.3,0.5,4.8,1.2c8.3,3.8-0.2,14.2-12.5,15.4c-5.1,0.5-12.2,3.6-15.3,6.7c-2.4,2.4-2.5,2.4-8.7,0.9
		c-5.7-1.4-6.5-1.4-9.1,0.1C100.3,268.2,100.2,268.1,97.8,265.2L97.8,265.2L97.8,265.2z"/>
	<path id="SG" d="M358.8,339.6c0,0.7-0.5,1.2-1.2,1.2c-0.6,0-1.2-0.6-1.2-1.2c0-0.7,0.5-1.2,1.2-1.2
		C358.2,338.4,358.8,338.9,358.8,339.6L358.8,339.6z"/>
	<path id="SY" d="M68.1,197c0.3-0.8,1-2.5,1.4-3.3c1.8-3.4,1.4-6.3-0.9-6.3c-2.3,0-1.6-3.7,0.9-6.2c1.8-1.8,3.5-2.3,7.8-2.4
		c3.2-0.1,6.4-0.4,9.5-0.9c3.4-0.7,3.8-0.6,2.8,0.6c-1,1.9-1.6,4-1.9,6.2c-0.4,2.7-1,4.8-1.4,4.8s-3.8,2-7.6,4.5
		c-4.7,3.1-7.5,4.3-9,4L68.1,197z"/>
	<path id="TH" d="M334.6,252.4l-3.8,2.7c-5,3.5-5.5,6.1-2.4,12c5.2,10.1,7.9,25.3,5.3,30.3c-1,2-1.7,4.1-2.1,6.3
		c-0.5,2.8,0,3.5,3.7,6.2c1.3,0.9,2.5,2,3.5,3.3l1,1c0.7,0.5,1.4,0.9,2.2,1.2h0.1c0.1,0,0.2,0,0.3,0.1c0.6,0.3,1.2,0.8,1.7,1.3
		c0.7,0.9,1.8,1.4,2.9,1.4c1.1,0,0.2-1.3-2.5-3.8c-2.3-2-4.5-4.8-4.9-6.2c-0.7-1.9-1.6-3.6-2.8-5.2c-1.8-2.4-1.9-3.2-0.8-7.3
		c0.6-2.6,0.8-5.3,0.5-8c-0.8-4.3,1-5.4,4.4-2.7c6.7,5.4,9.7,5.8,7.1,1c-2.1-4,3.7-9.2,7.9-6.9c1.7,0.9,2,0.6,2.5-2.1
		c0.5-2.4,0.1-3.7-1.9-6c-1.4-1.6-2.5-3.6-2.5-4.2c-0.3-1.2-1-2.2-1.9-3c-1.5-1.4-2.3-1.5-4-0.6c-1.2,0.6-2.6,0.9-3.2,0.5
		c-0.6-0.4-1.9,0.1-2.9,1c-1.7,1.6-1.9,1.6-3-0.4c-0.6-1.4-0.8-3.1-0.5-4.6c0.4-1.5,0.2-2.5-0.5-2.5c-0.7,0-1.7-1.1-2.4-2.5
		L334.6,252.4L334.6,252.4L334.6,252.4z"/>
	<path id="TJ" d="M191.4,175c0.6-0.9,0.8-2.1,0.2-2.5c-0.9-0.8-1.6-1.7-2.1-2.8c-1-1.9-0.8-2.6,1.4-4.7c1.4-1.4,2.5-3,2.5-3.6
		s1-1,2.2-1c2,0,2,0.1,0.6,1.8c-2.3,2.6-0.4,5.6,3,4.8c1.8-0.3,3.7-0.2,5.4,0.5c2,0.8,3.2,0.9,4.1,0.1c1.5-1.2,6.2,2.3,7.1,5.4
		c0.5,1.5,0.1,1.9-1.6,1.9c-1.7,0.1-3.4,0.4-5,0.8c-2.1,0.6-2.8,0.4-2.8-0.8c0-0.8-1.2-2.3-2.6-3.2c-2.6-1.7-2.7-1.7-4.8,0.8
		c-2.1,2.5-5.6,4.9-7.1,4.7C190.1,176.9,191.4,175,191.4,175L191.4,175L191.4,175z"/>
	<path id="TM" d="M127.4,153.5l2.7-0.8c1.7-0.5,3.6,0.3,6.7,2.5c5.2,3.7,6.5,3.8,9.5,0.6c3-3.2,6.9-3.2,11.5,0.5
		c2.1,1.7,4.6,3,5.7,3c1.1,0,2.7,1.4,3.9,3.4c1.5,2.6,3.9,4.2,10.2,7.1l7.9,4.3l-3,0.8c-1.9,0.7-3.4,2-4.3,3.8
		c-1.1,1.7-2.6,3.1-4.5,4c-4,1.9-3.6,1.8-5,0.9l0,0c-0.9-0.8-1.7-1.8-2.3-2.9c-1.2-2.3-5.9-4.7-14.9-7.7c-5-1.7-5.3-1.7-9.7,0.3
		l-4.5,2l-0.6-2.7c-0.4-1.7-1.3-3.3-2.4-4.7c-1.1-1.4-2.2-2.8-3-4.4c-1.1-2.1-1-2.3,0.4-1.8c1.2,0.4,2.5,0.2,3.6-0.4
		c1.9-1,1.9-1.1-0.7-4.5c-2.2-2.8-2.9-3.3-4.5-2.4c-1.3,0.7-1.9,0.7-1.9,0L127.4,153.5z"/>
	<path id="TR" d="M51.8,179.8c-2.3-1.7-6.2-1.9-7.1-0.4c-0.7,1.2-5.8,0.4-8.6-1.4c-2-1.2-3.9-4.9-3.9-7.7c-0.2-1.4-1-2.7-2.2-3.5
		c-1.9-1.3-2-1.7-0.8-2.6c1.2-0.6,2.5-0.7,3.8-0.4c1.6,0.4,3.1-0.3,4.9-2.1c1.6-1.7,3.9-2.7,6.2-2.8c2.3-0.2,4.4-0.9,6.4-2
		c3.4-2.3,11-1.5,17.1,1.7c5.7,3,14.4,3,16.3,0.1c1.2-1.8,1.8-2,4.4-1c1.6,0.6,3.2,1.9,3.5,2.9c0.7,1.4,1.7,2.7,3,3.7
		c1.4,1.1,2,2.2,1.5,2.6c-0.7,0.4-0.5,1.4,0.4,2.8c0.9,1.4,1.6,2.9,2.1,4.5c0.7,2.2,0.5,2.3-2.7,1.7c-2.6-0.3-5.3-0.1-7.8,0.6
		c-3.5,0.8-7.2,1.3-10.8,1.4c-4.8,0.1-6.7,0.6-7.6,1.9c-1.1,1.5-1.4,1.6-1.9,0.2c-0.7-1.9-4.3-1.9-7.6,0
		C57,181.7,54.2,181.7,51.8,179.8L51.8,179.8z M28.5,158.5c0.2-1.5,1.1-2.8,2-3c1.5-0.3,7.2,2.7,6.5,3.4c-1.5,0.5-3,1-4.6,1.3
		C28.2,161.1,28.2,161.1,28.5,158.5L28.5,158.5z"/>
	<path id="TW" d="M416.6,243.6c-0.9-0.9-1.7-1.9-2.3-3c-1-1.9-0.9-2.8,0.6-5.4c2.3-4,3.9-4.5,4.7-1.5
		C420.5,236.7,418.1,244.5,416.6,243.6L416.6,243.6L416.6,243.6z"/>
	<path id="UZ" d="M189.8,176.7c-1,0.1-3.2-2.7-3.9-3.5c-0.7-0.8-4.8-2.9-8.9-4.7c-5.8-2.6-7.8-4-8.7-6.2c-0.8-2-2.5-3.4-4.6-3.8
		c-2.4-0.8-4.6-2-6.5-3.5c-3.9-3.3-7.9-3.3-10.9-0.1c-2.1,2.3-6.8,3.7-5.6,1.7c0.3-0.5-0.4-3.7-1.4-7.2s-2-6.5-2-6.6
		c1.7-0.6,3.5-1,5.3-1.3c5.1-1.1,5.6-1,13.9,2.9c5.6,2.6,10,4,12.6,4c3.5,0,4.4,0.5,7.3,4.1c2.1,2.5,4.7,4.6,7.7,6
		c4.4,1.9,4.5,1.9,7.7-0.1c2.8-1.7,3.5-1.8,5.1-0.7c1.1,0.7,2.3,1,3.6,0.9c1.2-0.2,2.4-0.1,3.5,0.5c1.6,0.9,1.5,1.1-0.9,2.7
		c-1.9,1.3-3.1,1.4-4.4,0.7c-1-0.6-1.6-1.4-1.3-1.8c0.3-0.4-0.5-1-1.7-1.1c-1.5-0.2-2.9,0.6-3.4,2c-0.8,1.5-1.9,2.8-3.2,3.9
		c-1.9,1.5-2,1.7-0.2,5c1,1.9-0.5-1.2,2,3.3L189.8,176.7z"/>
	<path id="VN" d="M360.1,305.1c-0.2-1.5-0.3-3-0.3-4.5c-0.1-3.5,0.2-4.4,1.9-4.9c6.6-2,9.7-7.4,7.5-13c-0.6-1.7-1.1-3.6-1.3-5.4
		c-0.1-2.9-11.9-18.6-14.7-19.5c-1-0.3-2.1-1.9-2.5-3.6c-0.5-1.8-1.5-3.3-2.9-4.5c-1.4-1-2.5-2.3-3.3-3.8c-1-2.2-0.7-2.4,4.5-4
		c5-1.5,5.7-1.6,7.9-0.2c1.3,0.9,2.4,2,2.4,2.5s1.1,1.5,2.4,2.1l2.4,1.1l-2.8,2.4c-5.7,4.8-4.3,10.8,4.1,17.5
		c4.3,3.4,9.2,12,10.3,18.3c1,5.4-0.8,9-5.5,11.1c-2.1,1-4.2,2.6-4.5,3.5C365.2,301.9,360.5,305.9,360.1,305.1L360.1,305.1
		L360.1,305.1z"/>
	<path id="YE" d="M104.3,283.6c-1.4-3-2.3-6.2-2.7-9.5c-0.7-5.5-0.6-5.8,1.9-6.9c2-0.9,3.9-0.9,8.9,0.4c6.3,1.5,6.3,1.5,8.5-0.9
		c2.4-2.6,8.8-5.7,13.8-6.7c2.8-0.6,3.2-0.3,5.5,4.1l2.5,4.8l-4.1,4.1c-2.6,2.5-5.7,4.5-9,5.9c-2.7,1-7.4,3.1-10.4,4.5
		c-2.9,1.5-6,2.6-9.2,3.4C106.6,287.4,106.2,287.2,104.3,283.6L104.3,283.6L104.3,283.6z"/>
</g>
</svg>
