<?xml version="1.0" encoding="utf-8"?>
<!-- Generator: Adobe Illustrator 19.2.1, SVG Export Plug-In . SVG Version: 6.00 Build 0)  -->
<svg version="1.1" id="Шар_1" xmlns="http://www.w3.org/2000/svg" xmlns:xlink="http://www.w3.org/1999/xlink" x="0px" y="0px"
	 viewBox="0 0 393 197" style="enable-background:new 0 0 393 197;" xml:space="preserve">
<style type="text/css">
	.st0{stroke:#FFFFFF;stroke-width:0.8;}
	.st1{stroke:#FFFFFF;stroke-width:0.5;}
	.st2{stroke:#FFFFFF;stroke-width:0.4;}
	.st3{stroke:#FFFFFF;stroke-width:0.6;}
	.st4{stroke:#FFFFFF;stroke-width:0.3;}
	.st5{stroke:#FFFFFF;stroke-width:0.7;}
</style>
<title>Europe</title>
<desc>Created with Sketch.</desc>
<g id="Europe">
	<path id="AD" d="M186.8,159.7c0.5,0,1.1,0,1.6,0.5c-0.5,0-1.1,0.5-1.1,0.5C187.3,160.2,187.3,160.2,186.8,159.7"/>
	<path id="AL" class="st0" d="M253.1,168.7c0.5-0.5,0.9-1.2,0.6-1.9c-0.2-0.6,0.1-1.2-0.1-1.8c0-0.6,0.9-0.8,0.4-1.4
		c-0.1-0.4-0.7-0.3-0.9-0.4c-0.1-0.6,0-1.3,0.2-1.9c0.2-0.5,0.6-1.1,1-1.5c0.4,0.2,0.8,0.9,1.3,0.3c0.6-0.3,0.9,0.4,0.7,0.9
		c0.3,0.4,1.2,0.2,1.2,0.9c0.3,0.7,0.4,1.6,0.1,2.3c-0.8,0.3,0.6,1.2-0.2,1.4c-0.1,0.8,1,0.8,1.1,1.5c0.1,0.5,0.6,0.6,0.9,0.7
		c0.4,0.6,0.2,1.5-0.5,1.8c-0.5,0.4-0.4,1.2-0.8,1.7c-0.6,0.3-0.8,0.9-0.9,1.4c0.1,0.7-0.7,1.1-1.1,0.5c-0.4-0.5-0.3-1.2-0.7-1.6
		c-0.6-0.6-1.4-1-2-1.5c-0.2-0.5,0.4,0,0.4,0.2C254.1,169.6,253.5,169,253.1,168.7L253.1,168.7L253.1,168.7L253.1,168.7L253.1,168.7
		z"/>
	<path id="AT" class="st1" d="M217,139c-0.6-1.3,1.3-2,1.9-0.9c0.2,1,1.2,1,1.1-0.1c0.2-0.9,1.1,0.1,1.6-0.5c0.3,1,2,0.1,2.8-0.1
		c0.7-0.6,2,0.2,2.3-0.5c0.8,0.1,1.9-0.3,2.2,0.8c0.9,0.3,0.4-1,0.3-1.3c-0.1-0.7-1.2-1.6,0-2c1.3,0,1.2-1.6,2.5-1.6
		c0.4-0.9,1.2-0.7,1.7,0.1c0.6,0.5,1-1.1,1.6,0c0.4-0.5,1-1.5,1.5-1.9c1.4,0.1,2.7,0.9,4.1,1.1c1.2-0.5,2.7-0.2,2.9,1.2
		c-0.2,1.1,1,2.3-0.1,3.2c-0.4,0.6-1.9-0.3-1.4,0.8c0.4,0.7-1,0.9-0.5,1.8c0.2,0.6,0.3,1-0.5,1c-0.7,0.6-1.1,1.7-2.2,1.4
		c-1.3-0.1-2.6-0.1-3.6,0.9c-1,0.5-1.9-0.4-2.9-0.4c-1.7-0.3-3.6,0.2-5.2-0.9c-0.6-0.4-1-0.9-0.9-1.6c-1,0.6-2.3,0.5-3.4,0.5
		c-0.1,1.5-2.1,0.9-2.7,0.1c-0.8,0.3-2.1,1-2.2-0.4C217.4,139.4,217.2,139.5,217,139L217,139L217,139L217,139L217,139z"/>
	<path id="AX" d="M250.4,84.7c0.2,0,0.4-0.1,0.5-0.3c0,0,0-0.2,0.1-0.2c0.1,0.1,0.2,0.2,0.4,0.2c0.1,0,0.1-0.1,0.1-0.2
		c0,0,0.2-0.1,0-0.1c-0.2-0.1-0.4-0.2-0.7-0.3c-0.1-0.1-0.3-0.1-0.4-0.1c-0.1,0,0,0.1,0,0.1v0.4c-0.1-0.1-0.2-0.2-0.4-0.2
		c-0.1,0-0.1,0.1-0.1,0.2c0,0.2,0.1,0.4,0.3,0.5H250.4L250.4,84.7L250.4,84.7L250.4,84.7L250.4,84.7z"/>
	<path id="BA" class="st1" d="M239.3,148.5c0.3-0.9,1.3-0.1,1.8,0.2c0.8,0.2,1-1.5,1.9-0.8c0.8,0,1.7,0,2.4,0.4
		c0.7,0.2,1.5,0.3,2.2,0.1c0.9,0,1.9,0.2,2.6,0.8c0.6,0.6,1.4,0.3,2.1,0.2c0.8,0.3,0.3,1.2-0.3,1.4c-0.7,0.9,0.3,1.7,1,2
		c0.6,0.4,0.2,0.8-0.3,0.9c-0.2,0.6,1.4,1.1,0.5,1.8c-0.5,0.4-1.7-0.4-1.9,0.4c0.2,0.3,0.4,1.5-0.2,0.8c-0.6-0.2-1,0.7-0.9,1.2
		c-0.1,0.3-0.8,0.3-0.6,0.9c0.1,0.3,0.6,1.6-0.2,1.2c-0.6-0.6-1.6-0.6-2.2-1.2c-0.5-0.2-1.3-0.4-0.8-1c-0.3-0.9-1.4-1.1-1.8-1.9
		c-0.6-0.6-1.1-1.4-1.8-1.9c-0.7-0.4-1.6-0.8-1.6-1.7c0-1-0.9-1.5-1.5-2.1C239.3,149.6,239.2,149.1,239.3,148.5L239.3,148.5
		L239.3,148.5L239.3,148.5L239.3,148.5z"/>
	<path id="BE" class="st2" d="M192.6,122c1.1-0.5,1.6-1.1,2.7-1.6c0,0.5,1.1,0.5,1.6,0.5c0,0,0.5,0.5,0.5,0c0.5,0,1.1-0.5,1.1,0
		v-0.5c0.5,0,1.1,0,1.1-0.5c0,0.5,0.5,0.5,0.5,0c0.5,0.5,1.1,0.5,1.1,0c0.5,1.1,2.1,1.1,3.2,1.6c0.9,0.8,0.3,1.4,0.3,1.9
		c-0.1,0.5,1.3,0.3,0.8,0.8c0.5,0,0.5,0.5,0.5,1.1c-0.5,0-0.5,0.5-1.1,0.5c0,0.5-0.5,0-0.5,0.5c-0.5,0.5-0.5,0.5-0.5,1.1
		c0,0.5,0.5,0.5,0,1.1c-0.5,1.1-1.1,0-1.6-0.5c-0.5,0-1.6,0-1.6-0.5v-1.6c-0.5,0-0.5,0.5-1.1,1.1H198c0-0.5,0.5-1.1,0-1.6h-1.6
		c0-0.5,0-0.5-0.5-1.1c-1.1,0-1.1,0-1.1-0.5c-0.5-0.5-1.1,0-1.6-0.5C192.6,123,192.6,122,192.6,122"/>
	<path id="BG" class="st0" d="M263.7,154.4c0-0.8,0.8-2.1,1.7-1.6c1.1,0.4-0.4,1.8,0.9,1.9c1.1,0,2.2-0.5,3.2,0
		c1.1,0.6,2.2-0.1,3.4,0.2c1.2,0.2,2.5,0.6,3.5-0.3c0.9-1,2.2-1.1,3.5-1.3c1.3-0.4,2.6,0.7,3.9,0.2c0.8,0.4,1.5,1.1,2.4,1.2
		c0.6,0.2,0.6,2.1-0.2,1.3c-1.1-0.1-1.5,1.3-1.8,2.2c-0.3,0.6,0,1.7-0.8,2c-1.2,0.2,0.6,0.6,0.8,1.1c0.6,0.5,1.2,1.8-0.1,1.6
		c-1.1,0.2-1.8-1.2-2.8-0.4c-0.5,0.4-1.5,0.2-1.2,0.8c-0.3,0.2-1.4,0-1,0.6c-0.7-0.4-1.1,0.3-0.6,0.8c0,1.4-1.9,0.9-2.8,1.3
		c-1,0-1.9-0.6-2.8-0.9c-0.9-1.1-2-0.2-2.9,0.3c-1.1,0.2-2.2,0.5-3.3,0.3c-0.7-0.4,0.5-1.6-0.1-2.3c-0.3-1-1.5-0.9-1.9-1.7
		c-0.8-0.5,0.5-1.2-0.1-1.9c-0.3-1.2,1.3-1.1,1.5-2.1c0.4-1-1.3-0.9-1.5-1.8C264.3,155.4,264,154.9,263.7,154.4L263.7,154.4
		L263.7,154.4L263.7,154.4L263.7,154.4z"/>
	<path id="BY" class="st0" d="M264.2,116.7c0.6-1.4,3.2-2.2,2-4.1c-0.7-0.9-2.3-3.3-0.1-3.3c1.4-0.1,3.1,0.1,3.9-1.3
		c0.6-0.6,2.6,0.7,1.8-0.9c-0.2-1.7,1.6-2.6,2.8-3.4c0.3-0.5-0.5-2.2,0.9-2.2c1.9,0.1,3.3-2.1,5.2-1.5c1.7,0.2,3.2,1.4,4.9,1.2
		c1.4-0.3,3.3,0.2,3.8,1.7c-0.1,1.6,0.2,3.1,1.4,4.3c1.2,1,2.2,2.3,3.6,2.8c1.4,0.1,3,2.1,1.1,2.8c-1,0.7-3-1.3-3.1,0.7
		c0.5,1,0.9,2.2,1.2,3.3c0,0.7-1.8,0.5-2.5,1.2c-1.4,0.4-0.4,2.2-1.2,2.7c-1.3-1-3,0-4.3-0.8c-0.7-0.8-2.2,1-3.1-0.3
		c-1.7-0.2-3.6,0.3-5.1-0.9c-1.7-0.6-3.6-0.1-5.3-0.6c-1.5-0.5-2.9,0.4-4.2,1.1c-1,0.7-2.6,0.8-2.2-0.9
		C265.7,117.2,265.2,116.6,264.2,116.7L264.2,116.7L264.2,116.7L264.2,116.7z"/>
	<path id="CH" class="st0" d="M204.3,143.7c-0.1-0.4,0.1-0.6,0.2-1c-0.7-0.7,0.4-1,0.8-1.4c0.2-0.6,0.9-1,1.4-1.6
		c0.4-0.4,1.1-1,1.2-1.3c-0.5-0.5,0.5-1,0.8-0.4c0.5,0.2,1.1-0.8,1.3-0.6c0.4,0.4,1.2,0,1.8,0c0.7-0.1,0.6,0,1.2-0.3
		c-0.1,0.1-0.1,0.1,0.1-0.4c0.1-0.7,1-0.4,0.8,0.2c0.5,0.4,1.3-0.4,2,0c0.5,0.4,1.4,0.3,1.4,1.1c0.1,0.6-0.3,1.1-0.7,1.5
		c0.7-0.1,1.4,0.4,1.9,0.8c0.6,0.5,1.2,0.1,1.7-0.3c0.8,0-0.3,1,0.2,1.4c0.4,0.6-0.3,1-0.7,0.5c-0.5-0.8-1.4,0.7-0.9,0.8
		c0.6-0.1,0.4,1-0.1,0.4c-0.5-0.9-1.2,0.2-1.8,0c-0.4-0.1-0.6-1.2-0.9-0.9c0.1,0.6-0.1,1.3-0.6,1.7c-0.2,0.4-0.2,1.6-0.7,0.8
		c-0.3-0.6-1.1-0.3-1.4-1c-0.4-0.4,0-1.5-0.5-1.4c-0.3,0.3-0.4,1-1,1c0.4,0.6-0.2,1.2-0.7,1.5c-0.6,0.2-1.3,0.2-1.9,0.2
		c-1.1,0-2.2-0.9-2.1-2c-0.1-0.9-1.1-0.2-1.6,0S204.8,143.7,204.3,143.7L204.3,143.7L204.3,143.7L204.3,143.7L204.3,143.7z"/>
	<path id="CY" d="M304,194.7c-0.5,0-0.5-0.5-0.5-0.5c0.5,0.5,1.6-0.5,2.1-0.5c1.1,0,0-0.5,1.1-0.5c1.1,0,1.6,0,2.7-0.5
		c1.1,0,2.1-1.1,3.2-1.1c-1.1,0.5-1.6,1.6-2.1,1.6c-1.1,0.5,0,1.1,0,1.6h-1.1c-0.5,0.5-0.5,0.5-1.1,1.1c-0.5,0-1.6,0-1.6,0.5
		C305.6,195.7,304.6,196.3,304,194.7"/>
	<path id="CZ" class="st0" d="M226,125.2c0.5,0.4,0.8,0.5,1.2,0c1-0.3,2.2-0.4,3-1.2c1.2-0.7,2.5-1,3.8-1.4
		c-1.1-0.8,0.9-0.7,0.9,0.2c0.6,0.9,1.3-0.8,2-0.2c0.5,0.6,1.1,0.8,1.8,0.6c0.8,0.1,1.1,1.3,1.7,0.5c0.9,0,0.4,1.1,0.2,1.2
		c0.6,0.4,1,1.4,1.9,1.1c0.6-0.4,0.6-1.6,1.5-0.9c0.5,0.4,1.3,0.2,1.6,0.4c0,1,0.7,1.6,1.6,1.3c0.9,0.3,1.9,0.6,2.5,1.4
		c0.7,0.6,0,1-0.7,0.8c-1.4,0-1.5,1.8-2.6,2.3c-0.9,0.9-2.4-0.2-3,0.9c-0.4,0.7-0.9-0.3-1.6,0.1c-1.2,0.2-2.3-0.4-3.4-0.7
		c-0.8-0.3-2.5-1-2.3,0.5c-0.4,0.4-0.9,0.5-1.1,1.1c-1.1-0.4-2.3-0.7-3.2-1.5c-1.1-0.6-1.9-1.6-3-2c-0.9-0.7-1.6-1.6-1.4-2.6
		C226.9,126.3,226.1,125.9,226,125.2L226,125.2L226,125.2L226,125.2L226,125.2z"/>
	<path id="DE" class="st0" d="M214.9,105c-2.2-0.5,1.3,2.4-1,2.6c0.4,0.1,1.4-0.1,0.5,0.4c0.2,1.3,1.2,1.6,2.2,2.1
		c0.3,0.8,2.1,1,0.6,0.6c-1.1-0.9-3.7-1.8-4-0.1c0,0.7,0.2,1.8-0.2,0.5c-0.5-0.7-0.6,1.1-1.3,0.1c0.6-1.3-4.1-1.3-3.1,0.5
		c1.6,0.2-0.3,1.7-0.2,2.7c-0.4,0.8-2.4,0.6-0.9,1.5c1.6,0.8-0.6,2.5-1.7,2.5c-1.2-0.3-1.9,0.2-0.9,1.2c1.1,1.4-1.7,3.4,0.5,4.4
		c0.7,0.8,0.1,1.5-0.5,1.7c-0.1,1.3,1.8,1.9,1.1,3.3c0.1,1.3,1.6,1.1,2.1,1.3c1.1,0.2,2.1,0.9,3.2,0.8c2-0.3-0.9,1.1-0.7,2.1
		c-0.2,1.3-1.7,3.9,0.1,4.5c0.9-0.2,2.5-0.3,2.6-0.9c1.8,0.1,3.6,0.6,5.2,1.2c0.5,1,1.7,1.2,1.6-0.2c1.3-0.1,3.1,0.7,4.3-0.2
		c0.7-0.4,2.3-0.3,2.1-0.5c1,0.7,1.8-0.7,2.5,0.6c1.9-0.1-1.9-2.9,0.3-3c1.3-0.2,1.4-1.5,2.5-1.6c0.2-1.8-1.8-2.5-3.1-3.2
		c-1.8-0.9-1.3-3.2-2.8-4.2c0.8-0.4,2.9-0.6,4.1-1.4c0.9-1.3,3.6-0.8,3.6-2.2c1,0.7,1.9,0.8,2.1-0.6c0.8-1.5-2.3-2.1-0.8-3.7
		c-0.6-1.4-0.6-2.9-2-3.7c0.7-1.1,1.1-3.1-0.5-3.9c-1.2-0.1-1.3-2.4-2.3-1.7c-0.5-1.6-3.4-1.2-3.5-1c0.5-0.4,1.9-0.3,0.6-0.5
		c-0.6,0.4-1.9,1.4-1.8,1.6c-1-0.7-2.2,1.3-3.4,0.6c-2,0.5,1.4-2.4-0.4-1.6c-0.8-0.3-2.4-0.3-2.5-0.1c-0.1-0.8-1.6,0.2-0.5-0.8
		c-0.4-1.3-2.1-0.8-3.2-1.3C215.3,105.2,215.1,105.1,214.9,105L214.9,105L214.9,105L214.9,105L214.9,105z"/>
	<path id="DK" d="M222.3,107.1h0.5c0-0.5-0.5-0.5-1.1-0.5L222.3,107.1L222.3,107.1L222.3,107.1L222.3,107.1z M212.2,97.6
		c0.6,0.1,1.2,0.4,1.7,0.7c0.6-0.2,0.3-1.1,0.8-1.3c0.6-0.1,0.7,0.7,1.2,0.7c0.1,0.1,0,0.5,0.2,0.2c0.1-0.3-0.5-0.3-0.3-0.7
		c0-0.4-0.2-1.2,0.3-1.2h2.8c0.5,0.3,0.4,1.3-0.2,1.3c-0.2,0-0.8,0.3-0.3,0.1c0.4-0.2,1.3,0.1,0.7,0.5c-0.3,0.2,0.5-0.3,0.8-0.1
		c0.4,0.1,0.7,0.1,1.1,0.1c0.7,0,0.6,0.9,0.2,1.3c-0.3,0.4-1,0.7-1.5,0.3c0-0.2,0.2-0.5-0.1-0.2c-0.5,0.3-0.5,1.1-1.1,1.4
		c-0.4-0.1-0.6,0.3-0.3,0.6c0,0.6-1.1,0.5-1.1,0.5c0.3,0,1-0.1,0.5,0.3c-0.5,0.3-0.6,0.9-0.4,1.4c-0.1,0.4-1,0.4-0.8,0.9
		c0.4,0.1,1.1,0.6,0.7,1c-0.1-0.5-0.6-0.5-0.9-0.1c-0.7,0.3-1.3-0.2-2-0.3c-0.5-0.1-1-0.7-1.2-1.1c0.8-0.1,0.3-1-0.2-1.2
		c-0.5-0.2-1.2-0.5-1-1.1v-1.2c0,0.6,1.3,0.8,1,0c-0.1-0.5-0.7-0.6-1.1-0.5c-0.3-0.5,0-1,0.1-1.5C212.2,98.1,212.2,97.9,212.2,97.6
		L212.2,97.6L212.2,97.6L212.2,97.6L212.2,97.6z M217.5,102.4c0,0.5,1.1,1.1,1.1,1.6c0-0.5,0.5,0,0.5,0c0,0.5,1.1,0.5,1.1,0.5
		c1.1,0,1.6-1.6,0.5-1.6v-0.5c0,0,0,0,0-0.5c0,0.5-0.5,1.1-1.1,1.1C220.7,101.8,218.1,102.4,217.5,102.4L217.5,102.4L217.5,102.4
		L217.5,102.4z M219.7,105.5c0.5-0.5,0-0.5-0.5-1.1C219.1,105,219.7,105,219.7,105.5L219.7,105.5L219.7,105.5L219.7,105.5z
		 M220.7,105v1.1c0.5-0.5,1.1-1.1,0.5-1.6C221.3,104.5,221.3,105,220.7,105L220.7,105L220.7,105L220.7,105z M221.8,94.9
		c0,0,0.5,0,0.5-0.5c-0.5,0-0.5,0.5-1.1,0.5H221.8L221.8,94.9L221.8,94.9L221.8,94.9z M222.3,102.9c0,0.4,0.5,0.6,0.5,1
		c0.4,0.2,0.8,0,1.1,0.1c0.4-0.2,0.7,0.5,0.2,0.5c-0.3,0,0.1,0,0.2,0h0.5c0.2,0.4-0.7,0.4-0.4,0.8c0.2,0.4,0.4,0.8,0.4,1.3
		c0-0.4,0.3-0.8,0.5-1.1c0-0.4-0.5-0.6-0.5-1c0.2,0.3,0.7,0.5,0.9,0.1c0.2-0.2-0.3-0.6,0.1-0.8c0.2-0.3,0.8-0.3,0.7-0.7
		c-0.2-0.2-0.5-0.2-0.8-0.4c-0.2-0.4,0.3-0.7,0.6-0.9c0.3,0,0.8-0.2,0.7-0.6c-0.1-0.3-0.4-0.6-0.2-1c0.1-0.4-0.4-0.4-0.7-0.4
		c-0.5,0-0.9,0.2-1.4,0.2c0.3,0.4,0.7,0.8,0.6,1.3c-0.1,0.3-0.8,0.3-0.5-0.1c0.2-0.2,0.1-0.8-0.2-0.6c-0.2,0.3-0.3,0.6-0.5,0.9
		c-0.2-0.2-0.6-0.7-0.2-1c0.4-0.1-0.1-0.4-0.3-0.4c-0.4-0.1-0.6,0.2-0.6,0.5c-0.2,0.3-0.7,0.4-1,0.4c-0.2,0-0.7,0-0.4,0.3
		c0.2,0.4,0.6,0.6,0.7,1C222.7,102.8,222.5,102.9,222.3,102.9L222.3,102.9L222.3,102.9L222.3,102.9L222.3,102.9z M221.8,105.5
		c0.5,0.5,2.7,1.1,3.2,0.5c0.5-0.5-1.1-0.5-1.1-0.5c-1.1,0-1.1-1.1-2.1-0.5c0.5,0,0.5,0.5,0.5,0.5H221.8L221.8,105.5L221.8,105.5
		L221.8,105.5z M226,104.5v0.5c0,0,1.1,0,1.1-0.5H226L226,104.5L226,104.5L226,104.5z M213.3,97.6c-1.1-0.5,0-1.6,0.5-1.6
		c0.5-0.5,1.6-0.5,2.7-0.5c0.5,0,1.1-1.1,1.6-1.6s1.6-0.5,2.7-1.1c-1.1,1.1,0,1.6-0.5,2.1c-0.5,1.1-1.1,1.1-2.1,1.1
		c-0.5-0.5-0.5-0.5-1.1,0h-1.6c-0.5,0-1.1,0-1.6,0.5C213.8,96.5,213.8,97.6,213.3,97.6c0-0.5,0.5,0,0.5,0H213.3L213.3,97.6
		L213.3,97.6L213.3,97.6z M213.8,97.6c0.5,0,1.1-1.1,1.1-1.6l-0.5,0.5c-0.5,0-0.5,0.5-0.5,0.5L213.8,97.6L213.8,97.6L213.8,97.6
		L213.8,97.6z M234.6,103.9c-0.5-0.5-1.6,0-1.1,0.5C234.6,105,235.1,103.9,234.6,103.9L234.6,103.9L234.6,103.9L234.6,103.9z"/>
	<path id="EE" class="st3" d="M261.7,89.6c0.4,0,0.4-0.1,0.4-0.5c0,0,0-0.5-0.5,0c0,0,0,0,0,0.5C261.7,89.6,261.7,89.6,261.7,89.6
		c0.1,0.1,0.3,0.3,0.3,0.4c-0.2-0.1-0.5,0-0.7,0.1c-0.3,0-0.3,0.3-0.5,0.5c-0.4,0.2-0.7,0.1-1.1,0.1c-0.3,0-0.6,0.3-0.8,0.5
		c0,0.4-0.2,0.8-0.5,1.1c0,0,0-0.1,0,0c-0.2-0.2-0.2-0.5,0.1-0.7c0.1-0.3,0.2-0.5,0.1-0.8c-0.2-0.2-0.5-0.1-0.7-0.2
		c-0.3-0.3-0.2-0.8-0.5-1h1.4c0.3,0,0.4-0.3,0.6-0.4c0.3-0.1,0.7-0.1,1.1-0.1s0.8,0,1.1,0.3C261.6,89.5,261.7,89.5,261.7,89.6
		L261.7,89.6z M262.6,89.1c-0.3-0.5,1.2-0.5,0.4-0.5s-0.1-1.1-0.3-1.6c0.3-0.6,1.3-0.2,1.5-0.9c0.7-0.1,1.3-0.8,2.1-0.6
		c0.6-0.1,1.4,0.1,2.1-0.1c0.5-0.5,1.2-0.4,1.8-0.3c0.8,0,1.6,0.3,2.4,0.3c0.7,0.1,1.4,0.7,2.1,0.5c1-0.1,2.1-0.3,3.1-0.1
		c-0.5,0.2-1.1,0.5-0.9,1.1c-0.5,0.7-1.2,1.3-1,2.2c0.2,0.6,0.1,1.3,0.1,1.8c0.3,0.3,1.1,0.3,1,1c0.7,0.7-0.6,0.8-0.9,1.3
		c-0.3,0.3-0.4,0.8-0.9,0.3c-0.7-0.5-1.2,0.2-1.8,0.3c-0.9,0-1.5-0.8-2.3-1.2c-0.6-0.4-1.4-0.5-2-1c-0.5-0.4-1.3-0.5-1.8,0
		c-0.4,0.3-1,0.8-1.5,0.4c-0.4-0.6,0.6-1.1,0.3-1.7c-0.6-0.2-1.2,0.8-1.9,0.2C263.6,90.2,263.2,89.6,262.6,89.1L262.6,89.1z
		 M261.6,87.5h0.5H261.6L261.6,87.5z M260,87c-0.4,0.3-0.8,0.4-1.3,0.6c-0.3,0.1-0.6,0.2-0.8,0.5c0.4,0,0.9,0,1.3,0.3
		c0.1,0.1,0.2,0.2,0.3,0.3c0,0.2,0.1,0.3,0.3,0.2c0.2-0.1,0.4-0.4,0.6-0.5c0.2-0.1,0.4-0.2,0.7-0.2c-0.2-0.3-0.6-0.4-0.9-0.6
		C260.1,87.3,260,87.1,260,87L260,87z"/>
	<path id="ES" class="st1" d="M148,158.6c-1.1-2.2,3.9-2.1,3.3-2.8c1.1-1.9,3.3-1.3,4.8-0.1c1.5-0.9,3.5-0.1,5.2-0.3
		c2.3,1,4.8,0.6,7.2,0.6c2,0.8,3.7-0.3,5.7,0.5c2.1-0.1,3,1.3,4.9,2c1.4,0.6,3.8,1.5,5,0.6c1.8-1.1,2.9,2.2,4.9,1.6
		c1.5,0.8,4-1.2,4.4,0.9c0.1,2.1-2.2,2.7-3.5,3.8c-1.7,1.1-4.4,0.3-5.5,2.6c-1.2,2.4-4.5,3.5-4.5,6.5c-0.9,1.6,3.3,3.3,0.4,3.9
		c-2.1,0.3-2.1,3.7-2.5,4c-1.1,1-3.5,0.3-4.1,2.4c-0.4,1.1-0.6,1.9-1.9,1.4c-2.3,1.1-5,0.2-7.5,0.6c-1.5,0.6-3.4,1.3-4.2,2.9
		c-2.3,0.8-3.8-1.8-3.3-3.5c0.6-0.9-1.1,0.4-1.2-0.8c-0.5-1-1.2-1.4-2.1-0.7c-2.5-1.2,0.2-3.5,1.1-4.8c-2.8-0.7,1.8-4-0.8-5.3
		c-1.9-1.8,1.9-0.4,1.6-2.4c-0.5-1.8,1.7-2.8,0.5-4.6c-0.2-1.2,4.1-2.3,2.1-3.5c-1-0.1-0.6-1.9-2.1-1.2c-1.4,0.3-3.6,1.2-4.5,0
		c0.8-2.1-3.7,1.4-2.3-0.9c0.3-0.3,1-1.5,0.1-0.6c0.7-0.7-0.6-0.7,0.3-1.5c-1.5,0.5-0.8-0.4-0.6-0.7
		C148.4,159.2,148.1,159,148,158.6L148,158.6L148,158.6L148,158.6L148,158.6z M186.2,177.2c-1.1-0.5-0.5-1.1,0-1.1
		c0-0.5,0.5-0.5,0.5,0C187.3,176.1,186.2,176.6,186.2,177.2L186.2,177.2L186.2,177.2L186.2,177.2z M193.1,174.5
		c-0.5,0.5-0.5,0-1.1,0c-1.1,0-0.5-1.1-1.6-0.5c-1.1,0.6,0-0.5,0-1.1c1.1-0.5,1.6-0.5,2.7-1.1c-0.5,0-0.5,0.5,0,1.1
		c0,0,0.5-0.5,1.1,0C194.2,172.9,193.1,174,193.1,174.5L193.1,174.5L193.1,174.5L193.1,174.5z M195.3,171.9c0.5-1.1,2.1-0.5,2.1,0.5
		C196.9,172.4,195.8,172.4,195.3,171.9L195.3,171.9L195.3,171.9L195.3,171.9z"/>
	<path id="FI" class="st1" d="M258.9,83.3h0.5c0.5,0,0.5-1.1,1.1-1.1c-0.5,0-1.1,0.5-1.6,0C259.5,82.7,258.4,82.7,258.9,83.3
		L258.9,83.3L258.9,83.3L258.9,83.3z M250.3,46.6c0.7-0.3,1.6,0.1,1.3-0.7c1.8-1,3.1,1.1,4.4,1.9c2.1,1.1,4.4-1,6.7,0
		c1.7,0.8,2.5-1.5,3-2.8c0.7-2.2,3.2-2,5.1-2.2c2.1,0.2,6.2,1.5,3.4,4.1c-1.4,0,1.2,1.2-0.1,1.8c0.2,2.4,4.7,1,4.3,3.8
		c-1.1,1.2-2.5,2.9-0.3,3.9c1.7,1,2.6,3.1,1.5,4.7c0,2,1.8,2.7,2.7,4.2c1.7,1.2-2,2.6,0.6,3.1c1.7,0.6,4.6,1.7,3.4,4
		c-1.4,1.8-3.4,3.1-5,4.6c-1.7,1.3-3.4,2.9-5.4,3.8c-1.8,0.9-4.5-0.3-5.8,1.1c-2-0.3-4.1,1.2-6.2,1.3c-1,0.2-2.1,0.1-2.7,0.3
		c1.2-0.6-1.3-1.4,0-2.1c-1.9,0.5-5.1-0.2-5.7-2.2c0.6-2.2,0.1-4.1-1.1-6c-0.5-1.7,0.5-4.4,2.6-3.6c1.1-1.5,3.2-2.8,4.9-4.3
		c1-1.5,3.5-2.1,4.4-2.9c-0.1-2.9-3.6-2.6-5.1-4.4c-1.3-1.3,0.2-3.3-1.3-4.8c0.2-0.9-0.3-1.9-0.5-2.7c-1.5-1.8-4.1-1.9-6.1-2.7
		C252.4,47.6,251.5,46.8,250.3,46.6L250.3,46.6L250.3,46.6L250.3,46.6z M263.7,62.6c0.5,0.5,0.5,0,1.1,0
		C264.2,62,263.7,62,263.7,62.6L263.7,62.6L263.7,62.6L263.7,62.6z"/>
	<path id="FO" d="M164.6,74c0.1,0.1,0.2,0.2,0.4,0.2c0.1,0.1,0.2,0.2,0.4,0.4c0.1,0.1,0,0-0.1-0.1c-0.1-0.1-0.1-0.1-0.2-0.2
		c0-0.1-0.1-0.1-0.1-0.2c0,0.2,0,0.3-0.1,0.4c0.1,0.1,0.3,0,0.4,0.1c0.2,0.1,0.2,0.4,0.1,0.5c-0.4,0-0.6-0.3-0.9-0.5
		c-0.2-0.3-0.6-0.6-0.6-1C164.1,73.8,164.4,73.9,164.6,74L164.6,74z M164.5,73.8C164.5,73.8,164.5,73.7,164.5,73.8
		c0.2-0.2,0.3-0.1,0.5,0c0.3,0.1,0.6,0.3,0.7,0.5c0,0.1,0,0.3-0.1,0.3c0.1-0.1,0-0.3,0-0.3c-0.2-0.3-0.5-0.4-0.7-0.5
		C164.8,73.8,164.6,73.7,164.5,73.8L164.5,73.8z M165,74.2C165,74.2,165,74.2,165,74.2C165,74.2,165,74.2,165,74.2L165,74.2z
		 M166.1,74.2c0.2,0,0.5-0.1,0.4-0.4c-0.1-0.2-0.4-0.3-0.4,0V74.2L166.1,74.2z M165.5,75.8c0-0.2-0.2-0.3-0.3-0.2
		c-0.1,0-0.3,0.2-0.1,0.2H165.5L165.5,75.8z M165,77.4c0.1-0.1,0.3-0.4,0.1-0.5c-0.2-0.2-0.4-0.3-0.6-0.5c-0.1,0.1,0,0.3,0.1,0.4
		C164.7,77,164.8,77.2,165,77.4L165,77.4z M164,74.8h0.5c-0.3-0.1-0.5-0.3-0.8-0.2C163.5,74.7,163.8,74.8,164,74.8L164,74.8z"/>
	<path id="FR" class="st0" d="M166.1,135.3c0.8,0.4,1.9-0.7,0.7-1.1c1.8,0.4,0.6-0.7-0.5-0.4c0.2-2.3,3.9-0.3,5-2
		c1.4,0.4,2.7,2,4.1,1c1.4,0,3.2,0.2,2.3-1.6c0-1.4-2.3-3.4,0.5-3.2c1.3,0.4,0.7,2.1,2.5,1.7c1,0.2,4.2,0.1,3.8-0.5
		c-1.9-0.9,1.3-2.2,2.3-1.9c2.2-0.3,2.7-2.3,2.6-4.1c1.7-2.6,4.1-0.1,5.7,0.9c0.7,1,2.8,1.1,2.9,1.7c-0.2,2.5,3.2-0.6,3,1.8
		c1.2,2,3.7,0.9,5.3,2c1.4,1.4,3.4,0.8,5.1,1.5c1.5,0.9-1.4,2.4-1.1,4c-0.2,1.8-0.8,3.1-2.5,3.5c-0.4,1.9-3.7,2.8-3.2,5.2
		c0.9-2.6,3.6-0.4,2.9,1.6c-0.2,1.4,1.5,3-0.8,3.5c-0.2,0.9,1.6,1.5,0.6,2.7c-0.9,2.4,4.4,0.7,2,3.1c-1.4,1-2.9,2.2-4,3.1
		c-1.9,0.8-4.2-1.1-5.1-1.6c-0.4,0.6-1.3-0.8-1.1,0.5c-1.8-1.3-4.2-0.3-5.6,1.1c-0.6,1.4,0.5,4.2-2.1,3.4c-2.5,0.6-5.1-3.1-7.2-1.3
		c-2.3-0.1-4.7-1-7.1-1.6c-0.1-0.9-1.3-1.4-1.3-1.5c1.2-2,1.7-4.5,2.2-6.7c-0.7-1.8,1-4.3,1.9-1.5c0.6,1.6,0.6,0.8,0.1-0.4
		c-0.6-1.1-2.5-1.9-1.2-2.9c-0.3-2.3-4-2.8-3.7-5.3c-0.5-1.3,2.6-0.9,0.2-0.9c-1.5,0.6-0.9-0.8-1.2-1c-1.1-0.6-1.6-0.2-2.4-0.2
		c-0.7-1.8-3.1-0.9-4.6-1.7C166.7,135.7,166.3,135.5,166.1,135.3L166.1,135.3L166.1,135.3L166.1,135.3L166.1,135.3z M213.3,160.7
		c0.4,0.1,0.5-0.5,0.7-0.7c0.6-0.4,1.3-0.4,1.9-0.8c0.4-0.1,0.4-0.5,0.4-0.9c-0.1-0.3,0.5-0.3,0.3,0c0.1,1.1,0.5,2.2,0.5,3.4
		c-0.4,1.3-1,2.5-1.6,3.7c-0.1-0.4-0.6-0.5-0.9-0.8c-0.4-0.1-0.5-0.5-0.3-0.8c-0.2,0-0.6,0-0.3-0.3c0.1-0.2,0.7-0.7,0.3-0.8
		c-0.3,0-0.6-0.2-0.4-0.5c-0.3-0.1-0.4-0.5-0.2-0.8c0-0.2,0.5-0.3,0.1-0.3C213.3,161.2,213.2,160.9,213.3,160.7L213.3,160.7
		L213.3,160.7L213.3,160.7L213.3,160.7z"/>
	<path id="GB" class="st4" d="M157.1,107.1c0-0.5,0.5-0.5,1.1-0.5c0-0.5,0-0.5-0.5-0.5c1.1,0,1.6-1.1,2.1-1.6s1.1,0.5,1.6-0.5
		c0.5,0.5,1.6-0.5,2.7,0c0.5,0,0.5,0.5,0.5,1.1l1.1,0.5l-1.1,0.5h1.1c0.5,0.5,0.5,1.1,0,1.6c0-0.5,0-1.1-0.5-1.1
		c0.5,0,0.5,0.5,0,0.5c0.5,0,0.5,0,0.5,0.5l-0.5,0.5c-0.5,0-0.5,0.5-1.6,0.5c-0.5,0-0.5-0.5-1.1,0c0,0.5-1.1,0-0.5-0.5
		c-0.5,0-1.6-1.6-2.1-0.5C159.7,109.3,157.6,107.7,157.1,107.1L157.1,107.1L157.1,107.1L157.1,107.1z M161.3,94.4
		c0-0.5,0-0.5-0.5-0.5C160.8,94.4,161.3,94.4,161.3,94.4L161.3,94.4L161.3,94.4L161.3,94.4z M163.4,91.7c0.5,1.1,1.1-0.5,0.5-0.5
		c0.5,0,1.6-0.5,1.1-0.5c0.5-0.5,0.5-1.6-0.5-1.1c0,0.5-0.5,0.5-1.1,0.5c-0.5,0.5,0,1.1-0.5,1.1c0,0,0,0,0-0.5
		c-0.5,0-0.5,0.5-1.1,0.5c0.5,0,0.5,0.5,0,0.5c0.5,0,0.5,0,1.1,0.5c-0.5,0-0.5,0-1.1,0.5C162.4,93.3,163.4,92.3,163.4,91.7
		L163.4,91.7L163.4,91.7L163.4,91.7z M163.4,102.4c1.1-0.5,1.6-1.1,0.5-1.6c-0.5,0-1.1,0.5-1.1,1.1c0.5,0,0.5-0.5,1.1-0.5
		C164,101.8,164,101.8,163.4,102.4L163.4,102.4L163.4,102.4L163.4,102.4z M165,96c0.5,0,1.6-0.5,1.1-1.1c-1.6,0.5-0.5-1.6-1.6-1.6
		v0.5c-1.1,0-1.1,0.5-1.6,0c0,1.1,1.1,0.5,1.6,1.1c-1.1,0,0,0.5,0,0.5c0.5,0,1.1-0.5,1.1,0C165.5,95.5,165,95.5,165,96L165,96
		L165,96L165,96z M165,126.8c1.1-0.9,2.8-2.5,4.2-1.5c1.4,1.3,2-0.5,2.3-1.5c1.4-0.3,2.9-0.2,4.2,0.2c0.9,0.3,0.8-0.7,1.9-0.4
		c1.3,0.2,1-1.6,2.1-0.6c1.4,0.8,3.1-0.3,4.5,0.4c1.5-0.3,3.5-1.1,4-2.5c-0.8-0.7-2.3,0.1-2.4-0.6c-2.1,0.3,2-0.3,0.5-1.3
		c0.6-0.2,2.4-0.2,1.4-1.1c0.8,0.6,2.6-1.8,1.7-3.1c-0.8-1.2-3.8-2.3-4.1-0.1c-1.3,0.3-1.5-1.1-0.5-1.6c0.7-1.8-1.9-2.6-2.7-2.7
		c0.9-0.3,3.1,1.3,1.8-0.4c0-1.8-1.6-2.8-3.2-3.4c-1.9-0.8-0.9-3.5-2.2-4.8c-1.1-1.2-2.6-1.7-4.1-1.3c-0.7,0.4-2.7-0.3-2.4-0.4
		c1.1,0.6,4,0.3,3.7-1.1c-0.7-0.6-2.5,0.2-0.7-0.3c1.9-0.7,3-2.5,4-4.1c0.1-2.1-2.5-1-3.8-1.1c-1.3-0.6-2.9,0.9-3.8,0.3
		c0-0.4-1.1-0.1,0-0.4c1.6-0.3,0.1-0.6-0.6-0.8c1.4-0.5,3.1-1,4.1-2.2c1.1-1.8-2.1-0.9-2.9-0.5c-1,0.1-2.5-0.2-2.9-0.3
		c-0.5,0.4-0.5,1.6-0.2,1.3c-1-0.3-1.6,1.2-1,1.5c-0.7-0.2-1.7,0.5-1.7,0.4c0,0.6,0.2,1.4-0.3,1.6c0.6,0.4,1.3,0.2,0.5,0.6
		c0.5,0.6,0.5-0.3,0,0.4c0.9,0.7-0.2,0.1-0.4,0.6c0.8,0.2-0.5,0.3-0.3,1.1c-0.4,0.5-2,0.1-0.5,0.5c1.7,0.1-0.9-0.1,0.1,0.7
		c1,0.8,3.7-2,2.1-0.2c-0.3,0.5-0.1,0.3-0.1,0.3c0.2,0.5-1.5,0.5-1,1.6c-0.4,0.4-1,1.6,0.1,1.7c-1.4-0.3-1.7,3-0.3,1.4
		c0.5-1.1,0.5-3,1.8-3.4c-0.6,0.5-1,1.4-0.2,1.6c0.8,0.7-0.6-0.9,0.6-0.4c0.3-0.4,0.2-1.2,0.6-0.4c0.8-0.1,0.9,1-0.1,0.4
		c-1,0.9,1.4,2.5-0.5,3c-0.6,0.8-1.8,2.1-0.2,2.4c-0.5-1.4,2.2,0.9,1.6-0.9c1,1.6,2.5-1,3.9-0.3c1.9,0.4-1.9,0.4-1.1,1.8
		c0.3,0.9,0.8,2.6,1.7,1.9c0.5,0.2-1.2,2,0.3,1.9c-1.1,0.2-0.6,2.2,0.4,1.7c-1.2-0.5-1.7,0.5-2.8,0c-1.1,0.3-2.4,0.7-3.2-0.3
		c-1.6,0.6,0.7,1.1,0.4,1c-0.8,0.3-2.5,1.8-0.6,1.2c1-0.2,1.6,0.6,1.1,1.4c0.3,1.1-1.9,2.2-3.2,2.3c-1.6-0.2-0.8,2.2,0.3,1.3
		c-1.9,0.9,1.2,0.7,1.6,0c0.7,0.5,1.5,0.4,0.3,0.5c0.5,0.5,1.7-0.1,2.4,0.9c1.4,0.6,2.8-0.8,4.2-1.4c-1.3,0.5-2,1.9-2.9,2.6
		c-1.5-0.3-3.1-0.7-4.4,0.6c-0.6,0.8-1.3,1.8-2.4,2.4c0.1,1-2.6,1.3-1.9,1.7C164.3,126,164.9,126.3,165,126.8L165,126.8L165,126.8
		L165,126.8L165,126.8z M178.8,124.1c0.5,0,0.5-0.5,1.1-0.5c-0.5-0.5-1.1-0.5-1.6,0L178.8,124.1L178.8,124.1L178.8,124.1
		L178.8,124.1z M164,96.5c0.5,0,0.5-0.5,0.5-0.5H164C164,96,164,96,164,96.5L164,96.5L164,96.5L164,96.5z M164,99.2
		c1.1,0,1.6-0.5,2.1-0.5c0-0.5-1.6-1.6-2.1-0.5c0.5,0,0.5,0,0.5,0.5c0,0-0.5,0,0.5,0C164.5,98.6,164.5,99.2,164,99.2L164,99.2
		L164,99.2L164,99.2z M165,101.3c0-0.5,0.5-1.1,0.5-1.6c-0.5,0.5-0.5,1.1-1.1,1.1C164.5,100.8,164.5,101.3,165,101.3L165,101.3
		L165,101.3L165,101.3z M167.1,102.9c0.5-0.5,0.5-1.6,0-1.6C166.6,101.8,166.6,102.9,167.1,102.9L167.1,102.9L167.1,102.9
		L167.1,102.9z M175.1,88.6c0-0.5,0-0.5-0.5-0.5L175.1,88.6L175.1,88.6L175.1,88.6L175.1,88.6z M175.1,87.5c0.3,0.3,0.8,0.4,1.2,0.4
		c0.3,0,0.7-0.2,0.9-0.4c-0.4,0-0.9,0-1.3-0.1c-0.2-0.1-0.3-0.2-0.3-0.4c0-0.1,0-0.2-0.1-0.2s-0.3,0-0.4,0.1
		C175,87,174.9,87.2,175.1,87.5C175,87.4,175.1,87.5,175.1,87.5L175.1,87.5L175.1,87.5L175.1,87.5z M176.7,86.4c0,0,0-0.5-0.5-0.5
		C176.2,86.4,176.2,86.4,176.7,86.4L176.7,86.4L176.7,86.4L176.7,86.4z M165,94.4c0.5,0,0.5,0,0.5-0.5C165,93.9,165,94.4,165,94.4
		L165,94.4z M182,83.3c-0.2,0.2-0.4,0.4-0.5,0.5c0.4,0,0.8-0.3,0.9-0.7c0.2-0.5,0.3-1,0.6-1.4c-0.1-0.1-0.4,0.1-0.5-0.1
		c-0.1-0.1,0.1-0.4-0.2-0.4c-0.2,0.1-0.4,0.3-0.4,0.5v-1c-0.2-0.1-0.3,0.2-0.3,0.3c0,0.2-0.3,0.1-0.2,0.3c0.2,0.1,0.3,0.3,0.4,0.4
		c-0.2,0.2-0.4,0.5-0.7,0.5c-0.1-0.1-0.5,0.1-0.3,0.2c0.1-0.1,0.3-0.3,0.5-0.2c0.2,0.1,0.3,0.3,0.4,0.4C182,82.8,182,83,182,83.3
		L182,83.3z M182.5,81.1c0.2,0,0.5-0.1,0.6-0.3c0-0.2-0.3-0.2-0.5-0.3c-0.1-0.1-0.2,0.1-0.1,0.2V81.1L182.5,81.1z M183.6,80.6
		c0.1-0.1,0.2-0.5,0-0.5c-0.2,0-0.4,0.2-0.3,0.4C183.3,80.6,183.5,80.6,183.6,80.6L183.6,80.6z M183.6,81.1c0-0.3,0.2-0.5,0.5-0.5
		c-0.1,0-0.4-0.1-0.4,0.1C183.6,80.8,183.6,81,183.6,81.1L183.6,81.1z"/>
	<path id="GG" class="st1" d="M173.6,128.6l-0.1,0.3l-0.3-0.1v-0.1L173.6,128.6L173.6,128.6L173.6,128.6L173.6,128.6L173.6,128.6
		L173.6,128.6z"/>
	<path id="GI" class="st1" d="M159.7,188.8L159.7,188.8L159.7,188.8v0.2l0,0l0,0V188.8L159.7,188.8L159.7,188.8L159.7,188.8
		L159.7,188.8L159.7,188.8L159.7,188.8z"/>
	<path id="GL" d="M31.5,80.3c-6.3-3.5-9.4-8.8-7.5-13.2c0.9-2.1,0.9-3.4,0.1-4.9c-1.7-3.1,0.5-6.7,6-10.1c2.6-1.6,5.2-3.8,5.8-4.9
		c1.6-3,0.2-8.1-2.6-9.4c-1.4-0.6-2.2-1.7-1.9-2.5c0.7-1.8-2.6-8.2-5.9-11.3c-2.4-2.3-3.5-2.5-11.8-2.6c-11.4-0.1-13.5-0.7-13.3-4
		c0.1-1.4,0.4-2.5,0.7-2.5s4.3-0.5,9-1c6-0.7,11.3-2.2,17.9-5.1C38.2,4.6,39,4.5,63.5,5c7.7,0.2,14.9-0.4,24-1.9
		c8.5-1.4,14.8-2,18.2-1.6c2.9,0.3,7,0.1,9.4-0.5c5.5-1.5,19.6,0.3,25.2,3.1c3.3,1.7,5,1.9,10.6,1.3c6-0.6,6.5-0.5,4.7,0.8
		c-1.1,0.8-4.5,1.8-7.5,2.2c-6.6,0.9-12.6,5.5-11,8.5c0.7,1.3,0.2,2.4-2,4.5c-1.6,1.6-3.2,3.6-3.5,4.5c-0.7,2.2-9.5,6.3-13.9,6.4
		c-4.9,0.2-5.4,1.2-1.6,3.3c1.8,1,4.4,2.6,5.8,3.7l2.5,1.9l-2.3,0.8c-1.8,0.7-3.2,0.2-6.1-1.8c-4-2.8-8.2-2.8-6,0
		c0.9,1.1,0.7,1.5-1,1.9c-3.7,1-1.1,2.9,3,2.2c2.6-0.4,4.1-0.2,4.9,0.8c1,1.2-0.3,1.7-7.6,3.2c-4.8,1-11.2,1.9-14.2,1.9
		c-5.6,0.1-9.7,1.7-15.6,6.2c-1.9,1.5-6.1,2.9-10.9,3.9C58.5,62.2,55.1,64.5,49,73.1c-5,7.3-8,9.9-11,9.9
		C37.2,83,34.3,81.8,31.5,80.3L31.5,80.3L31.5,80.3L31.5,80.3L31.5,80.3z"/>
	<path id="GR" class="st4" d="M256.3,173.1c0.7,0.6,1.1-0.7,1-1.2c1.4-0.4,1.6-1.8,2.4-2.8c0.1-0.8-0.5-1.7,0.7-1.4h2.4
		c0-1,1.1-1.1,1.8-1.1h1.4c-0.3-1.2,0.9-1,1.6-0.9c0.2-0.3,0.9-0.1,1.3-0.2c0.8,0,1.6,0,2.1-0.7c0.3-0.6,0.9-0.4,1.4-0.4
		c0.9-0.3,0.9,1.7,2,0.8c0.8,0.1,1.3,1.2,2.2,0.4c0.8-0.4,2.7,0.7,2.3-1c-0.3-0.4-1.1-1.2-0.1-1c1.2-0.3,2.3,1.8,0.9,2
		c-0.5,0.7-0.6,2.4-1.4,2.4c-0.8-0.8-2.4,0-3.3-0.7c-0.7-0.4-1.3,1.1-2,0.1c-1-1-1.1,1.7-2.4,0.8c-1-0.3-0.5,0.6-0.1,0.8
		c-0.7,1.1,1.3,0.4,1.5,1.3c0.9,1.1-0.9,0.3-1.2-0.2c-0.7-0.8-1.2,0.2-0.5,0.7c0.4,0.5,1.5,1.5,0.3,0.9c-0.7-0.2-1.5-2.2-1.9-0.9
		c0.5,0.2,1.7,1.3,0.5,1.1c-0.4-0.9-0.9-1.6-2-1.8c-1.3-0.1,0.4-1.2-0.3-1.4c-1.3,0.3-1.2,1.9-0.7,2.8c0.4,1.3,1.9,2,2.2,3.4
		c0.2,0.7-1.4,0.8-0.3,0.5c0.3-1.1-1.9-1.2-1.2,0.1c0.4,0.5,1,0.9,0.1,1.3c-0.5,0.3-1.4-0.4-0.5,0.2c0.7,0.2,1.5,0.6,1.9,0.9
		c0.6-0.6-0.3,0.7,0.6,0.3c0.7,0.5,1.6,1,2.5,1.3c0.6,0.9,0.3,2,0.4,3c-0.7-0.8-1.6-2-2.7-1.4c-0.5,0.3-2.2,0.3-1,0.7
		c0,0.7,1.2,1.2,1.1,0.9c0.6,0.5,0.6,1.1-0.2,1.3c-0.9,0.7-0.3-1.2-1.2-0.9c-1.1-0.3-0.6,0.8-0.2,1.4c0.7,0.7,0.9,1.8,0.7,2.7
		c0.6,0.4,0.5,1.3-0.1,0.4c-0.6-0.8-1.9-1.7-2-0.1c-0.3,1-0.7-1.2-1.1-1.4c0.2-1.3-1.4-0.9-1.1,0.3c0,1.1-1.5-0.7-1.3-1.4
		c0.9-1.5-0.6-2.6-1.8-3.3c0.1-1.2,1.7-1.3,2.5-2.1c1.2-0.5,1.8,1.2,3,1.2c0.7,0.4,1.5,0.7,1.9-0.3c1-0.3-0.3-0.7-0.8-0.5
		c-0.6,0.1-0.9-1.2-1.4-0.6c-0.4-1.1-0.8,0.5-1.6,0c-0.9,0-2.3,0.7-3.1-0.2c0-0.4-0.7,1-0.7,0c-0.2-0.7-2.6-2.2-1-2.4
		c0.6,0.3,1.8-0.1,0.8-0.6c-0.7-0.7-1.3,0.8-1.3,0.6c-0.6-0.8-1.3-1.5-1.9-2.3C256.7,173.9,256.8,173.3,256.3,173.1L256.3,173.1
		L256.3,173.1L256.3,173.1L256.3,173.1z M277.5,171.3c-0.5-0.5,0.5-1.1,0.5-0.5C278.6,170.8,277.5,171.3,277.5,171.3L277.5,171.3
		L277.5,171.3L277.5,171.3z M282.8,186.7c-0.5-0.5,1.1-1.1,1.6-1.1C283.9,186.2,282.8,186.2,282.8,186.7L282.8,186.7L282.8,186.7
		L282.8,186.7z M258.4,179.3v-0.5V179.3c0.5,0.5,1.1,0.5,1.1,1.1c-0.5,0-1.6,0-1.6-0.5c0,0,0,0,0,0.5
		C257.3,179.3,257.9,179.3,258.4,179.3L258.4,179.3L258.4,179.3L258.4,179.3z M269.5,178.8c0.5-1.1-1.6-2.1-2.1-1.6
		c0-0.5,0.5-1.1,1.1-1.1c0.5,0,0.5,0.5,1.1,1.1c0.5,0.5,1.1,0,2.1,0.5c0.5,0.5,0,1.1,0.5,2.1c0.5,0,1.1,0,1.1,0.5
		c0.5,1.1-0.5,0-0.5,0c-0.5-0.5-1.1-1.1-1.1-1.6C271.1,178.8,270.1,179.3,269.5,178.8L269.5,178.8L269.5,178.8L269.5,178.8z
		 M272.7,193.6h-2.1c-0.5-0.3-0.6-1.2-0.1-1.5c0.2,0,0.6-0.4,0.6-0.4c0,0.5,0.7,0.6,1.1,0.4c0.1,0,0.6-0.2,0.3,0.1
		c0.1,0.4,0.6,0.7,1,0.7c0.5,0,0.8-0.6,1.3-0.4c0.9,0.1,1.7,0.5,2.6,0.5c0.3-0.1,0.8-0.2,1,0c0.2,0.2,0,0.9,0.5,0.6
		c0.3-0.3,0.7-0.1,1-0.2h0.7c0.1,0.4,0,1.1-0.6,1c-0.8,0.1-1.6,0-2.5,0h-1.4c-0.4,0.3-1,0.2-1.2-0.2c-0.2-0.4-0.5-0.6-1-0.7
		C273.6,193.7,273.2,193.6,272.7,193.6L272.7,193.6L272.7,193.6L272.7,193.6L272.7,193.6z M274.8,171.9h1.6c-0.5,0-0.5,0.5-0.5,0.5
		C275.4,171.9,274.3,172.9,274.8,171.9L274.8,171.9L274.8,171.9L274.8,171.9z M274.8,182.5c0-0.5-0.5-1.1-1.1-1.6h0.5
		C274.3,181.4,275.4,181.4,274.8,182.5L274.8,182.5L274.8,182.5L274.8,182.5z M277,169.2v0.5c-0.5,0-0.5,0-0.5-0.5H277L277,169.2
		L277,169.2L277,169.2z M277,185.7v-0.5c0-0.5,0.5-0.5,0.5-0.5C278,184.6,277.5,185.7,277,185.7L277,185.7L277,185.7L277,185.7z
		 M278.6,186.7c0-0.5,0.5-1.1,1.1-1.1C279.1,186.2,279.1,186.2,278.6,186.7L278.6,186.7L278.6,186.7L278.6,186.7z M279.1,180.4
		c-1.1-0.5,0-1.6-1.1-2.1C279.1,177.2,280.2,179.3,279.1,180.4L279.1,180.4L279.1,180.4L279.1,180.4z M279.1,183
		c0-0.5,1.1-0.5,1.1-0.5C280.2,183,279.6,183,279.1,183L279.1,183L279.1,183L279.1,183z M280.2,176.6c-0.5-0.5-0.5-0.5-1.1-0.5
		c0-0.5,0-0.5,0.5-0.5h-1.1c-1.1-0.5,0-0.5,0-0.5c1.6-0.5,1.6,0,2.7,1.1C280.7,176.1,280.2,176.1,280.2,176.6L280.2,176.6
		L280.2,176.6L280.2,176.6z M286.5,189.9c0,1.1-0.5,0-0.5-0.5s1.1-1.1,1.6-1.6c0.5,0.5,0,1.1,0,1.6
		C287.1,189.9,287.1,189.4,286.5,189.9L286.5,189.9L286.5,189.9L286.5,189.9z M256.3,174v0.5c-0.5,0-1.6-1.1-1.6-2.1
		C256.3,172.4,255.2,174,256.3,174L256.3,174L256.3,174L256.3,174z M258.9,177.2c0,0,0,1.1-0.5,1.1
		C258.4,177.7,258.4,176.6,258.9,177.2L258.9,177.2L258.9,177.2L258.9,177.2z M259.5,182.5c-0.5-0.5-0.5-0.5-0.5-1.1
		C259.5,181.4,260,181.9,259.5,182.5L259.5,182.5L259.5,182.5L259.5,182.5z M273.3,169.2c-0.5-0.5-0.5-1.1,0-1.1
		S273.8,169.2,273.3,169.2L273.3,169.2L273.3,169.2L273.3,169.2z M282.3,182.5c0,0-1.6-0.5-0.5-0.5c0-0.5,0.5,0,1.1,0L282.3,182.5
		L282.3,182.5L282.3,182.5L282.3,182.5z"/>
	<path id="HR" class="st0" d="M231.3,146.9c1-0.1,2.2,0.2,3.1-0.3c0.6-1.1,1.5,0.2,2.5,0.2c1,0.6,1.3-0.9,1-1.3
		c0.6-0.2,1.9-0.4,1-1.2c-0.3-1.3,1.6-1.3,2.3-1.9c0.7-0.6,1.6,0.2,2.2,0.7c0.9,0.9,2.1,1.6,3.3,2c0.8,0.3,1.7,0.4,2.6,0.4
		c0.6-0.6,2-0.4,1.6,0.6c0.4,0.2,0.5,0.5,0.4,0.8c0.6,0.5,1.6,1.3,0.4,1.6c0.2,0.9-1,1.6-1.4,0.6c-0.3-0.7-0.9-0.7-1.5-0.7
		c-0.7,0-1.4-0.1-2,0.1c-1.1-0.1-2.1-0.1-3-0.7c-1-0.3-1.7,0.5-2.5,0.8c-0.6-0.4-1.7-1.4-2-0.1c-0.5,1.4,1.6,1.7,1.6,3
		c0,1.2,1.1,1.6,1.9,2.1c0.5,1.2,1.7,1.8,2.6,2.7c0.3,0.5,1.4,1.3,1.2,1.7c-1.2,0.3-1.7-1.2-2.7-1.5c-0.9-0.6-2-1-3-0.7
		c-0.7-1.1-1.8-1.8-2.8-2.5c-0.6-0.4-0.9-1.4,0.1-1.2c0.3,0,1.1,0.1,0.4-0.2c-0.9-0.5-2.2-1.1-2-2.4c-0.1-1-0.8-2.2-2-2.1
		c-1.1,0.3-1,2.1-1.8,2.3C231.9,149.1,231.2,148.1,231.3,146.9L231.3,146.9L231.3,146.9L231.3,146.9L231.3,146.9z"/>
	<path id="HU" class="st0" d="M240.4,140.6c0.3-0.6,2.1-0.2,1.4-1.3c0-0.8,1.1-2.1,0.3-2.5c0.7-0.1,1.8,0.6,1.7-0.6
		c0.3-1.2,1.3-0.7,1.8,0c1,0.7,2.3,0.5,3.4,0.2c0.7,0.1,1.1-0.3,1-0.9c0.9-0.6,2.2,0,2.9-1c1,0.3,2.4,0.7,2.9-0.6
		c0.2-1.3,1.4-1.1,2.4-0.9c1.1-0.4,1.6,0.7,2.6,1c0.8-0.5,1.7-0.2,2.3,0.6c0.3,0.8,1.8,0.3,1.3,1.2c-0.3,1.2-1.8,0.4-2.2,1.5
		c-0.6,1-1.5,1.9-1.9,3c-0.1,0.9-0.7,1.3-1.2,1.9c-0.1,0.9-0.6,1.1-1.4,1.2c-1,0.8-2.5,0.2-3.7,0.4c-0.9-0.6-1.5,1-2.5,0.8
		c-1.1,0.3-2.2,0.6-3.3,1.1c-1.2-0.2-2.3-0.7-3.4-1.2c-0.6-0.9-1.5-1.5-2.4-2C241.7,141.8,241.6,140.4,240.4,140.6L240.4,140.6
		L240.4,140.6L240.4,140.6L240.4,140.6z"/>
	<path id="IE" class="st5" d="M149.1,119.3c-1,0.1,0.5-0.2,0.6-0.6c0.7-0.8-0.5,0.1-0.9,0.1c-0.8,0.4-1.4-0.6-0.5-0.9
		c0.4-0.4,1.6-0.5,1.6-0.8c-0.7-0.5-1.8,0.4-2.3-0.1c0.5-0.6,1.4-0.3,2.1-0.3c0.5,0.1,0.6-0.3,0.2-0.5c0.5-0.5,1.1-1.2,1.9-1.1h2.1
		c-0.4-0.9-1.4,0-2.1-0.1c-0.4,0-1.5,0.2-1.5,0c0.8-0.3,1.5-1,1.7-1.8c0.3-0.2,1.6-0.4,1-0.8c-0.9,0.1-1.8,0-2.6-0.5
		c-0.1-0.1,0.5-0.6-0.1-0.5c-0.6,0.6-1.1-0.7-0.3-0.6c0.4,0,1.6,0.1,0.7-0.1c-0.8-0.6,1.5-1.2,0.1-1.1c-1,0.2,0.6-1.1-0.5-1
		c-0.1,0.3,0.4-0.3-0.1-0.4c-0.7-0.8,0.7-0.1,1-0.4c0.7-0.5,1.5,0.2,2.2,0.1c0.3-0.6,1.8,0.3,1.7-0.3c-0.2-0.4,2-0.6,0.9-1.3
		c-0.5,0-1.6-0.2-0.9-0.8c0.2-0.1,0.9,0.1,0.4-0.2c0.9,0.1,0.1-1.6,1.2-1.4c0.5-0.2,1.7,0.3,1.7-0.3c0.1-0.8,1.2,0.2,0.4,0.5
		c-0.3,0.6,1-0.2,0.4-0.5c0-0.9,1.6-0.3,1.7-0.1c-1,0.4-1.3,1.4-1.9,2c-0.3,0.3-1.3,0.5-1.3,0.5c0.6,0.3-0.2,0.7-0.5,0.7
		c-0.4,0.9,0.8,1.5,1.6,1.5c1,0.5,1-0.9,1.8-1.1c0.9,0,0.7,1.5,1.6,1.5c0.4-0.5,1.6,0.1,0.7,0.4c-1.1,0.3,0.5,1.3,0.4,1.9
		c-0.1,0.7-0.6,1.3,0,2c0.1,1.1-0.7,1.9-1.2,2.8c-0.3,0.2-1,0.3-0.3,0.5c0.2,0.7-1,0.4-1.4,0.5c-0.8-0.3-0.8,0.8-1.6,0.5
		c-0.8-0.3-1.4,0-2,0.4c-0.6-0.1-1,1.4-1.4,0.7c-0.1-0.5-1.3-0.3-0.7,0.1c-0.3,0.8-1.3,0.7-1.9,1.1c-1,0.4-2.2-0.1-3.1,0.6
		c0.3-0.2,1.2-1.2,0.4-0.7c-0.6,0.5-0.3-0.3,0.2-0.2C151.1,118.9,149.1,119.1,149.1,119.3L149.1,119.3L149.1,119.3L149.1,119.3
		L149.1,119.3z"/>
	<path id="IM" class="st4" d="M168.2,109.7c0.5,0,1.1-0.5,1.6-1.1c0,0-0.5-0.5-0.5,0C168.7,108.7,168.2,109.2,168.2,109.7"/>
	<path id="IS" d="M166,45c1.9-1.3,3-1.3,3,0c0,0.5-1,1-2.2,1C164.9,46,164.8,45.8,166,45L166,45z M114.6,61c0.9,0.2,1.9-0.5,2.5-0.7
		c0.6,0.6,1.4-0.3,1.9,0.4c0.8-0.1,1-0.3,0.4,0.3c0.6-0.2,0.6-0.9,1.3-0.3c0.5,0.3,1.1,0.3,0.2,0.3c-0.8,0.1-2.2,0.7-2.4,1h2.5
		c-0.8,1.1-2.2,0.5-3.2,0.4c-0.8-0.4-1.7,1.2-1.6,0c-0.2,0.8-1,0.6-1.6,0.6c-0.6-0.2-1.6,0.5-0.5,0.7c1-0.4,2-0.5,3-0.1
		c0.6-0.2,1.5,0.5,1.8,0c-0.8,0.4-0.2,0.8,0.1,1c0.4-0.5,2.9-0.6,1.3-0.2c-0.5,0.2-1.2,0.9-0.5,0.8c-0.4,0-1.5,0-0.4,0.2
		c0.4,0,1.8-0.5,1.3-0.1c-0.3,0-1.7,0.5-0.8,0.5c-0.9,0.4-1.5,1-2.5,1.1c-0.4,0,0.1-1.1-0.5-0.1c-0.7,0.9,0.3,0.7,0.8,0.7
		c1,0,2.1,0.1,3.1-0.1c0.7-0.4,1.6-0.6,0.7,0.1c0.6,0.2,1,0.2,1.4,0.1c0.3,0.5-0.7,0.5,0.3,0.4c0.4-0.5,0.8-0.5,1,0
		c-1.2-0.1,0.3,1.2,0.9,0.6c1,0.3,2.1,0.6,3.2,0.5c0.8,0,1.6,0.1,2.4-0.1c0.8-0.3,0.9-1.2,1.8-1c0.9,0.1,2.1-0.1,2.5-1.1
		c0.4,1,2.1,0,2.8-0.5c1.1-0.8,2.3-1.4,3.6-0.6c0.9-0.6,1.4-1.6,2.3-1.8c-0.4-0.5,0.8,0.2,1.3-0.3c0.3-0.1,0.1-0.8-0.3-0.6
		c0.5,0,1.5,0.1,0.5-0.5c-1.1-0.3,0.4-0.1,0.9,0.1c1.3-0.8-1.9-0.6-0.3-0.7c1-0.4,0.1-0.6-0.5-0.5c0.5,0.2,1.9-1.2,0.5-1.1
		c-0.4-1-2,0.2-1.9,0c0.9-0.1,1.2-1.6,0.1-0.8c-0.9,0.6-0.8-0.1-0.3-0.6c0.7-1-1.8-0.4-0.6-1c-0.2-0.9,1.9-0.8,0.6-0.8
		c-0.8-0.2-1.9,0.8-2.1,0.9c-0.9-0.3-0.1-1.4-1.3-1.3c-0.7-0.1-2.4-0.5-1.7,0.8c-0.7,1.6-2.1-0.6-3.1,0.7c-0.8,1.6-1.9-1.9-2.7-0.1
		c-0.2,0.6,0.6,0.8,0.3,1.6c-0.5-0.1-1-2.1-2.1-2c-0.5,0.3-0.7,0.7-1.4,0.5c-0.7,0-0.3,1.8-1.3,1c-0.3-0.9-2.2-1.8-2-0.3
		c0.6,0.9-0.6,2.4-1.1,1.1c-0.7-0.5-1.3,1.1-1.7,1.1c0,0.4,0.1,1.4-0.2,0.4c0-0.5-0.3-1-0.8-0.6c1.3-0.4-1.6-2,0.1-1.3
		c1,0.1,0.9-1.1,0.6-1c0.2-0.6-0.9-0.1-0.9-0.8c-0.5-0.4-1.3-0.3-1.6-1.1c-0.6-0.2-2.9,0.4-1.3,0.9c0.5,0.2,1.4,0.2,0.4,0
		c-0.7-0.4-1.4,0.3-0.4,0.6c0.6,0.3,1.4,0.7,0.3,0.8c-0.8,1,0.4-0.7-0.5-0.4c-0.4,0.3-0.3,0.3-0.4-0.1c-0.6,0.8-0.7-0.3,0.1-0.1
		c-0.5,0-1.7-1.1-1.7-0.2c0.4,0.3-0.7,0.1,0,0.5c0.6,0.3-1.5-1-0.7,0.1c0.5,0.3,1.3,0.9,0.3,0.5c-0.5-0.3-1.4,0.3-0.4,0.2
		c0.5,0,1.4,0.7,0.5,0.5c1.3,0-1,0.3-1.3-0.3c-0.6-0.3-1.2-0.2-0.3,0.2c0.7,0,0.4,0.1,0.2,0.6c0.8,0.2-1-0.2-1.3-0.2
		C112.2,60.6,114.6,60.3,114.6,61L114.6,61z"/>
	<path id="IT" class="st0" d="M226,186.7v-0.5C226,186.2,226.6,186.2,226,186.7L226,186.7L226,186.7L226,186.7z M206.4,148.5
		c2.1-0.1,1.6-2.2,0.5-3.2c1.2-1.2,3.1,0,4.4-0.9c0-1.2,1.8-2.7,1.9-0.7c1,0.1,1.2,1.6,1.8,1.4c-0.1-1.2,0.9-2,1.1-3.1
		c0.4,1.7,1.8,0.1,2.6,1.5c1.1,0.3-1.1-2,0.7-1.8c1.7,1.7,0-2.3,1.9-1c1,0.8,1.6-1.4,3-0.7c1.1-0.1,2.6-1.3,2,0.4
		c0.7,2.3,4.2,0.8,5,2.1c-1.4,1.1,1.6,1.1,0,2c0.5,0.5,0.5,0.8,1.2,1.7c-0.6,0.4-0.8-0.9-1.7-0.5c-1-0.1-2.7,1.3-3.4,1
		c0.9-0.2-1.5,0.1-0.7,1.1c0.9,0.8,1.5,1.9,0.2,2.1c-0.9,2.5,2.2,3.9,4,5c2.4,1.1,1.3,4.5,3.5,5.7c1.5,1.4,3.4,2.4,5.5,2.2
		c2-0.2,1.5,1.1,0.4,1.9c1.8,1.4,4.4,1.7,6.2,3.2c1.6,0.8,4.2,1.7,3.4,3.9c-0.4,1.4-2.2-0.6-2.3-1.5c-0.7-0.3-2.1,0-1.9-1.2
		c-2,0.2-3,2.5-2.5,4.2c1.8,0.2,3.2,3.2,0.7,3.5c-1.3,0.9-0.3,2.8-2.1,3.5c-0.8,1.3-2.9,0.8-1.5-0.7c1.3-0.6-0.1-2.5,1.7-2.3
		c-0.6-2-1.1-4.4-2.6-5.9c-2,1.3-1.6-2.3-3.2-2.6c-1.4,0.1-1.4,0.6-1.3-0.8c-1.9,0.6-1.4-2.4-3.2-1.9c-1.4-0.1-2.6-0.7-3.7-1.6
		c-1.5-1.3-2.7-3.1-4.5-4c-0.8,0.1-1.1-2.4-2.6-2.5c-0.9-1.8-0.8-4.8-3.4-5c-1.4-0.6-3.4-2.3-4.6-0.3c-0.7,0.6-3.2,3-3.2,0.9
		c1.5-1.6-3.2-0.4-2.4-2.6C208.8,149.7,206.9,149.6,206.4,148.5L206.4,148.5L206.4,148.5L206.4,148.5L206.4,148.5z M212.2,169.7
		c0.2-0.5-0.8-0.5-0.5-1v-1.1c0.4,0.5,1.3,0.4,1.8-0.1c0.6-0.5,1.3-0.9,1.9-1.4c0.5-0.3,0.9,0.1,1.1,0.5c0.2,0.2,0.6-0.2,0.4,0.2
		c0.1,0.3-0.1,0.5-0.2,0.7c0.2,0.3,0.8,0.3,0.9,0.7c0.4,0.6,0.2,1.5-0.3,2c-0.3,0.5,0.1,1,0.2,1.5s-0.1,1.1-0.3,1.6
		c-0.2,0.6,0.4,1.3,0.1,1.9c-0.2,0.4-0.8,0.2-1.1,0.1c-0.4-0.2-1.2-0.5-1.2,0.1c0.1,0.5-0.3,1.1-0.8,1.1c-0.6,0.2-0.9-0.3-1.4-0.5
		c-0.4-0.1,0.2-0.3,0.1-0.6c0.1-0.5,0-1.1,0-1.6c0-0.4-0.2-1.2,0.4-1c0.2,0,0.1-0.3,0.1-0.5c-0.4-0.2-0.7-0.7-0.6-1.2
		C212.9,170.7,212.5,170.3,212.2,169.7L212.2,169.7L212.2,169.7L212.2,169.7L212.2,169.7L212.2,169.7L212.2,169.7z M229.2,183
		c-0.5,0-1.1-0.5-1.6-0.5c-0.5-1.1,1.1-1.6,1.1-2.1c0.5,0.5,1.1,0,1.6,0c1.1-1.1,1.6,0.5,3.2,0.5h1.6c0.5-0.5,1.6-1.1,2.1-1.1
		s0.5,0.5,1.1,0c0,0,1.1-0.5,1.6,0c-0.5,0.5-1.1,1.1-1.6,1.6c0,0.5-0.5,1.6-0.5,2.1s1.1,1.1,0.5,1.6c0,0.5-0.5,1.1,0,1.6h-2.1
		c-1.1-0.5-1.1-1.1-1.6-1.6c-1.1-0.5-1.6-0.5-2.7-1.1C230.8,183.5,230.3,183,229.2,183L229.2,183L229.2,183L229.2,183z"/>
	<path id="JE" class="st1" d="M176,129.8v0.2h-0.1l-0.1-0.1h-0.2h-0.2v-0.4h0.4L176,129.8L176,129.8L176,129.8L176,129.8z"/>
	<path id="XK" class="st1" d="M255.7,159.1c0-0.5,0.5-0.5,0.5-0.5l0,0c0.5-0.5,0.5-0.5,1.1-0.5c0.6,0,0.5-0.5,0-1.1h1.1
		c0,1.1,2.7,0.5,2.7,1.6c-0.5,0.5,0.5,0.5,1.1,1.1c0,0.5-1.1,1.1-0.5,1.6c-0.5,0-1.1,0-1.1,0.5H259c-1.1,0.5-0.5,1.6-1.1,1.6
		c0,0,0-1.6-0.5-1.6c0-0.5-0.5-0.5-1.1-0.5c0-0.5,0-1.1-0.5-1.1c0-0.5,0-1.1-0.5-1.1"/>
	<path id="LI" d="M216.5,139.5l0.5-0.5C217,139,217.5,140,216.5,139.5"/>
	<path id="LT" class="st0" d="M255.7,99.7c1,0.3,1.3-1.3,2.4-1c1.1-0.1,2.3,0,3.5-0.1c0.9,0.2,1.7-0.1,2.6,0c1-0.1,2,0.9,2.9,0.2
		c0.8-0.9,1.6-0.1,2.2,0.5c0.8,0.5,2,0.2,2.8,0.9c0.6,0.8,1.8,1,2.3,1.9c-0.4,0.8,0.9,0.9,0.8,1.5c-0.9,0.2-1.5,0.9-2.2,1.4
		c-1.1,0.3-0.5,1.6-1.1,2.3c-0.2,0.4,0.7,0.5,0.1,0.8c-0.5-0.1-1-0.8-1.5-0.2c-0.5,0.5-1.3,0.6-1.8,1.2c-0.8,0.4-1.8,0.2-2.6,0.1
		c-0.6,0.1-1.3,0.1-1.4-0.6c-0.7-0.4-1.2-1.2-2-1.5c-0.8,0.1-1.2-0.5-0.6-1.1c0.3-0.9-0.7-1.8-1.5-1.8c-1,0.5-1.9,0-2.7-0.6
		c-0.7-0.3-1.2-0.6-1.4-1.4C255.9,101.4,255.6,100.6,255.7,99.7L255.7,99.7L255.7,99.7L255.7,99.7L255.7,99.7z"/>
	<path id="LU" d="M203.7,127.3L203.7,127.3c0-0.5,0-1.1,0.5-1.6c0.5,0,0.5,0.5,0.5,1.1c0.5,0,1.1,0.5,1.6,0.5c0,0.5-0.5,1.1-0.5,1.6
		c-0.5,0-1.6,0-2.1-0.5C204.3,128.4,203.7,127.8,203.7,127.3"/>
	<path id="LV" class="st0" d="M255.2,98.1c0.3,0.4,0.7,0.7,0.3,0c-0.5-0.9,0.2-1.6,0.7-2.2c0.1-0.9,0.4-1.8,1.1-2.4
		c0.9-0.2,1.8-0.6,2.7-0.6c0.8,0.7,1.6,1.5,2.4,2.2c0.6,1,2.1,1.4,3,0.6c1-0.5,0.7-1.8,0.3-2.6c0.1-0.3-0.2-1,0.3-1
		c0.9-0.4,2-1,3-0.5c1-0.1,1.8,0.4,2.6,0.8c0.7,0.7,1.6,1.3,2.6,0.8c1,0.2,1.9,0.6,2.9,0.9c0.9,0.5,0.2,1.8,0.5,2.3
		c1,0.4,1.8,1.5,1.8,2.6c-0.1,0.8-1.4,0.5-1.4,1.4c-0.3,1.3-1.6,0.2-2.4,0.7c-1.1,0.6-2.2,0-3.1-0.7c-1.1-0.6-2.4-0.9-3.5-1.4
		c-0.5-0.6-1.3-0.9-1.9-0.2c-1,0.6-2.1-0.1-3.1-0.3h-6.2c-0.6,0.4-1.6,0.8-1.9,1.4C255.4,99.6,255.2,98.8,255.2,98.1L255.2,98.1
		L255.2,98.1L255.2,98.1L255.2,98.1z"/>
	<path id="MC" d="M209.1,154.9v-0.5V154.9"/>
	<path id="MD" class="st1" d="M278,134.2c0.5-0.7,1.4-0.5,2.1-0.5c0.7-0.2,1.6-0.4,2.1,0.3c0.4,0.8,1.5,0.7,2.1,1.2
		c0.4-0.7,1.1,0,1.5,0.4c0.7,0.1,1.3,0.6,1.4,1.3c0.1,0.6,0.4,1.1,0.8,1.5c0.3,0.3,0.9,0.2,0.7,0.8c0,0.3-0.4,0.9-0.5,0.8
		c0.9-0.4,1.5,0.6,2,1.2c0.1,0.6,0.3,1.2,0.3,1.7c-0.6,0.7-1.2-0.4-1.8-0.3c-0.7,0.1-1.7-0.5-1.7,0.5c0.1,0.8-0.4,1.3-0.8,1.8
		c-0.3,0.6-0.5,1.4-1.1,1.7c-0.5,0.3-1.2,0.3-0.9-0.4c0.4-0.9-0.5-1.5-0.3-2.4c0-0.8,0.6-1.4,0.4-2.2c-0.4-1-1.1-1.7-1.8-2.4
		s-1.5-1.4-2.2-2.2c-0.7-0.8-0.8-2.1-1.8-2.6C278.3,134.2,278.2,134.2,278,134.2L278,134.2L278,134.2L278,134.2L278,134.2z"/>
	<path id="ME" d="M249.9,160.2c1.1-0.5-1.1-2.7,0.5-2.1c-0.5-1.1,1.1-2.1,1.1-1.1c0.5-0.5-0.5-1.1,0-1.6c0.5,0.5,0.5,1.1,1.1,1.1
		c0.5,1.1,1.1,1.1,2.1,1.6c0,0,1.1,0,1.1,0.5c0.5,0.5-0.5,0.5-0.5,0.5s1.1,0.5,0.5,1.1c-0.5,0-1.1,0.5-1.1,0s-0.5-0.5-0.5-0.5
		c-1.1,1.1-1.1,2.1-1.1,3.7c-0.5-0.5-1.1-1.1-1.6-1.6c0-0.5-1.1-1.1-1.1-1.1c0-0.5,0-0.5,0.5,0C251,160.2,249.4,161.3,249.9,160.2"
		/>
	<path id="MK" class="st0" d="M257.3,164.4c0.2-0.4,0.1-1,0.6-1.1c0.4-0.1,0.5-0.6,0.7-0.9c0.2-0.3,0.5-0.8,0.9-0.6
		c0.3,0.3,1,0.6,1.1,0c0.1-0.5,0.6-0.7,1-0.4c0.5,0.1,0.9-0.1,1.4-0.2c0.4-0.2,1-0.6,1.4,0c0.3,0.6,0.8,1.1,1.3,1.5
		c0.4,0.3,0.7,0.8,0.7,1.4c0,0.5,0.4,1,0.2,1.5c-0.4,0.4-1,0.6-1.4,1c-0.5,0.2-1.1,0.1-1.6,0.1c-0.5-0.1-0.7,0.5-1.2,0.6
		c-0.8,0.4-1.7,0.5-2.6,0.4c-0.5,0.1-1.2,0.1-1.2-0.6c-0.1-0.6-0.7-0.8-0.8-1.4C257.6,165.2,257.6,164.8,257.3,164.4L257.3,164.4
		L257.3,164.4L257.3,164.4L257.3,164.4z"/>
	<path id="MT" d="M235.6,191c0,0-0.5-0.5-0.5-1.1C235.6,190.4,236.1,190.4,235.6,191"/>
	<path id="NL" class="st3" d="M196.9,118.8L196.9,118.8c0,0.5,0.5,1.1,1.1,0.5C197.9,118.8,197.4,118.8,196.9,118.8 M197.4,118.8
		c0.5-0.5,1.1,0.5,1.6,0.5C198.4,118.8,197.9,118.3,197.4,118.8 M195.3,120.9c0-1.1,2.7-0.5,3.2-0.5c-0.5,0.5-1.1,1.1-1.6,0.5H195.3
		 M197.4,119.3c0,0.5,0.5,1.1,1.1,1.1c0-0.5-0.5-0.5-1.1-0.5c0.5-0.5,1.6,0,0.5-0.5c1.1,0.5,1.6-0.5,2.7-0.5c0,0-1.1,0.5-1.6,0
		c-0.5,0-1.6-0.5-1.1-1.1c1.1-1.1,1.6-2.1,2.1-3.2c0.5-0.5,0.5-1.1,1.1-1.1c0.6,0,1.6-0.5,1.6-1.1c1.1-1.1,2.7-1.1,4.2-1.1
		c0.5,0,2.1,1.1,2.1,1.6c-0.5,0.5-0.5,1.1-0.5,1.6s-1.1,0-1.6,0.5c0,0.5,2.1,0.5,1.1,2.1h-0.5c-0.5,0.5-0.4,0.2-0.4,0.7l-1.8,0.4
		c0,0.5-1.1-0.5-1.1,0.5c0.4,0,1,0.5,1.1,1.1c0.2,1-0.2,1.4-0.5,2.1c0,0-0.3,0.8-0.6,1.1c0-1.4-0.4-1.4-0.3-1.7
		c-1.1-0.5-2.4-0.5-2.9-1.5c0,0.5-0.5,0.5-1.1,0c0,0.5-0.5,0.5-1.1,0c0.5,1.1-1.1,0.5-1.6,0.5s-1.1,0-1.6-0.5
		C196.3,119.3,196.9,119.3,197.4,119.3"/>
	<path id="NO" class="st3" d="M203.2,85.9c-0.5,0.5-0.5,1.1,0,1.1V85.9L203.2,85.9L203.2,85.9L203.2,85.9L203.2,85.9z M203.7,83.3
		c-0.5,0.5-0.5,1.1,0,1.1S203.7,83.3,203.7,83.3L203.7,83.3L203.7,83.3L203.7,83.3z M211.2,71c0,0,0,0,0.5-0.5h-0.5c0,0,0,0.5-0.5,0
		C210.6,71,210.6,71,211.2,71L211.2,71L211.2,71L211.2,71z M212.8,69.5c0-0.5-0.5-0.5-1.1,0H212.8L212.8,69.5L212.8,69.5L212.8,69.5
		z M213.3,68.9c0.5,0.5,2.1,0,2.7-0.5c-0.5-0.5-0.5-0.5-1.1,0h-0.5C214.4,68.4,213.8,68.4,213.3,68.9L213.3,68.9L213.3,68.9
		L213.3,68.9z M221.3,63.1c0.5,0,1.1,0.5,1.6,0C222.3,62.6,221.8,63.1,221.3,63.1L221.3,63.1L221.3,63.1L221.3,63.1z M224.4,62
		c-0.5,0-1.1,0-1.1,0.5C223.9,62.6,223.9,62.6,224.4,62L224.4,62L224.4,62L224.4,62z M234.5,48.2h0.5c-0.3,0-0.6,0-0.8,0.2
		c-0.2,0.1-0.2,0.3-0.1,0.5c0.1,0.1-0.2,0.4,0.1,0.4c0.2-0.1,0.3-0.2,0.5-0.4c0.1-0.1,0.4,0.1,0.2,0.2c-0.1,0.2,0,0.3,0.2,0.3
		c0.2,0,0.5-0.1,0.5-0.3c0-0.2,0.2-0.4,0.4-0.3c0.1,0.1,0.2,0.3,0.4,0.3c0.2,0,0.2-0.3,0.3-0.5c0.1-0.2,0.4-0.2,0.5,0
		c0.2,0.2,0.6,0.2,0.8-0.1c0.2-0.2,0.1-0.6-0.2-0.8c-0.1-0.1-0.2-0.4-0.4-0.4c-0.3,0-0.3,0.4-0.5,0.4c-0.4,0.1-0.8,0.5-1.1,0.8
		c-0.2,0.1-0.2-0.3,0-0.4c0.1-0.1,0.2-0.3,0.3-0.4c0.1-0.2,0-0.4,0-0.5c-0.1-0.2-0.2-0.2-0.4-0.1c-0.1,0.1-0.3,0.1-0.4,0.2
		c-0.1,0.1-0.2,0.4,0,0.6c0.1,0.2-0.1,0-0.2,0c-0.2,0-0.3,0.1-0.4,0.3H234.5L234.5,48.2L234.5,48.2L234.5,48.2L234.5,48.2z
		 M239.3,45.6h0.5c-0.2-0.1-0.4,0.2-0.4,0.4c0.2,0.1-0.1,0.3-0.2,0.1c-0.1,0-0.4-0.1-0.5,0c0.1,0.1,0.2,0.2,0.4,0.3
		c0.3,0.1,0.7,0.1,1-0.2c0.1-0.1,0.3-0.2,0.5-0.1h1.3c-0.1,0.1-0.4-0.1-0.3-0.3c0.1-0.2,0.3-0.3,0.5-0.3c0.2-0.1,0.1-0.4,0-0.4
		c-0.3-0.2-0.6-0.5-1-0.7c-0.2-0.1-0.4,0.2-0.2,0.3c0.1,0.2-0.2,0.4-0.3,0.2c-0.2-0.1-0.4-0.1-0.6-0.1c-0.1,0.1,0.2,0.3-0.1,0.4
		c-0.2,0.1-0.5,0-0.7,0.1c-0.1,0-0.3-0.1-0.4,0.1C238.9,45.7,239.2,45.6,239.3,45.6L239.3,45.6L239.3,45.6L239.3,45.6L239.3,45.6
		L239.3,45.6L239.3,45.6z M244.6,44h0.5c-0.3-0.3-0.7-0.5-1.1-0.5c0.1-0.1,0.3,0.1,0.2,0.2c-0.1,0.1-0.1,0.2-0.2,0.3
		c-0.2,0-0.5-0.2-0.5-0.4c0,0.1-0.1,0.3-0.2,0.3c0.1,0.1,0.1,0.2,0,0.2c-0.1,0.1-0.3,0.1-0.4,0.2c-0.1,0,0,0.2-0.2,0.2h-0.3
		c0.1,0.1,0.2,0.2,0.4,0.2c0.4,0.1,0.9,0.1,1.2,0C244.4,44.6,244.6,44.3,244.6,44L244.6,44L244.6,44L244.6,44L244.6,44L244.6,44z
		 M244.2,42.9c0,0.2,0.1,0.5,0.3,0.6c0.3,0.1,0.6,0.1,0.9,0c0.5-0.1,1-0.4,1.4-0.6h-0.4h-0.5c-0.1-0.1-0.1-0.2-0.1-0.4
		c0-0.1-0.1-0.2-0.2-0.1C245.1,42.5,244.7,42.8,244.2,42.9L244.2,42.9L244.2,42.9L244.2,42.9L244.2,42.9z M248.8,42.4
		c0,0.5,1.1,0.5,1.1-0.5C249.4,41.9,249.4,42.4,248.8,42.4L248.8,42.4L248.8,42.4L248.8,42.4z M255.7,41.9h0.5
		c-0.5-0.5-1.1-0.5-1.6-0.5C254.7,41.9,255.2,41.9,255.7,41.9L255.7,41.9L255.7,41.9L255.7,41.9z M257.9,40.8L257.9,40.8
		c-0.5,0.5-1.6,0-2.1,0.5c0.5,0.5,1.1,0,1.1,0.5C257.3,41.9,258.4,41.3,257.9,40.8L257.9,40.8L257.9,40.8L257.9,40.8z M258.9,40.8
		c0.5-0.5,0-0.5-0.5-0.5C257.3,40.3,258.4,41.3,258.9,40.8L258.9,40.8L258.9,40.8L258.9,40.8z M258.4,39.2c0.5,0,0.5,0.5,1.1,0
		C259.5,39.2,258.9,38.7,258.4,39.2L258.4,39.2L258.4,39.2L258.4,39.2z M264.8,39.2L264.8,39.2c-0.5,0,0,0,0-0.5h-1.1h-1.1
		c0.5,0,0.5,0.5,0.5,0.5C263.7,39.7,264.2,39.2,264.8,39.2L264.8,39.2L264.8,39.2L264.8,39.2z M202.7,77.4c1.3,0,1.9-0.8,0.4-1.3
		c1.1-0.9,4.5-0.4,1.3-0.8c-1.4-1.4,3-1.4,4-1.6c1.7,0.5-2.1-1.7,0.6-1.5c1.5,0.4,3.9-0.4,1-0.7c-0.2-1,3.5,0.3,3.9-1.6
		c2.1-1.9,8.3,0.2,8-3.1c-0.1,2.8-5.7,1.5-3-0.9c1.5-1.2,5.5-1.4,5.5-2.8c-4-0.4,4.4-0.6,1.1-2.1c2.1-1.3,1.6-3.6,4-3.5
		c-2,0.3-0.6-1.9-0.2-1.7c2.1-0.7-1.1-1.3,1.1-1.4c1.7-0.2,4.3-0.6,2.9-1.7c2.9,0.1,1.4-1.4,0.6-1.5c1.2-0.2,2-0.3,1.3-1.1
		c0.8-0.4,3.8,1.5,2.4-0.6c1.7-0.8,3.8,0.1,1.2-0.9c2.3-1.3,3.6-3.7,6.7-3.5c0.1-1.9,1.8-0.6,3.2-1.1c-0.2,2.9,2.7-2.2,4.7-0.8
		c-3.3-2,2.5-1.2,3.1-0.5c2.4-0.7,4.4-5.2,7.1-2.7c-2.1,1.5,0,2.3,1.1,0.4c1.9-1.3,2.6,2,4-0.6c1-1.9,3-0.3,1.9,0.7
		c1.5,0.4,4.7-1.9,6.9,0.3c3.7,2-3.1,1.3-3,2.1c0.9,0.7,6.4,0.8,2.8,1.9c-1.5,1.3-1.8,0.9-2.5-0.5c-3.8-2.9-9.7-2-10.2,2.4
		c-1.6,2.5-1.5-0.4-5.4,0.9c-1.8,0.5-2.6,0.7-5.2-1.6c-2-1.1-5.7,0-5.6,2.9c-3.7-0.8-7.9,0.8-10.3,3.7c-0.8,3.9-5.3,5.4-6.6,9.1
		c-0.3,2.3-0.6,5.2-3.6,4.8c-4.7,2.5-2.2,8.2-0.9,11.7c-0.1,3.4-2,6.1-3.6,8.9c-1.3,0.4-3.6-5.2-3.6-0.9c-3.5,1.2-5.8,4.9-9.5,5.3
		c-2.1,0.4-6.8-1.9-5.1-4c2.7,0.6-1.2-1.5,1.7-1.6c-0.6,0.1-0.9-1.1-2.3-0.4c-3,0.6,1.6-2.6,2.2-3.3c4.4-2.6-5.5,2.3-2.4-1.6
		c-0.9,0.2-2.2-0.5-0.5-0.7c-0.8-3.8,6.5,0.5,6.4-2.2C207.7,77.9,204.9,79.9,202.7,77.4L202.7,77.4L202.7,77.4L202.7,77.4
		L202.7,77.4z M213.3,70h0.5C213.8,69.5,213.3,69.5,213.3,70L213.3,70L213.3,70L213.3,70z M203.2,75.3c0,0,0,0,0.5,0.5
		c-0.5,0-1.1,0-1.6-0.5H203.2L203.2,75.3z M206.9,73.2h-0.5H206.9L206.9,73.2z M206.4,73.2h0.5C206.9,73.2,206.9,73.2,206.4,73.2
		L206.4,73.2z M208.5,72.1c0,0,0,0-0.5,0H208.5L208.5,72.1z M209.1,71.6h-0.5H209.1L209.1,71.6z M212.8,70h-0.5
		C212.2,70,212.2,70,212.8,70L212.8,70z M214.4,69.5h-0.5H214.4L214.4,69.5z M206.4,85.4c0-0.5,0.5,0,1.1-0.5
		C206.9,85.4,206.4,85.4,206.4,85.4L206.4,85.4z M222.8,64.2c0,0.5,0,0.5,0.5,0H222.8L222.8,64.2z M221.3,63.1h0.5
		C221.8,63.1,221.8,63.1,221.3,63.1L221.3,63.1z M227.6,57.8c0,0,0,0-0.5,0H227.6L227.6,57.8z M228.2,57.8h-0.5
		C227.7,57.8,227.6,57.8,228.2,57.8L228.2,57.8z M228.7,55.1h1.1H228.7L228.7,55.1z M232.9,49.8h0.5H232.9L232.9,49.8z M233.5,50.9
		h0.5H233.5L233.5,50.9z M237.7,47.2h0.5h-1.1H237.7L237.7,47.2z M245.7,42.4h0.5H245.7L245.7,42.4z M249.9,42.9h1.1H249.9
		L249.9,42.9z"/>
	<path id="PL" class="st0" d="M232.9,114c1.2-1.1-0.3-3.1,0.9-3.8c1.2-0.5-0.4-1.2-0.9-0.7c0.2-0.4,1.9-0.1,2.6-0.7
		c1.8-0.5,3.8-0.6,5.3-1.9c1.8-1.5,4.3-1.7,6.5-1.4c0.8,0.5,0.7,0.4,0,0.1c0,1.6,1.9,2,3.2,1.6c1.2,0,0.1-0.4-0.1,0.3
		c0.9,0.1,2.4-0.7,3.6,0c1.6,0.3,3.2,0.1,4.8,0.2c1.1-0.1,2.3,0.1,3.4-0.2c2.2,0.1,2.6,2.9,3.7,4.4c1,1.4,0.6,3.3-1.2,3.7
		c-1.1,1,0.4,1.9,1.1,2.1c-0.1,1.5,0.2,2.9,1.1,4.1c0.7,0.4,1.2,1.1,0.7,1.4c1.3,1.5-1.7,2-2.3,3.1c-1.5,0.9-1.8,2.5-1.6,4
		c1.3,1.1-1.4-0.2-1.8,0c-1.3-1-2.9-1.6-4.4-0.9c-0.7,0-1.5,0.1-2.2-0.1c-1,0.6-2.1,0.8-2.5-0.5c-1-1.3-2,1.5-2.7-0.2
		c-0.6-1.7-2.3-2.1-3.9-1.9c-0.6-0.7-0.4-1.8-1.8-1.4c-0.7-0.3-1.4-0.8-1.5,0.4c-0.6,1.1-3-0.9-1.9-1.5c-0.4-0.8-1.3,0.3-1.6-0.6
		c-1-0.2-2.5-0.2-2.6-1.5c-0.8,1-1.3,0.4-0.5-0.5c-0.2-1.3-1.7-2.2-1.1-3.7c0.6-1.1-1.1-1.5-0.3-2.5
		C234.4,114.6,233.4,114.6,232.9,114L232.9,114L232.9,114L232.9,114L232.9,114z"/>
	<path id="PT" class="st5" d="M145.9,175c0.2-0.9,1.4-1.2,1.5-2.2c0.6-1.2,0.9-2.4,1.2-3.7c0.5-0.4,0.4-1,0.1-0.9
		c0.6-1.1,0.3-2.4,0.2-3.6c0-0.4,0.1-0.7-0.2-0.9c0.3-0.9,1.4-1.1,2.1-1.7c0.9-0.3,0.6,0.6,0.2,1c0.3,0.9,1.7-0.5,2.4,0
		c0.7,0.6,1.5,0.3,2.1-0.3c0.7-0.1,2.1,0.1,1.6,1c0.4,0.5,1.6,0.8,0.7,1.6c-0.5,1-2.4,1.2-2,2.4c0.1,0.9,0.5,1.9-0.1,2.7
		c-0.9-0.1-0.8,0.9-0.4,1.4c0,1.2-1.7,1.5-2.2,1.8c0.7,0.7,1,1.7,1.4,2.6c-0.2,1.1-1.7,1.9-0.9,3.2c0.5,0.4,1.1,1,0.2,1.5
		c-0.8,0.7-1.8,1.5-1.4,2.7c0.3,1.1-0.9,1.9-1.9,1.8c-0.9,0-1.7-0.8-2.6-0.6c-0.5,0-1.8,0.7-1-0.2c0.7-1.2,0.9-2.5,0.7-3.8
		c0.2-0.5,0.1-1.5,0.1-1.8c0.6,0,0.4-1,0-0.3c-0.7,0.3-2,0.3-1.1-0.6c0.2-0.6,1.4-0.1,0.9-1c-0.8-1-0.9,1.3-1.9,0.6
		c-0.6-0.6,0.3-1.5,0.4-2.1C145.9,175.3,145.9,175.2,145.9,175L145.9,175L145.9,175L145.9,175L145.9,175z"/>
	<path id="RO" class="st0" d="M255.7,143.7c1.2,0.3,1.6-0.6,2.7-0.7c1-0.9,1.8-2.1,2.2-3.5c1.2-0.7,0.4-2.4,1.8-2.6
		c1-0.6,1.8-0.7,2.6-1.6c1.6-0.9,2.9,0.9,4.5,0.3c1.3-0.2,2,1.6,3.3,0.4c1.3-1.1,3.3,0.6,4.1-1.4c1.4-1.3,2.8,1.3,3.5,2.3
		c0.7,1.7,2.7,2.4,3.4,4c1.1,1.2-0.4,2.7,0,4.1c0.2,1.3,1,3.1,2.6,2.7c0.9-0.5,3.5-1.6,3.3,0.4c0.7,1.3-2.5,2.9-1.9,1.1
		c-1.1-0.6-0.4,1.6-0.7,1.4c-0.6,0.8,1-0.5,0.2,0.2c-1.2,0.9-0.5,2.3-0.8,3.4c-1.5,0.5-3-0.9-4.6-1.2c-1.6-0.8-3.5,0-4.8,1
		c-1.5,1.2-3.5,1.1-5.2,0.5c-1.5,0.7-3.1-0.4-4.7-0.3c-0.8,0.2-2,0.3-1.4-0.9c0.3-1-2.3-1-1.5-2.3c0.6-0.1,1.2,0,0.4-0.6
		c-1.2-0.5-2.3,1.2-3.3-0.1c-1.1-0.4-1.5-1.2-1.3-2.1c-0.8-1.1-3.4-0.7-2.9-2.7C257,144.9,256.1,144.5,255.7,143.7L255.7,143.7
		L255.7,143.7L255.7,143.7L255.7,143.7z"/>
	<path id="RS" class="st0" d="M253.6,143.7h-1.1c-0.4,0.8-1.9,0.5-1.8,1.6c0.6,0.7,0.2,1.9,1.1,2.3c0.7,0.2,0.2,0.7-0.1,0.9
		c-0.2,0.5,0,0.8,0.4,0.5c1.1,0.3-0.1,1.6,0,2.4c0,1,2.1,1.3,1.1,2.3c-0.4,0.1-0.6-0.3-0.2,0.1c0.6,0.8-0.2,1.9-1.1,1.7
		c-0.7,0.8,0.9,1.3,1.4,1.8c0.8,0.8,1.8,1.1,2.9,1.3c0.7,0.4,1.9,0.3,2-0.7c0-0.5,0.7,0.6,1.1,0.7c0.6,0.6,2.1,0.3,1.7,1.5
		c-0.4,1.1,0.7,1.7,1.6,1.2c0.8-0.1,1.7-0.3,2.3-0.8c-0.9-0.9,0-2.3,1-2.4c0.9-0.9-0.2-1.7-1-2c-0.7-0.5-1.3-1.5-0.7-2.3
		c0.6-0.7,0.4-2,0.1-2.6c0.7,0.1,1.1-0.6,0.2-0.8c-0.9,0-1.9,1-2.7,0.1c-0.9-0.2-1.9-0.9-1.7-1.9c-0.3-1.2-1.9-0.9-2.5-1.8
		c-0.4-0.9-0.4-2-1.3-2.6C255.6,143.7,254.6,143.6,253.6,143.7L253.6,143.7L253.6,143.7L253.6,143.7L253.6,143.7z"/>
	<path id="RU" d="M349.2,42.6c-5.1-2-5-1.9-3.5-3.7c0.7-0.8,0.9-1.5,0.4-1.6c-0.5-0.1,0-0.7,1.1-1.5c1.1-0.8,2-1.8,2-2.2
		s1.5-2.4,3.3-4.4c3.2-3.5,3.6-3.7,11.5-4.2c4.5-0.3,10-0.8,12.3-1.2c2.4-0.4,4.4-0.2,4.8,0.3c0.7,1.1-0.6,1.6-8.4,3
		c-7.7,1.4-12.3,3.5-15.4,7.2c-3.2,3.8-3.3,6.2-0.4,8.3l2.2,1.6h-3C354.5,44.2,351.4,43.4,349.2,42.6L349.2,42.6L349.2,42.6
		L349.2,42.6L349.2,42.6z M255.3,107.6c-0.8,0-1.5,0.1-2.3-0.3l2.2-1.8c0.7-0.6,1.4-0.9,2.2-1.1c0.8-0.2,1.4,0.5,2,0.6
		c0.6,0.1,1.1-0.1,1.5,0.2c0.4,0.3,0.2,0.5,0.2,1.1c0,1,0.2,1.3-0.8,1.4C259.1,107.8,259.9,107.5,255.3,107.6z M304.8,119.3
		c4.1,4.1,7.1,5.6,14.2,7c4.5,0.9,6.2,1.8,7.8,4.1c2.2,3,2,3.9-1.4,7.7c-1.1,1.2-1.7,2.2-1.2,2.2s0.2,0.7-0.5,1.5
		c-0.7,0.8-1,1.8-0.7,2.1s0,1.8-0.8,3.3l-1.4,2.7l8.2,4.5l3-0.2c1,0,3.8,0,5.3,0.9c1.9,1.2,2,0.8,3.4,0.8c1.1-0.7,4.3,1.2,15.4,6.1
		c3.2,1.5,5.1,2.1,6,2l2.2-0.6c-1.9-2.5-4.5-6.1-4.5-6.7c0-0.7-1-2-2.1-2.8c-1.8-1.2-2-1.8-1-3.6c0.6-1.2,2.5-3.1,4.2-4.3l3-2.2
		l-2.5-2.3c-1.4-1.3-4.1-3.5-6-5s-3.5-3.6-3.5-4.6c0-3.2,1.9-6,3.8-5.4c1.1,0.4,2-0.2,2.7-1.7c0.5-1.2,2.5-3.1,4.2-4.1
		c2.9-1.7,3.8-1.8,8.5-0.7c2.9,0.7,6.4,1.8,7.9,2.6c1.9,1,3.6,1.1,6.1,0.4c2.6-0.7,7.7,0.5,7.7,0.5v-72c0,0-28.7-8-29.7-6.9
		c-0.6,0.6,0.2,1.2,2,1.6c1.6,0.4,3.5,0.8,4.2,1.1c1.7,0.5,0.9,3-0.9,2.6c-0.7-0.2-4.4,0.2-8.2,0.8c-5.3,0.9-7.2,0.9-8.3-0.1
		c-2-1.7-7.5-0.5-14.5,3.2c-4.8,2.5-6.1,2.8-7.9,1.9c-1.2-0.6-2-1.7-1.9-2.3c0.1-0.7-1-1.4-2.6-1.5c-3-0.3-3-0.5-0.9,4.6
		c0.5,1.3,0.1,1.6-6.5,3.3c-3.1,0.8-4.2,1.5-3.8,2.5c0.8,2.2-2.7,3.7-5.9,2.5c-3.9-1.5-5.4-1.1-2.3,0.6c3.4,1.8,3.4,2.2,0.2,3.4
		c-3.3,1.3-9.8-1.9-11.9-5.8c-0.8-1.5-2.7-3.4-4.2-4c-2-0.9-2.4-1.5-1.6-2.4c0.8-0.9,2.6-0.8,6.9,0.1c3.2,0.7,7.5,1.5,9.6,1.8
		c4.5,0.7,9.8-1.2,9-3.3c-0.7-1.9-19.1-7.7-22.3-7.1c-1.6,0.3-2.7-1.6-8.3-4l-4.4,0.5l-3.2,1.5l-1.5,0.3c-0.5,0.8-0.2,2.2,0.8,3.1
		c1.1,0.4,2.4,0.6,3.3,1.5c-0.1,1.7-0.6,2.5-1.6,3.7c0.6,1.1,1.7,1.6,2.6,2.1c0.7,1.1,0.8,2.3,0.7,3.6l-0.7,1.4l1.9,2l1.5,1.8
		l-0.4,2.1c1.5,0.9,2.6,1.2,3.8,2l0.6,2.6l-9.2,7.6l-1.6,0.7l0.7,1.3c2.3,0.5,4.6,0.4,6.9,1.6c-2.2,1-0.3-1.1-6.2,0.9l0.4,0.9
		l-1.3,2.3l-0.4,2.2l1.5,2.1l-0.9,1.3c0.8,0.9,0.3,2.5,2,3.5l1.1,2.1c1.2,0.7,2.7,1.3,4,1.5l4.6,0.6l1,1.9l0.1,2.6
		c1,1.2,1.9,2.4,3.2,3.2l2.9,1.4l0.6,2.1c-1.2,0.8-2.2,0.8-3.5,1.1l0.7,2.7c1.6,2,0.2,1.5,1.2,2.1l1.3-1.2h2.8
		C301.1,116.3,302.1,116.6,304.8,119.3z"/>
	<path id="SE" class="st3" d="M223.9,90.7c0,0-0.5,0-0.5,0.5c0,0,1.1,0.5,1.1,0S224.4,90.1,223.9,90.7L223.9,90.7L223.9,90.7
		L223.9,90.7z M239.8,98.6v0.5c0.5,0,0.8-0.4,0.9-0.8c0.1-0.4,0.1-0.9,0.1-1.3c0.7-0.7,1-1.6,1.1-2.6c-0.2-0.1-0.3,0.1-0.4,0.2
		c-0.2,0.4-0.3,0.9-0.6,1.2c-0.1,0.2-0.1,0.5-0.2,0.7c-0.3,0.6-0.8,1.1-0.9,1.8V98.6L239.8,98.6L239.8,98.6L239.8,98.6L239.8,98.6z
		 M246.2,96c0-0.5,1.6-1.6,1.6-2.1c-1.1,0,2.1-2.1-0.5-1.6c-0.5,0-1.1,0.5-1.6,1.1c-0.5,0.5,0,2.1,0.5,2.1c-0.5,0.5-0.5,0.5-0.5,1.1
		C246.2,96.5,246.2,96.5,246.2,96L246.2,96L246.2,96L246.2,96z M222.3,87c1.6,1.9,2.1-1.5,2.6-1.8c1.3-1.9,2.1-3.9,2.2-5.8
		c-0.1-1.8,0.5-1.7-0.5-2.9c-0.8-2.4-1.1-5.3-0.6-7.9c1.7-2,3.3-1.5,5-3c0.1-1.7,0.9-1.7,0.5-3.3c0.6-1.1,1.3-3.1,3.3-4.5
		c1-1.6,3.4-2.7,3.1-4.8c1.3-1.5,2.9-2.5,4.9-2.8c-0.6-3.8,3.8,0.1,5.6-1.5c1.3-0.8-0.5-3.1,1.8-2.1c2.4,1.2,4.8,2.4,7.8,3.1
		c1.6,1,2,3.6,1.7,3.9c1,0.5,0.8,2.8,0.8,3.7c2.2,2.6-2.2,2.6-3.8,2c-0.6,0.5,0.2,1.2-1.2,1.1c-1.2,0.4-1.9,0.4-1.1,1.4
		c-0.6,0.8-2,1.4-0.9,1.8c0.1,0.8,1.8,1.3,0,1.6c-1.5,2.9-5.2,3.3-7.8,4.6c-0.6,0.9-1.8,2.6-2.5,0.7c1.2,1.4-1.8,2.5-0.6,3.3
		c-0.9,0.3,0.2,2.9-1.1,1.8c-0.3,2,0.1,5.1,2.6,5.2c1.5,0.7,5.2,2.8,2.6,4.2c-2,0.3-0.4,1.2-0.4,1.3c-0.6,0.6-2.2,2.1-2.7,0.5
		c0.5,1.5-2,1.9-2.8,2.1c-2.5-0.5,1.9,0.6-0.4,0.6c-1-0.2,1.7,2-0.1,2.6c0.5,1.7,0.1,6.2-2.7,7.1c-2.2,0.2-5.2,0.6-5,3.3
		c-1.2,0.3-3.3,0.3-4.2-0.2c1.1-1.8-2.3-2.6-0.5-4.5c-0.8-2-3.8-3.9-3.2-6.6c1.3-1.6-1.6-0.4-0.8-1.7c-1.1,2-1.9-1.7-1.5-2.3
		L222.3,87L222.3,87L222.3,87L222.3,87L222.3,87z"/>
	<path id="SI" class="st1" d="M231.3,144.3c0.2-0.2,0.4-0.4,0.5-0.5c-0.4-0.1-1.3-0.5-0.7-0.9c0.2-0.5,0.6-1.1,1.2-0.7
		c0.5,0.2,1.1,0.2,1.6,0.4c0.4,0.1,0.7,0.1,1.1,0.2c0.6-0.7,1.4-1.1,2.3-1.1c0.6-0.1,1.3,0.2,1.8-0.3c0.3-0.3,1.1,0.2,1.1,0.1
		c-0.4-0.5,0.3-1.5,0.8-0.8c0.5,0.5,1,1,1.5,1.5c-0.4,0.1-1.1-0.4-1.4,0.1c0.2,0.2,0.4,0.6,0,0.4c-0.6-0.1-0.8,0.8-1.4,0.6
		c-0.4,0-1.2,0.4-0.6,0.8c0.5,0.6,0,1.2-0.6,1.3c-0.3,0.1-1,0.5-0.3,0.4c0.2,0-0.2,0.4-0.2,0.6c0,0.5-0.6,0.8-0.9,0.4
		c-0.5-0.4-1.1-0.4-1.7-0.7c-0.2-0.2-0.4-0.2-0.5,0.1c-0.4,0.4-1,0.9-1.6,0.6c-0.1-0.2-0.5-0.3-0.4,0.1c-0.3,0.2-0.7,0-1.1,0.1
		c-0.1,0-0.6,0.1-0.4-0.1c0.4-0.3,1.5-0.5,0.9-1.2c-0.3-0.2-0.6-0.6-0.6-0.9C231.5,144.7,231.3,144.5,231.3,144.3L231.3,144.3
		L231.3,144.3L231.3,144.3L231.3,144.3z"/>
	<path id="SJ" class="st3" d="M221.3,10c0.5,0.7,2.8-1,1.9,0.4c0.8,0.7-1.8,0.4-0.4,1.3c0.6,0.7,2.9,0.2,2.7,0.6
		c-1.9,0.5,0.5,1,1.3,0.9c1.6,0.3,3-0.5,3.9-1.5c1-0.4,1.5,0.1,2,0.8c0.9,0.3,2.7-1.3,2.9-0.8c-1,0.8,0.2,0.9,0.6,1
		c-1.7,0.3-3.5,0.1-5.1,0.7c-0.9,0.7-3.2-0.5-3.2,0.9c1.8,0.8,4.1,0.1,6.1,0.3c0.7-0.2,3.2-0.4,1.2-0.1c-1.2,0.3-2.9-0.4-3.7,0.8
		c0.5,0.2,2.8,0,2.2,0.2c-1.5,0.3-3.4-0.7-4.6,0.1c0.7,1.2,2.6,1.4,4,1.6c0.6-0.3,3.1,0,1.3,0.3c-1.6,0.6,1.7,2.2,2.4,1.1
		c0.7-1.3,1.4-2.5,2.8-3.2c1.4-1.4,2.4-3.6,4.8-3.7c1.1,0,3,1,3.4-0.7c-1.7-0.1-3.5-0.4-5.1-1c-1.6,0-2.7-1.8-4.2-1.4
		c-0.2-1.5-2.4-0.9-3.6-1.1c-1.8,0.1-0.8,1.7,0.1,2.3c0.7,1.5-1.5-0.3-1.8-0.7c-1.1-1.3-3.1-1.5-4,0c-1.1,0-2.6-0.2-3.3-0.6
		c0.6-0.2,3.4-0.1,1.9-0.9c-1.6,0.3-3.1,0.9-4.6,0.3C222.1,8.1,219.9,9,221.3,10L221.3,10L221.3,10L221.3,10L221.3,10z M240.4,7.4
		c-1.9,0.9,0.9,0.7,1.7,0.9c1.9,0.3,3.8-0.3,5.7-0.4c0.6-0.2,1.8,0.3,0.5,0.4c-1.2-0.1-2.4,0.2-3.2,0.5c-0.6-0.4-2.5-0.3-1,0.3
		c1.7,0.7,3.5,0.2,5.2,0.4c1.8-0.3,3.4,1.8,5.3,0.5c1.8-0.5,3.7-0.4,5.1-1.6c0.8-0.2,3.4-0.5,1.6-1.4c-1.9-0.6-3.9,0.2-5.9-0.3
		c-1.3-0.6-3.1,1.2-3.9-0.1c0.9-1.1-1.4-0.9-1.5,0.1c-1.1,1.5-3-0.2-4.6,0c-1.3-0.6-3.3-0.7-3.8,0.3c-0.8,0.1-2.6-0.7-2.8,0
		C239,7.5,241.2,7.4,240.4,7.4L240.4,7.4L240.4,7.4L240.4,7.4L240.4,7.4z M244.6,12.7c1.7,0.2,3.5,1.2,5.3,0.3
		c-0.2-1.2-2.4-1-3.4-0.9C245.8,12.3,245.2,12.5,244.6,12.7L244.6,12.7L244.6,12.7L244.6,12.7L244.6,12.7z M246.7,15.9
		c1.7,0.6,3.3-0.5,4.9-0.4c0.2,0.1-1.1,1.1,0,1.2c1.9-0.3,3.7-1.2,5.4-2c-1.1-1-3.6,0.6-4.2-0.7c1.2-0.8-1.7-0.7-2.3-0.8
		c-1.3,0-2.6,0.2-3.9,0.6c1.1,0.1,2.2,1.6,0.5,1.8C247,15.6,246.9,15.7,246.7,15.9L246.7,15.9L246.7,15.9L246.7,15.9z"/>
	<path id="SK" class="st0" d="M243,132.6c0.3-0.9,1.3-0.6,2-0.5c0.5-0.3,1.1-0.7,1.7-1c0.7-0.4,0.6-1.5,1.5-1.7
		c0.6-0.3,1.9-0.8,2.2,0c0.7,0,1.2-1.5,1.8-0.8c0.4,0.3,0.1,1,0.8,0.8c0.1,0.2-0.1,0.7,0.4,0.7c0.9,0.4,1-0.9,1.8-0.8
		c0.8-0.5,1.2,0.6,2,0.2c0.7-0.3,1.4-0.9,2.1-0.4c0.9,0.4,1.9,0.6,2.7,1.2c1.1,0.3,0.7,1.3,0.2,1.9c-0.4,0.6-0.3,2-1.2,1.8
		c-0.8-0.2-1.4-0.8-2.2-0.9h-1.4c-0.7-0.6-1.7,0.1-1.6,1c-0.4,0.6-1.6,0.7-2.3,0.5c-0.8-0.4-1.6,0.1-2,0.8c-0.5,0.3-2.1-0.1-1.6,0.8
		c-0.1,0.2-1.1,0.3-1.6,0.5c-0.6,0.2-1.2-0.4-1.8,0c-0.7,0.1-1-1.1-1.8-1.1c-0.4-0.3-1.2-0.7-1.2-1.3c0-0.3,0.1-0.6-0.1-0.8
		C243.2,133.3,243.4,132.8,243,132.6L243,132.6L243,132.6L243,132.6L243,132.6z"/>
	<path id="SM" d="M227.1,154.4h0.5l0,0v0.5L227.1,154.4L227.1,154.4L227.1,154.4L227.1,154.4z"/>
	<path id="TR" d="M304.6,187.5c-2.3-1.7-6.2-1.9-7.1-0.4c-0.7,1.2-5.8,0.4-8.6-1.4c-2-1.2-3.9-4.9-3.9-7.7c0-1-1-2.6-2.2-3.5
		c-1.9-1.3-2-1.7-0.8-2.6c0.8-0.5,2.5-0.7,3.8-0.4c1.6,0.4,3.1-0.3,4.9-2.1c1.7-1.7,3.9-2.7,6.2-2.8c2-0.1,4.8-1,6.4-2
		c3.4-2.3,11-1.5,17.1,1.7c5.7,3,14.4,3,16.3,0.1c1.2-1.8,1.8-2,4.4-1c1.6,0.6,3.2,1.9,3.5,2.9c0.3,1,1.7,2.6,3,3.7
		c1.4,1.1,2,2.2,1.5,2.6c-0.7,0.4-0.5,1.4,0.4,2.8c0.8,1.2,1.7,3.2,2.1,4.5c0.7,2.2,0.5,2.3-2.7,1.7c-1.9-0.4-5.4-0.1-7.8,0.6
		s-7.3,1.3-10.8,1.4c-4.8,0.1-6.7,0.6-7.6,1.9c-1.1,1.5-1.4,1.6-1.9,0.2c-0.7-1.9-4.3-1.9-7.6,0C309.8,189.4,307,189.4,304.6,187.5
		L304.6,187.5z M281.3,166.2c0.2-1.5,1.1-2.8,2-3c1.5-0.3,7.2,2.7,6.5,3.4c-0.2,0.2-2.2,0.7-4.6,1.3
		C281,168.8,281,168.8,281.3,166.2L281.3,166.2z"/>
	<path id="UA" class="st1" d="M292,146.7l-1.8,1.2l-0.5-0.9l-1.2-0.4l-2.7,1.2l-0.3-0.4l-0.3-0.5l1.3-1.6l1.1-2.3
		c0.9-0.5,1.7-0.2,2.6,0.4l0.8-0.9l-0.4-2l-1.4-1l-0.8-1.6l-1.9-2.9l-2.5-0.7l-1.8-1.1c-1.1,0.2-2.2,0.3-3.6-0.3
		c-0.4,1.1-1.8,1.5-3,2.2l-3.7,1l-1.9-0.7c-1.1,0.2-2.2,0.4-3.4-0.5l-1.8,0.2c-1.2-0.1-1.7-0.8-2.1-1.5c-0.3-0.8,0.1-1.9,1.3-3.3
		l0.5-2.4c0.5-0.9,1-1.9,2.1-1.8l1.9-2.2v-1.1c-1.3-0.9-1.8-1.8-1.7-2.7c1.5-0.6,2.8-1.9,4.5-1.6l1.9,0.1l2.9,0.5
		c1.1-0.1,2,0.3,2.8,1c1.4-0.4,2.8-0.3,4.2,0.6c1.5-1.1,2.3-0.2,3.3,0.1c1.3-0.4,2.6,0.1,4,0.5l0.4-1c-0.2-0.9-0.1-1.7,0.8-2
		l2.2-0.5l0.8,1.1c6.8-3.2,7.1-2.3,10.3,1.2c3.5,3.7,7.4,5.7,14.3,7.1c9.4,1.9,11.3,8.3,3.5,11.6c-12.8,5.4-12.9,5.5-11.7,7
		c0.7,0.8,2.2,1.5,3.4,1.5c1.7,0,1.5,0.4-1.4,2c-4.3,2.4-4.1,2.3-6.8,0.4c-1.8-1.3-2-1.9-1.1-3c0.9-1.1,0.8-1.5-0.7-2.1
		c-1-0.4-2.3-1.3-2.9-2.1c-0.9-1.2-1.5-1.2-4.1,0.1c-1.7,0.9-3.8,2.7-4.7,4.1"/>
</g>
</svg>
