<?xml version="1.0" encoding="UTF-8" standalone="no"?>
<svg width="393px" height="197px" viewBox="0 0 393 197" version="1.1" xmlns="http://www.w3.org/2000/svg" xmlns:xlink="http://www.w3.org/1999/xlink">
    <!-- Generator: Sketch 3.6.1 (26313) - http://www.bohemiancoding.com/sketch -->
    <title>EU</title>
    <desc>Created with Sketch.</desc>
    <defs></defs>
    <g id="Page-1" stroke="none" stroke-width="1" fill="none" fill-rule="evenodd">
        <g id="EU" fill="#000000">
            <g id="Europe">
                <path d="M186.8,159.7 C187.3,159.7 187.9,159.7 188.4,160.2 C187.9,160.2 187.3,160.7 187.3,160.7 C187.3,160.2 187.3,160.2 186.8,159.7" id="AD"></path>
                <path d="M253.1,168.7 C253.6,168.2 254,167.5 253.7,166.8 C253.5,166.2 253.8,165.6 253.6,165 C253.6,164.4 254.5,164.2 254,163.6 C253.9,163.2 253.3,163.3 253.1,163.2 C253,162.6 253.1,161.9 253.3,161.3 C253.5,160.8 253.9,160.2 254.3,159.8 C254.7,160 255.1,160.7 255.6,160.1 C256.2,159.8 256.5,160.5 256.3,161 C256.6,161.4 257.5,161.2 257.5,161.9 C257.8,162.6 257.9,163.5 257.6,164.2 C256.8,164.5 258.2,165.4 257.4,165.6 C257.3,166.4 258.4,166.4 258.5,167.1 C258.6,167.6 259.1,167.7 259.4,167.8 C259.8,168.4 259.6,169.3 258.9,169.6 C258.4,170 258.5,170.8 258.1,171.3 C257.5,171.6 257.3,172.2 257.2,172.7 C257.3,173.4 256.5,173.8 256.1,173.2 C255.7,172.7 255.8,172 255.4,171.6 C254.8,171 254,170.6 253.4,170.1 C253.2,169.6 253.8,170.1 253.8,170.3 C254.1,169.6 253.5,169 253.1,168.7 L253.1,168.7 L253.1,168.7 L253.1,168.7 L253.1,168.7 L253.1,168.7 Z" id="AL" stroke="#FFFFFF" stroke-width="0.8"></path>
                <path d="M217,139 C216.4,137.7 218.3,137 218.9,138.1 C219.1,139.1 220.1,139.1 220,138 C220.2,137.1 221.1,138.1 221.6,137.5 C221.9,138.5 223.6,137.6 224.4,137.4 C225.1,136.8 226.4,137.6 226.7,136.9 C227.5,137 228.6,136.6 228.9,137.7 C229.8,138 229.3,136.7 229.2,136.4 C229.1,135.7 228,134.8 229.2,134.4 C230.5,134.4 230.4,132.8 231.7,132.8 C232.1,131.9 232.9,132.1 233.4,132.9 C234,133.4 234.4,131.8 235,132.9 C235.4,132.4 236,131.4 236.5,131 C237.9,131.1 239.2,131.9 240.6,132.1 C241.8,131.6 243.3,131.9 243.5,133.3 C243.3,134.4 244.5,135.6 243.4,136.5 C243,137.1 241.5,136.2 242,137.3 C242.4,138 241,138.2 241.5,139.1 C241.7,139.7 241.8,140.1 241,140.1 C240.3,140.7 239.9,141.8 238.8,141.5 C237.5,141.4 236.2,141.4 235.2,142.4 C234.2,142.9 233.3,142 232.3,142 C230.6,141.7 228.7,142.2 227.1,141.1 C226.5,140.7 226.1,140.2 226.2,139.5 C225.2,140.1 223.9,140 222.8,140 C222.7,141.5 220.7,140.9 220.1,140.1 C219.3,140.4 218,141.1 217.9,139.7 C217.4,139.4 217.2,139.5 217,139 L217,139 L217,139 L217,139 L217,139 L217,139 Z" id="AT" stroke="#FFFFFF" stroke-width="0.5"></path>
                <path d="M250.4,84.7 C250.6,84.7 250.8,84.6 250.9,84.4 C250.9,84.4 250.9,84.2 251,84.2 C251.1,84.3 251.2,84.4 251.4,84.4 C251.5,84.4 251.5,84.3 251.5,84.2 C251.5,84.2 251.7,84.1 251.5,84.1 C251.3,84 251.1,83.9 250.8,83.8 C250.7,83.7 250.5,83.7 250.4,83.7 C250.3,83.7 250.4,83.8 250.4,83.8 L250.4,84.2 C250.3,84.1 250.2,84 250,84 C249.9,84 249.9,84.1 249.9,84.2 C249.9,84.4 250,84.6 250.2,84.7 L250.4,84.7 L250.4,84.7 L250.4,84.7 L250.4,84.7 L250.4,84.7 L250.4,84.7 Z" id="AX"></path>
                <path d="M239.3,148.5 C239.6,147.6 240.6,148.4 241.1,148.7 C241.9,148.9 242.1,147.2 243,147.9 C243.8,147.9 244.7,147.9 245.4,148.3 C246.1,148.5 246.9,148.6 247.6,148.4 C248.5,148.4 249.5,148.6 250.2,149.2 C250.8,149.8 251.6,149.5 252.3,149.4 C253.1,149.7 252.6,150.6 252,150.8 C251.3,151.7 252.3,152.5 253,152.8 C253.6,153.2 253.2,153.6 252.7,153.7 C252.5,154.3 254.1,154.8 253.2,155.5 C252.7,155.9 251.5,155.1 251.3,155.9 C251.5,156.2 251.7,157.4 251.1,156.7 C250.5,156.5 250.1,157.4 250.2,157.9 C250.1,158.2 249.4,158.2 249.6,158.8 C249.7,159.1 250.2,160.4 249.4,160 C248.8,159.4 247.8,159.4 247.2,158.8 C246.7,158.6 245.9,158.4 246.4,157.8 C246.1,156.9 245,156.7 244.6,155.9 C244,155.3 243.5,154.5 242.8,154 C242.1,153.6 241.2,153.2 241.2,152.3 C241.2,151.3 240.3,150.8 239.7,150.2 C239.3,149.6 239.2,149.1 239.3,148.5 L239.3,148.5 L239.3,148.5 L239.3,148.5 L239.3,148.5 L239.3,148.5 Z" id="BA" stroke="#FFFFFF" stroke-width="0.5"></path>
                <path d="M192.6,122 C193.7,121.5 194.2,120.9 195.3,120.4 C195.3,120.9 196.4,120.9 196.9,120.9 C196.9,120.9 197.4,121.4 197.4,120.9 C197.9,120.9 198.5,120.4 198.5,120.9 L198.5,120.4 C199,120.4 199.6,120.4 199.6,119.9 C199.6,120.4 200.1,120.4 200.1,119.9 C200.6,120.4 201.2,120.4 201.2,119.9 C201.7,121 203.3,121 204.4,121.5 C205.3,122.3 204.7,122.9 204.7,123.4 C204.6,123.9 206,123.7 205.5,124.2 C206,124.2 206,124.7 206,125.3 C205.5,125.3 205.5,125.8 204.9,125.8 C204.9,126.3 204.4,125.8 204.4,126.3 C203.9,126.8 203.9,126.8 203.9,127.4 C203.9,127.9 204.4,127.9 203.9,128.5 C203.4,129.6 202.8,128.5 202.3,128 C201.8,128 200.7,128 200.7,127.5 L200.7,125.9 C200.2,125.9 200.2,126.4 199.6,127 L198,127 C198,126.5 198.5,125.9 198,125.4 L196.4,125.4 C196.4,124.9 196.4,124.9 195.9,124.3 C194.8,124.3 194.8,124.3 194.8,123.8 C194.3,123.3 193.7,123.8 193.2,123.3 C192.6,123 192.6,122 192.6,122" id="BE" stroke="#FFFFFF" stroke-width="0.4"></path>
                <path d="M263.7,154.4 C263.7,153.6 264.5,152.3 265.4,152.8 C266.5,153.2 265,154.6 266.3,154.7 C267.4,154.7 268.5,154.2 269.5,154.7 C270.6,155.3 271.7,154.6 272.9,154.9 C274.1,155.1 275.4,155.5 276.4,154.6 C277.3,153.6 278.6,153.5 279.9,153.3 C281.2,152.9 282.5,154 283.8,153.5 C284.6,153.9 285.3,154.6 286.2,154.7 C286.8,154.9 286.8,156.8 286,156 C284.9,155.9 284.5,157.3 284.2,158.2 C283.9,158.8 284.2,159.9 283.4,160.2 C282.2,160.4 284,160.8 284.2,161.3 C284.8,161.8 285.4,163.1 284.1,162.9 C283,163.1 282.3,161.7 281.3,162.5 C280.8,162.9 279.8,162.7 280.1,163.3 C279.8,163.5 278.7,163.3 279.1,163.9 C278.4,163.5 278,164.2 278.5,164.7 C278.5,166.1 276.6,165.6 275.7,166 C274.7,166 273.8,165.4 272.9,165.1 C272,164 270.9,164.9 270,165.4 C268.9,165.6 267.8,165.9 266.7,165.7 C266,165.3 267.2,164.1 266.6,163.4 C266.3,162.4 265.1,162.5 264.7,161.7 C263.9,161.2 265.2,160.5 264.6,159.8 C264.3,158.6 265.9,158.7 266.1,157.7 C266.5,156.7 264.8,156.8 264.6,155.9 C264.3,155.4 264,154.9 263.7,154.4 L263.7,154.4 L263.7,154.4 L263.7,154.4 L263.7,154.4 L263.7,154.4 Z" id="BG" stroke="#FFFFFF" stroke-width="0.8"></path>
                <path d="M264.2,116.7 C264.8,115.3 267.4,114.5 266.2,112.6 C265.5,111.7 263.9,109.3 266.1,109.3 C267.5,109.2 269.2,109.4 270,108 C270.6,107.4 272.6,108.7 271.8,107.1 C271.6,105.4 273.4,104.5 274.6,103.7 C274.9,103.2 274.1,101.5 275.5,101.5 C277.4,101.6 278.8,99.4 280.7,100 C282.4,100.2 283.9,101.4 285.6,101.2 C287,100.9 288.9,101.4 289.4,102.9 C289.3,104.5 289.6,106 290.8,107.2 C292,108.2 293,109.5 294.4,110 C295.8,110.1 297.4,112.1 295.5,112.8 C294.5,113.5 292.5,111.5 292.4,113.5 C292.9,114.5 293.3,115.7 293.6,116.8 C293.6,117.5 291.8,117.3 291.1,118 C289.7,118.4 290.7,120.2 289.9,120.7 C288.6,119.7 286.9,120.7 285.6,119.9 C284.9,119.1 283.4,120.9 282.5,119.6 C280.8,119.4 278.9,119.9 277.4,118.7 C275.7,118.1 273.8,118.6 272.1,118.1 C270.6,117.6 269.2,118.5 267.9,119.2 C266.9,119.9 265.3,120 265.7,118.3 C265.7,117.2 265.2,116.6 264.2,116.7 L264.2,116.7 L264.2,116.7 L264.2,116.7 L264.2,116.7 Z" id="BY" stroke="#FFFFFF" stroke-width="0.8"></path>
                <path d="M204.3,143.7 C204.2,143.3 204.4,143.1 204.5,142.7 C203.8,142 204.9,141.7 205.3,141.3 C205.5,140.7 206.2,140.3 206.7,139.7 C207.1,139.3 207.8,138.7 207.9,138.4 C207.4,137.9 208.4,137.4 208.7,138 C209.2,138.2 209.8,137.2 210,137.4 C210.4,137.8 211.2,137.4 211.8,137.4 C212.5,137.3 212.4,137.4 213,137.1 C212.9,137.2 212.9,137.2 213.1,136.7 C213.2,136 214.1,136.3 213.9,136.9 C214.4,137.3 215.2,136.5 215.9,136.9 C216.4,137.3 217.3,137.2 217.3,138 C217.4,138.6 217,139.1 216.6,139.5 C217.3,139.4 218,139.9 218.5,140.3 C219.1,140.8 219.7,140.4 220.2,140 C221,140 219.9,141 220.4,141.4 C220.8,142 220.1,142.4 219.7,141.9 C219.2,141.1 218.3,142.6 218.8,142.7 C219.4,142.6 219.2,143.7 218.7,143.1 C218.2,142.2 217.5,143.3 216.9,143.1 C216.5,143 216.3,141.9 216,142.2 C216.1,142.8 215.9,143.5 215.4,143.9 C215.2,144.3 215.2,145.5 214.7,144.7 C214.4,144.1 213.6,144.4 213.3,143.7 C212.9,143.3 213.3,142.2 212.8,142.3 C212.5,142.6 212.4,143.3 211.8,143.3 C212.2,143.9 211.6,144.5 211.1,144.8 C210.5,145 209.8,145 209.2,145 C208.1,145 207,144.1 207.1,143 C207,142.1 206,142.8 205.5,143 C205,143.2 204.8,143.7 204.3,143.7 L204.3,143.7 L204.3,143.7 L204.3,143.7 L204.3,143.7 L204.3,143.7 Z" id="CH" stroke="#FFFFFF" stroke-width="0.8"></path>
                <path d="M304,194.7 C303.5,194.7 303.5,194.2 303.5,194.2 C304,194.7 305.1,193.7 305.6,193.7 C306.7,193.7 305.6,193.2 306.7,193.2 C307.8,193.2 308.3,193.2 309.4,192.7 C310.5,192.7 311.5,191.6 312.6,191.6 C311.5,192.1 311,193.2 310.5,193.2 C309.4,193.7 310.5,194.3 310.5,194.8 L309.4,194.8 C308.9,195.3 308.9,195.3 308.3,195.9 C307.8,195.9 306.7,195.9 306.7,196.4 C305.6,195.7 304.6,196.3 304,194.7" id="CY"></path>
                <path d="M226,125.2 C226.5,125.6 226.8,125.7 227.2,125.2 C228.2,124.9 229.4,124.8 230.2,124 C231.4,123.3 232.7,123 234,122.6 C232.9,121.8 234.9,121.9 234.9,122.8 C235.5,123.7 236.2,122 236.9,122.6 C237.4,123.2 238,123.4 238.7,123.2 C239.5,123.3 239.8,124.5 240.4,123.7 C241.3,123.7 240.8,124.8 240.6,124.9 C241.2,125.3 241.6,126.3 242.5,126 C243.1,125.6 243.1,124.4 244,125.1 C244.5,125.5 245.3,125.3 245.6,125.5 C245.6,126.5 246.3,127.1 247.2,126.8 C248.1,127.1 249.1,127.4 249.7,128.2 C250.4,128.8 249.7,129.2 249,129 C247.6,129 247.5,130.8 246.4,131.3 C245.5,132.2 244,131.1 243.4,132.2 C243,132.9 242.5,131.9 241.8,132.3 C240.6,132.5 239.5,131.9 238.4,131.6 C237.6,131.3 235.9,130.6 236.1,132.1 C235.7,132.5 235.2,132.6 235,133.2 C233.9,132.8 232.7,132.5 231.8,131.7 C230.7,131.1 229.9,130.1 228.8,129.7 C227.9,129 227.2,128.1 227.4,127.1 C226.9,126.3 226.1,125.9 226,125.2 L226,125.2 L226,125.2 L226,125.2 L226,125.2 L226,125.2 Z" id="CZ" stroke="#FFFFFF" stroke-width="0.8"></path>
                <path d="M214.9,105 C212.7,104.5 216.2,107.4 213.9,107.6 C214.3,107.7 215.3,107.5 214.4,108 C214.6,109.3 215.6,109.6 216.6,110.1 C216.9,110.9 218.7,111.1 217.2,110.7 C216.1,109.8 213.5,108.9 213.2,110.6 C213.2,111.3 213.4,112.4 213,111.1 C212.5,110.4 212.4,112.2 211.7,111.2 C212.3,109.9 207.6,109.9 208.6,111.7 C210.2,111.9 208.3,113.4 208.4,114.4 C208,115.2 206,115 207.5,115.9 C209.1,116.7 206.9,118.4 205.8,118.4 C204.6,118.1 203.9,118.6 204.9,119.6 C206,121 203.2,123 205.4,124 C206.1,124.8 205.5,125.5 204.9,125.7 C204.8,127 206.7,127.6 206,129 C206.1,130.3 207.6,130.1 208.1,130.3 C209.2,130.5 210.2,131.2 211.3,131.1 C213.3,130.8 210.4,132.2 210.6,133.2 C210.4,134.5 208.9,137.1 210.7,137.7 C211.6,137.5 213.2,137.4 213.3,136.8 C215.1,136.9 216.9,137.4 218.5,138 C219,139 220.2,139.2 220.1,137.8 C221.4,137.7 223.2,138.5 224.4,137.6 C225.1,137.2 226.7,137.3 226.5,137.1 C227.5,137.8 228.3,136.4 229,137.7 C230.9,137.6 227.1,134.8 229.3,134.7 C230.6,134.5 230.7,133.2 231.8,133.1 C232,131.3 230,130.6 228.7,129.9 C226.9,129 227.4,126.7 225.9,125.7 C226.7,125.3 228.8,125.1 230,124.3 C230.9,123 233.6,123.5 233.6,122.1 C234.6,122.8 235.5,122.9 235.7,121.5 C236.5,120 233.4,119.4 234.9,117.8 C234.3,116.4 234.3,114.9 232.9,114.1 C233.6,113 234,111 232.4,110.2 C231.2,110.1 231.1,107.8 230.1,108.5 C229.6,106.9 226.7,107.3 226.6,107.5 C227.1,107.1 228.5,107.2 227.2,107 C226.6,107.4 225.3,108.4 225.4,108.6 C224.4,107.9 223.2,109.9 222,109.2 C220,109.7 223.4,106.8 221.6,107.6 C220.8,107.3 219.2,107.3 219.1,107.5 C219,106.7 217.5,107.7 218.6,106.7 C218.2,105.4 216.5,105.9 215.4,105.4 C215.3,105.2 215.1,105.1 214.9,105 L214.9,105 L214.9,105 L214.9,105 L214.9,105 L214.9,105 Z" id="DE" stroke="#FFFFFF" stroke-width="0.8"></path>
                <path d="M222.3,107.1 L222.8,107.1 C222.8,106.6 222.3,106.6 221.7,106.6 L222.3,107.1 L222.3,107.1 L222.3,107.1 L222.3,107.1 L222.3,107.1 Z M212.2,97.6 C212.8,97.7 213.4,98 213.9,98.3 C214.5,98.1 214.2,97.2 214.7,97 C215.3,96.9 215.4,97.7 215.9,97.7 C216,97.8 215.9,98.2 216.1,97.9 C216.2,97.6 215.6,97.6 215.8,97.2 C215.8,96.8 215.6,96 216.1,96 L218.9,96 C219.4,96.3 219.3,97.3 218.7,97.3 C218.5,97.3 217.9,97.6 218.4,97.4 C218.8,97.2 219.7,97.5 219.1,97.9 C218.8,98.1 219.6,97.6 219.9,97.8 C220.3,97.9 220.6,97.9 221,97.9 C221.7,97.9 221.6,98.8 221.2,99.2 C220.9,99.6 220.2,99.9 219.7,99.5 C219.7,99.3 219.9,99 219.6,99.3 C219.1,99.6 219.1,100.4 218.5,100.7 C218.1,100.6 217.9,101 218.2,101.3 C218.2,101.9 217.1,101.8 217.1,101.8 C217.4,101.8 218.1,101.7 217.6,102.1 C217.1,102.4 217,103 217.2,103.5 C217.1,103.9 216.2,103.9 216.4,104.4 C216.8,104.5 217.5,105 217.1,105.4 C217,104.9 216.5,104.9 216.2,105.3 C215.5,105.6 214.9,105.1 214.2,105 C213.7,104.9 213.2,104.3 213,103.9 C213.8,103.8 213.3,102.9 212.8,102.7 C212.3,102.5 211.6,102.2 211.8,101.6 L211.8,100.4 C211.8,101 213.1,101.2 212.8,100.4 C212.7,99.9 212.1,99.8 211.7,99.9 C211.4,99.4 211.7,98.9 211.8,98.4 C212.2,98.1 212.2,97.9 212.2,97.6 L212.2,97.6 L212.2,97.6 L212.2,97.6 L212.2,97.6 L212.2,97.6 Z M217.5,102.4 C217.5,102.9 218.6,103.5 218.6,104 C218.6,103.5 219.1,104 219.1,104 C219.1,104.5 220.2,104.5 220.2,104.5 C221.3,104.5 221.8,102.9 220.7,102.9 L220.7,102.4 C220.7,102.4 220.7,102.4 220.7,101.9 C220.7,102.4 220.2,103 219.6,103 C220.7,101.8 218.1,102.4 217.5,102.4 L217.5,102.4 L217.5,102.4 L217.5,102.4 L217.5,102.4 Z M219.7,105.5 C220.2,105 219.7,105 219.2,104.4 C219.1,105 219.7,105 219.7,105.5 L219.7,105.5 L219.7,105.5 L219.7,105.5 L219.7,105.5 Z M220.7,105 L220.7,106.1 C221.2,105.6 221.8,105 221.2,104.5 C221.3,104.5 221.3,105 220.7,105 L220.7,105 L220.7,105 L220.7,105 L220.7,105 Z M221.8,94.9 C221.8,94.9 222.3,94.9 222.3,94.4 C221.8,94.4 221.8,94.9 221.2,94.9 L221.8,94.9 L221.8,94.9 L221.8,94.9 L221.8,94.9 L221.8,94.9 Z M222.3,102.9 C222.3,103.3 222.8,103.5 222.8,103.9 C223.2,104.1 223.6,103.9 223.9,104 C224.3,103.8 224.6,104.5 224.1,104.5 C223.8,104.5 224.2,104.5 224.3,104.5 L224.8,104.5 C225,104.9 224.1,104.9 224.4,105.3 C224.6,105.7 224.8,106.1 224.8,106.6 C224.8,106.2 225.1,105.8 225.3,105.5 C225.3,105.1 224.8,104.9 224.8,104.5 C225,104.8 225.5,105 225.7,104.6 C225.9,104.4 225.4,104 225.8,103.8 C226,103.5 226.6,103.5 226.5,103.1 C226.3,102.9 226,102.9 225.7,102.7 C225.5,102.3 226,102 226.3,101.8 C226.6,101.8 227.1,101.6 227,101.2 C226.9,100.9 226.6,100.6 226.8,100.2 C226.9,99.8 226.4,99.8 226.1,99.8 C225.6,99.8 225.2,100 224.7,100 C225,100.4 225.4,100.8 225.3,101.3 C225.2,101.6 224.5,101.6 224.8,101.2 C225,101 224.9,100.4 224.6,100.6 C224.4,100.9 224.3,101.2 224.1,101.5 C223.9,101.3 223.5,100.8 223.9,100.5 C224.3,100.4 223.8,100.1 223.6,100.1 C223.2,100 223,100.3 223,100.6 C222.8,100.9 222.3,101 222,101 C221.8,101 221.3,101 221.6,101.3 C221.8,101.7 222.2,101.9 222.3,102.3 C222.7,102.8 222.5,102.9 222.3,102.9 L222.3,102.9 L222.3,102.9 L222.3,102.9 L222.3,102.9 L222.3,102.9 Z M221.8,105.5 C222.3,106 224.5,106.6 225,106 C225.5,105.5 223.9,105.5 223.9,105.5 C222.8,105.5 222.8,104.4 221.8,105 C222.3,105 222.3,105.5 222.3,105.5 L221.8,105.5 L221.8,105.5 L221.8,105.5 L221.8,105.5 L221.8,105.5 Z M226,104.5 L226,105 C226,105 227.1,105 227.1,104.5 L226,104.5 L226,104.5 L226,104.5 L226,104.5 L226,104.5 Z M213.3,97.6 C212.2,97.1 213.3,96 213.8,96 C214.3,95.5 215.4,95.5 216.5,95.5 C217,95.5 217.6,94.4 218.1,93.9 C218.6,93.4 219.7,93.4 220.8,92.8 C219.7,93.9 220.8,94.4 220.3,94.9 C219.8,96 219.2,96 218.2,96 C217.7,95.5 217.7,95.5 217.1,96 L215.5,96 C215,96 214.4,96 213.9,96.5 C213.8,96.5 213.8,97.6 213.3,97.6 C213.3,97.1 213.8,97.6 213.8,97.6 L213.3,97.6 L213.3,97.6 L213.3,97.6 L213.3,97.6 L213.3,97.6 Z M213.8,97.6 C214.3,97.6 214.9,96.5 214.9,96 L214.4,96.5 C213.9,96.5 213.9,97 213.9,97 L213.8,97.6 L213.8,97.6 L213.8,97.6 L213.8,97.6 L213.8,97.6 Z M234.6,103.9 C234.1,103.4 233,103.9 233.5,104.4 C234.6,105 235.1,103.9 234.6,103.9 L234.6,103.9 L234.6,103.9 L234.6,103.9 L234.6,103.9 Z" id="DK"></path>
                <path d="M261.7,89.6 C262.1,89.6 262.1,89.5 262.1,89.1 C262.1,89.1 262.1,88.6 261.6,89.1 C261.6,89.1 261.6,89.1 261.6,89.6 L261.7,89.6 C261.8,89.7 262,89.9 262,90 C261.8,89.9 261.5,90 261.3,90.1 C261,90.1 261,90.4 260.8,90.6 C260.4,90.8 260.1,90.7 259.7,90.7 C259.4,90.7 259.1,91 258.9,91.2 C258.9,91.6 258.7,92 258.4,92.3 C258.4,92.3 258.4,92.2 258.4,92.3 C258.2,92.1 258.2,91.8 258.5,91.6 C258.6,91.3 258.7,91.1 258.6,90.8 C258.4,90.6 258.1,90.7 257.9,90.6 C257.6,90.3 257.7,89.8 257.4,89.6 L258.8,89.6 C259.1,89.6 259.2,89.3 259.4,89.2 C259.7,89.1 260.1,89.1 260.5,89.1 C260.9,89.1 261.3,89.1 261.6,89.4 C261.6,89.5 261.7,89.5 261.7,89.6 L261.7,89.6 L261.7,89.6 Z M262.6,89.1 C262.3,88.6 263.8,88.6 263,88.6 C262.2,88.6 262.9,87.5 262.7,87 C263,86.4 264,86.8 264.2,86.1 C264.9,86 265.5,85.3 266.3,85.5 C266.9,85.4 267.7,85.6 268.4,85.4 C268.9,84.9 269.6,85 270.2,85.1 C271,85.1 271.8,85.4 272.6,85.4 C273.3,85.5 274,86.1 274.7,85.9 C275.7,85.8 276.8,85.6 277.8,85.8 C277.3,86 276.7,86.3 276.9,86.9 C276.4,87.6 275.7,88.2 275.9,89.1 C276.1,89.7 276,90.4 276,90.9 C276.3,91.2 277.1,91.2 277,91.9 C277.7,92.6 276.4,92.7 276.1,93.2 C275.8,93.5 275.7,94 275.2,93.5 C274.5,93 274,93.7 273.4,93.8 C272.5,93.8 271.9,93 271.1,92.6 C270.5,92.2 269.7,92.1 269.1,91.6 C268.6,91.2 267.8,91.1 267.3,91.6 C266.9,91.9 266.3,92.4 265.8,92 C265.4,91.4 266.4,90.9 266.1,90.3 C265.5,90.1 264.9,91.1 264.2,90.5 C263.6,90.2 263.2,89.6 262.6,89.1 L262.6,89.1 L262.6,89.1 Z M261.6,87.5 L262.1,87.5 L261.6,87.5 L261.6,87.5 L261.6,87.5 Z M260,87 C259.6,87.3 259.2,87.4 258.7,87.6 C258.4,87.7 258.1,87.8 257.9,88.1 C258.3,88.1 258.8,88.1 259.2,88.4 C259.3,88.5 259.4,88.6 259.5,88.7 C259.5,88.9 259.6,89 259.8,88.9 C260,88.8 260.2,88.5 260.4,88.4 C260.6,88.3 260.8,88.2 261.1,88.2 C260.9,87.9 260.5,87.8 260.2,87.6 C260.1,87.3 260,87.1 260,87 L260,87 L260,87 Z" id="EE" stroke="#FFFFFF" stroke-width="0.6"></path>
                <path d="M148,158.6 C146.9,156.4 151.9,156.5 151.3,155.8 C152.4,153.9 154.6,154.5 156.1,155.7 C157.6,154.8 159.6,155.6 161.3,155.4 C163.6,156.4 166.1,156 168.5,156 C170.5,156.8 172.2,155.7 174.2,156.5 C176.3,156.4 177.2,157.8 179.1,158.5 C180.5,159.1 182.9,160 184.1,159.1 C185.9,158 187,161.3 189,160.7 C190.5,161.5 193,159.5 193.4,161.6 C193.5,163.7 191.2,164.3 189.9,165.4 C188.2,166.5 185.5,165.7 184.4,168 C183.2,170.4 179.9,171.5 179.9,174.5 C179,176.1 183.2,177.8 180.3,178.4 C178.2,178.7 178.2,182.1 177.8,182.4 C176.7,183.4 174.3,182.7 173.7,184.8 C173.3,185.9 173.1,186.7 171.8,186.2 C169.5,187.3 166.8,186.4 164.3,186.8 C162.8,187.4 160.9,188.1 160.1,189.7 C157.8,190.5 156.3,187.9 156.8,186.2 C157.4,185.3 155.7,186.6 155.6,185.4 C155.1,184.4 154.4,184 153.5,184.7 C151,183.5 153.7,181.2 154.6,179.9 C151.8,179.2 156.4,175.9 153.8,174.6 C151.9,172.8 155.7,174.2 155.4,172.2 C154.9,170.4 157.1,169.4 155.9,167.6 C155.7,166.4 160,165.3 158,164.1 C157,164 157.4,162.2 155.9,162.9 C154.5,163.2 152.3,164.1 151.4,162.9 C152.2,160.8 147.7,164.3 149.1,162 C149.4,161.7 150.1,160.5 149.2,161.4 C149.9,160.7 148.6,160.7 149.5,159.9 C148,160.4 148.7,159.5 148.9,159.2 C148.4,159.2 148.1,159 148,158.6 L148,158.6 L148,158.6 L148,158.6 L148,158.6 L148,158.6 Z M186.2,177.2 C185.1,176.7 185.7,176.1 186.2,176.1 C186.2,175.6 186.7,175.6 186.7,176.1 C187.3,176.1 186.2,176.6 186.2,177.2 L186.2,177.2 L186.2,177.2 L186.2,177.2 L186.2,177.2 Z M193.1,174.5 C192.6,175 192.6,174.5 192,174.5 C190.9,174.5 191.5,173.4 190.4,174 C189.3,174.6 190.4,173.5 190.4,172.9 C191.5,172.4 192,172.4 193.1,171.8 C192.6,171.8 192.6,172.3 193.1,172.9 C193.1,172.9 193.6,172.4 194.2,172.9 C194.2,172.9 193.1,174 193.1,174.5 L193.1,174.5 L193.1,174.5 L193.1,174.5 L193.1,174.5 Z M195.3,171.9 C195.8,170.8 197.4,171.4 197.4,172.4 C196.9,172.4 195.8,172.4 195.3,171.9 L195.3,171.9 L195.3,171.9 L195.3,171.9 L195.3,171.9 Z" id="ES" stroke="#FFFFFF" stroke-width="0.5"></path>
                <path d="M258.9,83.3 L259.4,83.3 C259.9,83.3 259.9,82.2 260.5,82.2 C260,82.2 259.4,82.7 258.9,82.2 C259.5,82.7 258.4,82.7 258.9,83.3 L258.9,83.3 L258.9,83.3 L258.9,83.3 L258.9,83.3 Z M250.3,46.6 C251,46.3 251.9,46.7 251.6,45.9 C253.4,44.9 254.7,47 256,47.8 C258.1,48.9 260.4,46.8 262.7,47.8 C264.4,48.6 265.2,46.3 265.7,45 C266.4,42.8 268.9,43 270.8,42.8 C272.9,43 277,44.3 274.2,46.9 C272.8,46.9 275.4,48.1 274.1,48.7 C274.3,51.1 278.8,49.7 278.4,52.5 C277.3,53.7 275.9,55.4 278.1,56.4 C279.8,57.4 280.7,59.5 279.6,61.1 C279.6,63.1 281.4,63.8 282.3,65.3 C284,66.5 280.3,67.9 282.9,68.4 C284.6,69 287.5,70.1 286.3,72.4 C284.9,74.2 282.9,75.5 281.3,77 C279.6,78.3 277.9,79.9 275.9,80.8 C274.1,81.7 271.4,80.5 270.1,81.9 C268.1,81.6 266,83.1 263.9,83.2 C262.9,83.4 261.8,83.3 261.2,83.5 C262.4,82.9 259.9,82.1 261.2,81.4 C259.3,81.9 256.1,81.2 255.5,79.2 C256.1,77 255.6,75.1 254.4,73.2 C253.9,71.5 254.9,68.8 257,69.6 C258.1,68.1 260.2,66.8 261.9,65.3 C262.9,63.8 265.4,63.2 266.3,62.4 C266.2,59.5 262.7,59.8 261.2,58 C259.9,56.7 261.4,54.7 259.9,53.2 C260.1,52.3 259.6,51.3 259.4,50.5 C257.9,48.7 255.3,48.6 253.3,47.8 C252.4,47.6 251.5,46.8 250.3,46.6 L250.3,46.6 L250.3,46.6 L250.3,46.6 L250.3,46.6 Z M263.7,62.6 C264.2,63.1 264.2,62.6 264.8,62.6 C264.2,62 263.7,62 263.7,62.6 L263.7,62.6 L263.7,62.6 L263.7,62.6 L263.7,62.6 Z" id="FI" stroke="#FFFFFF" stroke-width="0.5"></path>
                <path d="M164.6,74 C164.7,74.1 164.8,74.2 165,74.2 C165.1,74.3 165.2,74.4 165.4,74.6 C165.5,74.7 165.4,74.6 165.3,74.5 C165.2,74.4 165.2,74.4 165.1,74.3 C165.1,74.2 165,74.2 165,74.1 C165,74.3 165,74.4 164.9,74.5 C165,74.6 165.2,74.5 165.3,74.6 C165.5,74.7 165.5,75 165.4,75.1 C165,75.1 164.8,74.8 164.5,74.6 C164.3,74.3 163.9,74 163.9,73.6 C164.1,73.8 164.4,73.9 164.6,74 L164.6,74 L164.6,74 Z M164.5,73.8 C164.5,73.8 164.5,73.7 164.5,73.8 C164.7,73.6 164.8,73.7 165,73.8 C165.3,73.9 165.6,74.1 165.7,74.3 C165.7,74.4 165.7,74.6 165.6,74.6 C165.7,74.5 165.6,74.3 165.6,74.3 C165.4,74 165.1,73.9 164.9,73.8 C164.8,73.8 164.6,73.7 164.5,73.8 L164.5,73.8 L164.5,73.8 Z M166.1,74.2 C166.3,74.2 166.6,74.1 166.5,73.8 C166.4,73.6 166.1,73.5 166.1,73.8 L166.1,74.2 L166.1,74.2 L166.1,74.2 Z M165.5,75.8 C165.5,75.6 165.3,75.5 165.2,75.6 C165.1,75.6 164.9,75.8 165.1,75.8 L165.5,75.8 L165.5,75.8 L165.5,75.8 Z M165,77.4 C165.1,77.3 165.3,77 165.1,76.9 C164.9,76.7 164.7,76.6 164.5,76.4 C164.4,76.5 164.5,76.7 164.6,76.8 C164.7,77 164.8,77.2 165,77.4 L165,77.4 L165,77.4 Z M164,74.8 L164.5,74.8 C164.2,74.7 164,74.5 163.7,74.6 C163.5,74.7 163.8,74.8 164,74.8 L164,74.8 L164,74.8 Z" id="FO"></path>
                <path d="M166.1,135.3 C166.9,135.7 168,134.6 166.8,134.2 C168.6,134.6 167.4,133.5 166.3,133.8 C166.5,131.5 170.2,133.5 171.3,131.8 C172.7,132.2 174,133.8 175.4,132.8 C176.8,132.8 178.6,133 177.7,131.2 C177.7,129.8 175.4,127.8 178.2,128 C179.5,128.4 178.9,130.1 180.7,129.7 C181.7,129.9 184.9,129.8 184.5,129.2 C182.6,128.3 185.8,127 186.8,127.3 C189,127 189.5,125 189.4,123.2 C191.1,120.6 193.5,123.1 195.1,124.1 C195.8,125.1 197.9,125.2 198,125.8 C197.8,128.3 201.2,125.2 201,127.6 C202.2,129.6 204.7,128.5 206.3,129.6 C207.7,131 209.7,130.4 211.4,131.1 C212.9,132 210,133.5 210.3,135.1 C210.1,136.9 209.5,138.2 207.8,138.6 C207.4,140.5 204.1,141.4 204.6,143.8 C205.5,141.2 208.2,143.4 207.5,145.4 C207.3,146.8 209,148.4 206.7,148.9 C206.5,149.8 208.3,150.4 207.3,151.6 C206.4,154 211.7,152.3 209.3,154.7 C207.9,155.7 206.4,156.9 205.3,157.8 C203.4,158.6 201.1,156.7 200.2,156.2 C199.8,156.8 198.9,155.4 199.1,156.7 C197.3,155.4 194.9,156.4 193.5,157.8 C192.9,159.2 194,162 191.4,161.2 C188.9,161.8 186.3,158.1 184.2,159.9 C181.9,159.8 179.5,158.9 177.1,158.3 C177,157.4 175.8,156.9 175.8,156.8 C177,154.8 177.5,152.3 178,150.1 C177.3,148.3 179,145.8 179.9,148.6 C180.5,150.2 180.5,149.4 180,148.2 C179.4,147.1 177.5,146.3 178.8,145.3 C178.5,143 174.8,142.5 175.1,140 C174.6,138.7 177.7,139.1 175.3,139.1 C173.8,139.7 174.4,138.3 174.1,138.1 C173,137.5 172.5,137.9 171.7,137.9 C171,136.1 168.6,137 167.1,136.2 C166.7,135.7 166.3,135.5 166.1,135.3 L166.1,135.3 L166.1,135.3 L166.1,135.3 L166.1,135.3 L166.1,135.3 Z M213.3,160.7 C213.7,160.8 213.8,160.2 214,160 C214.6,159.6 215.3,159.6 215.9,159.2 C216.3,159.1 216.3,158.7 216.3,158.3 C216.2,158 216.8,158 216.6,158.3 C216.7,159.4 217.1,160.5 217.1,161.7 C216.7,163 216.1,164.2 215.5,165.4 C215.4,165 214.9,164.9 214.6,164.6 C214.2,164.5 214.1,164.1 214.3,163.8 C214.1,163.8 213.7,163.8 214,163.5 C214.1,163.3 214.7,162.8 214.3,162.7 C214,162.7 213.7,162.5 213.9,162.2 C213.6,162.1 213.5,161.7 213.7,161.4 C213.7,161.2 214.2,161.1 213.8,161.1 C213.3,161.2 213.2,160.9 213.3,160.7 L213.3,160.7 L213.3,160.7 L213.3,160.7 L213.3,160.7 L213.3,160.7 Z" id="FR" stroke="#FFFFFF" stroke-width="0.8"></path>
                <path d="M157.1,107.1 C157.1,106.6 157.6,106.6 158.2,106.6 C158.2,106.1 158.2,106.1 157.7,106.1 C158.8,106.1 159.3,105 159.8,104.5 C160.3,104 160.9,105 161.4,104 C161.9,104.5 163,103.5 164.1,104 C164.6,104 164.6,104.5 164.6,105.1 L165.7,105.6 L164.6,106.1 L165.7,106.1 C166.2,106.6 166.2,107.2 165.7,107.7 C165.7,107.2 165.7,106.6 165.2,106.6 C165.7,106.6 165.7,107.1 165.2,107.1 C165.7,107.1 165.7,107.1 165.7,107.6 L165.2,108.1 C164.7,108.1 164.7,108.6 163.6,108.6 C163.1,108.6 163.1,108.1 162.5,108.6 C162.5,109.1 161.4,108.6 162,108.1 C161.5,108.1 160.4,106.5 159.9,107.6 C159.7,109.3 157.6,107.7 157.1,107.1 L157.1,107.1 L157.1,107.1 L157.1,107.1 L157.1,107.1 Z M161.3,94.4 C161.3,93.9 161.3,93.9 160.8,93.9 C160.8,94.4 161.3,94.4 161.3,94.4 L161.3,94.4 L161.3,94.4 L161.3,94.4 L161.3,94.4 Z M163.4,91.7 C163.9,92.8 164.5,91.2 163.9,91.2 C164.4,91.2 165.5,90.7 165,90.7 C165.5,90.2 165.5,89.1 164.5,89.6 C164.5,90.1 164,90.1 163.4,90.1 C162.9,90.6 163.4,91.2 162.9,91.2 C162.9,91.2 162.9,91.2 162.9,90.7 C162.4,90.7 162.4,91.2 161.8,91.2 C162.3,91.2 162.3,91.7 161.8,91.7 C162.3,91.7 162.3,91.7 162.9,92.2 C162.4,92.2 162.4,92.2 161.8,92.7 C162.4,93.3 163.4,92.3 163.4,91.7 L163.4,91.7 L163.4,91.7 L163.4,91.7 L163.4,91.7 Z M163.4,102.4 C164.5,101.9 165,101.3 163.9,100.8 C163.4,100.8 162.8,101.3 162.8,101.9 C163.3,101.9 163.3,101.4 163.9,101.4 C164,101.8 164,101.8 163.4,102.4 L163.4,102.4 L163.4,102.4 L163.4,102.4 L163.4,102.4 Z M165,96 C165.5,96 166.6,95.5 166.1,94.9 C164.5,95.4 165.6,93.3 164.5,93.3 L164.5,93.8 C163.4,93.8 163.4,94.3 162.9,93.8 C162.9,94.9 164,94.3 164.5,94.9 C163.4,94.9 164.5,95.4 164.5,95.4 C165,95.4 165.6,94.9 165.6,95.4 C165.5,95.5 165,95.5 165,96 L165,96 L165,96 L165,96 L165,96 Z M165,126.8 C166.1,125.9 167.8,124.3 169.2,125.3 C170.6,126.6 171.2,124.8 171.5,123.8 C172.9,123.5 174.4,123.6 175.7,124 C176.6,124.3 176.5,123.3 177.6,123.6 C178.9,123.8 178.6,122 179.7,123 C181.1,123.8 182.8,122.7 184.2,123.4 C185.7,123.1 187.7,122.3 188.2,120.9 C187.4,120.2 185.9,121 185.8,120.3 C183.7,120.6 187.8,120 186.3,119 C186.9,118.8 188.7,118.8 187.7,117.9 C188.5,118.5 190.3,116.1 189.4,114.8 C188.6,113.6 185.6,112.5 185.3,114.7 C184,115 183.8,113.6 184.8,113.1 C185.5,111.3 182.9,110.5 182.1,110.4 C183,110.1 185.2,111.7 183.9,110 C183.9,108.2 182.3,107.2 180.7,106.6 C178.8,105.8 179.8,103.1 178.5,101.8 C177.4,100.6 175.9,100.1 174.4,100.5 C173.7,100.9 171.7,100.2 172,100.1 C173.1,100.7 176,100.4 175.7,99 C175,98.4 173.2,99.2 175,98.7 C176.9,98 178,96.2 179,94.6 C179.1,92.5 176.5,93.6 175.2,93.5 C173.9,92.9 172.3,94.4 171.4,93.8 C171.4,93.4 170.3,93.7 171.4,93.4 C173,93.1 171.5,92.8 170.8,92.6 C172.2,92.1 173.9,91.6 174.9,90.4 C176,88.6 172.8,89.5 172,89.9 C171,90 169.5,89.7 169.1,89.6 C168.6,90 168.6,91.2 168.9,90.9 C167.9,90.6 167.3,92.1 167.9,92.4 C167.2,92.2 166.2,92.9 166.2,92.8 C166.2,93.4 166.4,94.2 165.9,94.4 C166.5,94.8 167.2,94.6 166.4,95 C166.9,95.6 166.9,94.7 166.4,95.4 C167.3,96.1 166.2,95.5 166,96 C166.8,96.2 165.5,96.3 165.7,97.1 C165.3,97.6 163.7,97.2 165.2,97.6 C166.9,97.7 164.3,97.5 165.3,98.3 C166.3,99.1 169,96.3 167.4,98.1 C167.1,98.6 167.3,98.4 167.3,98.4 C167.5,98.9 165.8,98.9 166.3,100 C165.9,100.4 165.3,101.6 166.4,101.7 C165,101.4 164.7,104.7 166.1,103.1 C166.6,102 166.6,100.1 167.9,99.7 C167.3,100.2 166.9,101.1 167.7,101.3 C168.5,102 167.1,100.4 168.3,100.9 C168.6,100.5 168.5,99.7 168.9,100.5 C169.7,100.4 169.8,101.5 168.8,100.9 C167.8,101.8 170.2,103.4 168.3,103.9 C167.7,104.7 166.5,106 168.1,106.3 C167.6,104.9 170.3,107.2 169.7,105.4 C170.7,107 172.2,104.4 173.6,105.1 C175.5,105.5 171.7,105.5 172.5,106.9 C172.8,107.8 173.3,109.5 174.2,108.8 C174.7,109 173,110.8 174.5,110.7 C173.4,110.9 173.9,112.9 174.9,112.4 C173.7,111.9 173.2,112.9 172.1,112.4 C171,112.7 169.7,113.1 168.9,112.1 C167.3,112.7 169.6,113.2 169.3,113.1 C168.5,113.4 166.8,114.9 168.7,114.3 C169.7,114.1 170.3,114.9 169.8,115.7 C170.1,116.8 167.9,117.9 166.6,118 C165,117.8 165.8,120.2 166.9,119.3 C165,120.2 168.1,120 168.5,119.3 C169.2,119.8 170,119.7 168.8,119.8 C169.3,120.3 170.5,119.7 171.2,120.7 C172.6,121.3 174,119.9 175.4,119.3 C174.1,119.8 173.4,121.2 172.5,121.9 C171,121.6 169.4,121.2 168.1,122.5 C167.5,123.3 166.8,124.3 165.7,124.9 C165.8,125.9 163.1,126.2 163.8,126.6 C164.3,126 164.9,126.3 165,126.8 L165,126.8 L165,126.8 L165,126.8 L165,126.8 L165,126.8 Z M178.8,124.1 C179.3,124.1 179.3,123.6 179.9,123.6 C179.4,123.1 178.8,123.1 178.3,123.6 L178.8,124.1 L178.8,124.1 L178.8,124.1 L178.8,124.1 L178.8,124.1 Z M164,96.5 C164.5,96.5 164.5,96 164.5,96 L164,96 C164,96 164,96 164,96.5 L164,96.5 L164,96.5 L164,96.5 L164,96.5 Z M164,99.2 C165.1,99.2 165.6,98.7 166.1,98.7 C166.1,98.2 164.5,97.1 164,98.2 C164.5,98.2 164.5,98.2 164.5,98.7 C164.5,98.7 164,98.7 165,98.7 C164.5,98.6 164.5,99.2 164,99.2 L164,99.2 L164,99.2 L164,99.2 L164,99.2 Z M165,101.3 C165,100.8 165.5,100.2 165.5,99.7 C165,100.2 165,100.8 164.4,100.8 C164.5,100.8 164.5,101.3 165,101.3 L165,101.3 L165,101.3 L165,101.3 L165,101.3 Z M167.1,102.9 C167.6,102.4 167.6,101.3 167.1,101.3 C166.6,101.8 166.6,102.9 167.1,102.9 L167.1,102.9 L167.1,102.9 L167.1,102.9 L167.1,102.9 Z M175.1,88.6 C175.1,88.1 175.1,88.1 174.6,88.1 L175.1,88.6 L175.1,88.6 L175.1,88.6 L175.1,88.6 L175.1,88.6 Z M175.1,87.5 C175.4,87.8 175.9,87.9 176.3,87.9 C176.6,87.9 177,87.7 177.2,87.5 C176.8,87.5 176.3,87.5 175.9,87.4 C175.7,87.3 175.6,87.2 175.6,87 C175.6,86.9 175.6,86.8 175.5,86.8 C175.4,86.8 175.2,86.8 175.1,86.9 C175,87 174.9,87.2 175.1,87.5 C175,87.4 175.1,87.5 175.1,87.5 L175.1,87.5 L175.1,87.5 L175.1,87.5 L175.1,87.5 Z M176.7,86.4 C176.7,86.4 176.7,85.9 176.2,85.9 C176.2,86.4 176.2,86.4 176.7,86.4 L176.7,86.4 L176.7,86.4 L176.7,86.4 L176.7,86.4 Z M165,94.4 C165.5,94.4 165.5,94.4 165.5,93.9 C165,93.9 165,94.4 165,94.4 L165,94.4 L165,94.4 Z M182,83.3 C181.8,83.5 181.6,83.7 181.5,83.8 C181.9,83.8 182.3,83.5 182.4,83.1 C182.6,82.6 182.7,82.1 183,81.7 C182.9,81.6 182.6,81.8 182.5,81.6 C182.4,81.5 182.6,81.2 182.3,81.2 C182.1,81.3 181.9,81.5 181.9,81.7 L181.9,80.7 C181.7,80.6 181.6,80.9 181.6,81 C181.6,81.2 181.3,81.1 181.4,81.3 C181.6,81.4 181.7,81.6 181.8,81.7 C181.6,81.9 181.4,82.2 181.1,82.2 C181,82.1 180.6,82.3 180.8,82.4 C180.9,82.3 181.1,82.1 181.3,82.2 C181.5,82.3 181.6,82.5 181.7,82.6 C182,82.8 182,83 182,83.3 L182,83.3 L182,83.3 Z M182.5,81.1 C182.7,81.1 183,81 183.1,80.8 C183.1,80.6 182.8,80.6 182.6,80.5 C182.5,80.4 182.4,80.6 182.5,80.7 L182.5,81.1 L182.5,81.1 L182.5,81.1 Z M183.6,80.6 C183.7,80.5 183.8,80.1 183.6,80.1 C183.4,80.1 183.2,80.3 183.3,80.5 C183.3,80.6 183.5,80.6 183.6,80.6 L183.6,80.6 L183.6,80.6 Z M183.6,81.1 C183.6,80.8 183.8,80.6 184.1,80.6 C184,80.6 183.7,80.5 183.7,80.7 C183.6,80.8 183.6,81 183.6,81.1 L183.6,81.1 L183.6,81.1 Z" id="GB" stroke="#FFFFFF" stroke-width="0.3"></path>
                <path id="GG" stroke="#FFFFFF" stroke-width="0.5" d="M173.6,128.6 L173.5,128.9 L173.2,128.8 L173.2,128.7 L173.6,128.6 L173.6,128.6 L173.6,128.6 L173.6,128.6 L173.6,128.6 L173.6,128.6 L173.6,128.6 Z"></path>
                <path id="GI" stroke="#FFFFFF" stroke-width="0.5" d="M159.7,188.8 L159.7,188.8 L159.7,188.8 L159.7,189 L159.7,189 L159.7,189 L159.7,188.8 L159.7,188.8 L159.7,188.8 L159.7,188.8 L159.7,188.8 L159.7,188.8 L159.7,188.8 L159.7,188.8 Z"></path>
                <path d="M31.5,80.3 C25.2,76.8 22.1,71.5 24,67.1 C24.9,65 24.9,63.7 24.1,62.2 C22.4,59.1 24.6,55.5 30.1,52.1 C32.7,50.5 35.3,48.3 35.9,47.2 C37.5,44.2 36.1,39.1 33.3,37.8 C31.9,37.2 31.1,36.1 31.4,35.3 C32.1,33.5 28.8,27.1 25.5,24 C23.1,21.7 22,21.5 13.7,21.4 C2.3,21.3 0.2,20.7 0.4,17.4 C0.5,16 0.8,14.9 1.1,14.9 C1.4,14.9 5.4,14.4 10.1,13.9 C16.1,13.2 21.4,11.7 28,8.8 C38.2,4.6 39,4.5 63.5,5 C71.2,5.2 78.4,4.6 87.5,3.1 C96,1.7 102.3,1.1 105.7,1.5 C108.6,1.8 112.7,1.6 115.1,1 C120.6,-0.5 134.7,1.3 140.3,4.1 C143.6,5.8 145.3,6 150.9,5.4 C156.9,4.8 157.4,4.9 155.6,6.2 C154.5,7 151.1,8 148.1,8.4 C141.5,9.3 135.5,13.9 137.1,16.9 C137.8,18.2 137.3,19.3 135.1,21.4 C133.5,23 131.9,25 131.6,25.9 C130.9,28.1 122.1,32.2 117.7,32.3 C112.8,32.5 112.3,33.5 116.1,35.6 C117.9,36.6 120.5,38.2 121.9,39.3 L124.4,41.2 L122.1,42 C120.3,42.7 118.9,42.2 116,40.2 C112,37.4 107.8,37.4 110,40.2 C110.9,41.3 110.7,41.7 109,42.1 C105.3,43.1 107.9,45 112,44.3 C114.6,43.9 116.1,44.1 116.9,45.1 C117.9,46.3 116.6,46.8 109.3,48.3 C104.5,49.3 98.1,50.2 95.1,50.2 C89.5,50.3 85.4,51.9 79.5,56.4 C77.6,57.9 73.4,59.3 68.6,60.3 C58.5,62.2 55.1,64.5 49,73.1 C44,80.4 41,83 38,83 C37.2,83 34.3,81.8 31.5,80.3 L31.5,80.3 L31.5,80.3 L31.5,80.3 L31.5,80.3 L31.5,80.3 Z" id="GL"></path>
                <path d="M256.3,173.1 C257,173.7 257.4,172.4 257.3,171.9 C258.7,171.5 258.9,170.1 259.7,169.1 C259.8,168.3 259.2,167.4 260.4,167.7 L262.8,167.7 C262.8,166.7 263.9,166.6 264.6,166.6 L266,166.6 C265.7,165.4 266.9,165.6 267.6,165.7 C267.8,165.4 268.5,165.6 268.9,165.5 C269.7,165.5 270.5,165.5 271,164.8 C271.3,164.2 271.9,164.4 272.4,164.4 C273.3,164.1 273.3,166.1 274.4,165.2 C275.2,165.3 275.7,166.4 276.6,165.6 C277.4,165.2 279.3,166.3 278.9,164.6 C278.6,164.2 277.8,163.4 278.8,163.6 C280,163.3 281.1,165.4 279.7,165.6 C279.2,166.3 279.1,168 278.3,168 C277.5,167.2 275.9,168 275,167.3 C274.3,166.9 273.7,168.4 273,167.4 C272,166.4 271.9,169.1 270.6,168.2 C269.6,167.9 270.1,168.8 270.5,169 C269.8,170.1 271.8,169.4 272,170.3 C272.9,171.4 271.1,170.6 270.8,170.1 C270.1,169.3 269.6,170.3 270.3,170.8 C270.7,171.3 271.8,172.3 270.6,171.7 C269.9,171.5 269.1,169.5 268.7,170.8 C269.2,171 270.4,172.1 269.2,171.9 C268.8,171 268.3,170.3 267.2,170.1 C265.9,170 267.6,168.9 266.9,168.7 C265.6,169 265.7,170.6 266.2,171.5 C266.6,172.8 268.1,173.5 268.4,174.9 C268.6,175.6 267,175.7 268.1,175.4 C268.4,174.3 266.2,174.2 266.9,175.5 C267.3,176 267.9,176.4 267,176.8 C266.5,177.1 265.6,176.4 266.5,177 C267.2,177.2 268,177.6 268.4,177.9 C269,177.3 268.1,178.6 269,178.2 C269.7,178.7 270.6,179.2 271.5,179.5 C272.1,180.4 271.8,181.5 271.9,182.5 C271.2,181.7 270.3,180.5 269.2,181.1 C268.7,181.4 267,181.4 268.2,181.8 C268.2,182.5 269.4,183 269.3,182.7 C269.9,183.2 269.9,183.8 269.1,184 C268.2,184.7 268.8,182.8 267.9,183.1 C266.8,182.8 267.3,183.9 267.7,184.5 C268.4,185.2 268.6,186.3 268.4,187.2 C269,187.6 268.9,188.5 268.3,187.6 C267.7,186.8 266.4,185.9 266.3,187.5 C266,188.5 265.6,186.3 265.2,186.1 C265.4,184.8 263.8,185.2 264.1,186.4 C264.1,187.5 262.6,185.7 262.8,185 C263.7,183.5 262.2,182.4 261,181.7 C261.1,180.5 262.7,180.4 263.5,179.6 C264.7,179.1 265.3,180.8 266.5,180.8 C267.2,181.2 268,181.5 268.4,180.5 C269.4,180.2 268.1,179.8 267.6,180 C267,180.1 266.7,178.8 266.2,179.4 C265.8,178.3 265.4,179.9 264.6,179.4 C263.7,179.4 262.3,180.1 261.5,179.2 C261.5,178.8 260.8,180.2 260.8,179.2 C260.6,178.5 258.2,177 259.8,176.8 C260.4,177.1 261.6,176.7 260.6,176.2 C259.9,175.5 259.3,177 259.3,176.8 C258.7,176 258,175.3 257.4,174.5 C256.7,173.9 256.8,173.3 256.3,173.1 L256.3,173.1 L256.3,173.1 L256.3,173.1 L256.3,173.1 L256.3,173.1 Z M277.5,171.3 C277,170.8 278,170.2 278,170.8 C278.6,170.8 277.5,171.3 277.5,171.3 L277.5,171.3 L277.5,171.3 L277.5,171.3 L277.5,171.3 Z M282.8,186.7 C282.3,186.2 283.9,185.6 284.4,185.6 C283.9,186.2 282.8,186.2 282.8,186.7 L282.8,186.7 L282.8,186.7 L282.8,186.7 L282.8,186.7 Z M258.4,179.3 L258.4,178.8 L258.4,179.3 C258.9,179.8 259.5,179.8 259.5,180.4 C259,180.4 257.9,180.4 257.9,179.9 C257.9,179.9 257.9,179.9 257.9,180.4 C257.3,179.3 257.9,179.3 258.4,179.3 L258.4,179.3 L258.4,179.3 L258.4,179.3 L258.4,179.3 Z M269.5,178.8 C270,177.7 267.9,176.7 267.4,177.2 C267.4,176.7 267.9,176.1 268.5,176.1 C269,176.1 269,176.6 269.6,177.2 C270.1,177.7 270.7,177.2 271.7,177.7 C272.2,178.2 271.7,178.8 272.2,179.8 C272.7,179.8 273.3,179.8 273.3,180.3 C273.8,181.4 272.8,180.3 272.8,180.3 C272.3,179.8 271.7,179.2 271.7,178.7 C271.1,178.8 270.1,179.3 269.5,178.8 L269.5,178.8 L269.5,178.8 L269.5,178.8 L269.5,178.8 Z M272.7,193.6 L270.6,193.6 C270.1,193.3 270,192.4 270.5,192.1 C270.7,192.1 271.1,191.7 271.1,191.7 C271.1,192.2 271.8,192.3 272.2,192.1 C272.3,192.1 272.8,191.9 272.5,192.2 C272.6,192.6 273.1,192.9 273.5,192.9 C274,192.9 274.3,192.3 274.8,192.5 C275.7,192.6 276.5,193 277.4,193 C277.7,192.9 278.2,192.8 278.4,193 C278.6,193.2 278.4,193.9 278.9,193.6 C279.2,193.3 279.6,193.5 279.9,193.4 L280.6,193.4 C280.7,193.8 280.6,194.5 280,194.4 C279.2,194.5 278.4,194.4 277.5,194.4 L276.1,194.4 C275.7,194.7 275.1,194.6 274.9,194.2 C274.7,193.8 274.4,193.6 273.9,193.5 C273.6,193.7 273.2,193.6 272.7,193.6 L272.7,193.6 L272.7,193.6 L272.7,193.6 L272.7,193.6 L272.7,193.6 Z M274.8,171.9 L276.4,171.9 C275.9,171.9 275.9,172.4 275.9,172.4 C275.4,171.9 274.3,172.9 274.8,171.9 L274.8,171.9 L274.8,171.9 L274.8,171.9 L274.8,171.9 Z M274.8,182.5 C274.8,182 274.3,181.4 273.7,180.9 L274.2,180.9 C274.3,181.4 275.4,181.4 274.8,182.5 L274.8,182.5 L274.8,182.5 L274.8,182.5 L274.8,182.5 Z M277,169.2 L277,169.7 C276.5,169.7 276.5,169.7 276.5,169.2 L277,169.2 L277,169.2 L277,169.2 L277,169.2 L277,169.2 Z M277,185.7 L277,185.2 C277,184.7 277.5,184.7 277.5,184.7 C278,184.6 277.5,185.7 277,185.7 L277,185.7 L277,185.7 L277,185.7 L277,185.7 Z M278.6,186.7 C278.6,186.2 279.1,185.6 279.7,185.6 C279.1,186.2 279.1,186.2 278.6,186.7 L278.6,186.7 L278.6,186.7 L278.6,186.7 L278.6,186.7 Z M279.1,180.4 C278,179.9 279.1,178.8 278,178.3 C279.1,177.2 280.2,179.3 279.1,180.4 L279.1,180.4 L279.1,180.4 L279.1,180.4 L279.1,180.4 Z M279.1,183 C279.1,182.5 280.2,182.5 280.2,182.5 C280.2,183 279.6,183 279.1,183 L279.1,183 L279.1,183 L279.1,183 L279.1,183 Z M280.2,176.6 C279.7,176.1 279.7,176.1 279.1,176.1 C279.1,175.6 279.1,175.6 279.6,175.6 L278.5,175.6 C277.4,175.1 278.5,175.1 278.5,175.1 C280.1,174.6 280.1,175.1 281.2,176.2 C280.7,176.1 280.2,176.1 280.2,176.6 L280.2,176.6 L280.2,176.6 L280.2,176.6 L280.2,176.6 Z M286.5,189.9 C286.5,191 286,189.9 286,189.4 C286,188.9 287.1,188.3 287.6,187.8 C288.1,188.3 287.6,188.9 287.6,189.4 C287.1,189.9 287.1,189.4 286.5,189.9 L286.5,189.9 L286.5,189.9 L286.5,189.9 L286.5,189.9 Z M256.3,174 L256.3,174.5 C255.8,174.5 254.7,173.4 254.7,172.4 C256.3,172.4 255.2,174 256.3,174 L256.3,174 L256.3,174 L256.3,174 L256.3,174 Z M258.9,177.2 C258.9,177.2 258.9,178.3 258.4,178.3 C258.4,177.7 258.4,176.6 258.9,177.2 L258.9,177.2 L258.9,177.2 L258.9,177.2 L258.9,177.2 Z M259.5,182.5 C259,182 259,182 259,181.4 C259.5,181.4 260,181.9 259.5,182.5 L259.5,182.5 L259.5,182.5 L259.5,182.5 L259.5,182.5 Z M273.3,169.2 C272.8,168.7 272.8,168.1 273.3,168.1 C273.8,168.1 273.8,169.2 273.3,169.2 L273.3,169.2 L273.3,169.2 L273.3,169.2 L273.3,169.2 Z M282.3,182.5 C282.3,182.5 280.7,182 281.8,182 C281.8,181.5 282.3,182 282.9,182 L282.3,182.5 L282.3,182.5 L282.3,182.5 L282.3,182.5 L282.3,182.5 Z" id="GR" stroke="#FFFFFF" stroke-width="0.3"></path>
                <path d="M231.3,146.9 C232.3,146.8 233.5,147.1 234.4,146.6 C235,145.5 235.9,146.8 236.9,146.8 C237.9,147.4 238.2,145.9 237.9,145.5 C238.5,145.3 239.8,145.1 238.9,144.3 C238.6,143 240.5,143 241.2,142.4 C241.9,141.8 242.8,142.6 243.4,143.1 C244.3,144 245.5,144.7 246.7,145.1 C247.5,145.4 248.4,145.5 249.3,145.5 C249.9,144.9 251.3,145.1 250.9,146.1 C251.3,146.3 251.4,146.6 251.3,146.9 C251.9,147.4 252.9,148.2 251.7,148.5 C251.9,149.4 250.7,150.1 250.3,149.1 C250,148.4 249.4,148.4 248.8,148.4 C248.1,148.4 247.4,148.3 246.8,148.5 C245.7,148.4 244.7,148.4 243.8,147.8 C242.8,147.5 242.1,148.3 241.3,148.6 C240.7,148.2 239.6,147.2 239.3,148.5 C238.8,149.9 240.9,150.2 240.9,151.5 C240.9,152.7 242,153.1 242.8,153.6 C243.3,154.8 244.5,155.4 245.4,156.3 C245.7,156.8 246.8,157.6 246.6,158 C245.4,158.3 244.9,156.8 243.9,156.5 C243,155.9 241.9,155.5 240.9,155.8 C240.2,154.7 239.1,154 238.1,153.3 C237.5,152.9 237.2,151.9 238.2,152.1 C238.5,152.1 239.3,152.2 238.6,151.9 C237.7,151.4 236.4,150.8 236.6,149.5 C236.5,148.5 235.8,147.3 234.6,147.4 C233.5,147.7 233.6,149.5 232.8,149.7 C231.9,149.1 231.2,148.1 231.3,146.9 L231.3,146.9 L231.3,146.9 L231.3,146.9 L231.3,146.9 L231.3,146.9 Z" id="HR" stroke="#FFFFFF" stroke-width="0.8"></path>
                <path d="M240.4,140.6 C240.7,140 242.5,140.4 241.8,139.3 C241.8,138.5 242.9,137.2 242.1,136.8 C242.8,136.7 243.9,137.4 243.8,136.2 C244.1,135 245.1,135.5 245.6,136.2 C246.6,136.9 247.9,136.7 249,136.4 C249.7,136.5 250.1,136.1 250,135.5 C250.9,134.9 252.2,135.5 252.9,134.5 C253.9,134.8 255.3,135.2 255.8,133.9 C256,132.6 257.2,132.8 258.2,133 C259.3,132.6 259.8,133.7 260.8,134 C261.6,133.5 262.5,133.8 263.1,134.6 C263.4,135.4 264.9,134.9 264.4,135.8 C264.1,137 262.6,136.2 262.2,137.3 C261.6,138.3 260.7,139.2 260.3,140.3 C260.2,141.2 259.6,141.6 259.1,142.2 C259,143.1 258.5,143.3 257.7,143.4 C256.7,144.2 255.2,143.6 254,143.8 C253.1,143.2 252.5,144.8 251.5,144.6 C250.4,144.9 249.3,145.2 248.2,145.7 C247,145.5 245.9,145 244.8,144.5 C244.2,143.6 243.3,143 242.4,142.5 C241.7,141.8 241.6,140.4 240.4,140.6 L240.4,140.6 L240.4,140.6 L240.4,140.6 L240.4,140.6 L240.4,140.6 Z" id="HU" stroke="#FFFFFF" stroke-width="0.8"></path>
                <path d="M149.1,119.3 C148.1,119.4 149.6,119.1 149.7,118.7 C150.4,117.9 149.2,118.8 148.8,118.8 C148,119.2 147.4,118.2 148.3,117.9 C148.7,117.5 149.9,117.4 149.9,117.1 C149.2,116.6 148.1,117.5 147.6,117 C148.1,116.4 149,116.7 149.7,116.7 C150.2,116.8 150.3,116.4 149.9,116.2 C150.4,115.7 151,115 151.8,115.1 L153.9,115.1 C153.5,114.2 152.5,115.1 151.8,115 C151.4,115 150.3,115.2 150.3,115 C151.1,114.7 151.8,114 152,113.2 C152.3,113 153.6,112.8 153,112.4 C152.1,112.5 151.2,112.4 150.4,111.9 C150.3,111.8 150.9,111.3 150.3,111.4 C149.7,112 149.2,110.7 150,110.8 C150.4,110.8 151.6,110.9 150.7,110.7 C149.9,110.1 152.2,109.5 150.8,109.6 C149.8,109.8 151.4,108.5 150.3,108.6 C150.2,108.9 150.7,108.3 150.2,108.2 C149.5,107.4 150.9,108.1 151.2,107.8 C151.9,107.3 152.7,108 153.4,107.9 C153.7,107.3 155.2,108.2 155.1,107.6 C154.9,107.2 157.1,107 156,106.3 C155.5,106.3 154.4,106.1 155.1,105.5 C155.3,105.4 156,105.6 155.5,105.3 C156.4,105.4 155.6,103.7 156.7,103.9 C157.2,103.7 158.4,104.2 158.4,103.6 C158.5,102.8 159.6,103.8 158.8,104.1 C158.5,104.7 159.8,103.9 159.2,103.6 C159.2,102.7 160.8,103.3 160.9,103.5 C159.9,103.9 159.6,104.9 159,105.5 C158.7,105.8 157.7,106 157.7,106 C158.3,106.3 157.5,106.7 157.2,106.7 C156.8,107.6 158,108.2 158.8,108.2 C159.8,108.7 159.8,107.3 160.6,107.1 C161.5,107.1 161.3,108.6 162.2,108.6 C162.6,108.1 163.8,108.7 162.9,109 C161.8,109.3 163.4,110.3 163.3,110.9 C163.2,111.6 162.7,112.2 163.3,112.9 C163.4,114 162.6,114.8 162.1,115.7 C161.8,115.9 161.1,116 161.8,116.2 C162,116.9 160.8,116.6 160.4,116.7 C159.6,116.4 159.6,117.5 158.8,117.2 C158,116.9 157.4,117.2 156.8,117.6 C156.2,117.5 155.8,119 155.4,118.3 C155.3,117.8 154.1,118 154.7,118.4 C154.4,119.2 153.4,119.1 152.8,119.5 C151.8,119.9 150.6,119.4 149.7,120.1 C150,119.9 150.9,118.9 150.1,119.4 C149.5,119.9 149.8,119.1 150.3,119.2 C151.1,118.9 149.1,119.1 149.1,119.3 L149.1,119.3 L149.1,119.3 L149.1,119.3 L149.1,119.3 L149.1,119.3 Z" id="IE" stroke="#FFFFFF" stroke-width="0.7"></path>
                <path d="M168.2,109.7 C168.7,109.7 169.3,109.2 169.8,108.6 C169.8,108.6 169.3,108.1 169.3,108.6 C168.7,108.7 168.2,109.2 168.2,109.7" id="IM" stroke="#FFFFFF" stroke-width="0.3"></path>
                <path d="M166,45 C167.9,43.7 169,43.7 169,45 C169,45.5 168,46 166.8,46 C164.9,46 164.8,45.8 166,45 L166,45 L166,45 Z M114.6,61 C115.5,61.2 116.5,60.5 117.1,60.3 C117.7,60.9 118.5,60 119,60.7 C119.8,60.6 120,60.4 119.4,61 C120,60.8 120,60.1 120.7,60.7 C121.2,61 121.8,61 120.9,61 C120.1,61.1 118.7,61.7 118.5,62 L121,62 C120.2,63.1 118.8,62.5 117.8,62.4 C117,62 116.1,63.6 116.2,62.4 C116,63.2 115.2,63 114.6,63 C114,62.8 113,63.5 114.1,63.7 C115.1,63.3 116.1,63.2 117.1,63.6 C117.7,63.4 118.6,64.1 118.9,63.6 C118.1,64 118.7,64.4 119,64.6 C119.4,64.1 121.9,64 120.3,64.4 C119.8,64.6 119.1,65.3 119.8,65.2 C119.4,65.2 118.3,65.2 119.4,65.4 C119.8,65.4 121.2,64.9 120.7,65.3 C120.4,65.3 119,65.8 119.9,65.8 C119,66.2 118.4,66.8 117.4,66.9 C117,66.9 117.5,65.8 116.9,66.8 C116.2,67.7 117.2,67.5 117.7,67.5 C118.7,67.5 119.8,67.6 120.8,67.4 C121.5,67 122.4,66.8 121.5,67.5 C122.1,67.7 122.5,67.7 122.9,67.6 C123.2,68.1 122.2,68.1 123.2,68 C123.6,67.5 124,67.5 124.2,68 C123,67.9 124.5,69.2 125.1,68.6 C126.1,68.9 127.2,69.2 128.3,69.1 C129.1,69.1 129.9,69.2 130.7,69 C131.5,68.7 131.6,67.8 132.5,68 C133.4,68.1 134.6,67.9 135,66.9 C135.4,67.9 137.1,66.9 137.8,66.4 C138.9,65.6 140.1,65 141.4,65.8 C142.3,65.2 142.8,64.2 143.7,64 C143.3,63.5 144.5,64.2 145,63.7 C145.3,63.6 145.1,62.9 144.7,63.1 C145.2,63.1 146.2,63.2 145.2,62.6 C144.1,62.3 145.6,62.5 146.1,62.7 C147.4,61.9 144.2,62.1 145.8,62 C146.8,61.6 145.9,61.4 145.3,61.5 C145.8,61.7 147.2,60.3 145.8,60.4 C145.4,59.4 143.8,60.6 143.9,60.4 C144.8,60.3 145.1,58.8 144,59.6 C143.1,60.2 143.2,59.5 143.7,59 C144.4,58 141.9,58.6 143.1,58 C142.9,57.1 145,57.2 143.7,57.2 C142.9,57 141.8,58 141.6,58.1 C140.7,57.8 141.5,56.7 140.3,56.8 C139.6,56.7 137.9,56.3 138.6,57.6 C137.9,59.2 136.5,57 135.5,58.3 C134.7,59.9 133.6,56.4 132.8,58.2 C132.6,58.8 133.4,59 133.1,59.8 C132.6,59.7 132.1,57.7 131,57.8 C130.5,58.1 130.3,58.5 129.6,58.3 C128.9,58.3 129.3,60.1 128.3,59.3 C128,58.4 126.1,57.5 126.3,59 C126.9,59.9 125.7,61.4 125.2,60.1 C124.5,59.6 123.9,61.2 123.5,61.2 C123.5,61.6 123.6,62.6 123.3,61.6 C123.3,61.1 123,60.6 122.5,61 C123.8,60.6 120.9,59 122.6,59.7 C123.6,59.8 123.5,58.6 123.2,58.7 C123.4,58.1 122.3,58.6 122.3,57.9 C121.8,57.5 121,57.6 120.7,56.8 C120.1,56.6 117.8,57.2 119.4,57.7 C119.9,57.9 120.8,57.9 119.8,57.7 C119.1,57.3 118.4,58 119.4,58.3 C120,58.6 120.8,59 119.7,59.1 C118.9,60.1 120.1,58.4 119.2,58.7 C118.8,59 118.9,59 118.8,58.6 C118.2,59.4 118.1,58.3 118.9,58.5 C118.4,58.5 117.2,57.4 117.2,58.3 C117.6,58.6 116.5,58.4 117.2,58.8 C117.8,59.1 115.7,57.8 116.5,58.9 C117,59.2 117.8,59.8 116.8,59.4 C116.3,59.1 115.4,59.7 116.4,59.6 C116.9,59.6 117.8,60.3 116.9,60.1 C118.2,60.1 115.9,60.4 115.6,59.8 C115,59.5 114.4,59.6 115.3,60 C116,60 115.7,60.1 115.5,60.6 C116.3,60.8 114.5,60.4 114.2,60.4 C112.2,60.6 114.6,60.3 114.6,61 L114.6,61 L114.6,61 Z" id="IS"></path>
                <path d="M226,186.7 L226,186.2 C226,186.2 226.6,186.2 226,186.7 L226,186.7 L226,186.7 L226,186.7 L226,186.7 Z M206.4,148.5 C208.5,148.4 208,146.3 206.9,145.3 C208.1,144.1 210,145.3 211.3,144.4 C211.3,143.2 213.1,141.7 213.2,143.7 C214.2,143.8 214.4,145.3 215,145.1 C214.9,143.9 215.9,143.1 216.1,142 C216.5,143.7 217.9,142.1 218.7,143.5 C219.8,143.8 217.6,141.5 219.4,141.7 C221.1,143.4 219.4,139.4 221.3,140.7 C222.3,141.5 222.9,139.3 224.3,140 C225.4,139.9 226.9,138.7 226.3,140.4 C227,142.7 230.5,141.2 231.3,142.5 C229.9,143.6 232.9,143.6 231.3,144.5 C231.8,145 231.8,145.3 232.5,146.2 C231.9,146.6 231.7,145.3 230.8,145.7 C229.8,145.6 228.1,147 227.4,146.7 C228.3,146.5 225.9,146.8 226.7,147.8 C227.6,148.6 228.2,149.7 226.9,149.9 C226,152.4 229.1,153.8 230.9,154.9 C233.3,156 232.2,159.4 234.4,160.6 C235.9,162 237.8,163 239.9,162.8 C241.9,162.6 241.4,163.9 240.3,164.7 C242.1,166.1 244.7,166.4 246.5,167.9 C248.1,168.7 250.7,169.6 249.9,171.8 C249.5,173.2 247.7,171.2 247.6,170.3 C246.9,170 245.5,170.3 245.7,169.1 C243.7,169.3 242.7,171.6 243.2,173.3 C245,173.5 246.4,176.5 243.9,176.8 C242.6,177.7 243.6,179.6 241.8,180.3 C241,181.6 238.9,181.1 240.3,179.6 C241.6,179 240.2,177.1 242,177.3 C241.4,175.3 240.9,172.9 239.4,171.4 C237.4,172.7 237.8,169.1 236.2,168.8 C234.8,168.9 234.8,169.4 234.9,168 C233,168.6 233.5,165.6 231.7,166.1 C230.3,166 229.1,165.4 228,164.5 C226.5,163.2 225.3,161.4 223.5,160.5 C222.7,160.6 222.4,158.1 220.9,158 C220,156.2 220.1,153.2 217.5,153 C216.1,152.4 214.1,150.7 212.9,152.7 C212.2,153.3 209.7,155.7 209.7,153.6 C211.2,152 206.5,153.2 207.3,151 C208.8,149.7 206.9,149.6 206.4,148.5 L206.4,148.5 L206.4,148.5 L206.4,148.5 L206.4,148.5 L206.4,148.5 Z M212.2,169.7 C212.4,169.2 211.4,169.2 211.7,168.7 L211.7,167.6 C212.1,168.1 213,168 213.5,167.5 C214.1,167 214.8,166.6 215.4,166.1 C215.9,165.8 216.3,166.2 216.5,166.6 C216.7,166.8 217.1,166.4 216.9,166.8 C217,167.1 216.8,167.3 216.7,167.5 C216.9,167.8 217.5,167.8 217.6,168.2 C218,168.8 217.8,169.7 217.3,170.2 C217,170.7 217.4,171.2 217.5,171.7 C217.6,172.2 217.4,172.8 217.2,173.3 C217,173.9 217.6,174.6 217.3,175.2 C217.1,175.6 216.5,175.4 216.2,175.3 C215.8,175.1 215,174.8 215,175.4 C215.1,175.9 214.7,176.5 214.2,176.5 C213.6,176.7 213.3,176.2 212.8,176 C212.4,175.9 213,175.7 212.9,175.4 C213,174.9 212.9,174.3 212.9,173.8 C212.9,173.4 212.7,172.6 213.3,172.8 C213.5,172.8 213.4,172.5 213.4,172.3 C213,172.1 212.7,171.6 212.8,171.1 C212.9,170.7 212.5,170.3 212.2,169.7 L212.2,169.7 L212.2,169.7 L212.2,169.7 L212.2,169.7 L212.2,169.7 L212.2,169.7 L212.2,169.7 Z M229.2,183 C228.7,183 228.1,182.5 227.6,182.5 C227.1,181.4 228.7,180.9 228.7,180.4 C229.2,180.9 229.8,180.4 230.3,180.4 C231.4,179.3 231.9,180.9 233.5,180.9 L235.1,180.9 C235.6,180.4 236.7,179.8 237.2,179.8 C237.7,179.8 237.7,180.3 238.3,179.8 C238.3,179.8 239.4,179.3 239.9,179.8 L238.3,181.4 C238.3,181.9 237.8,183 237.8,183.5 C237.8,184 238.9,184.6 238.3,185.1 C238.3,185.6 237.8,186.2 238.3,186.7 L236.2,186.7 C235.1,186.2 235.1,185.6 234.6,185.1 C233.5,184.6 233,184.6 231.9,184 C230.8,183.5 230.3,183 229.2,183 L229.2,183 L229.2,183 L229.2,183 L229.2,183 Z" id="IT" stroke="#FFFFFF" stroke-width="0.8"></path>
                <path d="M176,129.8 L176,130 L175.9,130 L175.8,129.9 L175.6,129.9 L175.4,129.9 L175.4,129.5 L175.8,129.5 L176,129.8 L176,129.8 L176,129.8 L176,129.8 L176,129.8 Z" id="JE" stroke="#FFFFFF" stroke-width="0.5"></path>
                <path d="M255.7,159.1 C255.7,158.6 256.2,158.6 256.2,158.6 L256.2,158.6 C256.7,158.1 256.7,158.1 257.3,158.1 C257.9,158.1 257.8,157.6 257.3,157 L258.4,157 C258.4,158.1 261.1,157.5 261.1,158.6 C260.6,159.1 261.6,159.1 262.2,159.7 C262.2,160.2 261.1,160.8 261.7,161.3 C261.2,161.3 260.6,161.3 260.6,161.8 L259,161.8 C257.9,162.3 258.5,163.4 257.9,163.4 C257.9,163.4 257.9,161.8 257.4,161.8 C257.4,161.3 256.9,161.3 256.3,161.3 C256.3,160.8 256.3,160.2 255.8,160.2 C255.8,159.7 255.8,159.1 255.3,159.1" id="XK" stroke="#FFFFFF" stroke-width="0.5"></path>
                <path d="M216.5,139.5 L217,139 C217,139 217.5,140 216.5,139.5" id="LI"></path>
                <path d="M255.7,99.7 C256.7,100 257,98.4 258.1,98.7 C259.2,98.6 260.4,98.7 261.6,98.6 C262.5,98.8 263.3,98.5 264.2,98.6 C265.2,98.5 266.2,99.5 267.1,98.8 C267.9,97.9 268.7,98.7 269.3,99.3 C270.1,99.8 271.3,99.5 272.1,100.2 C272.7,101 273.9,101.2 274.4,102.1 C274,102.9 275.3,103 275.2,103.6 C274.3,103.8 273.7,104.5 273,105 C271.9,105.3 272.5,106.6 271.9,107.3 C271.7,107.7 272.6,107.8 272,108.1 C271.5,108 271,107.3 270.5,107.9 C270,108.4 269.2,108.5 268.7,109.1 C267.9,109.5 266.9,109.3 266.1,109.2 C265.5,109.3 264.8,109.3 264.7,108.6 C264,108.2 263.5,107.4 262.7,107.1 C261.9,107.2 261.5,106.6 262.1,106 C262.4,105.1 261.4,104.2 260.6,104.2 C259.6,104.7 258.7,104.2 257.9,103.6 C257.2,103.3 256.7,103 256.5,102.2 C255.9,101.4 255.6,100.6 255.7,99.7 L255.7,99.7 L255.7,99.7 L255.7,99.7 L255.7,99.7 L255.7,99.7 Z" id="LT" stroke="#FFFFFF" stroke-width="0.8"></path>
                <path d="M203.7,127.3 L203.7,127.3 C203.7,126.8 203.7,126.2 204.2,125.7 C204.7,125.7 204.7,126.2 204.7,126.8 C205.2,126.8 205.8,127.3 206.3,127.3 C206.3,127.8 205.8,128.4 205.8,128.9 C205.3,128.9 204.2,128.9 203.7,128.4 C204.3,128.4 203.7,127.8 203.7,127.3" id="LU"></path>
                <path d="M255.2,98.1 C255.5,98.5 255.9,98.8 255.5,98.1 C255,97.2 255.7,96.5 256.2,95.9 C256.3,95 256.6,94.1 257.3,93.5 C258.2,93.3 259.1,92.9 260,92.9 C260.8,93.6 261.6,94.4 262.4,95.1 C263,96.1 264.5,96.5 265.4,95.7 C266.4,95.2 266.1,93.9 265.7,93.1 C265.8,92.8 265.5,92.1 266,92.1 C266.9,91.7 268,91.1 269,91.6 C270,91.5 270.8,92 271.6,92.4 C272.3,93.1 273.2,93.7 274.2,93.2 C275.2,93.4 276.1,93.8 277.1,94.1 C278,94.6 277.3,95.9 277.6,96.4 C278.6,96.8 279.4,97.9 279.4,99 C279.3,99.8 278,99.5 278,100.4 C277.7,101.7 276.4,100.6 275.6,101.1 C274.5,101.7 273.4,101.1 272.5,100.4 C271.4,99.8 270.1,99.5 269,99 C268.5,98.4 267.7,98.1 267.1,98.8 C266.1,99.4 265,98.7 264,98.5 L257.8,98.5 C257.2,98.9 256.2,99.3 255.9,99.9 C255.4,99.6 255.2,98.8 255.2,98.1 L255.2,98.1 L255.2,98.1 L255.2,98.1 L255.2,98.1 L255.2,98.1 Z" id="LV" stroke="#FFFFFF" stroke-width="0.8"></path>
                <path id="MC" d="M209.1,154.9 L209.1,154.4 L209.1,154.9"></path>
                <path d="M278,134.2 C278.5,133.5 279.4,133.7 280.1,133.7 C280.8,133.5 281.7,133.3 282.2,134 C282.6,134.8 283.7,134.7 284.3,135.2 C284.7,134.5 285.4,135.2 285.8,135.6 C286.5,135.7 287.1,136.2 287.2,136.9 C287.3,137.5 287.6,138 288,138.4 C288.3,138.7 288.9,138.6 288.7,139.2 C288.7,139.5 288.3,140.1 288.2,140 C289.1,139.6 289.7,140.6 290.2,141.2 C290.3,141.8 290.5,142.4 290.5,142.9 C289.9,143.6 289.3,142.5 288.7,142.6 C288,142.7 287,142.1 287,143.1 C287.1,143.9 286.6,144.4 286.2,144.9 C285.9,145.5 285.7,146.3 285.1,146.6 C284.6,146.9 283.9,146.9 284.2,146.2 C284.6,145.3 283.7,144.7 283.9,143.8 C283.9,143 284.5,142.4 284.3,141.6 C283.9,140.6 283.2,139.9 282.5,139.2 C281.8,138.5 281,137.8 280.3,137 C279.6,136.2 279.5,134.9 278.5,134.4 C278.3,134.2 278.2,134.2 278,134.2 L278,134.2 L278,134.2 L278,134.2 L278,134.2 L278,134.2 Z" id="MD" stroke="#FFFFFF" stroke-width="0.5"></path>
                <path d="M249.9,160.2 C251,159.7 248.8,157.5 250.4,158.1 C249.9,157 251.5,156 251.5,157 C252,156.5 251,155.9 251.5,155.4 C252,155.9 252,156.5 252.6,156.5 C253.1,157.6 253.7,157.6 254.7,158.1 C254.7,158.1 255.8,158.1 255.8,158.6 C256.3,159.1 255.3,159.1 255.3,159.1 C255.3,159.1 256.4,159.6 255.8,160.2 C255.3,160.2 254.7,160.7 254.7,160.2 C254.7,159.7 254.2,159.7 254.2,159.7 C253.1,160.8 253.1,161.8 253.1,163.4 C252.6,162.9 252,162.3 251.5,161.8 C251.5,161.3 250.4,160.7 250.4,160.7 C250.4,160.2 250.4,160.2 250.9,160.7 C251,160.2 249.4,161.3 249.9,160.2" id="ME"></path>
                <path d="M257.3,164.4 C257.5,164 257.4,163.4 257.9,163.3 C258.3,163.2 258.4,162.7 258.6,162.4 C258.8,162.1 259.1,161.6 259.5,161.8 C259.8,162.1 260.5,162.4 260.6,161.8 C260.7,161.3 261.2,161.1 261.6,161.4 C262.1,161.5 262.5,161.3 263,161.2 C263.4,161 264,160.6 264.4,161.2 C264.7,161.8 265.2,162.3 265.7,162.7 C266.1,163 266.4,163.5 266.4,164.1 C266.4,164.6 266.8,165.1 266.6,165.6 C266.2,166 265.6,166.2 265.2,166.6 C264.7,166.8 264.1,166.7 263.6,166.7 C263.1,166.6 262.9,167.2 262.4,167.3 C261.6,167.7 260.7,167.8 259.8,167.7 C259.3,167.8 258.6,167.8 258.6,167.1 C258.5,166.5 257.9,166.3 257.8,165.7 C257.6,165.2 257.6,164.8 257.3,164.4 L257.3,164.4 L257.3,164.4 L257.3,164.4 L257.3,164.4 L257.3,164.4 Z" id="MK" stroke="#FFFFFF" stroke-width="0.8"></path>
                <path d="M235.6,191 C235.6,191 235.1,190.5 235.1,189.9 C235.6,190.4 236.1,190.4 235.6,191" id="MT"></path>
                <path d="M196.9,118.8 L196.9,118.8 C196.9,119.3 197.4,119.9 198,119.3 C197.9,118.8 197.4,118.8 196.9,118.8 M197.4,118.8 C197.9,118.3 198.5,119.3 199,119.3 C198.4,118.8 197.9,118.3 197.4,118.8 M195.3,120.9 C195.3,119.8 198,120.4 198.5,120.4 C198,120.9 197.4,121.5 196.9,120.9 L195.3,120.9 M197.4,119.3 C197.4,119.8 197.9,120.4 198.5,120.4 C198.5,119.9 198,119.9 197.4,119.9 C197.9,119.4 199,119.9 197.9,119.4 C199,119.9 199.5,118.9 200.6,118.9 C200.6,118.9 199.5,119.4 199,118.9 C198.5,118.9 197.4,118.4 197.9,117.8 C199,116.7 199.5,115.7 200,114.6 C200.5,114.1 200.5,113.5 201.1,113.5 C201.7,113.5 202.7,113 202.7,112.4 C203.8,111.3 205.4,111.3 206.9,111.3 C207.4,111.3 209,112.4 209,112.9 C208.5,113.4 208.5,114 208.5,114.5 C208.5,115 207.4,114.5 206.9,115 C206.9,115.5 209,115.5 208,117.1 L207.5,117.1 C207,117.6 207.1,117.3 207.1,117.8 L205.3,118.2 C205.3,118.7 204.2,117.7 204.2,118.7 C204.6,118.7 205.2,119.2 205.3,119.8 C205.5,120.8 205.1,121.2 204.8,121.9 C204.8,121.9 204.5,122.7 204.2,123 C204.2,121.6 203.8,121.6 203.9,121.3 C202.8,120.8 201.5,120.8 201,119.8 C201,120.3 200.5,120.3 199.9,119.8 C199.9,120.3 199.4,120.3 198.8,119.8 C199.3,120.9 197.7,120.3 197.2,120.3 C196.7,120.3 196.1,120.3 195.6,119.8 C196.3,119.3 196.9,119.3 197.4,119.3" id="NL" stroke="#FFFFFF" stroke-width="0.6"></path>
                <path d="M203.2,85.9 C202.7,86.4 202.7,87 203.2,87 L203.2,85.9 L203.2,85.9 L203.2,85.9 L203.2,85.9 L203.2,85.9 L203.2,85.9 Z M203.7,83.3 C203.2,83.8 203.2,84.4 203.7,84.4 C204.2,84.4 203.7,83.3 203.7,83.3 L203.7,83.3 L203.7,83.3 L203.7,83.3 L203.7,83.3 Z M211.2,71 C211.2,71 211.2,71 211.7,70.5 L211.2,70.5 C211.2,70.5 211.2,71 210.7,70.5 C210.6,71 210.6,71 211.2,71 L211.2,71 L211.2,71 L211.2,71 L211.2,71 Z M212.8,69.5 C212.8,69 212.3,69 211.7,69.5 L212.8,69.5 L212.8,69.5 L212.8,69.5 L212.8,69.5 L212.8,69.5 Z M213.3,68.9 C213.8,69.4 215.4,68.9 216,68.4 C215.5,67.9 215.5,67.9 214.9,68.4 L214.4,68.4 C214.4,68.4 213.8,68.4 213.3,68.9 L213.3,68.9 L213.3,68.9 L213.3,68.9 L213.3,68.9 Z M221.3,63.1 C221.8,63.1 222.4,63.6 222.9,63.1 C222.3,62.6 221.8,63.1 221.3,63.1 L221.3,63.1 L221.3,63.1 L221.3,63.1 L221.3,63.1 Z M224.4,62 C223.9,62 223.3,62 223.3,62.5 C223.9,62.6 223.9,62.6 224.4,62 L224.4,62 L224.4,62 L224.4,62 L224.4,62 Z M234.5,48.2 L235,48.2 C234.7,48.2 234.4,48.2 234.2,48.4 C234,48.5 234,48.7 234.1,48.9 C234.2,49 233.9,49.3 234.2,49.3 C234.4,49.2 234.5,49.1 234.7,48.9 C234.8,48.8 235.1,49 234.9,49.1 C234.8,49.3 234.9,49.4 235.1,49.4 C235.3,49.4 235.6,49.3 235.6,49.1 C235.6,48.9 235.8,48.7 236,48.8 C236.1,48.9 236.2,49.1 236.4,49.1 C236.6,49.1 236.6,48.8 236.7,48.6 C236.8,48.4 237.1,48.4 237.2,48.6 C237.4,48.8 237.8,48.8 238,48.5 C238.2,48.3 238.1,47.9 237.8,47.7 C237.7,47.6 237.6,47.3 237.4,47.3 C237.1,47.3 237.1,47.7 236.9,47.7 C236.5,47.8 236.1,48.2 235.8,48.5 C235.6,48.6 235.6,48.2 235.8,48.1 C235.9,48 236,47.8 236.1,47.7 C236.2,47.5 236.1,47.3 236.1,47.2 C236,47 235.9,47 235.7,47.1 C235.6,47.2 235.4,47.2 235.3,47.3 C235.2,47.4 235.1,47.7 235.3,47.9 C235.4,48.1 235.2,47.9 235.1,47.9 C234.9,47.9 234.8,48 234.7,48.2 L234.5,48.2 L234.5,48.2 L234.5,48.2 L234.5,48.2 L234.5,48.2 L234.5,48.2 Z M239.3,45.6 L239.8,45.6 C239.6,45.5 239.4,45.8 239.4,46 C239.6,46.1 239.3,46.3 239.2,46.1 C239.1,46.1 238.8,46 238.7,46.1 C238.8,46.2 238.9,46.3 239.1,46.4 C239.4,46.5 239.8,46.5 240.1,46.2 C240.2,46.1 240.4,46 240.6,46.1 L241.9,46.1 C241.8,46.2 241.5,46 241.6,45.8 C241.7,45.6 241.9,45.5 242.1,45.5 C242.3,45.4 242.2,45.1 242.1,45.1 C241.8,44.9 241.5,44.6 241.1,44.4 C240.9,44.3 240.7,44.6 240.9,44.7 C241,44.9 240.7,45.1 240.6,44.9 C240.4,44.8 240.2,44.8 240,44.8 C239.9,44.9 240.2,45.1 239.9,45.2 C239.7,45.3 239.4,45.2 239.2,45.3 C239.1,45.3 238.9,45.2 238.8,45.4 C238.9,45.7 239.2,45.6 239.3,45.6 L239.3,45.6 L239.3,45.6 L239.3,45.6 L239.3,45.6 L239.3,45.6 L239.3,45.6 L239.3,45.6 Z M244.6,44 L245.1,44 C244.8,43.7 244.4,43.5 244,43.5 C244.1,43.4 244.3,43.6 244.2,43.7 C244.1,43.8 244.1,43.9 244,44 C243.8,44 243.5,43.8 243.5,43.6 C243.5,43.7 243.4,43.9 243.3,43.9 C243.4,44 243.4,44.1 243.3,44.1 C243.2,44.2 243,44.2 242.9,44.3 C242.8,44.3 242.9,44.5 242.7,44.5 L242.4,44.5 C242.5,44.6 242.6,44.7 242.8,44.7 C243.2,44.8 243.7,44.8 244,44.7 C244.4,44.6 244.6,44.3 244.6,44 L244.6,44 L244.6,44 L244.6,44 L244.6,44 L244.6,44 L244.6,44 Z M244.2,42.9 C244.2,43.1 244.3,43.4 244.5,43.5 C244.8,43.6 245.1,43.6 245.4,43.5 C245.9,43.4 246.4,43.1 246.8,42.9 L246.4,42.9 L245.9,42.9 C245.8,42.8 245.8,42.7 245.8,42.5 C245.8,42.4 245.7,42.3 245.6,42.4 C245.1,42.5 244.7,42.8 244.2,42.9 L244.2,42.9 L244.2,42.9 L244.2,42.9 L244.2,42.9 L244.2,42.9 Z M248.8,42.4 C248.8,42.9 249.9,42.9 249.9,41.9 C249.4,41.9 249.4,42.4 248.8,42.4 L248.8,42.4 L248.8,42.4 L248.8,42.4 L248.8,42.4 Z M255.7,41.9 L256.2,41.9 C255.7,41.4 255.1,41.4 254.6,41.4 C254.7,41.9 255.2,41.9 255.7,41.9 L255.7,41.9 L255.7,41.9 L255.7,41.9 L255.7,41.9 Z M257.9,40.8 L257.9,40.8 C257.4,41.3 256.3,40.8 255.8,41.3 C256.3,41.8 256.9,41.3 256.9,41.8 C257.3,41.9 258.4,41.3 257.9,40.8 L257.9,40.8 L257.9,40.8 L257.9,40.8 L257.9,40.8 Z M258.9,40.8 C259.4,40.3 258.9,40.3 258.4,40.3 C257.3,40.3 258.4,41.3 258.9,40.8 L258.9,40.8 L258.9,40.8 L258.9,40.8 L258.9,40.8 Z M258.4,39.2 C258.9,39.2 258.9,39.7 259.5,39.2 C259.5,39.2 258.9,38.7 258.4,39.2 L258.4,39.2 L258.4,39.2 L258.4,39.2 L258.4,39.2 Z M264.8,39.2 L264.8,39.2 C264.3,39.2 264.8,39.2 264.8,38.7 L263.7,38.7 L262.6,38.7 C263.1,38.7 263.1,39.2 263.1,39.2 C263.7,39.7 264.2,39.2 264.8,39.2 L264.8,39.2 L264.8,39.2 L264.8,39.2 L264.8,39.2 Z M202.7,77.4 C204,77.4 204.6,76.6 203.1,76.1 C204.2,75.2 207.6,75.7 204.4,75.3 C203,73.9 207.4,73.9 208.4,73.7 C210.1,74.2 206.3,72 209,72.2 C210.5,72.6 212.9,71.8 210,71.5 C209.8,70.5 213.5,71.8 213.9,69.9 C216,68 222.2,70.1 221.9,66.8 C221.8,69.6 216.2,68.3 218.9,65.9 C220.4,64.7 224.4,64.5 224.4,63.1 C220.4,62.7 228.8,62.5 225.5,61 C227.6,59.7 227.1,57.4 229.5,57.5 C227.5,57.8 228.9,55.6 229.3,55.8 C231.4,55.1 228.2,54.5 230.4,54.4 C232.1,54.2 234.7,53.8 233.3,52.7 C236.2,52.8 234.7,51.3 233.9,51.2 C235.1,51 235.9,50.9 235.2,50.1 C236,49.7 239,51.6 237.6,49.5 C239.3,48.7 241.4,49.6 238.8,48.6 C241.1,47.3 242.4,44.9 245.5,45.1 C245.6,43.2 247.3,44.5 248.7,44 C248.5,46.9 251.4,41.8 253.4,43.2 C250.1,41.2 255.9,42 256.5,42.7 C258.9,42 260.9,37.5 263.6,40 C261.5,41.5 263.6,42.3 264.7,40.4 C266.6,39.1 267.3,42.4 268.7,39.8 C269.7,37.9 271.7,39.5 270.6,40.5 C272.1,40.9 275.3,38.6 277.5,40.8 C281.2,42.8 274.4,42.1 274.5,42.9 C275.4,43.6 280.9,43.7 277.3,44.8 C275.8,46.1 275.5,45.7 274.8,44.3 C271,41.4 265.1,42.3 264.6,46.7 C263,49.2 263.1,46.3 259.2,47.6 C257.4,48.1 256.6,48.3 254,46 C252,44.9 248.3,46 248.4,48.9 C244.7,48.1 240.5,49.7 238.1,52.6 C237.3,56.5 232.8,58 231.5,61.7 C231.2,64 230.9,66.9 227.9,66.5 C223.2,69 225.7,74.7 227,78.2 C226.9,81.6 225,84.3 223.4,87.1 C222.1,87.5 219.8,81.9 219.8,86.2 C216.3,87.4 214,91.1 210.3,91.5 C208.2,91.9 203.5,89.6 205.2,87.5 C207.9,88.1 204,86 206.9,85.9 C206.3,86 206,84.8 204.6,85.5 C201.6,86.1 206.2,82.9 206.8,82.2 C211.2,79.6 201.3,84.5 204.4,80.6 C203.5,80.8 202.2,80.1 203.9,79.9 C203.1,76.1 210.4,80.4 210.3,77.7 C207.7,77.9 204.9,79.9 202.7,77.4 L202.7,77.4 L202.7,77.4 L202.7,77.4 L202.7,77.4 L202.7,77.4 Z M213.3,70 L213.8,70 C213.8,69.5 213.3,69.5 213.3,70 L213.3,70 L213.3,70 L213.3,70 L213.3,70 Z M203.2,75.3 C203.2,75.3 203.2,75.3 203.7,75.8 C203.2,75.8 202.6,75.8 202.1,75.3 L203.2,75.3 L203.2,75.3 L203.2,75.3 Z M206.9,73.2 L206.4,73.2 L206.9,73.2 L206.9,73.2 L206.9,73.2 Z M206.4,73.2 L206.9,73.2 C206.9,73.2 206.9,73.2 206.4,73.2 L206.4,73.2 L206.4,73.2 Z M208.5,72.1 C208.5,72.1 208.5,72.1 208,72.1 L208.5,72.1 L208.5,72.1 L208.5,72.1 Z M209.1,71.6 L208.6,71.6 L209.1,71.6 L209.1,71.6 L209.1,71.6 Z M212.8,70 L212.3,70 C212.2,70 212.2,70 212.8,70 L212.8,70 L212.8,70 Z M214.4,69.5 L213.9,69.5 L214.4,69.5 L214.4,69.5 L214.4,69.5 Z M206.4,85.4 C206.4,84.9 206.9,85.4 207.5,84.9 C206.9,85.4 206.4,85.4 206.4,85.4 L206.4,85.4 L206.4,85.4 Z M222.8,64.2 C222.8,64.7 222.8,64.7 223.3,64.2 L222.8,64.2 L222.8,64.2 L222.8,64.2 Z M221.3,63.1 L221.8,63.1 C221.8,63.1 221.8,63.1 221.3,63.1 L221.3,63.1 L221.3,63.1 Z M227.6,57.8 C227.6,57.8 227.6,57.8 227.1,57.8 L227.6,57.8 L227.6,57.8 L227.6,57.8 Z M228.2,57.8 L227.7,57.8 C227.7,57.8 227.6,57.8 228.2,57.8 L228.2,57.8 L228.2,57.8 Z M228.7,55.1 L229.8,55.1 L228.7,55.1 L228.7,55.1 L228.7,55.1 Z M232.9,49.8 L233.4,49.8 L232.9,49.8 L232.9,49.8 L232.9,49.8 Z M233.5,50.9 L234,50.9 L233.5,50.9 L233.5,50.9 L233.5,50.9 Z M237.7,47.2 L238.2,47.2 L237.1,47.2 L237.7,47.2 L237.7,47.2 L237.7,47.2 Z M245.7,42.4 L246.2,42.4 L245.7,42.4 L245.7,42.4 L245.7,42.4 Z M249.9,42.9 L251,42.9 L249.9,42.9 L249.9,42.9 L249.9,42.9 Z" id="NO" stroke="#FFFFFF" stroke-width="0.6"></path>
                <path d="M232.9,114 C234.1,112.9 232.6,110.9 233.8,110.2 C235,109.7 233.4,109 232.9,109.5 C233.1,109.1 234.8,109.4 235.5,108.8 C237.3,108.3 239.3,108.2 240.8,106.9 C242.6,105.4 245.1,105.2 247.3,105.5 C248.1,106 248,105.9 247.3,105.6 C247.3,107.2 249.2,107.6 250.5,107.2 C251.7,107.2 250.6,106.8 250.4,107.5 C251.3,107.6 252.8,106.8 254,107.5 C255.6,107.8 257.2,107.6 258.8,107.7 C259.9,107.6 261.1,107.8 262.2,107.5 C264.4,107.6 264.8,110.4 265.9,111.9 C266.9,113.3 266.5,115.2 264.7,115.6 C263.6,116.6 265.1,117.5 265.8,117.7 C265.7,119.2 266,120.6 266.9,121.8 C267.6,122.2 268.1,122.9 267.6,123.2 C268.9,124.7 265.9,125.2 265.3,126.3 C263.8,127.2 263.5,128.8 263.7,130.3 C265,131.4 262.3,130.1 261.9,130.3 C260.6,129.3 259,128.7 257.5,129.4 C256.8,129.4 256,129.5 255.3,129.3 C254.3,129.9 253.2,130.1 252.8,128.8 C251.8,127.5 250.8,130.3 250.1,128.6 C249.5,126.9 247.8,126.5 246.2,126.7 C245.6,126 245.8,124.9 244.4,125.3 C243.7,125 243,124.5 242.9,125.7 C242.3,126.8 239.9,124.8 241,124.2 C240.6,123.4 239.7,124.5 239.4,123.6 C238.4,123.4 236.9,123.4 236.8,122.1 C236,123.1 235.5,122.5 236.3,121.6 C236.1,120.3 234.6,119.4 235.2,117.9 C235.8,116.8 234.1,116.4 234.9,115.4 C234.4,114.6 233.4,114.6 232.9,114 L232.9,114 L232.9,114 L232.9,114 L232.9,114 L232.9,114 Z" id="PL" stroke="#FFFFFF" stroke-width="0.8"></path>
                <path d="M145.9,175 C146.1,174.1 147.3,173.8 147.4,172.8 C148,171.6 148.3,170.4 148.6,169.1 C149.1,168.7 149,168.1 148.7,168.2 C149.3,167.1 149,165.8 148.9,164.6 C148.9,164.2 149,163.9 148.7,163.7 C149,162.8 150.1,162.6 150.8,162 C151.7,161.7 151.4,162.6 151,163 C151.3,163.9 152.7,162.5 153.4,163 C154.1,163.6 154.9,163.3 155.5,162.7 C156.2,162.6 157.6,162.8 157.1,163.7 C157.5,164.2 158.7,164.5 157.8,165.3 C157.3,166.3 155.4,166.5 155.8,167.7 C155.9,168.6 156.3,169.6 155.7,170.4 C154.8,170.3 154.9,171.3 155.3,171.8 C155.3,173 153.6,173.3 153.1,173.6 C153.8,174.3 154.1,175.3 154.5,176.2 C154.3,177.3 152.8,178.1 153.6,179.4 C154.1,179.8 154.7,180.4 153.8,180.9 C153,181.6 152,182.4 152.4,183.6 C152.7,184.7 151.5,185.5 150.5,185.4 C149.6,185.4 148.8,184.6 147.9,184.8 C147.4,184.8 146.1,185.5 146.9,184.6 C147.6,183.4 147.8,182.1 147.6,180.8 C147.8,180.3 147.7,179.3 147.7,179 C148.3,179 148.1,178 147.7,178.7 C147,179 145.7,179 146.6,178.1 C146.8,177.5 148,178 147.5,177.1 C146.7,176.1 146.6,178.4 145.6,177.7 C145,177.1 145.9,176.2 146,175.6 C145.9,175.3 145.9,175.2 145.9,175 L145.9,175 L145.9,175 L145.9,175 L145.9,175 L145.9,175 Z" id="PT" stroke="#FFFFFF" stroke-width="0.7"></path>
                <path d="M255.7,143.7 C256.9,144 257.3,143.1 258.4,143 C259.4,142.1 260.2,140.9 260.6,139.5 C261.8,138.8 261,137.1 262.4,136.9 C263.4,136.3 264.2,136.2 265,135.3 C266.6,134.4 267.9,136.2 269.5,135.6 C270.8,135.4 271.5,137.2 272.8,136 C274.1,134.9 276.1,136.6 276.9,134.6 C278.3,133.3 279.7,135.9 280.4,136.9 C281.1,138.6 283.1,139.3 283.8,140.9 C284.9,142.1 283.4,143.6 283.8,145 C284,146.3 284.8,148.1 286.4,147.7 C287.3,147.2 289.9,146.1 289.7,148.1 C290.4,149.4 287.2,151 287.8,149.2 C286.7,148.6 287.4,150.8 287.1,150.6 C286.5,151.4 288.1,150.1 287.3,150.8 C286.1,151.7 286.8,153.1 286.5,154.2 C285,154.7 283.5,153.3 281.9,153 C280.3,152.2 278.4,153 277.1,154 C275.6,155.2 273.6,155.1 271.9,154.5 C270.4,155.2 268.8,154.1 267.2,154.2 C266.4,154.4 265.2,154.5 265.8,153.3 C266.1,152.3 263.5,152.3 264.3,151 C264.9,150.9 265.5,151 264.7,150.4 C263.5,149.9 262.4,151.6 261.4,150.3 C260.3,149.9 259.9,149.1 260.1,148.2 C259.3,147.1 256.7,147.5 257.2,145.5 C257,144.9 256.1,144.5 255.7,143.7 L255.7,143.7 L255.7,143.7 L255.7,143.7 L255.7,143.7 L255.7,143.7 Z" id="RO" stroke="#FFFFFF" stroke-width="0.8"></path>
                <path d="M253.6,143.7 L252.5,143.7 C252.1,144.5 250.6,144.2 250.7,145.3 C251.3,146 250.9,147.2 251.8,147.6 C252.5,147.8 252,148.3 251.7,148.5 C251.5,149 251.7,149.3 252.1,149 C253.2,149.3 252,150.6 252.1,151.4 C252.1,152.4 254.2,152.7 253.2,153.7 C252.8,153.8 252.6,153.4 253,153.8 C253.6,154.6 252.8,155.7 251.9,155.5 C251.2,156.3 252.8,156.8 253.3,157.3 C254.1,158.1 255.1,158.4 256.2,158.6 C256.9,159 258.1,158.9 258.2,157.9 C258.2,157.4 258.9,158.5 259.3,158.6 C259.9,159.2 261.4,158.9 261,160.1 C260.6,161.2 261.7,161.8 262.6,161.3 C263.4,161.2 264.3,161 264.9,160.5 C264,159.6 264.9,158.2 265.9,158.1 C266.8,157.2 265.7,156.4 264.9,156.1 C264.2,155.6 263.6,154.6 264.2,153.8 C264.8,153.1 264.6,151.8 264.3,151.2 C265,151.3 265.4,150.6 264.5,150.4 C263.6,150.4 262.6,151.4 261.8,150.5 C260.9,150.3 259.9,149.6 260.1,148.6 C259.8,147.4 258.2,147.7 257.6,146.8 C257.2,145.9 257.2,144.8 256.3,144.2 C255.6,143.7 254.6,143.6 253.6,143.7 L253.6,143.7 L253.6,143.7 L253.6,143.7 L253.6,143.7 L253.6,143.7 Z" id="RS" stroke="#FFFFFF" stroke-width="0.8"></path>
                <path d="M349.2,42.6 C344.1,40.6 344.2,40.7 345.7,38.9 C346.4,38.1 346.6,37.4 346.1,37.3 C345.6,37.2 346.1,36.6 347.2,35.8 C348.3,35 349.2,34 349.2,33.6 C349.2,33.2 350.7,31.2 352.5,29.2 C355.7,25.7 356.1,25.5 364,25 C368.5,24.7 374,24.2 376.3,23.8 C378.7,23.4 380.7,23.6 381.1,24.1 C381.8,25.2 380.5,25.7 372.7,27.1 C365,28.5 360.4,30.6 357.3,34.3 C354.1,38.1 354,40.5 356.9,42.6 L359.1,44.2 L356.1,44.2 C354.5,44.2 351.4,43.4 349.2,42.6 L349.2,42.6 L349.2,42.6 L349.2,42.6 L349.2,42.6 L349.2,42.6 Z M255.3,107.6 C254.5,107.6 253.8,107.7 253,107.3 L255.2,105.5 C255.9,104.9 256.6,104.6 257.4,104.4 C258.2,104.2 258.8,104.9 259.4,105 C260,105.1 260.5,104.9 260.9,105.2 C261.3,105.5 261.1,105.7 261.1,106.3 C261.1,107.3 261.3,107.6 260.3,107.7 C259.1,107.8 259.9,107.5 255.3,107.6 L255.3,107.6 Z M304.8,119.3 C308.9,123.4 311.9,124.9 319,126.3 C323.5,127.2 325.2,128.1 326.8,130.4 C329,133.4 328.8,134.3 325.4,138.1 C324.3,139.3 323.7,140.3 324.2,140.3 C324.7,140.3 324.4,141 323.7,141.8 C323,142.6 322.7,143.6 323,143.9 C323.3,144.2 323,145.7 322.2,147.2 L320.8,149.9 L329,154.4 L332,154.2 C333,154.2 335.8,154.2 337.3,155.1 C339.2,156.3 339.3,155.9 340.7,155.9 C341.8,155.2 345,157.1 356.1,162 C359.3,163.5 361.2,164.1 362.1,164 L364.3,163.4 C362.4,160.9 359.8,157.3 359.8,156.7 C359.8,156 358.8,154.7 357.7,153.9 C355.9,152.7 355.7,152.1 356.7,150.3 C357.3,149.1 359.2,147.2 360.9,146 L363.9,143.8 L361.4,141.5 C360,140.2 357.3,138 355.4,136.5 C353.5,135 351.9,132.9 351.9,131.9 C351.9,128.7 353.8,125.9 355.7,126.5 C356.8,126.9 357.7,126.3 358.4,124.8 C358.9,123.6 360.9,121.7 362.6,120.7 C365.5,119 366.4,118.9 371.1,120 C374,120.7 377.5,121.8 379,122.6 C380.9,123.6 382.6,123.7 385.1,123 C387.7,122.3 392.8,123.5 392.8,123.5 L392.8,51.5 C392.8,51.5 364.1,43.5 363.1,44.6 C362.5,45.2 363.3,45.8 365.1,46.2 C366.7,46.6 368.6,47 369.3,47.3 C371,47.8 370.2,50.3 368.4,49.9 C367.7,49.7 364,50.1 360.2,50.7 C354.9,51.6 353,51.6 351.9,50.6 C349.9,48.9 344.4,50.1 337.4,53.8 C332.6,56.3 331.3,56.6 329.5,55.7 C328.3,55.1 327.5,54 327.6,53.4 C327.7,52.7 326.6,52 325,51.9 C322,51.6 322,51.4 324.1,56.5 C324.6,57.8 324.2,58.1 317.6,59.8 C314.5,60.6 313.4,61.3 313.8,62.3 C314.6,64.5 311.1,66 307.9,64.8 C304,63.3 302.5,63.7 305.6,65.4 C309,67.2 309,67.6 305.8,68.8 C302.5,70.1 296,66.9 293.9,63 C293.1,61.5 291.2,59.6 289.7,59 C287.7,58.1 287.3,57.5 288.1,56.6 C288.9,55.7 290.7,55.8 295,56.7 C298.2,57.4 302.5,58.2 304.6,58.5 C309.1,59.2 314.4,57.3 313.6,55.2 C312.9,53.3 294.5,47.5 291.3,48.1 C289.7,48.4 288.6,46.5 283,44.1 L278.6,44.6 L275.4,46.1 L273.9,46.4 C273.4,47.2 273.7,48.6 274.7,49.5 C275.8,49.9 277.1,50.1 278,51 C277.9,52.7 277.4,53.5 276.4,54.7 C277,55.8 278.1,56.3 279,56.8 C279.7,57.9 279.8,59.1 279.7,60.4 L279,61.8 L280.9,63.8 L282.4,65.6 L282,67.7 C283.5,68.6 284.6,68.9 285.8,69.7 L286.4,72.3 L277.2,79.9 L275.6,80.6 L276.3,81.9 C278.6,82.4 280.9,82.3 283.2,83.5 C281,84.5 282.9,82.4 277,84.4 L277.4,85.3 L276.1,87.6 L275.7,89.8 L277.2,91.9 L276.3,93.2 C277.1,94.1 276.6,95.7 278.3,96.7 L279.4,98.8 C280.6,99.5 282.1,100.1 283.4,100.3 L288,100.9 L289,102.8 L289.1,105.4 C290.1,106.6 291,107.8 292.3,108.6 L295.2,110 L295.8,112.1 C294.6,112.9 293.6,112.9 292.3,113.2 L293,115.9 C294.6,117.9 293.2,117.4 294.2,118 L295.5,116.8 L298.3,116.8 C301.1,116.3 302.1,116.6 304.8,119.3 L304.8,119.3 Z" id="RU"></path>
                <path d="M223.9,90.7 C223.9,90.7 223.4,90.7 223.4,91.2 C223.4,91.2 224.5,91.7 224.5,91.2 C224.5,90.7 224.4,90.1 223.9,90.7 L223.9,90.7 L223.9,90.7 L223.9,90.7 L223.9,90.7 Z M239.8,98.6 L239.8,99.1 C240.3,99.1 240.6,98.7 240.7,98.3 C240.8,97.9 240.8,97.4 240.8,97 C241.5,96.3 241.8,95.4 241.9,94.4 C241.7,94.3 241.6,94.5 241.5,94.6 C241.3,95 241.2,95.5 240.9,95.8 C240.8,96 240.8,96.3 240.7,96.5 C240.4,97.1 239.9,97.6 239.8,98.3 L239.8,98.6 L239.8,98.6 L239.8,98.6 L239.8,98.6 L239.8,98.6 L239.8,98.6 Z M246.2,96 C246.2,95.5 247.8,94.4 247.8,93.9 C246.7,93.9 249.9,91.8 247.3,92.3 C246.8,92.3 246.2,92.8 245.7,93.4 C245.2,93.9 245.7,95.5 246.2,95.5 C245.7,96 245.7,96 245.7,96.6 C246.2,96.5 246.2,96.5 246.2,96 L246.2,96 L246.2,96 L246.2,96 L246.2,96 Z M222.3,87 C223.9,88.9 224.4,85.5 224.9,85.2 C226.2,83.3 227,81.3 227.1,79.4 C227,77.6 227.6,77.7 226.6,76.5 C225.8,74.1 225.5,71.2 226,68.6 C227.7,66.6 229.3,67.1 231,65.6 C231.1,63.9 231.9,63.9 231.5,62.3 C232.1,61.2 232.8,59.2 234.8,57.8 C235.8,56.2 238.2,55.1 237.9,53 C239.2,51.5 240.8,50.5 242.8,50.2 C242.2,46.4 246.6,50.3 248.4,48.7 C249.7,47.9 247.9,45.6 250.2,46.6 C252.6,47.8 255,49 258,49.7 C259.6,50.7 260,53.3 259.7,53.6 C260.7,54.1 260.5,56.4 260.5,57.3 C262.7,59.9 258.3,59.9 256.7,59.3 C256.1,59.8 256.9,60.5 255.5,60.4 C254.3,60.8 253.6,60.8 254.4,61.8 C253.8,62.6 252.4,63.2 253.5,63.6 C253.6,64.4 255.3,64.9 253.5,65.2 C252,68.1 248.3,68.5 245.7,69.8 C245.1,70.7 243.9,72.4 243.2,70.5 C244.4,71.9 241.4,73 242.6,73.8 C241.7,74.1 242.8,76.7 241.5,75.6 C241.2,77.6 241.6,80.7 244.1,80.8 C245.6,81.5 249.3,83.6 246.7,85 C244.7,85.3 246.3,86.2 246.3,86.3 C245.7,86.9 244.1,88.4 243.6,86.8 C244.1,88.3 241.6,88.7 240.8,88.9 C238.3,88.4 242.7,89.5 240.4,89.5 C239.4,89.3 242.1,91.5 240.3,92.1 C240.8,93.8 240.4,98.3 237.6,99.2 C235.4,99.4 232.4,99.8 232.6,102.5 C231.4,102.8 229.3,102.8 228.4,102.3 C229.5,100.5 226.1,99.7 227.9,97.8 C227.1,95.8 224.1,93.9 224.7,91.2 C226,89.6 223.1,90.8 223.9,89.5 C222.8,91.5 222,87.8 222.4,87.2 L222.3,87 L222.3,87 L222.3,87 L222.3,87 L222.3,87 L222.3,87 Z" id="SE" stroke="#FFFFFF" stroke-width="0.6"></path>
                <path d="M231.3,144.3 C231.5,144.1 231.7,143.9 231.8,143.8 C231.4,143.7 230.5,143.3 231.1,142.9 C231.3,142.4 231.7,141.8 232.3,142.2 C232.8,142.4 233.4,142.4 233.9,142.6 C234.3,142.7 234.6,142.7 235,142.8 C235.6,142.1 236.4,141.7 237.3,141.7 C237.9,141.6 238.6,141.9 239.1,141.4 C239.4,141.1 240.2,141.6 240.2,141.5 C239.8,141 240.5,140 241,140.7 C241.5,141.2 242,141.7 242.5,142.2 C242.1,142.3 241.4,141.8 241.1,142.3 C241.3,142.5 241.5,142.9 241.1,142.7 C240.5,142.6 240.3,143.5 239.7,143.3 C239.3,143.3 238.5,143.7 239.1,144.1 C239.6,144.7 239.1,145.3 238.5,145.4 C238.2,145.5 237.5,145.9 238.2,145.8 C238.4,145.8 238,146.2 238,146.4 C238,146.9 237.4,147.2 237.1,146.8 C236.6,146.4 236,146.4 235.4,146.1 C235.2,145.9 235,145.9 234.9,146.2 C234.5,146.6 233.9,147.1 233.3,146.8 C233.2,146.6 232.8,146.5 232.9,146.9 C232.6,147.1 232.2,146.9 231.8,147 C231.7,147 231.2,147.1 231.4,146.9 C231.8,146.6 232.9,146.4 232.3,145.7 C232,145.5 231.7,145.1 231.7,144.8 C231.5,144.7 231.3,144.5 231.3,144.3 L231.3,144.3 L231.3,144.3 L231.3,144.3 L231.3,144.3 L231.3,144.3 Z" id="SI" stroke="#FFFFFF" stroke-width="0.5"></path>
                <path d="M221.3,10 C221.8,10.7 224.1,9 223.2,10.4 C224,11.1 221.4,10.8 222.8,11.7 C223.4,12.4 225.7,11.9 225.5,12.3 C223.6,12.8 226,13.3 226.8,13.2 C228.4,13.5 229.8,12.7 230.7,11.7 C231.7,11.3 232.2,11.8 232.7,12.5 C233.6,12.8 235.4,11.2 235.6,11.7 C234.6,12.5 235.8,12.6 236.2,12.7 C234.5,13 232.7,12.8 231.1,13.4 C230.2,14.1 227.9,12.9 227.9,14.3 C229.7,15.1 232,14.4 234,14.6 C234.7,14.4 237.2,14.2 235.2,14.5 C234,14.8 232.3,14.1 231.5,15.3 C232,15.5 234.3,15.3 233.7,15.5 C232.2,15.8 230.3,14.8 229.1,15.6 C229.8,16.8 231.7,17 233.1,17.2 C233.7,16.9 236.2,17.2 234.4,17.5 C232.8,18.1 236.1,19.7 236.8,18.6 C237.5,17.3 238.2,16.1 239.6,15.4 C241,14 242,11.8 244.4,11.7 C245.5,11.7 247.4,12.7 247.8,11 C246.1,10.9 244.3,10.6 242.7,10 C241.1,10 240,8.2 238.5,8.6 C238.3,7.1 236.1,7.7 234.9,7.5 C233.1,7.6 234.1,9.2 235,9.8 C235.7,11.3 233.5,9.5 233.2,9.1 C232.1,7.8 230.1,7.6 229.2,9.1 C228.1,9.1 226.6,8.9 225.9,8.5 C226.5,8.3 229.3,8.4 227.8,7.6 C226.2,7.9 224.7,8.5 223.2,7.9 C222.1,8.1 219.9,9 221.3,10 L221.3,10 L221.3,10 L221.3,10 L221.3,10 L221.3,10 Z M240.4,7.4 C238.5,8.3 241.3,8.1 242.1,8.3 C244,8.6 245.9,8 247.8,7.9 C248.4,7.7 249.6,8.2 248.3,8.3 C247.1,8.2 245.9,8.5 245.1,8.8 C244.5,8.4 242.6,8.5 244.1,9.1 C245.8,9.8 247.6,9.3 249.3,9.5 C251.1,9.2 252.7,11.3 254.6,10 C256.4,9.5 258.3,9.6 259.7,8.4 C260.5,8.2 263.1,7.9 261.3,7 C259.4,6.4 257.4,7.2 255.4,6.7 C254.1,6.1 252.3,7.9 251.5,6.6 C252.4,5.5 250.1,5.7 250,6.7 C248.9,8.2 247,6.5 245.4,6.7 C244.1,6.1 242.1,6 241.6,7 C240.8,7.1 239,6.3 238.8,7 C239,7.5 241.2,7.4 240.4,7.4 L240.4,7.4 L240.4,7.4 L240.4,7.4 L240.4,7.4 L240.4,7.4 Z M244.6,12.7 C246.3,12.9 248.1,13.9 249.9,13 C249.7,11.8 247.5,12 246.5,12.1 C245.8,12.3 245.2,12.5 244.6,12.7 L244.6,12.7 L244.6,12.7 L244.6,12.7 L244.6,12.7 L244.6,12.7 Z M246.7,15.9 C248.4,16.5 250,15.4 251.6,15.5 C251.8,15.6 250.5,16.6 251.6,16.7 C253.5,16.4 255.3,15.5 257,14.7 C255.9,13.7 253.4,15.3 252.8,14 C254,13.2 251.1,13.3 250.5,13.2 C249.2,13.2 247.9,13.4 246.6,13.8 C247.7,13.9 248.8,15.4 247.1,15.6 C247,15.6 246.9,15.7 246.7,15.9 L246.7,15.9 L246.7,15.9 L246.7,15.9 L246.7,15.9 Z" id="SJ" stroke="#FFFFFF" stroke-width="0.6"></path>
                <path d="M243,132.6 C243.3,131.7 244.3,132 245,132.1 C245.5,131.8 246.1,131.4 246.7,131.1 C247.4,130.7 247.3,129.6 248.2,129.4 C248.8,129.1 250.1,128.6 250.4,129.4 C251.1,129.4 251.6,127.9 252.2,128.6 C252.6,128.9 252.3,129.6 253,129.4 C253.1,129.6 252.9,130.1 253.4,130.1 C254.3,130.5 254.4,129.2 255.2,129.3 C256,128.8 256.4,129.9 257.2,129.5 C257.9,129.2 258.6,128.6 259.3,129.1 C260.2,129.5 261.2,129.7 262,130.3 C263.1,130.6 262.7,131.6 262.2,132.2 C261.8,132.8 261.9,134.2 261,134 C260.2,133.8 259.6,133.2 258.8,133.1 L257.4,133.1 C256.7,132.5 255.7,133.2 255.8,134.1 C255.4,134.7 254.2,134.8 253.5,134.6 C252.7,134.2 251.9,134.7 251.5,135.4 C251,135.7 249.4,135.3 249.9,136.2 C249.8,136.4 248.8,136.5 248.3,136.7 C247.7,136.9 247.1,136.3 246.5,136.7 C245.8,136.8 245.5,135.6 244.7,135.6 C244.3,135.3 243.5,134.9 243.5,134.3 C243.5,134 243.6,133.7 243.4,133.5 C243.2,133.3 243.4,132.8 243,132.6 L243,132.6 L243,132.6 L243,132.6 L243,132.6 L243,132.6 Z" id="SK" stroke="#FFFFFF" stroke-width="0.8"></path>
                <path d="M227.1,154.4 L227.6,154.4 L227.6,154.4 L227.6,154.9 L227.1,154.4 L227.1,154.4 L227.1,154.4 L227.1,154.4 L227.1,154.4 Z" id="SM"></path>
                <path d="M304.6,187.5 C302.3,185.8 298.4,185.6 297.5,187.1 C296.8,188.3 291.7,187.5 288.9,185.7 C286.9,184.5 285,180.8 285,178 C285,177 284,175.4 282.8,174.5 C280.9,173.2 280.8,172.8 282,171.9 C282.8,171.4 284.5,171.2 285.8,171.5 C287.4,171.9 288.9,171.2 290.7,169.4 C292.4,167.7 294.6,166.7 296.9,166.6 C298.9,166.5 301.7,165.6 303.3,164.6 C306.7,162.3 314.3,163.1 320.4,166.3 C326.1,169.3 334.8,169.3 336.7,166.4 C337.9,164.6 338.5,164.4 341.1,165.4 C342.7,166 344.3,167.3 344.6,168.3 C344.9,169.3 346.3,170.9 347.6,172 C349,173.1 349.6,174.2 349.1,174.6 C348.4,175 348.6,176 349.5,177.4 C350.3,178.6 351.2,180.6 351.6,181.9 C352.3,184.1 352.1,184.2 348.9,183.6 C347,183.2 343.5,183.5 341.1,184.2 C338.7,184.9 333.8,185.5 330.3,185.6 C325.5,185.7 323.6,186.2 322.7,187.5 C321.6,189 321.3,189.1 320.8,187.7 C320.1,185.8 316.5,185.8 313.2,187.7 C309.8,189.4 307,189.4 304.6,187.5 L304.6,187.5 L304.6,187.5 Z M281.3,166.2 C281.5,164.7 282.4,163.4 283.3,163.2 C284.8,162.9 290.5,165.9 289.8,166.6 C289.6,166.8 287.6,167.3 285.2,167.9 C281,168.8 281,168.8 281.3,166.2 L281.3,166.2 L281.3,166.2 Z" id="TR"></path>
                <path d="M292,146.7 L290.2,147.9 L289.7,147 L288.5,146.6 L285.8,147.8 L285.5,147.4 L285.2,146.9 L286.5,145.3 L287.6,143 C288.5,142.5 289.3,142.8 290.2,143.4 L291,142.5 L290.6,140.5 L289.2,139.5 L288.4,137.9 L286.5,135 L284,134.3 L282.2,133.2 C281.1,133.4 280,133.5 278.6,132.9 C278.2,134 276.8,134.4 275.6,135.1 L271.9,136.1 L270,135.4 C268.9,135.6 267.8,135.8 266.6,134.9 L264.8,135.1 C263.6,135 263.1,134.3 262.7,133.6 C262.4,132.8 262.8,131.7 264,130.3 L264.5,127.9 C265,127 265.5,126 266.6,126.1 L268.5,123.9 L268.5,122.8 C267.2,121.9 266.7,121 266.8,120.1 C268.3,119.5 269.6,118.2 271.3,118.5 L273.2,118.6 L276.1,119.1 C277.2,119 278.1,119.4 278.9,120.1 C280.3,119.7 281.7,119.8 283.1,120.7 C284.6,119.6 285.4,120.5 286.4,120.8 C287.7,120.4 289,120.9 290.4,121.3 L290.8,120.3 C290.6,119.4 290.7,118.6 291.6,118.3 L293.8,117.8 L294.6,118.9 C301.4,115.7 301.7,116.6 304.9,120.1 C308.4,123.8 312.3,125.8 319.2,127.2 C328.6,129.1 330.5,135.5 322.7,138.8 C309.9,144.2 309.8,144.3 311,145.8 C311.7,146.6 313.2,147.3 314.4,147.3 C316.1,147.3 315.9,147.7 313,149.3 C308.7,151.7 308.9,151.6 306.2,149.7 C304.4,148.4 304.2,147.8 305.1,146.7 C306,145.6 305.9,145.2 304.4,144.6 C303.4,144.2 302.1,143.3 301.5,142.5 C300.6,141.3 300,141.3 297.4,142.6 C295.7,143.5 293.6,145.3 292.7,146.7" id="UA"></path>
            </g>
        </g>
    </g>
</svg>