<?xml version="1.0" encoding="utf-8"?>
<!-- Generator: Adobe Illustrator 19.2.1, SVG Export Plug-In . SVG Version: 6.00 Build 0)  -->
<svg version="1.1" id="Шар_1" xmlns="http://www.w3.org/2000/svg" xmlns:xlink="http://www.w3.org/1999/xlink" x="0px" y="0px"
	 viewBox="0 0 402 318" style="enable-background:new 0 0 402 318;" xml:space="preserve">
<style type="text/css">
	.st0{stroke:#FFFFFF;stroke-width:0.5;}
</style>
<title>Group</title>
<desc>Created with Sketch.</desc>
<g id="north_x5F_america">
	<path id="AG" d="M292.3,273.1c-0.3-0.1-0.5-0.3-0.5-0.6C292.3,272.3,292.4,272.7,292.3,273.1L292.3,273.1z M292.1,275.6
		c-0.5,0-0.7-0.7-0.1-0.8C292.5,274.8,292.3,275.4,292.1,275.6L292.1,275.6z"/>
	<path id="AI" d="M286.9,270.2c0.2-0.2,0.5-0.3,0.8-0.5C287.5,270,287.2,270.2,286.9,270.2"/>
	<path id="AW" d="M249.9,295.2c-0.1-0.2-0.4-0.2-0.5-0.4c-0.2-0.3,0.1-0.3,0.1-0.3c0.3,0.3,0.5,0.7,0.7,1c0,0.1-0.1,0.1-0.2,0.2
		C250,295.5,250,295.3,249.9,295.2L249.9,295.2L249.9,295.2L249.9,295.2L249.9,295.2z"/>
	<path id="BB" d="M299.4,293.6c-0.5-0.2-0.4-0.7-0.4-1.1C299.5,292.7,300.2,293.4,299.4,293.6"/>
	<path id="BL" d="M288.4,271.5L288.4,271.5L288.4,271.5l-0.1-0.1l0,0l0,0l0,0L288.4,271.5L288.4,271.5L288.4,271.5L288.4,271.5
		L288.4,271.5L288.4,271.5L288.4,271.5z"/>
	<path id="BM" d="M292,203.6c0-0.2,0.5-0.7,1-1.1c0.6-0.3,1-0.1,1,0.4s-0.4,1.1-1,1.1C292.5,204,292,203.9,292,203.6L292,203.6
		L292,203.6L292,203.6z"/>
	<path id="BQ" d="M265.4,297.1c-0.2-0.3-0.7-0.4-0.7-0.8c0-0.5,0.2-0.3,0.6,0.3c0.4,0.5,0.6,0.9,0.5,1.1
		C265.7,297.8,265.6,297.3,265.4,297.1L265.4,297.1L265.4,297.1L265.4,297.1z M289.1,275.2l-0.4-0.4
		C289,274.7,289.1,275,289.1,275.2L289.1,275.2L289.1,275.2L289.1,275.2z"/>
	<path id="BS" d="M229.8,240.3c-1.6-1.8-1.4-4.3,0.4-4.3c0.6,0,0.8,0.9,0.5,2s0,2.1,0.6,2.4c0.6,0.2,0.9,0.7,0.6,1.1
		C231.6,241.8,230.6,241.3,229.8,240.3L229.8,240.3L229.8,240.3L229.8,240.3z M235.6,232.4c-0.4-0.9-0.4-1.9-0.1-2.2
		s0.8,0.3,1.1,1.2c0.3,0.9,0.4,1.9,0.1,2.2C236.5,233.9,236,233.4,235.6,232.4L235.6,232.4L235.6,232.4L235.6,232.4z M229.3,231.5
		c0-0.8,0.9-1.5,1.9-1.5c1.7,0,1.7,0.2,0.4,1.5C229.8,233.4,229.3,233.4,229.3,231.5L229.3,231.5L229.3,231.5L229.3,231.5z
		 M246.7,257.6c-0.4-0.6,0.5-1.2,1-1.3c0.3-0.1,0.4,0.1,0.7,0.2c0.5,0.1,0.8-0.5,1.1-0.8c-0.1,0.5-0.2,1.1-0.6,1.5
		C248.3,257.7,247.3,257.4,246.7,257.6L246.7,257.6L246.7,257.6L246.7,257.6z"/>
	<path id="BZ" d="M187.4,267.5c-0.8,2.3-5,12.7-5,13l-2.2-0.1c-0.9-1.7,0.7-10.7,3.6-11.9L187.4,267.5L187.4,267.5L187.4,267.5
		L187.4,267.5z"/>
	<path id="CA" d="M318.5,12.4c-4.8-1.1-5-1.5-1.5-3.3c5.2-2.7,10.1-3.4,12.3-1.7c1.8,1.3,1.7,1.5-1.8,3.6
		C323.9,13,322.5,13.3,318.5,12.4L318.5,12.4L318.5,12.4L318.5,12.4z M338,21.5c-1.7-1-4.2-1.3-8-1c-3.6,0.3-6.3,0-7.8-0.8
		c-2-1.2-1.5-1.3,4.7-1.3c7.8,0.1,11.2-1.6,7-3.4c-2-0.9-1.7-0.9,1.7-0.5c4.5,0.6,6.2-0.6,3.8-2.6c-2.6-2.2,0.3-2.8,9.6-2.2
		c5.8,0.4,9.4,0.2,10.8-0.6c2.8-1.5,1.7-3.4-1.5-2.6c-2.2,0.6-17.8-0.4-17.1-1c0.5-0.5,22.5-2.5,36.9-3.4c7.5-0.5,15.8-1.1,18.5-1.5
		l4.9-0.6l-8.1,3.9c-7.6,3.6-19.9,7.2-24.9,7.2c-1.2,0-4.8,1.3-7.9,3s-6.2,3-7,3c-0.8,0-4,1.3-7.3,3c-3.2,1.6-5.9,3-5.9,3
		S339.4,22.3,338,21.5L338,21.5L338,21.5L338,21.5L338,21.5z M315.5,27.8c-6.6-0.5-12.1-1.1-12.3-1.2c-0.9-0.8,1.3-3.5,3.7-4.5
		s3.4-0.8,6.7,0.8c3.1,1.6,5.2,1.9,11,1.4c3.9-0.3,8.4-0.2,10,0.2l2.8,0.7l-3.5,1.9c-1.9,1-4.2,1.8-5,1.8
		C328.2,28.8,322.1,28.3,315.5,27.8L315.5,27.8L315.5,27.8L315.5,27.8z M283.6,35.2c-1.4-2.3,8.4-5.9,12.5-4.6c3,1,1,2.6-4.3,3.5
		c-2.4,0.4-5,1-5.9,1.4S283.9,35.7,283.6,35.2L283.6,35.2L283.6,35.2L283.6,35.2z M268,38.1c0-0.5-1.2-1.7-2.8-2.5l-2.8-1.6l3.7,0.6
		c2.6,0.4,3.9,0.2,4.5-0.8c0.7-1.2,7.1-3.6,9.6-3.6c0.4,0,0.1,1.3-0.8,3C277.5,36.9,268,41.1,268,38.1L268,38.1L268,38.1L268,38.1
		L268,38.1z M195.8,39.4c-1.6-1.6-1.2-2,6.5-6.2c9.1-5,13.6-5.6,21.8-3.1l4.5,1.4l-6,1.2c-4.9,1-15.3,4.5-23.5,7.9
		C198.1,40.8,196.7,40.3,195.8,39.4L195.8,39.4L195.8,39.4L195.8,39.4L195.8,39.4z M220,50.4c-1.4-0.2-4.7-1.4-7.4-2.6l-4.9-2.2
		l6.9-0.5c3.8-0.3,6.9-1,6.9-1.5s-2.7-1.2-6-1.5c-4.4-0.4-5.2-0.7-3-1c3.6-0.6,3.9-2.1,0.5-3c-2.5-0.6-2.4-0.7,1-2.1
		c6-2.6,12.4-3.1,18-1.4c4.6,1.4,5.4,1.4,7.6-0.1c1.5-1,2.5-1.2,2.5-0.5c0.1,0.6,0.2,1.6,0.2,2.3c0.2,2.2,2.2,1.9,4.6-0.6
		c2.2-2.3,6-3.5,6-1.8c0,0.4-0.9,2.2-2,4l-2,3.2l3.2,1.7l3.2,1.7l-5.3,2.4c-4.8,2.2-5.8,2.3-10,1.3s-5.3-0.9-9.5,0.9
		C225.9,51,224.9,51.2,220,50.4L220,50.4L220,50.4L220,50.4L220,50.4z M292.9,69.5c-2-1-3.5-1.1-6.3-0.4c-4.7,1.3-6.3,0.3-4-2.3
		c3-3.4,5.1-4,8.8-2.8c4.1,1.4,6,3.4,4.9,5.4C295.6,70.7,295.1,70.7,292.9,69.5L292.9,69.5L292.9,69.5L292.9,69.5L292.9,69.5z
		 M330.6,73.6c-2.1-1.3-4.8-3.8-5.8-5.5c-2.1-3.3-4-3.7-9.6-2.1c-1.9,0.5-4,0.6-4.9,0.1c-3-1.7,2.4-3.3,8.3-2.5
		c4.5,0.6,5.5,0.4,6.1-1c1.1-2.8,5.9-4.7,8.6-3.5c1.7,0.8,3.2,0.7,5.3-0.1c2.9-1.1,2.9-1.2,1-2.6c-1.1-0.8-2.3-1.4-2.7-1.4
		s-1.9-2-3.4-4.5c-1.4-2.5-4.1-5.4-6-6.6c-3.2-2-3.6-2-6.4-0.5c-2.5,1.3-3.9,1.4-7.8,0.5c-2.6-0.6-6.3-0.8-8.2-0.4
		c-3.2,0.6-9.1-1-9.1-2.4c0-2.7,8.5-8.7,13.5-9.6l4-0.7l-2.9,3c-3.9,4.2-2.5,6.1,1.8,2.4c1.8-1.6,5-3.2,7-3.6
		c3.1-0.6,4.4-0.2,8.3,2.4c5.2,3.4,5.6,3.5,8.5,2c1.8-0.9,2.4-0.7,4.3,1.7c1.3,1.7,4.3,3.4,7.1,4.4c4.6,1.4,4.9,1.8,4.9,4.9
		c0,3.3,0.4,3.8,6.6,8.2c1.9,1.4,2,1.8,0.8,3.7c-2,3.2-3.6,3.4-8,1.2c-3.1-1.6-4.4-1.8-5.9-1c-1.9,1-1.9,1.2-0.4,4.2
		c1.2,2.4,1.4,3.6,0.5,5.5c-1,2.3-1.2,2.3-4,0.9c-5.6-2.9-9.3-1-4.1,2.1c1.6,1,2.7,2.1,2.5,2.6C339.4,76.8,334.5,76,330.6,73.6
		L330.6,73.6L330.6,73.6L330.6,73.6z M338.8,137.3l-3.7-0.4l7-6.9c3.9-3.8,7.5-6.9,8.1-6.9c0.7,0,0.5,0.7-0.5,1.8
		c-2.1,2.3-0.7,4.9,3.1,5.7c1.7,0.4,3.3,1.6,4,3c1,2.3,0.9,2.5-2.6,3.4C350.6,138,346.2,138.1,338.8,137.3L338.8,137.3L338.8,137.3
		L338.8,137.3L338.8,137.3z M344,140.5c0-0.8,0.4-1.5,1-1.5s0.7,0.7,0.4,1.5C344.6,142.5,344,142.5,344,140.5L344,140.5L344,140.5
		L344,140.5z M238.2,159.9c0.2-0.7,1.8-2.2,3.6-3.3c1.7-1.1,3.4-2.8,3.8-3.8c0.5-1.3,1.3-1.7,3-1.2c1.7,0.4,2.6,0.1,3.3-1.2
		c2-3.7-3.2-8.2-7-6.2c-2.7,1.5-6.3-1.4-5.5-4.5c0.3-1.1-0.3-3.1-1.3-4.4c-2.1-2.8-5.4-3.1-12.6-1c-5.3,1.5-10.9,0.8-16.2-2
		c-1.7-0.9-15.4-0.7-53.3-1.3c-46.5-0.6-50.7-0.2-50.4-1.1c0.3-0.8-2.6-3.9-5.2-6.4c-4.2-4.1-4.5-4.6-3.1-6.2
		c1.1-1.2,1.3-2.2,0.5-3.5c-1.2-2.2,0.7-7.7,2.8-7.7c2.2,0,4.8-4.8,3.5-6.4c-0.8-1-0.8-2.2,0-4.6c1-2.8,0.8-3.6-0.9-5.9
		c-1.6-2.2-2.8-2.6-6-2.5c-3.3,0.1-4.2-0.3-5.5-2.6l-1.6-2.7l21.5-16.9c17.2-13.6,22-16.9,24.2-16.7c1.5,0.1,5.7,0.5,9.2,0.9
		c5,0.5,8.5,0.1,14.8-1.5c4.6-1.2,9.2-1.9,10.2-1.5c1,0.3,2.8,0.1,3.9-0.5c1.5-0.8,2.7-0.7,4.9,0.4c2,1,4.4,1.3,7.8,0.9
		c3.5-0.4,6.6,0,11.1,1.5c3.4,1.2,7.2,2.1,8.4,2.1c2.2,0,2.2,0,0.3,1.4c-1.9,1.4-1.9,1.5-0.1,2.1c1,0.4,4.5,0.4,7.7,0.1
		c5.9-0.6,5.9-0.6,7.6,2.6l1.6,3.2l2.1-2.7c1.2-1.5,4.2-3.3,6.9-4.1c4.1-1.2,5.4-1.2,9.5,0c2.9,0.9,6.4,1.2,9,0.8
		c3.3-0.5,4.9-0.2,7,1.4c2.7,1.9,2.8,2,5.2,0.1c1.4-1.1,4.1-2.4,6.2-2.9c4.9-1.4,6.6-4.3,3.6-6.4c-2.1-1.5-2-1.6,3.5-4.3
		c4.1-2,5.9-2.5,6.7-1.7c0.8,0.8,0.8,1.7,0,3.2c-1.4,2.6,0.3,6.6,2.5,5.7c0.8-0.3,2.1-0.3,2.9,0c1.3,0.5,1.2,0.9-0.1,3
		c-3.8,5.9,4.8,4.2,10.6-2c2.4-2.5,6-3.3,9.5-2c2.2,0.9,2,1.6-1.7,5.6C302.2,58,300,59,293.4,59c-3.2,0-7,0.7-8.7,1.6
		c-2.4,1.3-3.6,1.4-5.5,0.5c-3.6-1.6-4.8-0.3-2.3,2.5l2.2,2.3l-4.4,1.2c-2.4,0.7-6.4,1.3-8.9,1.4c-3.6,0.1-4.5,0.5-4.5,1.9
		c0,1.2-1.8,2.5-5.5,4c-12.1,5-22.5,13.9-18.7,16.3c0.7,0.4,1.8,2,2.5,3.5c0.8,1.7,2.2,2.9,4,3.3c1.5,0.3,5.5,1.9,8.8,3.5
		c3.3,1.6,7.4,3.2,9,3.6c4.5,1,4.6,1.1,2.5,6.5c-1.8,4.6-1.8,5.2-0.4,8c0.8,1.6,2.1,2.9,2.8,2.9c3.3-0.1,6.3-3.1,8.3-8.1
		c1.8-4.8,2.6-5.7,7.9-8.5c7.7-4.1,10.9-8.2,10.1-12.7c-0.6-3-0.3-3.7,2.3-5.5c1.6-1.1,3.7-3.9,4.7-6.1c2.2-4.9,5.8-6.6,11.8-5.6
		c5.3,0.9,11.6,4.2,12.4,6.6c0.3,1,0.1,2.7-0.6,3.9c-1,1.8-0.8,2.5,1.1,4.5l2.2,2.4l3.6-1.9c2-1,5.2-3,7.1-4.5l3.5-2.6l0.8,2.2
		c0.4,1.2,0.6,2.8,0.3,3.6c-0.3,0.8-0.1,2.3,0.5,3.3c0.6,1.2,0.7,2.6,0.1,3.6c-0.6,1.1-0.2,2.8,1.4,5.7c2.3,4.1,2.3,4.1,0.3,5.5
		c-2.7,1.9-1,3.8,2,2.3c2.9-1.6,6.2-1.4,8.3,0.5c3,2.7,0.5,6-7.5,9.8c-8.8,4.1-12.7,4.9-24.1,5c-8.4,0.1-9.6,0.3-17.8,4.3
		c-4.8,2.3-8.8,4.6-8.8,5.1c0,2.1,1.5,1.9,7.3-0.9c3.4-1.6,7.8-2.9,10-2.9c3.6,0,3.7,0.1,2.6,2.2c-0.7,1.2-2.1,2.9-3.1,3.8
		c-1.7,1.4-1.8,1.9-0.7,4.2c1.6,3.4,5.7,5.1,10.6,4.3l3.9-0.7l-3,2.1c-1.6,1.1-4.3,2.3-6,2.7c-1.7,0.4-5.1,1.7-7.6,3
		c-2.5,1.3-5.1,2-5.8,1.5c-1.6-1,0.1-2.4,5.2-4.6c2-0.9,3.4-2,3.1-2.5c-0.8-1.3-3.2-1.2-7.7,0.4c-3.4,1.2-3.8,1.2-4.3-0.5
		c-0.3-1-0.1-2.7,0.4-3.7c0.7-1.3,0.7-2.4-0.2-3.6c-1.7-2.3-5.9-0.7-10.9,4.1c-3.4,3.3-4.4,3.7-11,4.3c-4,0.4-9.1,1.5-11.3,2.5
		c-2.2,1-4.4,1.7-4.9,1.6c-2.3-0.5-6.9,1.3-10.9,4.4c-2.8,2.2-4.8,3-5.4,2.4c-0.6-0.6-2.3-0.4-4.7,0.6
		C238.7,160.8,237.9,160.9,238.2,159.9L238.2,159.9z M260.1,49.7c-0.9-1.1-0.5-1.6,1.8-2.6c1.6-0.7,4-0.9,5.2-0.5
		c2.2,0.7,2.1,0.8-1.2,2.5C261.7,51.4,261.5,51.4,260.1,49.7L260.1,49.7z M95.1,130.1c-3.5-3.2-3.9-4.6-1.6-5.5
		c2.1-0.8,5.9,1.8,7.3,4.9c1.5,3.3,1.5,3.4-0.7,3.4C99.1,133,96.8,131.7,95.1,130.1L95.1,130.1z"/>
	<path id="CR" d="M198.5,311.1c-1.6-1.6-3.6-3.2-4.6-3.5c-2-0.6-3.3-3.4-2.2-4.6c0.4-0.4,2.6-0.3,4.9,0.2c4.8,1.2,7.7,5.1,6.3,8.6
		c-0.5,1.2-1,2.2-1.2,2.2S200.1,312.7,198.5,311.1L198.5,311.1L198.5,311.1L198.5,311.1z"/>
	<path id="CW" d="M262.5,297.3c-0.3-0.3-1.2-0.6-1.2-1.1c0-0.6,0.4-0.5,1.3,0c0.7,0.4,0.3,0,0.8,1.2
		C263.1,297.7,262.8,297.7,262.5,297.3L262.5,297.3L262.5,297.3L262.5,297.3L262.5,297.3z"/>
	<path id="CU" d="M202.8,253.2c1.1-0.5,3-0.6,2.5-2.2c1-1.7,3.2-2.2,5-2.8c2-0.1,3.9-1.4,5.8-0.7c1.7,0,3.4-0.1,5,0.6
		c1.8,0.2,3,1.4,4.2,2.4c1.6,0.8,3.6,0.7,4.8,2.1c0.5,0.4,2.6,2.3,2.1,0.9c1.1,0.1,1,1.1,0.5,1.2c1.5,0.3,2.2,1.7,3.8,1.6
		c0.8,0.8,3.1,0.1,2.1,1.8c0.1,1,2.1-0.2,2.8,0.7c0.8,0.5,2.7,1.5,2.6,2.2c-1.7,1-3.8,1-5.7,1.2c-1.9-0.5-3.9-0.4-5.8,0.1
		c-0.8,0.5-3.4,0.1-1.7-0.9c1.1-0.4,2.9-2.5,0.8-2.7c-1.5,0-3.5-0.4-3.8-2.1c0.4-1.7-1.6-2.7-2.9-2c-1.8-0.1-3.4-1.7-4.7-2.2
		c-1.3,0.2-2.3-0.7-3.5-0.6c-0.9,0.1-3.2-0.8-1.3-1.3c1.6-1-1.4-1.4-2.2-1.2c-1.3,0.1-2.6,0.8-3.4,1.8c-2.1,0-3.5,2.2-5.5,2
		C203.7,253.2,203.2,253,202.8,253.2"/>
	<path id="DM" d="M292.8,283.8c-0.1-0.6-0.6-1.3-0.3-1.9C293.4,282.1,293.8,283.5,292.8,283.8"/>
	<path id="DO" d="M252.6,270.8c0.5-0.8,0.1-1.6-0.3-2.3c0.2-0.5,0.9-0.4,0.9-1.5c-1.1-0.6,0.9-1.1,0.4-1.4v-1.5
		c0.2-0.5-0.2-1.1,0-1.6c0.5-0.5,1.2-0.1,1.8-0.1c0.7,0,1.4-0.5,2.1,0c0.7,0.3,1.4,0.5,2,0.9c0.7,0,1.5,0.4,1.4,1.2
		c0.3,0.7,1.2,0.6,1.8,0.4c0.5-0.5,1.2,0.6,0.4,0.6c-0.3,0-1.4-0.2-1.2,0.4c0.8,0.3,1.6,0.7,2.5,0.5c0.9,0,1.2,0.9,1.8,1.4
		c0.5,0.5,0,1.2-0.5,1.5c-0.3,0.4-1.1,0.8-1.4,0.1c-0.7-0.6-1.7-0.2-2.5-0.4c-0.6-0.1-1.4-0.3-1.9,0.2c-0.5,0.7-1.4,1-2.2,0.9
		c-0.5-0.2-0.4-1.4-1-0.8c-0.4,0.5-1.5,0.3-1.6,1.2c-0.3,0.8-0.8,1.5-1.3,2.2c-0.7,0-0.8-1-1-1.6C252.8,271,252.7,270.9,252.6,270.8
		L252.6,270.8L252.6,270.8L252.6,270.8L252.6,270.8z"/>
	<path id="GD" d="M290.4,298.5c-0.4-0.4-0.1-0.9,0.3-1.1C290.9,297.8,290.8,298.2,290.4,298.5"/>
	<path id="GP" d="M293.5,280.7c-0.3-0.3-0.3-0.5,0.2-0.5C293.8,280.4,293.7,280.6,293.5,280.7L293.5,280.7z M292.5,278.9
		c0.3-0.3,0-0.9,0.5-1c0.1,0.5,0.5,0.8,0.9,1.1C293.6,279.1,292.7,279.4,292.5,278.9L292.5,278.9z M292.5,278.9
		c-0.2,0.3-0.5,2.3-0.9,0.9C291.3,279.1,291.8,278.4,292.5,278.9L292.5,278.9z"/>
	<path id="GT" d="M168.2,282.8c0.6-1.6,1.8-2.8,2.8-2.8c2.5,0,4.1-2.2,3.4-4.8c-0.4-1.7,0-2.4,2.1-3.2c3.7-1.4,4.9-1.3,4.2,0.4
		c-0.3,0.8-0.8,3-1.2,5c-0.6,3.1-0.4,3.6,1.2,3.6l1.3,0.3c-0.6,0.9-1.7,2.9-2.6,4.1c-1.9,2.3-4.1,4.5-4.8,4.6
		c-0.6,0-2.2-0.7-3.9-1.7l-0.6-0.4c-0.8-0.5-1.9-1.4-2.7-2.1L168.2,282.8L168.2,282.8L168.2,282.8L168.2,282.8z"/>
	<path id="HN" d="M201,285.2c-2-0.1-10.2,4-12.4,6.2c-1.9,1.9-4,1.4-3.2-0.9c0.3-0.9-0.6-2.1-2.4-3.2l-3-1.8l2.2-2
		c1.9-1.8,6.6-2.8,11-2.9c4.4-0.2,8.5,0.5,9.1,2.2c0.1,0.2,0.1,1.4,0,2L201,285.2L201,285.2L201,285.2L201,285.2z"/>
	<path id="HT" d="M243.6,268.1c0.9,0.4,1.2,0.2,2.1,0.3c-1.1,0.1,0.5,0.4,0.7,0.4c0.6,0.1,1.2,0.1,1.8,0.2c0.8,0.1,0.7-0.2,1.3-0.4
		c0.4-0.1,1.1,0.2,1.1-0.4c0.1-0.9-1.6-1.2-1.4-2.4c0.2-1.2,0.4-1.9-1.1-2.2c-0.6-0.1-2-0.1-0.8-0.9c1.4-1,2.4-0.3,3.8,0.1
		c0.9,0.3,2.8,0,2.6,1.2c-0.1,0.5-0.2,0.9-0.1,1.5c0.1,0.7-0.8,0.7-0.9,1.1c0,0.2,0.5,0.3,0.4,0.7c-0.1,0.6-0.6,1-1.2,1
		c0.6,0.6,0.9,1.7,0.5,2.5c-0.8-1.1-2.1-0.9-3.3-0.6c-1.1,0.3-3.8-1.1-4.5,0.2c-0.5,1-1.2-0.7-2-0.8
		C241.2,269.3,242.6,267.4,243.6,268.1"/>
	<path id="JM" d="M226.3,269.8c0.6-0.8,1.8-1.2,2.8-1.1c1.3,0,2.6,0.4,3.8,1c0.5,0.2,1.2,0.4,1.5,0.9c0.2,0.3,0.5,0.8,0,0.9
		c-0.3,0.1-0.7,0.1-1,0c-0.3-0.1-0.6-0.3-0.9-0.4c-0.4,0-0.6,0.6-1,0.5s-0.6,0.2-0.7,0.5c-0.3,0.1-0.4-0.4-0.8-0.4
		c-0.4-0.1-0.7,0.1-1.1-0.1c-0.3-0.1-0.6-0.4-0.8-0.7c-0.3-0.4-0.7-0.8-1.3-0.8C226.7,270.1,226.4,270,226.3,269.8"/>
	<path id="KN" d="M290.6,276.2L290.6,276.2l-0.2-0.1h-0.2L290,276l0,0v-0.1v-0.1h0.1l0.2,0.1l0.1,0.2L290.6,276.2L290.6,276.2
		L290.6,276.2L290.6,276.2L290.6,276.2z M290.9,276.6l-0.1,0.1l-0.1-0.1v-0.2h0.1l0.1,0.1V276.6L290.9,276.6L290.9,276.6
		L290.9,276.6z"/>
	<path id="KY" class="st0" d="M215.7,264.1L215.7,264.1h-0.2H215.7l0.1-0.1h0.1h0.1h0.1l0,0L215.7,264.1L215.7,264.1L215.7,264.1
		L215.7,264.1z M215.2,264.1L215.2,264.1L215.2,264.1l-0.3,0.1h-0.1l0,0l0,0l0,0l0,0h0.1L215.2,264.1L215.2,264.1L215.2,264.1
		L215.2,264.1L215.2,264.1L215.2,264.1z M211.3,265.1L211.3,265.1h0.2V265h0.4l0.1,0.1h-0.3l-0.1,0.1h-0.1h-0.3v-0.3h0.1V265.1
		L211.3,265.1L211.3,265.1L211.3,265.1z"/>
	<path id="LC_1_" d="M294,290.6c-0.7-0.3-0.4-1,0-1.5C294.5,289.4,294.3,290.3,294,290.6"/>
	<path id="MF" d="M287,270.7c0.3-0.4,0.5-0.3,0.5,0.1C287.3,270.9,287.1,270.8,287,270.7"/>
	<path id="MQ" d="M294.6,287.5c-0.3-0.5-0.7-0.1-0.8-0.5c-0.1-0.4-0.3-0.9-0.3-1.4c0-0.6,0.6-0.1,0.8,0.1
		C294.5,286.1,294.9,287,294.6,287.5"/>
	<path id="MS" d="M291.6,277v0.1l-0.1-0.1v-0.1l0.1-0.1l0,0V277L291.6,277L291.6,277L291.6,277z"/>
	<path id="MX" d="M183.7,267.9c-2.1,0.9-4.6,2.3-6,2.7c-3.4,0.9-4.8,2.6-4.5,5.5c0.2,1.7-0.3,2.5-1.7,2.7c-2.4,0.4-4.5,3-4.4,5.1
		l-0.4,1.2c-0.9-1.4-4.1-4.8-5.8-5.6c-2.8-1.4-3.4-1.4-7.4,0.1l-4.3,1.7l-13.3-6.5c-8.2-4-14.6-7.8-16.5-9.9
		c-3.1-3.2-3.2-3.6-2.1-7.6c0.9-3.7,0.8-4.8-1.3-9c-1.3-2.6-4.1-6.7-6.2-9c-2.1-2.3-3.6-4.6-3.3-5.1s-1.2-3.7-3.3-7.2
		c-2.4-3.9-4.1-8.2-4.6-11.2c-0.5-4-1.2-5.2-3.2-6.1c-2.1-1-2.7-0.8-3.9,0.8c-1.7,2.3-1.2,4.8,2.6,13c1.5,3.3,3.1,8.3,3.5,11
		s1.6,6.6,2.7,8.7c2.5,4.9,0.9,4.8-3.1-0.2c-2.3-2.9-3-4.6-2.5-6.4c0.5-2,0-2.9-2.4-4.7c-3.7-2.7-4.5-4.5-3.1-7
		c0.8-1.5,0.4-3.1-1.6-7c-2.1-4.1-2.5-5.9-1.9-9c0.6-3.8,0.8-3.9,4.6-3.9c2.4,0,6.3,1.2,9.9,3c4.6,2.3,7.3,3,11.9,3
		c3.3,0,6.2-0.5,6.6-1c0.9-1.5,5.3-1.2,8,0.6c1.3,0.9,2.7,2.8,3,4.4s1.5,3.6,2.5,4.5c1.7,1.6,2.1,1.6,4.2,0.1
		c4.7-3.3,7.9-1.2,10.3,6.8c1.6,5.2,4.1,8.6,6.3,8.6c1,0,1.2,0.6,0.7,1.8c-4.3,10.5-4.7,12.9-3,19.3c3,11.5,7.1,14.9,15.7,13
		c6.5-1.4,10.4-4.2,11.8-8.5c0.9-2.8,1.9-3.7,4.8-4.5c4.4-1.2,6.3-1.3,8-0.2c1,0.7,0.9,1.8-3.1,10.6L183.7,267.9L183.7,267.9
		L183.7,267.9L183.7,267.9z"/>
	<path id="NI" d="M202.3,285.5c-0.2,1.8-0.5,4.8-0.9,7.2c-0.8,4.9-1.4,9.2-1.4,9.6c0,0.9-0.3,0.9-5.2-0.5c-2.1-0.5-4.9-2.3-6.3-4
		l-2.5-3l2.6-2.4c2.4-2.2,7.1-4.7,12-6.5L202.3,285.5L202.3,285.5L202.3,285.5L202.3,285.5z"/>
	<path id="PA" d="M207.4,315.9c-3.1-1.6-4-2.6-3.6-4c0.4-1.7,0.7-1.7,3.3-0.4c2.5,1.3,3.2,1.3,6.4,0c4.9-2.1,7.6-1.9,11,0.8
		c2.7,2.2,2.8,2.4,1.2,4c-2.4,2.4-3.9,2.2-2.6-0.3c0.9-1.7,0.7-2.2-1.5-3.2c-3.4-1.5-8,0-8,2.6C213.5,318.2,212.1,318.3,207.4,315.9
		L207.4,315.9L207.4,315.9L207.4,315.9L207.4,315.9z"/>
	<path id="PM" class="st0" d="M338.8,143.8l-0.2,0.2l-0.1-0.1v-0.1l0.1-0.3v-0.1l-0.1-0.5v-0.1l0,0l0.2,0.1v0.1l-0.1,0.3l0.1,0.2
		L338.8,143.8L338.8,143.8L338.8,143.8L338.8,143.8L338.8,143.8z M339.1,144.1L339.1,144.1h-0.3l0.1-0.1h0.1h0.1l0,0V144.1
		L339.1,144.1L339.1,144.1L339.1,144.1L339.1,144.1z"/>
	<path id="PR" d="M277.5,270.6c0.2-0.3,0.5-0.4,0.8-0.3C278,270.5,277.8,270.6,277.5,270.6L277.5,270.6z M275.7,271.2
		c-1.3-0.1-2.9,0.4-4.2,0c-0.3-0.1-0.9,0.1-0.7-0.5c0.1-0.2,0.2-0.4,0.2-0.6c0-0.3-0.4-0.4-0.4-0.8c0.2-1.2,4.1-0.5,4.7-0.3
		c0.5,0.2,1.7-0.2,1.7,0.7C277.1,270.2,276.2,271,275.7,271.2L275.7,271.2z"/>
	<path id="SV" d="M177.3,291.4c-0.9-0.4-0.8-1.1,0.3-2.9c1.5-2.3,1.7-2.3,4.5-0.9c2.4,1.3,2.8,1.8,1.8,3
		C182.8,292,179.7,292.4,177.3,291.4L177.3,291.4L177.3,291.4L177.3,291.4L177.3,291.4z"/>
	<path id="SX" d="M287,270.9h0.3v0.1v0.1L287,270.9L287,270.9L287,270.9L287,270.9L287,270.9L287,270.9z"/>
	<path id="TC" class="st0" d="M254.8,251.3L254.8,251.3l-0.4-0.2v-0.2h-0.2l-0.2-0.2v-0.2h0.4L254.8,251.3L254.8,251.3L254.8,251.3
		L254.8,251.3L254.8,251.3z M256.1,251.7L256.1,251.7l-0.4-0.2h-0.6v-0.4h0.2l0.8,0.2V251.7L256.1,251.7L256.1,251.7L256.1,251.7
		L256.1,251.7z M252.1,251.3l0.6,0.4h0.4l0,0H253l0,0h-0.6h-0.2v-0.2L252.1,251.3L252.1,251.3L252.1,251.3L252.1,251.3z"/>
	<path id="TT" d="M289,307.4c0.4-0.7,1.6-0.6,1.9-1.4c0.2-0.5,0.1-1.6-0.7-1.6c0.5-0.5,1.4-0.6,2.1-0.7c1.4-0.1,0.2,0.7,0.3,1.6
		c0.1,0.8,0.5,1.5-0.4,1.8C291.2,307.6,290,307,289,307.4 M293.8,302.4c0.1-0.5,0.5-0.8,1-0.9C294.7,302.1,294.1,302.2,293.8,302.4"
		/>
	<path id="US" d="M220.3,237.2c-2.1-1.3-4.4-9.4-3.8-13.2c0.5-2.9,0.2-3.9-1.9-5.8c-1.6-1.5-3.1-2.1-4.4-1.7
		c-1.1,0.3-4.1-0.3-6.7-1.4c-4-1.7-5.3-1.9-8.2-0.9c-2,0.6-3.9,2.2-4.5,3.6c-0.9,2.1-1.6,2.3-4.2,1.8c-1.7-0.4-4.3-1.3-5.8-2
		c-3.7-1.9-5.7-1.7-9.8,0.6c-1.9,1.1-5.8,3.2-8.6,4.7c-4.9,2.5-7.3,5.5-7.3,8.9c0,2.1-2.7,2.9-4.5,1.4c-0.8-0.7-2.2-3.5-3-6.3
		c-1.6-5.5-4.9-9.7-7.5-9.7c-0.9,0-2.6,0.7-3.9,1.6c-2.8,1.9-4.7,0.7-5.7-3.6c-1.1-4.9-9.9-9.3-12-5.9c-0.3,0.5-3.3,1-6.6,1
		c-4.6,0-7.3-0.7-11.9-3c-4-2-7.4-3-10.4-3c-3.6,0-4.6-0.4-5.1-2.1c-0.4-1.1-2.2-2.8-4.1-3.7c-2.7-1.3-3.5-2.4-4-5.2
		c-0.3-2-1-5-1.4-6.8c-0.5-1.9-0.4-3.5,0.1-3.8s0.2-1.7-0.7-3c-1.3-2-1.4-3-0.5-5c0.6-1.4,0.9-3,0.5-3.5s0.5-2.2,1.9-3.7
		c1.4-1.5,3.2-4.4,4.1-6.5s3.5-6,5.9-8.7c2.4-2.7,5.4-7.3,6.8-10.4c1.8-4.2,2.9-5.5,4.5-5.6c1.2,0,2.1,0.5,2,1.2
		c-0.3,2.7,1.9,2.1,4.1-1.2l2.3-5l50.1,0.7c40.3,0.5,51.2,0,52.6,1.1c1,0.7,3.7,1.8,6.1,2.4l4.3,1.1l-3.1,2
		c-1.7,1.1-3.1,2.1-3.1,2.4c0,0.2,1.2,0.9,2.6,1.4c1.9,0.7,3.4,0.6,5.7-0.6c2.9-1.5,3.4-1.5,6.5,0c1.9,0.9,4.4,1.4,5.7,1
		c1.3-0.3,2.6-0.1,3,0.4c0.3,0.6-1.1,1.3-3.2,1.6c-5.9,1-8.9,3.4-13.1,10.5c-3.5,5.9-3.7,6.6-2.3,8.2c1.4,1.5,1.8,1.6,3.7,0.2
		c1.2-0.8,3.2-3.8,4.6-6.7c2.7-5.6,7.6-9.7,11.6-9.7c2.9,0,2.9,0.5,0.3,3.8l-2.1,2.6l2,1.6c1.7,1.4,1.8,1.8,0.6,3
		c-0.8,0.8-1.7,2.6-2,4.1c-0.6,2.4-0.4,2.8,1.5,2.8c2.6,0,7.4-2.4,11.8-5.9c2.3-1.9,4.2-2.5,6.6-2.3s4.2-0.4,6.4-2.2
		c4.3-3.6,7.8-4.8,16.1-5.6c6.6-0.6,7.6-1,11-4.3c4.4-4.3,9.2-6.4,10.3-4.6c0.4,0.7,0.3,2.1-0.2,3.1s-0.7,2.7-0.4,3.8
		c0.5,1.7-0.5,2.5-7.4,5.6c-6.6,3-8.1,4.1-8.6,6.3c-0.6,2.9-2.8,4.2-10.4,6.6c-2.4,0.7-5.6,2.5-7,4c-1.4,1.5-4.1,3.6-6,4.8
		c-1.9,1.2-3.7,3.3-4,4.7c-0.5,2.3-0.7,2.3-1.3,0.6c-1.3-3.3-3.1-0.1-3.2,5.5c-0.1,5.7-3,9.6-9.3,12.5c-6.5,3-15.7,10.2-17.6,13.7
		c-1.7,3.1-1.7,4.3-0.7,12.1c1,7.4,0.9,9.2-0.4,11.6C221.8,238.4,221.9,238.3,220.3,237.2L220.3,237.2L220.3,237.2L220.3,237.2
		L220.3,237.2z M27,96.6c0-0.7,3-1.9,7.3-3c1.6-0.4,2.6-0.3,2.3,0.2c-0.3,0.5-1.8,1.2-3.3,1.5c-1.5,0.3-3.6,0.9-4.5,1.2
		C27.9,96.8,27,97,27,96.6L27,96.6z M91.6,97.3c-0.3-0.5,0.1-1.5,0.9-2.2c1.6-1.3,2-0.3,0.6,1.9C92.6,97.7,92,97.9,91.6,97.3
		L91.6,97.3z M100.3,104.4c0.3-0.3,0.2-1.5-0.4-2.5c-0.6-1.2-0.7-2.5-0.1-3.6c1.4-2.5-1.2-6.8-4.8-8.1c-1.7-0.6-4.5-2.2-6.4-3.6
		S84.5,84,83.5,84s-5.3-0.9-9.7-2c-7-1.8-8.2-1.9-10.7-0.6c-5,2.6-10.4,3.6-12.5,2.5C49,83,47.2,83.6,41,86.8
		c-4.2,2.2-9.2,4.3-11.1,4.7s-5.6,1.8-8.2,3.1C14.4,98.3,3.9,102,1,101.9c-1.9,0-0.6-0.9,4.4-2.8c8.5-3.4,17.1-7.7,17.9-9
		c1-1.6-1.2-2.2-3.7-1c-1.9,0.9-3.1,0.8-5.3-0.4l-2.8-1.5l3.1-1.6c3.5-1.8,4.6-3.8,3.8-7c-0.8-3.1,3.5-5.3,12.6-6.7
		c4.9-0.7,8.7-2,11.2-3.7c4.4-3,3.7-5.3-1.1-3.3c-2.3,0.9-3.9,0.9-7.3,0c-4.1-1.1-4.2-1.3-2.4-2.6c3.1-2.2,9.4-3.6,13.5-2.9
		c2.6,0.4,4.8,0.1,7-1l3.2-1.7L53,54.5c-1.2-1.2-2.1-2.5-2.1-2.8c0-0.9,6-2.8,9-2.8c1.5,0,5.6-1.1,9.2-2.4c3.5-1.3,11.7-3.1,18.1-4
		c10.4-1.4,12.6-1.5,20.4-0.2c4.8,0.8,11.7,1.8,15.3,2.2s7.3,1,8.2,1.3c1.3,0.5-3.7,4.9-20.3,18l-22,17.4l2,3.1
		c1.7,2.7,2.5,3.1,5.9,2.8c3.3-0.3,4.2,0.1,5.6,2.2c1.4,2.1,1.5,3.1,0.6,5.7c-0.8,2.2-0.8,3.5,0,4.5c1.2,1.5-0.4,5.4-2.3,5.4
		C100.2,105,100,104.8,100.3,104.4L100.3,104.4z M93.2,104.8c-1-1.2-0.9-1.7,0.3-2.8c2-1.7,3-0.5,1.9,2.1
		C94.6,106,94.3,106.1,93.2,104.8L93.2,104.8z"/>
	<path id="VC_1_" d="M292.8,293.3c-0.5-0.3-0.2-0.8,0.1-1.2C293.2,292.5,293.1,293,292.8,293.3"/>
	<path id="VG" d="M281.6,268.3L281.6,268.3L281.6,268.3h-0.1h-0.1h-0.1l0,0H281.6L281.6,268.3L281.6,268.3L281.6,268.3L281.6,268.3z
		 M281.4,269.1L281.4,269.1h-0.1l0,0V269h0.3L281.4,269.1L281.4,269.1L281.4,269.1L281.4,269.1z M280.8,269.3h-0.2h-0.1l0.1-0.1
		L280.8,269.3l0.1-0.1L280.8,269.3L280.8,269.3L280.8,269.3L280.8,269.3z"/>
	<path id="VI" d="M280.2,269.6c-0.1-0.1-0.3-0.1-0.4-0.2C280.1,269.2,280.3,269.3,280.2,269.6L280.2,269.6z M279.8,272.4
		c0-0.8,0.8-0.2,1.3-0.4C280.7,272.3,280.2,272.4,279.8,272.4L279.8,272.4z"/>
</g>
</svg>
