<?xml version="1.0" encoding="utf-8"?>
<!-- Generator: Adobe Illustrator 19.2.1, SVG Export Plug-In . SVG Version: 6.00 Build 0)  -->
<svg version="1.1" id="Шар_1" xmlns="http://www.w3.org/2000/svg" xmlns:xlink="http://www.w3.org/1999/xlink" x="0px" y="0px"
	 viewBox="0 0 237 198" style="enable-background:new 0 0 237 198;" xml:space="preserve">
<style type="text/css">
	.st0{stroke:#FFFFFF;stroke-width:0.5;}
</style>
<title>oceania</title>
<desc>Created with Sketch.</desc>
<g id="oceania" transform="translate(0.000000, -1.000000)">
	<path id="NC" d="M217.6,85.3c-3.2-3.5-5.1-6.5-5.1-8c0-3.4,0.5-3.1,3.4,1.9c1.6,2.6,3.4,5,5.5,7.2c1.7,1.6,3,3.3,3,3.7
		C224.5,92,222.4,90.5,217.6,85.3L217.6,85.3L217.6,85.3z"/>
	<path id="NZ" d="M168.6,198c-2.9-1.8,3.1-5.8,17.9-12c4.9-2.2,9.6-4.9,14-8c6-4.6,6.6-4.8,7.7-3.1c1.8,2.6,0.7,4.5-3.7,6.5
		c-2.2,1-4.2,2.4-5.9,4.1c-1,1.3-2.5,2.1-4.1,2.4c-1.1,0-3.7,1.5-5.8,3.4C181.7,197.6,172.7,200.6,168.6,198L168.6,198z
		 M214.2,176.2c-0.3-0.3,0.5-1.5,1.8-2.6c2-1.6,2.3-2.3,1.4-4c-1.3-2.4,0.6-5,5.1-6.8c3.4-1.4,4.3-4.3,3.4-11.3
		c-0.6-4.8-0.6-5.1,1-3.8c1.2,1,1.5,2.3,1.1,4.6c-0.5,2.5,0,3.8,2.1,6.4c2.3,2.7,3,3,4.7,2.1c1.7-0.9,2-0.9,1.4,0.6
		c-0.3,0.7-0.5,1.4-0.7,2.1c-1,0.8-2.1,1.5-3.2,2.1c-2.8,1.6-5.4,3.4-7.8,5.4c-4,3.3-8.2,6-9.3,6
		C214.9,176.8,214.5,176.5,214.2,176.2L214.2,176.2z"/>
	<path id="PG" d="M167,38.1c-6-1.5-11.6-4.7-13.4-7.9c-2-3.3-7.4-7.4-9.8-7.4c-1.3,0-3,1.6-6.1,5.8c-1.4,1.8-2.3,2.2-4.4,1.6
		l-2.7-0.7V15.6c0-10.5,0.3-13.9,1.2-13.9c2.1,0,11.2,4.6,16.9,8.5c5.9,4.1,8.6,7.9,7,9.9c-1.4,1.7,4.2,9.7,10.1,14.1
		C171.7,38.8,171.8,39.3,167,38.1z M185.7,20.6c-0.8-1.3-1.4-2.7-1.7-4.2c-0.6-2.7-0.5-2.8,0.6-1c0.7,1.1,1.8,2.7,2.6,3.7
		c0.8,1,1,1.9,0.5,2.2C187,21.6,186.2,21.3,185.7,20.6L185.7,20.6z M164.5,17.4L162,16l3.9-0.7c2.6-0.7,5.1-1.9,7.2-3.7
		c2-1.8,3.4-2.4,3.4-1.6c0,2-1.3,3.6-5,6.4C167.6,19.2,167.8,19.2,164.5,17.4L164.5,17.4z M177.2,7.5c-1.3-1.7-2.9-3.2-4.8-4.2
		c-1.7-0.9-2.9-1.8-2.6-2.1c1.6-1.6,10.2,5.5,9.5,7.7C179.1,9.6,178.2,9,177.2,7.5L177.2,7.5z"/>
	<path id="SB" d="M208.5,37.4c-0.8-1-0.9-1.5-0.2-1.5c1.2,0,2.6,1.9,1.9,2.6C210,38.7,209.2,38.2,208.5,37.4z M202.5,33.3
		c-1.4-1.6-1-1.8,1.4-0.9c0.8,0.2,1.4,0.7,1.6,1.5C205.5,35.3,203.9,35,202.5,33.3z M207.2,32.5c-0.4-1.1-0.6-2.2-0.6-3.4
		c0-1.1,0.4-0.9,1,0.7c0.5,1.1,0.7,2.2,0.6,3.4C208,33.7,207.6,33.4,207.2,32.5L207.2,32.5z M193.7,27.8c-0.7-1.1-0.8-2-0.3-2
		c0.9,0.3,1.7,1.1,2,2C196.9,30.5,195.4,30.5,193.7,27.8z M200,26.8c-2.7-3-1.2-3.4,1.5-0.5c1.3,1.4,1.9,2.5,1.3,2.5
		C202.2,28.8,201,27.9,200,26.8z M192,21.8c-1-1.1-1.4-2-0.8-2c1.1,0.4,2.1,1.1,2.8,2c1,1.1,1.4,2,0.8,2
		C193.7,23.4,192.8,22.7,192,21.8L192,21.8z"/>
	<path id="TL" d="M65,27.8c-1.5-2.4,3.7-3.7,8-2c1.8,0.7,1.6,0.8-1,1.3c-1.6,0.3-3.1,0.7-4.6,1.2C66.6,28.8,65.6,28.6,65,27.8
		L65,27.8L65,27.8z"/>
	<path id="VU" class="st0" d="M225.3,60.1L225.3,60.1l-0.3-0.3v-0.1l0.2-0.1l0.2,0.2v0.1L225.3,60.1L225.3,60.1L225.3,60.1z
		 M225.5,61.1L225.5,61.1l-0.4,0.1H225V61l0.1-0.1l0.2-0.1l0.3,0.1L225.5,61.1z M223.2,62.7l0.2,1h0.2l0.1-0.1l0.1-0.2l0.1-0.4
		l0.1-0.1h0.1L224,63v0.3l0.1,0.2h0.1l0.1,0.7l0.1,0.2v0.1l-0.3,0.3h-0.4l-0.3,0.2h-0.2v-0.2l-0.2-0.1l-0.2-0.3v-0.6l-0.3-1v-0.3
		l0.1-0.3h0.1l0.2,0.3L223.2,62.7z M227.2,64.2L227.2,64.2l-0.2-0.9v-0.1h0.1l0.1,0.6V64.2L227.2,64.2z M226.4,64.5l-0.2,0.1h-0.3
		l-0.1-0.1l0.4-0.4l0.5-0.1L226.4,64.5z M227.3,66.1L227.3,66.1L227.3,66.1l-0.3-0.8l0.1-0.6l0.1,0.1l0.2,1.1L227.3,66.1L227.3,66.1
		L227.3,66.1z M224.5,65.3L224.5,65.3l-0.3-0.1l0.1-0.2l0.3,0.1L224.5,65.3z M225,66.4L225,66.4l0.2,0.1v0.1l0.4,0.3h0.1l0.1,0.2
		l0.2,0.1v0.2l0.1,0.2l-0.2,0.2l-0.4-0.1l-0.2,0.2l-0.2-0.1v-0.1l0,0l-0.1-0.3l-0.1-0.5l-0.1-0.3l-0.1-0.1l-0.2,0.1h-0.1l-0.2-0.2
		l0.1-0.4v-0.1h0.2l0.2,0.1L225,66.4z M227.5,67.1h-0.3l-0.5-0.1l-0.2-0.1l-0.1-0.1l0.2-0.1h0.2l0.3-0.3l0.1,0.1l0.1,0.3l0.1,0.1
		L227.5,67.1L227.5,67.1L227.5,67.1z M227.9,68.4L227.9,68.4v0.2l-0.4-0.1l-0.3,0.1h-0.1l-0.1-0.1l-0.1-0.2v-0.2L227,68l0,0l0.1,0.1
		l0.1,0.1h0.1l0.2,0.2H227.9L227.9,68.4z M227.9,70.6l0.3,0.4h0.1l-0.2,0.3h-0.4l-0.4-0.1l0.2-0.1l-0.1-0.1h-0.1l-0.1,0.1h-0.1
		l0.1-0.2l0.2-0.3H227.9L227.9,70.6z M230.4,74.7L230.4,74.7l-0.2,0.1l-0.7-0.3v-0.4l0.1-0.2l0.2-0.1h0.2l0.1,0.3l0.2,0.1l-0.2,0.1
		l0.3,0.2V74.7L230.4,74.7z M230.9,76.5l-0.1,0.3l-0.3-0.1l-0.2-0.2l-0.1-0.2l0.1-0.4l0.1-0.1h0.1l0.1,0.4L230.9,76.5z M232,78.4
		l-0.1,0.2h-0.2l-0.2-0.1v-0.1H232L232,78.4z"/>
	<path id="AU" d="M98.6,185c-1-0.7-1.1-1.3-0.2-2.9c0.7-1.6,1.1-3.4,1.1-5.2c0-2.8,0.2-3.1,2.2-2.3c1.9,0.6,3.8,0.9,5.8,0.9
		c1.9,0.1,3.8,0.2,4.3,0.3c1.7,0.3-2.8,5.4-6.8,7.7C100.3,186.2,100.5,186.1,98.6,185L98.6,185z M108.5,163.3
		c-2.1-2.2-2.5-2.3-4.5-1c-2.6,1.7-7.4,0.7-11.3-2.3c-2.1-1.6-2.2-2.1-1.1-4.1c0.9-1.4,0.9-3.2,0.1-4.7c-0.6-1.4-1-2.9-1.1-4.4
		c0-2.4-1.6-2.5-2.9-0.2c-0.5,1-1.3,1.5-1.6,1.1c-0.3-0.4,0.8-2.3,2.6-4.3c4.3-4.9,2.6-6.3-3.1-2.4c-2.5,1.7-4.7,3.5-4.9,4
		c-0.2,0.5-1.4-1.2-2.6-3.8c-1.3-2.8-3.3-5.3-5.8-7.2c-3.2-2.1-4.3-2.3-10.4-1.7c-9,0.9-17.6,3.1-23.2,5.9c-3.7,1.6-7.5,2.6-11.5,3
		c-4.6,0.6-9.1,1.6-13.4,3.2c-5.5,2.1-7,2.3-9.8,1.4c-3.7-1.2-5.3-3.7-2.9-4.7c0.9-0.3,2.4-2.6,3.5-5.1c1.7-4,1.8-5.2,0.8-10.3
		c-0.8-4.2-0.9-8.2-0.1-14.7c0.6-4.9,0.8-9.9,0.5-11.1c-0.3-1.2,0.2-4.1,1.1-6.4c1.6-4.2,2-4.4,12.7-9c6.1-2.6,12.3-4.7,13.8-4.7
		c4.1,0,9.3-3.9,12.1-9.3c1.7-3.3,3-4.6,4-4.2c2.9,1.1,3.5,0.9,3.3-1.3c-0.2-1.2,0.5-2.4,1.6-2.8c1-0.3,2.9-2.1,4.2-4
		c1.6-2.1,3.8-3.9,6.2-5c3.7-1.5,4-1.4,6,0.4c3.7,3.3,6.3,4.3,7.5,2.8c0.6-0.5,0.7-1.3,0.5-2c-1.1-1.1,4.1-7.7,6.7-8.3
		c2.2-0.6,4.3-1.5,6.3-2.5c3.2-1.6,4.4-1.7,8-0.8c7.8,2.1,8.1,2.4,5.2,6.8c-3.7,5.7-2.7,7.9,6.4,14.3c4.2,3,8.2,5.2,8.9,5
		c0.7-0.2,2.7-2.5,4.6-5.1c2.3-2.9,3.6-6.5,3.9-10.2c0.6-5.9,3.4-14,4.8-14c0.5,0,1.6,2.4,2.4,5.4c0.8,3,2.6,6.4,4,7.6
		c3.1,2.9,4.9,11.1,3.5,16c-0.9,3.2-0.7,3.7,2.4,7c1.9,1.9,4.9,6.7,6.6,10.5c2,4.3,4.3,8.3,7.1,12.1l3.9,5.1l-1.1,7.9
		c-0.5,4.9-2.1,9.6-4.5,13.9c-3.8,6.7-9.4,13-12.4,14c-1.1,0.3-3.5,2.8-5.5,5.6s-4,5-4.5,5s-2.8,2.3-5.1,5.2
		c-3.8,4.8-4.5,5.2-8.4,5.3c-2.8,0-5.6,1-7.8,2.8l-3.5,2.7L108.5,163.3L108.5,163.3z"/>
</g>
</svg>
