<?xml version="1.0" encoding="utf-8"?>
<!-- Generator: Adobe Illustrator 19.2.1, SVG Export Plug-In . SVG Version: 6.00 Build 0)  -->
<svg version="1.1" id="Шар_1" xmlns="http://www.w3.org/2000/svg" xmlns:xlink="http://www.w3.org/1999/xlink" x="0px" y="0px"
	 viewBox="0 0 194 305" style="enable-background:new 0 0 194 305;" xml:space="preserve">
<title>south_america</title>
<desc>Created with Sketch.</desc>
<g id="south_america" transform="translate(-1.000000, 0.000000)">
	<path id="AR" d="M105.6,299.6c-1.7-2.4-2.9-4.5-2.7-4.7c0.2-0.2,2.6,1.1,5.3,3c2.5,1.7,5.1,3.1,7.9,4.3c2.9,1,2.8,1-2.2,1.4
		C108.7,303.9,108.6,303.9,105.6,299.6z M88,288.3c-1.4-0.8-2.5-2-3.2-3.4c-0.7-1.3-1.8-2.4-3.1-3c-0.8-0.2-1.6-0.7-2.2-1.3
		c-0.1-0.3-0.2-2.3-0.4-4.2c-0.9-12.3-1.9-16.7-6.2-25c-2.7-4.9-4.5-10.1-5.4-15.6c-0.5-3.7-1.4-7.3-2.5-10.8
		c-1.3-3.4-1.3-4.2-0.1-6c1.2-1.8,1.2-2.5,0-5c-0.8-1.5-1.1-3.2-0.9-4.9c0.3-1.1-0.4-3.9-1.6-6.1c-3.2-6.1-3.3-16.8-0.3-22.3
		c2-3.6,2.2-4.8,1.3-8.1c-0.8-3.1-0.7-4.6,0.6-7c0.9-1.6,1.4-3.3,1.6-5.1c0-2.9,3.3-4.2,8.7-3.5c3.3,0.4,5.3,0.2,6.5-0.7
		c1.6-1.2,2.3-0.8,6.7,3.3c3.1,3,6.8,5.4,10.9,6.9c6.7,2.5,7.6,3.5,6,8c-1.3,3.8-0.6,4.7,4.9,5.5c3.9,0.6,4.5,0.4,7.2-2.6
		c1.7-1.8,3-4.2,3.1-5.4c0-1.9,0.2-1.9,1.5,0.6c1.9,3.5,0.8,5.8-4.8,10.8c-2.2,2-4.1,4.4-4.2,5.5c-0.1,1.2-0.4,2.4-0.8,3.5
		c-3,8.2-3.3,10.6-1.6,14.7c0.6,1.3,0.9,2.7,1,4.1c-0.1,0.7,0.9,1.7,2.2,2.4c1.3,0.7,3.4,3,4.6,5.4c1.8,3.5,1.9,4.7,1,6.8
		c-1.4,3.1-6.9,5.7-11.9,5.7c-4.5,0-5.6,1.1-4,4c1,1.8,0.3,4.6-1.5,6.8c-0.1,0.2-1.7-0.4-3.5-1.3c-4.2-2.2-5.7-0.8-3.6,3.3
		c0.8,1.6,2.1,2.9,3.7,3.7c2,0.6,2,0.8,0.4,2.5c-0.9,0.9-1.3,2.2-1.1,3.5c0.4,1-0.4,3-2,5c-2.5,3.3-2.5,3.5-0.9,6
		c0.8,1.3,1.9,2.3,3.2,3.1c3,1.2,3.5,5.1,1.2,9.6c-1.2,2.4-2,5-2.3,7.7c-0.1,3.1-0.4,3.5-3.1,3.7C91.3,289.2,89.6,289,88,288.3
		L88,288.3z"/>
	<path id="BO" d="M62.5,155.4c-1.6-2.7-2.8-5.6-3.6-8.7c-0.8-2.9-1.9-5.8-3.4-8.4c-1.8-2.5-1.8-3-0.5-5.6c1.1-2.2,1.2-3.2,0.3-4.8
		c-0.6-1.1-1.2-5.6-1.3-10s-0.3-8.9-0.5-9.9c-0.3-1.4,0.7-2.5,3.6-4.1c6.9-3.8,8.2-3.9,9-0.7c1.2,4.7,4.6,9.2,7.4,9.9
		c2.9,0.8,5.7,1.9,8.4,3.1c4.8,2.1,5.9,3.1,6.9,6.1c1.6,4.9,2.6,6,6.3,6.7c2.3,0.4,3.8,1.6,5.4,4.5c3.6,6.3,1.2,11.3-4.2,8.8
		c-3.7-1.7-8.1,1.2-11.1,7.1c-3.1,6.1-5.4,7.4-11.2,6.5c-3.2-0.5-5.1-0.2-6.8,0.9C64.8,158.3,64.6,158.3,62.5,155.4L62.5,155.4z"/>
	<path id="BR" d="M128.1,201.9c-2.6-2.3-5.5-4.3-8.5-6c-7.9-4.1-8.5-7.9-2-12.5c1.8-1.4,3.4-3.1,4.5-5.1c1.3-2.6,1.3-3.2,0-5.9
		c-0.7-1.4-1.2-2.9-1.5-4.4c0-1.8-4.3-5.3-10.8-8.8c-4-2.2-5.2-3.3-5.7-6c-0.6-2.3-1.4-4.4-2.5-6.5c-1.4-2.5-1.5-3.3-0.5-3.7
		c1-0.8,1.7-1.9,2-3.1c1-4.1-3.4-10.7-8-12c-3.1-0.9-3.9-1.7-5.1-5.3c-1.2-3.6-2.3-4.7-6.1-6.6c-2.8-1.4-5.8-2.6-8.8-3.5
		c-3.5-0.9-4.5-1.8-6.2-5.4c-0.9-1.7-1.6-3.5-2.1-5.4c0-0.7-0.4-1.3-1-1.7c-1.2-0.7-10.5,3.2-12.1,5s-5.4,0-6.9-3.3
		c-0.9-1.9-1.7-2.4-3.4-2c-2.7,0.7-6.8-2.5-9.1-7.1c-1.5-3-1.5-3.6,0.2-9s2.2-5.9,6.3-7.4c2.8-1.1,4.8-1.3,5.6-0.7
		c1.5,1.2,1.9,0.5,3.3-6.2c1-4.6,0.9-6.2-0.4-9.4c-1.4-3.4-1.4-4-0.1-5.4c1.1-0.9,1.2-2.4,0.4-3.5c-1.3-2.3,0.6-3.9,3.6-3.2
		c1.2,0.2,2.4,0,3.4-0.7c1.2-1,1.6-0.9,1.9,0.2c0.7,1.4,1.7,2.6,2.9,3.7c2.4,2.2,2.6,2.2,5.6,0.7c1.8-0.9,3.4-2.2,4.8-3.6
		c1.5-1.8,1.5-2.4,0.1-5.9c-1.7-4.4-1.3-5.5,1.8-3.9c1.8,1,3,0.7,7.5-1.9c6.4-3.6,8.1-2.8,6.5,3.2c-0.8,2.9-0.7,4.3,0.6,6.7
		c2,3.8,3.6,4.5,6.7,2.9c3.7-2,9.7-3.1,17.2-3.3l6.8-0.1l2.5-4.2c0.9-1.6,0.5-5.7,2-4.2l1.4,1.2c0.9,1.4,1.6,3,1.9,4.6
		c0.7,2.6,1.6,5,2.2,5.3c1.5,0.9-0.6,4.5-5.5,9.1c-3.1,2.9-3.8,4.2-2.9,5s2.3,0.1,5.7-3c4.9-4.5,6.6-5,9-2.5c1.5,1.5,1.5,1.8-0.6,4
		c-1.2,1.3-2.9,2.4-3.8,2.4s-0.5,0.5,0.9,1c2,0.8,3,0.6,5-1.1c5.3-4.3,6.5-4.5,11.2-1.9c3,1.7,4.3,3,4.1,4.4
		c-0.4,3.8,0.5,4.7,3.1,2.9c2.1-1.4,3.5-1.4,10.6-0.5c7.5,1,8.5,1.4,12,5c2.6,2.6,5.8,4.5,9.4,5.5c5,1.5,5.6,1.9,6.5,5.3
		c1.4,4.9-0.2,10.5-4.4,15.7c-1.8,2.3-3.5,4.7-4.9,7.3c-1.1,2.1-2.5,4.1-4.2,5.8c-2.4,2.4-2.6,3-2,8.8c1.2,11.3-4.3,32.2-9.6,36.7
		c-1.7,1.5-3.2,1.8-5.9,1.4c-2.3-0.3-3.9-0.1-4.4,0.6c-0.5,0.7-2.6,2-4.9,3c-2.7,1.2-5.2,2.8-7.5,4.7c-3.2,2.8-3.3,3.1-2.3,6.4
		c1.3,3.8,0.4,8.3-2.3,12.1c-1,1.4-1.5,3-1.6,4.7c-0.2,2-1,3.9-2.3,5.5c-1.9,2.7-3.6,5.5-5.2,8.4L128.1,201.9z"/>
	<path id="CL" d="M102.8,303c-5.1-1.8-6.5-3.7-5.3-6.9c1-2.6,4.1-3.8,4.1-1.6c0,0.6,1.1,2.5,2.4,4.2
		C108.5,304.9,108.5,305.1,102.8,303z M51.2,138.2c2-1.7,2.3-2.5,3.7,0.6c1.2,2.6,2.2,5.3,3.1,8.1c0.8,3.2,2.2,6.3,4.1,9.1
		c3,3.9,3.2,5.5,1,9.7c-1.3,2.4-1.4,3.9-0.6,7c0.9,3.4,0.7,4.5-1.3,8.1c-3,5.5-2.9,16.2,0.3,22.3c1.2,2.3,1.9,5,1.6,6.1
		c-0.2,1.7,0.1,3.4,0.9,4.9c1.3,2.4,1.3,3.1,0,5c-1.3,1.9-1.2,2.7,0.1,6c1.1,3.5,2,7.1,2.5,10.8c0.7,4.8,2.4,9.6,5.4,15.6
		c4.3,8.3,5.3,12.7,6.2,25c0.1,1.9,0.3,3.8,0.4,4.3c0.7,0.9,1.6,1.5,2.6,1.9c1.3,0.6,2.4,1.7,3.1,3c1.2,3.7,9.6,6.3,12.1,3.8
		c0.6-0.6,1.3-0.7,1.7-0.2c0.4,0.5-0.7,1.9-2.2,3c-2,1.5-3.2,1.8-4.5,1.1c-1.1-0.5-2.4-0.7-3.6-0.4c-1.4,0.4-2.1,0-2.6-1.5
		c-0.5-1.4-1.5-2.5-2.8-3.1c-2.6-1.2-6.7-7.6-9.1-14.2c-1.2-3.2-2.8-5.4-4.7-6.5c-3.3-1.9-3.6-2.8-1-3.6c3-0.9,3.5-6.2,1-9.7
		c-1.2-1.7-1.8-3.6-1.5-4.6s-0.7-3-3.6-5.9c-3.6-3.6-4.2-5-4.4-8.8c-0.1-2.5-0.7-5.1-1.3-5.9c-0.8-1-1-4.4-0.5-11.3
		c0.6-6.2,0.2-12.4-1.1-18.4c-1.9-9.5-2.9-27.1-2.4-43.2c0.1-3.5-0.2-7.1-1-10.5c-0.8-2.2-1.7-4.3-2.9-6.3L51.2,138.2z"/>
	<path id="CO" d="M9.7,48.9c1.1-1.9,6.5-10,6.8-11.2c1.1-4.1,0.7-10.1-1-13.2c-0.5-1,0.8-3,4.6-6.7c3-2.9,5.4-5.7,5.4-6.3
		c0-1.8,5.1-6,7.3-6c1.1,0,3.3-1.2,4.8-2.6s3.5-2.4,4.6-2.2c1.5,0.4,1.4,0.6-0.9,1.6c-1.7,0.7-3.6,2.8-4.9,5.6l-2.2,4.4l2,4.8
		c1.2,2.9,3,5.3,4.4,6c4,1.9,11.2,4.8,12.4,4.9c0.6,0.1,1.7,0.2,2.4,0.3c0.9,0.1,1.1,1,0.7,3c-0.3,1.9-0.2,3.8,0.4,5.6
		c0.7,1.5,0.7,3.2,0,4.7c-0.8,1.5-0.7,2.1,0.5,2.6c1.4,0.5,1.4,0.8-0.2,1.9c-1.1,0.7-2.5,1-3.8,0.8c-1.4-0.2-2.8,0.1-3.9,0.9
		c-1.5,1.1-1.7,1.8-0.8,3.3s0.7,2.3-0.4,3.6c-1.3,1.5-1.3,2.1,0.1,5.4c1.4,3.3,1.4,4.7,0.4,9.7c-1,5.2-1.3,5.7-2.6,4.5
		c-1.1-1.1-1.2-1.9-0.3-3.5c0.9-1.8,0.7-2.3-1.4-3.7c-1.6-1.1-3.5-1.4-5.4-1c-3,0.6-4.1-0.2-10.9-7.9c-1.4-1.5-3.1-2.5-5-3.1
		c-2.8-0.8-5.5-1.8-8.1-3.1L9.7,48.9z"/>
	<path id="EC" d="M10,50.2c0.7,1.1,9.4,4.9,12.8,5.7l2.4,0.8L24,60.8c-1,3.5-2.4,4.8-6.4,7c-3.7,2.1-5.2,3.7-6.1,6.2
		c-1.3,4-1.4,4-5.5,1.8l0,0c-1.6-0.9-3.2-1.7-3.4-1.9c-0.2-0.2,0.6-1.7,1.9-3.4l2.2-3.1l-2.1-0.5c-4.9-1.3-4.6-6,4.1-17.1L10,50.2z"
		/>
	<path id="GF" d="M120.5,41.4c-2,3.6-2.6,4-6.1,4h-3.8l1.5-2.9c1.1-2.2,1.3-3.6,0.5-5.6c-1.2-3,0.2-6.5,2.6-6.5c0.8,0,4.9,3.5,6.4,6
		L120.5,41.4z"/>
	<path id="GY" d="M89.1,46.4c-1.2-2.4-1.3-3.8-0.6-6.7c0.8-2.7,0.7-4.1-0.3-5.2c-3.5-4.3-4-6.8-2.2-10.7c3-6.3,4.5-6.7,7.4-1.8
		c1.3,2.1,3,3.9,5.1,5.3l3,1.8l-2.6,3.6c-2.3,3.3-2.4,3.8-1.1,5.9c0.9,1.5,1.6,3.2,2,4.9c0.5,2.2,0.1,2.7-3.6,4.2
		C90.8,50,90.9,50,89.1,46.4L89.1,46.4L89.1,46.4z"/>
	<path id="PE" d="M49.4,139c-4.4-4.2-9.3-7.8-14.5-10.9c-6.4-3.4-7.4-4.3-9.9-9.5c-1.8-3.7-4-7.2-6.5-10.5c-2-2.6-4.3-6.4-4.9-8.5
		C11.5,93,7.7,86.4,5.2,84.8s-5-7.9-3.9-9.6c0.3-0.5,2.3,0.1,4.5,1.2c4.6,2.4,5.4,2.1,6.8-2.3c0.8-2.3,2.5-4,6-6
		c4-2.3,5.2-3.6,6.2-6.8c1.4-4.7,2.3-4.9,4.3-1c2.2,4.2,6.9,7.3,9.9,6.5c1.5-0.3,3.1-0.1,4.6,0.5c1.7,0.9,1.9,1.5,1,3.1
		c-0.6,1.1-0.8,2.4-0.5,2.8s-1.2,1.3-3.3,2c-4.7,1.4-5.3,2.2-7.5,8.9c-1.6,5-1.6,5.4,0.2,9c2.4,4.7,7.2,8.3,9.9,7.6
		c1.5-0.4,2.2,0.1,2.7,1.6c0.6,1.4,1.7,2.5,3.1,3.2c3.2,1.5,4.7,6.5,3.9,13.1c-0.5,3.9-0.3,6.2,0.8,8.3c1.3,2.6,1.3,3.2,0,5.9
		c-0.8,1.6-0.3,2.8-3.2,5L49.4,139z"/>
	<path id="PY" d="M106.8,178.7c-2.5-0.5-2.7-1-1.2-4.8s-0.1-5.9-7-8.4c-4-1.5-7.6-3.7-10.6-6.5l-4.5-4.3l2.5-5
		c3.2-6.3,6.9-8.2,11.5-5.8c1.1,0.5,2.1,1.1,3.1,1.8c0,0.1,0.8,2.7,1.8,5.7c1.6,4.9,2.4,5.8,7.2,8.7c9.5,5.5,10.2,6.4,9.4,10.6
		C117.8,177.5,113.9,180.1,106.8,178.7L106.8,178.7z"/>
	<path id="SR" d="M101,43.8c-0.5-1.8-1.2-3.6-2.1-5.2c-1.3-2.1-1.2-2.6,0.7-5.5c1.9-2.9,2.7-3.2,7.6-3.3c5.8-0.1,5.8-0.1,4.4,2.6
		c-0.7,1.4-0.7,3,0,4.4c1.3,3.5-0.5,7.2-3.8,7.8c-1.5,0.3-2.9,0.7-4.3,1.2C102.1,46.5,101.5,46,101,43.8L101,43.8L101,43.8z"/>
	<path id="UY" d="M131.8,205.8c-0.8,1.1-3.6,4.8-4.3,5.5c-1.1,1.2-2.7,2-4.4,2c-1.1,0-4.3-1.1-7.2-2.4l0,0
		c-7.1-3.2-7.7-6.2-3.7-18.5c0.4-1.3,0.6-1.2,1.5,0.3c0.5,1,2.9,2.7,5.2,3.9c3,1.7,5.9,3.5,8.7,5.6L131.8,205.8z"/>
	<path id="VE" d="M48.5,2c-0.7-1.7,1.6-2.9,2-1c0.4,2.4,0.6,2.2,0.1,1.2S48.8,2.8,48.5,2L48.5,2L48.5,2z M61.7,50.4
		c-2-1.8-2.6-3.2-2.2-5.2c0.1-0.4-0.5-1-1.4-1.3c-1.1-0.4-1.2-1-0.5-2.4c0.6-1.5,0.6-3.1-0.1-4.6c-0.6-1.8-0.8-3.7-0.4-5.5
		c0.5-2.1,0.1-3-1.4-3.8c-1.1-0.6-2.4-1-2.8-0.8c-1.8-0.3-3.6-0.8-5.3-1.6c-2.5-1-5.4-2.2-6.6-2.6s-2.8-2.7-3.9-5.5
		c-1.8-4.7-1.8-4.8,0.3-9.1c2.7-5.5,4.1-5.6,3.1-0.1c-0.5,2.6-0.4,5,0.3,6.2c1,1.9,1.1,1.9,2.9-0.4c1.3-1.6,1.6-2.7,0.9-3.4
		c-1.7-1.7-1.2-3.1,2-5.5s5.9-2.2,8.7,0.9c2.1,2.2,13.3,5.3,16.5,4.5c1.5-0.4,4.7,0.5,9,2.6c6.5,3.1,10.2,6,7.8,6
		c-0.6,0-2.1,2.1-3.3,4.6c-1.7,3.7-1.9,5-1,6.5c1.8,2.9,1.5,3.4-3.8,6.3c-4.1,2.2-5.3,2.5-7.1,1.6C70,36,68.8,38,70.7,42.6
		c1.9,4.6,1.1,6-3.8,8.5C64.1,52.3,63.8,52.2,61.7,50.4L61.7,50.4L61.7,50.4z"/>
</g>
</svg>
