<?xml version="1.0" encoding="utf-8"?>
<!-- Generator: Adobe Illustrator 19.2.1, SVG Export Plug-In . SVG Version: 6.00 Build 0)  -->
<svg version="1.1" id="Шар_1" xmlns="http://www.w3.org/2000/svg" xmlns:xlink="http://www.w3.org/1999/xlink" x="0px" y="0px"
	 viewBox="0 0 922 583" style="enable-background:new 0 0 922 583;" xml:space="preserve">
<style type="text/css">
	.st0{stroke:#FFFFFF;stroke-width:0.75;}
</style>
<title>usa_map</title>
<desc>Created with Sketch.</desc>
<g id="usa_map">
	<path id="HI" class="st0" d="M227.1,512.3l1.9-3.6l2.3-0.3l0.3,0.8l-2.1,3.1H227.1L227.1,512.3z M237.3,508.6l6.1,2.6l2.1-0.3
		l1.6-3.9l-0.6-3.4l-4.2-0.5l-4,1.8L237.3,508.6L237.3,508.6z M268,518.6l3.7,5.5l2.4-0.3l1.1-0.5l1.5,1.3l3.7-0.2l1-1.5l-2.9-1.8
		l-1.9-3.7l-2.1-3.6l-5.8,2.9L268,518.6L268,518.6z M288.2,527.5l1.3-1.9l4.7,1l0.6-0.5l6.1,0.6l-0.3,1.3l-2.6,1.5l-4.4-0.3
		L288.2,527.5L288.2,527.5z M293.5,532.7l1.9,3.9l3.1-1.1l0.3-1.6l-1.6-2.1l-3.7-0.3L293.5,532.7L293.5,532.7L293.5,532.7z
		 M300.5,531.5l2.3-2.9l4.7,2.4l4.4,1.1l4.4,2.7v1.9l-3.6,1.8l-4.8,1l-2.4-1.5L300.5,531.5L300.5,531.5z M317.1,547.1l1.6-1.3
		l3.4,1.6l7.6,3.6l3.4,2.1l1.6,2.4l1.9,4.4l4,2.6l-0.3,1.3l-3.9,3.2l-4.2,1.5l-1.5-0.6l-3.1,1.8l-2.4,3.2l-2.3,2.9l-1.8-0.2
		l-3.6-2.6l-0.3-4.5l0.6-2.4l-1.6-5.7l-2.1-1.8l-0.2-2.6l2.3-1l2.1-3.1l0.5-1l-1.6-1.8L317.1,547.1L317.1,547.1z"/>
	<path id="AK" class="st0" d="M152.1,446.7l-0.3,85.4l1.6,1l3.1,0.2l1.5-1.1h2.6l0.2,2.9l7,6.8l0.5,2.6l3.4-1.9l0.6-0.2l0.3-3.1
		l1.5-1.6l1.1-0.2l1.9-1.5l3.1,2.1l0.6,2.9l1.9,1.1l1.1,2.4l3.9,1.8l3.4,6l2.7,3.9l2.3,2.7l1.5,3.7l5,1.8l5.2,2.1l1,4.4l0.5,3.1
		l-1,3.4l-1.8,2.3l-1.6-0.8l-1.5-3.1l-2.7-1.5l-1.8-1.1l-0.8,0.8l1.5,2.7l0.2,3.7l-1.1,0.5l-1.9-1.9l-2.1-1.3l0.5,1.6l1.3,1.8
		l-0.8,0.8c0,0-0.8-0.3-1.3-1c-0.5-0.6-2.1-3.4-2.1-3.4l-1-2.3c0,0-0.3,1.3-1,1s-1.3-1.5-1.3-1.5l1.8-1.9l-1.5-1.5v-5h-0.8l-0.8,3.4
		l-1.1,0.5l-1-3.7l-0.6-3.7l-0.8-0.5l0.3,5.7v1.1l-1.5-1.3l-3.6-6l-2.1-0.5l-0.6-3.7l-1.6-2.9l-1.6-1.1v-2.3l2.1-1.3l-0.5-0.3
		l-2.6,0.6l-3.4-2.4l-2.6-2.9l-4.8-2.6l-4-2.6l1.3-3.2V535l-1.8,1.6l-2.9,1.1l-3.7-1.1l-5.7-2.4h-5.5l-0.6,0.5l-6.5-3.9l-2.1-0.3
		l-2.7-5.8l-3.6,0.3l-3.6,1.5l0.5,4.5l1.1-2.9l1,0.3l-1.5,4.4l3.2-2.7l0.6,1.6l-3.9,4.4l-1.3-0.3l-0.5-1.9l-1.3-0.8l-1.3,1.1
		l-2.7-1.8l-3.1,2.1l-1.8,2.1l-3.4,2.1l-4.7-0.2l-0.5-2.1l3.7-0.6v-1.3l-2.3-0.6l1-2.4l2.3-3.9v-1.8l0.2-0.8l4.4-2.3l1,1.3h2.7
		l-1.3-2.6l-3.7-0.3l-5,2.7l-2.4,3.4l-1.8,2.6l-1.1,2.3l-4.2,1.5l-3.1,2.6l-0.3,1.6l2.3,1l0.8,2.1l-2.7,3.2l-6.5,4.2l-7.8,4.2
		l-2.1,1.1l-5.3,1.1l-5.3,2.3l1.8,1.3l-1.5,1.5l-0.5,1.1l-2.7-1l-3.2,0.2l-0.8,2.3h-1l0.3-2.4l-3.6,1.3l-2.9,1l-3.4-1.3l-2.9,1.9
		h-3.2l-2.1,1.3l-1.6,0.8l-2.1-0.3l-2.6-1.1l-2.3,0.6l-1,1l-1.6-1.1v-1.9l3.1-1.3l6.3,0.6l4.4-1.6l2.1-2.1l2.9-0.6l1.8-0.8l2.7,0.2
		l1.6,1.3l1-0.3l2.3-2.7l3.1-1l3.4-0.6l1.3-0.3l0.6,0.5h0.8l1.3-3.7l4-1.5l1.9-3.7l2.3-4.5l1.6-1.5l0.3-2.6l-1.6,1.3l-3.4,0.6
		l-0.6-2.4l-1.3-0.3l-1,1l-0.2,2.9l-1.5-0.2l-1.5-5.8l-1.3,1.3l-1.1-0.5l-0.3-1.9l-4,0.2l-2.1,1.1l-2.6-0.3l1.5-1.5l0.5-2.6L55,527
		l1.5-1l1.3-0.2l-0.6-1.8v-4.4l-1-1l-0.8,1.5h-6.1l-1.5-1.3l-0.6-3.9l-2.1-3.6v-1l2.1-0.8L47,507l1.1-1.1l-0.8-0.5l-1.3,0.5
		l-1.1-2.7l1-5l4.5-3.2l2.6-1.6l1.9-3.7l2.7-1.3l2.6,1.1l0.3,2.4l2.4-0.3l3.2-2.4l1.6,0.6l1,0.6h1.6l2.3-1.3l0.8-4.4
		c0,0,0.3-2.9,1-3.4c0.6-0.5,1-1,1-1l-1.1-1.9l-2.6,0.8l-3.2,0.8l-1.9-0.5l-3.6-1.8l-5-0.2l-3.6-3.7l0.5-3.9l0.6-2.4l-2.1-1.8
		l-1.9-3.7l0.5-0.8l6.8-0.5h2.1l1,1h0.6l-0.2-1.6l3.9-0.6l2.6,0.3l1.5,1.1l-1.5,2.1l-0.5,1.5l2.7,1.6l5,1.8l1.8-1l-2.3-4.4l-1-3.2
		l1-0.8l-3.4-1.9l-0.5-1.1l0.5-1.6l-0.8-3.9l-2.9-4.7l-2.4-4.2l2.9-1.9h3.2l1.8,0.6l4.2-0.2l3.7-3.6l1.1-3.1l3.7-2.4l1.6,1l2.7-0.6
		l3.7-2.1l1.1-0.2l1,0.8l4.5-0.2l2.7-3.1h1.1l3.6,2.4l1.9,2.1l-0.5,1.1l0.6,1.1l1.6-1.6l3.9,0.3l0.3,3.7l1.9,1.5l7.1,0.6l6.3,4.2
		l1.5-1l5.2,2.6l2.1-0.6l1.9-0.8l4.8,1.9L152.1,446.7L152.1,446.7z M37,475.6l2.1,5.3l-0.2,1l-2.9-0.3l-1.8-4l-1.8-1.5H30l-0.2-2.6
		l1.8-2.4l1.1,2.4l1.5,1.5L37,475.6L37,475.6z M34.4,509.1l3.7,0.8l3.7,1l0.8,1l-1.6,3.7l-3.1-0.2l-3.4-3.6L34.4,509.1L34.4,509.1z
		 M13.7,495l1.1,2.6l1.1,1.6l-1.1,0.8l-2.1-3.1V495H13.7L13.7,495z M0,568.1l3.4-2.3l3.4-1l2.6,0.3l0.5,1.6l1.9,0.5l1.9-1.9
		l-0.3-1.6l2.7-0.6l2.9,2.6l-1.1,1.8l-4.4,1.1l-2.7-0.5L7.1,567l-4.4,1.5l-1.6,0.3L0,568.1L0,568.1z M48.9,563.6l1.6,1.9l2.1-1.6
		l-1.5-1.3L48.9,563.6L48.9,563.6z M51.8,566.6l1.1-2.3l2.1,0.3l-0.8,1.9L51.8,566.6L51.8,566.6L51.8,566.6z M75.4,564.7l1.5,1.8
		l1-1.1l-0.8-1.9L75.4,564.7L75.4,564.7z M84.2,552.2l1.1,5.8l2.9,0.8l5-2.9l4.4-2.6l-1.6-2.4l0.5-2.4l-2.1,1.3l-2.9-0.8l1.6-1.1
		l1.9,0.8l3.9-1.8l0.5-1.5l-2.4-0.8l0.8-1.9l-2.7,1.9l-4.7,3.6l-4.8,2.9L84.2,552.2L84.2,552.2z M126.5,532.4l2.4-1.5l-1-1.8l-1.8,1
		L126.5,532.4L126.5,532.4z"/>
	<path id="FL" class="st0" d="M753.8,432.1l2.3,7.3l3.7,9.7l5.3,9.4l3.7,6.3l4.8,5.5l4,3.7l1.6,2.9l-1.1,1.3l-0.8,1.3l2.9,7.4
		l2.9,2.9l2.6,5.3l3.6,5.8l4.5,8.2l1.3,7.6l0.5,12l0.6,1.8l-0.3,3.4l-2.4,1.3l0.3,1.9l-0.6,1.9l0.3,2.4l0.5,1.9l-2.7,3.2l-3.1,1.5
		l-3.9,0.2l-1.5,1.6l-2.4,1l-1.3-0.5l-1.1-1l-0.3-2.9l-0.8-3.4l-3.4-5.2l-3.6-2.3l-3.9-0.3l-0.8,1.3l-3.1-4.4l-0.6-3.6l-2.6-4
		l-1.8-1.1l-1.6,2.1l-1.8-0.3l-2.1-5l-2.9-3.9l-2.9-5.3l-2.6-3.1l-3.6-3.7l2.1-2.4l3.2-5.5l-0.2-1.6l-4.5-1l-1.6,0.6l0.3,0.6l2.6,1
		l-1.5,4.5l-0.8,0.5l-1.8-4l-1.3-4.8l-0.3-2.7l1.5-4.7v-9.5l-3.1-3.7l-1.3-3.1l-5.2-1.3l-1.9-0.6l-1.6-2.6l-3.4-1.6l-1.1-3.4l-2.7-1
		l-2.4-3.7l-4.2-1.5l-2.9-1.5H705l-4,0.8l-0.2,1.9l0.8,1l-0.5,1.1l-3.1-0.2l-3.7,3.6l-3.6,1.9h-3.9l-3.2,1.3l-0.3-2.7l-1.6-1.9
		l-2.9-1.1l-1.6-1.5l-8.1-3.9l-7.6-1.8l-4.4,0.6l-6,0.5l-6,2.1l-3.5,0.6l-0.2-8l-2.6-1.9l-1.8-1.8l0.3-3.1l10.2-1.3l25.5-2.9
		l6.8-0.6l5.4,0.3l2.6,3.9l1.5,1.5l8.1,0.5l10.8-0.6l21.5-1.3l5.4-0.7l5.1,0.2l0.4,2.9l2.2,0.8l0.2-4.6l-1.5-4.2l1.3-1.4l5.6,0.5
		L753.8,432.1L753.8,432.1z M766.4,564.5l2.4-0.6l1.3-0.2l1.5-2.3l2.3-1.6l1.3,0.5l1.7,0.3l0.4,1.1l-3.5,1.2l-4.2,1.5l-2.3,1.2
		L766.4,564.5L766.4,564.5z M779.9,559.5l1.2,1.1l2.7-2.1l5.3-4.2l3.7-3.9l2.5-6.6l1-1.7l0.2-3.4l-0.7,0.5l-1,2.8l-1.5,4.6l-3.2,5.3
		l-4.4,4.2l-3.4,1.9L779.9,559.5L779.9,559.5z"/>
	<polygon id="NH" class="st0" points="874.8,135.4 875.7,134.3 876.8,131 874.3,130.1 873.8,127 869.9,125.9 869.6,123.2 
		862.3,99.8 857.7,85.3 856.8,85.3 856.2,86.9 855.6,86.4 854.6,85.4 853.1,87.3 853.1,92.3 853.4,98 855.3,100.7 855.3,104.7 
		851.6,109.8 849,110.9 849,112 850.1,113.8 850.1,122.4 849.3,131.6 849.1,136.4 850.1,137.7 849.9,142.2 849.4,144 850.4,144.7 
		867.2,140.3 869.4,139.7 871.2,136.9 	"/>
	<path id="MI" class="st0" d="M575.6,75.1l1.8-2.1l2.2-0.8l5.4-3.9l2.3-0.6l0.5,0.5l-5.1,5.1l-3.3,1.9l-2.1,0.9L575.6,75.1
		L575.6,75.1z M661.8,107.2l0.6,2.5l3.2,0.2l1.3-1.2c0,0-0.1-1.5-0.4-1.6c-0.3-0.2-1.6-1.9-1.6-1.9l-2.2,0.2l-1.6,0.2l-0.3,1.1
		L661.8,107.2L661.8,107.2z M561.5,104.2l0.7-0.6l2.7-0.8l3.6-2.3v-1l0.6-0.6l6-1l2.4-1.9l4.4-2.1l0.2-1.3l1.9-2.9l1.8-0.8l1.3-1.8
		l2.3-2.3l4.4-2.4l4.7-0.5l1.1,1.1l-0.3,1l-3.7,1l-1.5,3.1l-2.3,0.8l-0.5,2.4l-2.4,3.2l-0.3,2.6l0.8,0.5l1-1.1l3.6-2.9l1.3,1.3h2.3
		l3.2,1l1.5,1.1l1.5,3.1l2.7,2.7l3.9-0.2l1.5-1l1.6,1.3l1.6,0.5l1.3-0.8h1.1l1.6-1l4-3.6l3.4-1.1l6.6-0.3l4.5-1.9l2.6-1.3l1.5,0.2
		v5.7l0.5,0.3l2.9,0.8l1.9-0.5l6.1-1.6l1.1-1.1l1.5,0.5v7l3.2,3.1l1.3,0.6l1.3,1l-1.3,0.3l-0.8-0.3l-3.7-0.5l-2.1,0.6l-2.3-0.2
		l-3.2,1.5h-1.8l-5.8-1.3l-5.2,0.2l-1.9,2.6l-7,0.6l-2.4,0.8l-1.1,3.1l-1.3,1.1l-0.5-0.2l-1.5-1.6l-4.5,2.4h-0.6l-1.1-1.6l-0.8,0.2
		l-1.9,4.4l-1,4l-3.2,7l-1.2-1l-1.4-1l-1.9-10.3l-3.5-1.4l-2.1-2.3l-12.1-2.7l-2.9-1l-8.2-2.2l-7.9-1.1L561.5,104.2z M691.9,170.2
		l-3.2-8.2l-2.3-9.1l-2.4-3.2l-2.6-1.8l-1.6,1.1l-3.9,1.8l-1.9,5l-2.7,3.7l-1.1,0.6l-1.5-0.6c0,0-2.6-1.5-2.4-2.1
		c0.2-0.6,0.5-5,0.5-5l3.4-1.3l0.8-3.4l0.6-2.6l2.4-1.6l-0.3-10l-1.6-2.3l-1.3-0.8l-0.8-2.1l0.8-0.8l1.6,0.3l0.2-1.6L670,124
		l-1.3-2.6h-2.6l-4.5-1.5l-5.5-3.4h-2.7l-0.6,0.6l-1-0.5l-3.1-2.3l-2.9,1.8l-2.9,2.3l0.3,3.6l1,0.3l2.1,0.5l0.5,0.8l-2.6,0.8
		l-2.6,0.3l-1.5,1.8l-0.3,2.1l0.3,1.6l0.3,5.5l-3.6,2.1l-0.6-0.2v-4.2l1.3-2.4l0.6-2.4l-0.8-0.8l-1.9,0.8l-1,4.2l-2.7,1.1l-1.8,1.9
		l-0.2,1l0.6,0.8l-0.6,2.6l-2.3,0.5v1.1l0.8,2.4l-1.1,6.1l-1.6,4l0.6,4.7l0.5,1.1l-0.8,2.4l-0.3,0.8l-0.3,2.7l3.6,6l2.9,6.5l1.5,4.8
		l-0.8,4.7l-1,6l-2.4,5.2l-0.3,2.7l-3.3,3.1l4.4-0.2l21.4-2.3l7.3-1l0.1,1.7l6.9-1.2l10.3-1.5l3.9-0.5l0.1-0.6l0.2-1.5l2.1-3.7
		l2-1.7l-0.2-5.1l1.6-1.6l1.1-0.3l0.2-3.6l1.5-3l1.1,0.6l0.2,0.6l0.8,0.2l1.9-1L691.9,170.2z"/>
	<polygon id="VT" class="st0" points="838.5,147.1 838.8,141.8 835.9,131 835.3,130.7 832.4,129.4 833.2,126.5 832.4,124.4 
		829.7,119.8 830.7,115.9 829.9,110.7 827.5,104.2 826.7,99.3 853.1,92.6 853.4,98.1 855.3,100.8 855.3,104.8 851.6,109.9 849,111 
		849,112.1 850.3,113.6 850,121.7 849.4,131 849.2,136.6 850.2,137.9 850,142.5 849.5,144.2 850.5,144.9 843.1,146.4 	"/>
	<path id="ME" class="st0" d="M916.8,71.8l1.9,2.1l2.3,3.7v1.9l-2.1,4.7l-1.9,0.6l-3.4,3.1l-4.8,5.5h-1.3c-0.6,0-1-2.1-1-2.1
		l-1.8,0.2l-1,1.5l-2.4,1.5l-1,1.5l1.6,1.5l-0.5,0.6l-0.5,2.7l-1.9-0.2V99l-0.3-1.3l-1.5,0.3l-1.8-3.2l-2.1,1.3l1.3,1.5l0.3,1.1
		l-0.8,1.3l0.3,3.1l0.2,1.6l-1.6,2.6l-2.9,0.5l-0.3,2.9l-5.3,3.1l-1.3,0.5l-1.6-1.5l-3.1,3.6l1,3.2l-1.5,1.3l-0.2,4.4l-1.1,6.3
		l-2.5-1.2l-0.5-3.1l-3.9-1.1l-0.3-2.7l-7.3-23.4l-4.7-14.6l1.4-0.1l1.5,0.4V83l1.3-4.5l2.6-4.7l1.5-4l-1.9-2.4v-6l0.8-1l0.8-2.7
		l-0.2-1.5l-0.2-4.8l1.8-4.8l2.9-8.9l2.1-4.2h1.3l1.3,0.2v1.1l1.3,2.3l2.7,0.6l0.8-0.8v-1l4-2.9l1.8-1.8l1.5,0.2l6,2.4l1.9,1
		l9.1,29.9h6l0.8,1.9l0.2,4.8l2.9,2.3h0.8l0.2-0.5l-0.5-1.1L916.8,71.8L916.8,71.8z M895.9,102l1.5-1.5l1.4,1.1l0.6,2.4l-1.7,0.9
		L895.9,102L895.9,102z M902.6,96.1l1.8,1.9c0,0,1.3,0.1,1.3-0.2c0-0.3,0.2-2,0.2-2l0.9-0.8l-0.8-1.8l-2,0.7L902.6,96.1L902.6,96.1z
		"/>
	<polygon id="RI" class="st0" points="868.1,171.9 864.4,156.9 870.7,155.1 872.9,157 876.2,161.3 878.9,165.7 875.9,167.3 
		874.6,167.1 873.5,168.9 871.1,170.8 	"/>
	<polygon id="NY" class="st0" points="824.4,181.7 823.3,180.7 820.7,180.5 818.4,178.6 816.8,172.5 813.3,172.6 810.9,169.9 
		791.5,174.3 748.5,183 741,184.2 740.3,177.7 741.7,176.6 743,175.5 744,173.9 745.8,172.8 747.7,171 748.2,169.4 750.3,166.7 
		751.4,165.7 751.2,164.7 749.9,161.6 748.1,161.4 746.2,155.3 749.1,153.5 753.5,152 757.5,150.7 760.7,150.2 767,150 768.9,151.3 
		770.5,151.5 772.6,150.2 775.2,149.1 780.4,148.6 782.5,146.8 784.3,143.6 785.9,141.7 788,141.7 789.9,140.6 790.1,138.3 
		788.6,136.2 788.3,134.7 789.4,132.6 789.4,131.1 787.6,131.1 785.8,130.3 785,129.2 784.8,126.6 790.6,121.1 791.2,120.3 
		792.7,117.4 795.6,112.9 798.3,109.2 800.4,106.8 802.8,105 805.9,103.8 811.4,102.5 814.6,102.7 819.1,101.2 826.7,99.1 
		827.2,104.1 829.6,110.6 830.4,115.8 829.4,119.7 832,124.2 832.8,126.3 832,129.2 834.9,130.5 835.5,130.8 838.6,141.8 
		838.1,146.9 837.6,157.7 838.4,163.2 839.2,166.8 840.7,174.1 840.7,182.2 839.6,184.5 841.4,186.5 842.2,188.2 840.3,190 
		840.6,191.3 841.9,191 843.4,189.7 845.7,187.1 846.8,186.5 848.4,187.1 850.7,187.3 858.6,183.4 861.5,180.7 862.8,179.2 
		867,180.8 863.6,184.4 860,187 852.9,192.3 850.3,193.3 844.5,195.2 840.5,196.3 839.3,195.8 839.1,192.1 839.6,189.4 839.4,187.3 
		836.6,185.6 832.1,184.6 828.2,183.5 	"/>
	<polygon id="PA" class="st0" points="819.1,217.7 820.4,217.4 822.7,216.1 823.9,213.6 825.5,211.3 828.7,208.2 828.7,207.4 
		826.3,205.8 822.7,203.4 821.7,200.8 819,200.5 818.8,199.4 818,196.7 820.3,195.6 820.5,193.2 819.2,191.9 819.4,190.3 
		821.3,187.2 821.3,184.1 824,181.5 823.1,180.8 820.6,180.6 818.3,178.7 816.8,172.6 813.3,172.7 810.8,170 792.7,174.2 
		749.7,182.9 740.8,184.4 740.2,177.9 734.8,183 733.5,183.5 729.3,186.5 732.2,205.6 734.7,215.3 738.3,234.6 741.6,234 
		753.5,232.5 791.4,224.8 806.3,222 814.6,220.4 814.9,220.2 817,218.6 	"/>
	<polygon id="NJ" class="st0" points="823.7,181.5 821.4,184.2 821.4,187.3 819.5,190.4 819.3,192 820.6,193.3 820.4,195.7 
		818.1,196.8 818.9,199.5 819.1,200.6 821.8,200.9 822.8,203.5 826.4,205.9 828.8,207.5 828.8,208.3 825.8,211 824.2,213.3 
		822.7,216 820.4,217.3 820,219 819.8,220.2 819.2,222.8 820.3,225 823.5,227.9 828.3,230.2 832.3,230.8 832.5,232.3 831.7,233.3 
		832,236 832.8,236 834.9,233.6 835.7,228.8 838.4,224.8 841.5,218.3 842.6,212.8 842,211.7 841.8,202.3 840.2,198.9 839.1,199.7 
		836.4,200 835.9,199.5 837,198.5 839.1,196.6 839.2,195.5 838.8,192.1 839.4,189.4 839.3,187.4 836.5,185.6 831.4,184.4 827.3,183 
			"/>
	<polygon id="DE" class="st0" points="819.6,221.3 820,219.2 820.4,217.5 818.8,217.9 817.2,218.4 815,220.2 816.7,225.2 819,230.9 
		821.1,240.6 822.7,246.9 827.7,246.7 833.8,245.5 831.5,238.1 830.5,238.6 826.9,236.2 825.1,231.5 823.2,227.9 820.1,225 
		819.2,222.9 	"/>
	<path id="MD" class="st0" d="M833.8,245.4l-6,1.2l-5.1,0.1l-1.8-6.9l-1.9-9.2l-2.6-6.2l-1.3-4.4l-7.5,1.6l-14.9,2.8l-37.5,7.6
		l1.1,5l1,5.7l0.3-0.3l2.1-2.4l2.3-2.6l2.4-0.6l1.5-1.5l1.8-2.6l1.3,0.6l2.9-0.3l2.6-2.1l2-1.5l1.8-0.5l1.6,1.1l2.9,1.5l1.9,1.8
		l1.2,1.5l4.1,1.7v2.9l5.5,1.3l1.1,0.5l1.4-2l2.9,2l-1.3,2.5l-0.8,4l-1.8,2.6v2.1l0.6,1.8l5.1,1.4l4.3-0.1l3.1,1l2.1,0.3l1-2.1
		l-1.5-2.1v-1.8l-2.4-2.1l-2.1-5.5l1.3-5.3l-0.2-2.1l-1.3-1.3c0,0,1.5-1.6,1.5-2.3c0-0.6,0.5-2.1,0.5-2.1l1.9-1.3l1.9-1.6l0.5,1
		l-1.5,1.6l-1.3,3.7l0.3,1.1l1.8,0.3l0.5,5.5l-2.1,1l0.3,3.6l0.5-0.2l1.1-1.9l1.6,1.8l-1.6,1.3l-0.3,3.4l2.6,3.4l3.9,0.5l1.6-0.8
		l3.2,4.2l1.4,0.5l6.7-2.8l2-4L833.8,245.4L833.8,245.4z M817.8,254.4l1.1,2.5l0.2,1.8l1.1,1.9c0,0,0.9-0.9,0.9-1.2
		c0-0.3-0.7-3.1-0.7-3.1l-0.7-2.3L817.8,254.4L817.8,254.4z"/>
	<path id="VA" class="st0" d="M825.6,259.1l-0.1-1.9l6.5-2.5l-0.8,3.2l-2.9,3.8l-0.4,4.6l0.5,3.4l-1.8,5l-2.2,1.9l-1.5-4.6l0.4-5.4
		l1.6-4.2L825.6,259.1L825.6,259.1z M829,287.4L770.8,300l-37.4,5.3l-6.7-0.4l-2.6,1.9l-7.3,0.2l-8.4,1l-10.9,1.6L708,304v-2.1
		l1.5-2.1l10.6-11.5l3.9,4.5l3.8,1l2.5-1.1l2.2-1.3l2.5,1.3l3.9-1.4l1.9-4.6l2.6,0.5l2.9-2.1l1.8,0.5l2.8-3.7l0.3-2.1l-1-1.3l1-1.9
		l5.3-12.3l0.6-5.7l1.2-0.5l2.2,2.4l3.9-0.3l1.9-7.6l2.8-0.6l1-2.7l2.6-2.3l2.8-5.7l0.1-5.1l9.8,3.8c0.7,0.3,0.8-5,0.8-5l3.7,1.6
		l0.1,2.9l5.8,1.3l2.1,1.2l1.7,2.1l-0.7,3.6l-1.9,2.6l0.1,2.1l0.6,1.9l5,1.3h4.5l3.1,1l1.9,0.3l0.7,3.1l3.2,0.4l0.9,1.2l-0.4,4.7
		l1.4,1.1l-0.5,1.9l1.2,0.8l-0.2,1.4l-2.7-0.1l0.1,1.6l2.3,1.5l0.1,1.4l1.8,1.8l0.5,2.5l-2.6,1.4l1.6,1.5l5.8-1.7L829,287.4
		L829,287.4z"/>
	<path id="WV" class="st0" d="M755.2,232l1.1,4.9l1.1,6l2.1-2.6l2.3-3.1l2.5-0.6l1.5-1.5l1.8-2.6l1.4,0.6l2.9-0.3l2.6-2.1l2-1.5
		l1.8-0.5l1.3,1l3.6,1.8l1.9,1.8l1.4,1.3l-0.8,5.6l-5.8-2.5l-4.2-1.6l-0.1,5.2l-2.7,5.5l-2.5,2.4l-1.2,2.7l-2.6,0.5l-0.9,3.6l-1,3.9
		l-4,0.3l-2.3-2.4l-1.1,0.6l-0.6,5.5l-1.4,3.5l-5,11l0.9,1.2l-0.2,1.9l-2.8,3.9l-1.8-0.5l-3,2.2l-2.5-0.6l-2,4.6
		c0,0-3.3,1.4-3.9,1.4c-0.2,0-2.5-1.2-2.5-1.2l-2.3,1.4l-2.4,1l-3.7-0.9l-1.1-1.2l-2.2-3l-3.1-2L716,283l-4.3-3.5l-0.6-2.3l-2.6-1.5
		l-0.8-1.6l-0.2-5.3l2.2-0.1l1.9-0.8l0.2-2.7l1.6-1.5l0.2-5l1-3.9l1.3-0.6l1.3,1.1l0.5,1.8l1.8-1l0.5-1.6l-1.1-1.8v-2.4l1-1.3
		l2.3-3.4l1.3-1.5l2.1,0.5l2.3-1.6l3.1-3.4l2.3-3.9l0.3-5.7l0.5-5v-4.7l-1.1-3.1l1-1.5l1.3-1.3l3.5,19.8l4.6-0.8L755.2,232
		L755.2,232z"/>
	<polygon id="OH" class="st0" points="729.3,186.3 723.2,190.4 719.3,192.7 715.9,196.4 711.9,200.3 708.7,201.1 705.8,201.6 
		700.3,204.2 698.2,204.4 694.8,201.3 689.6,201.9 687,200.4 684.6,199 679.7,199.7 669.5,201.3 658.3,203.5 659.6,218.1 
		661.4,231.8 664,255.2 664.6,260 668.7,259.9 671.1,259.1 674.5,260.6 676.6,265 681.7,265 683.6,267.1 685.4,267 687.9,265.7 
		690.4,266.1 695.8,266.6 697.5,264.5 699.8,263.2 701.9,262.5 702.5,265.2 704.3,266.2 707.8,268.5 710,268.4 711.3,267.9 
		711.5,265.1 713.1,263.6 713.2,258.8 714.2,254.7 715.5,254.1 716.8,255.2 717.3,256.9 719,255.9 719.4,254.4 718.3,252.5 
		718.4,250.2 719.1,249.1 721.3,245.8 722.4,244.3 724.5,244.8 726.8,243.2 729.9,239.8 732.7,235.7 733,230.6 733.5,225.6 
		733.3,220.3 732.3,217.4 732.7,216.2 734.5,214.4 732.2,205.4 	"/>
	<polygon id="IN" class="st0" points="613.6,293 613.7,290.1 614.2,285.6 616.5,282.7 618.3,278.8 620.9,274.6 620.4,268.8 
		618.6,266.1 618.3,262.9 619.1,257.4 618.6,250.4 617.3,234.4 616,219 615,207.3 618.1,208.2 619.6,209.2 620.7,208.9 622.8,207 
		625.6,205.4 630.7,205.2 652.7,202.9 658.3,202.4 659.8,218.4 664.1,255.2 664.7,261 664.3,263.3 665.5,265.1 665.6,266.5 
		663.1,268.1 659.6,269.7 656.4,270.3 655.8,275.2 651.2,278.5 648.4,282.5 648.7,284.9 648.1,286.4 644.8,286.4 643.2,284.8 
		640.7,286.1 638,287.6 638.2,290.7 637,291 636.5,290 634.3,288.5 631,289.8 629.4,292.8 628,292 626.5,290.4 622,290.9 
		616.4,291.9 	"/>
	<polygon id="IL" class="st0" points="613.5,293.3 613.5,290.1 614.1,285.5 616.4,282.6 618.3,278.5 620.5,274.5 620.1,269.2 
		618.1,265.7 618,262.4 618.7,257.1 617.9,249.9 616.8,234.1 615.5,219.1 614.6,207.5 614.3,206.6 613.5,204 612.2,200.3 
		610.6,198.5 609.1,195.9 608.9,190.4 563.1,193 563.3,195.4 565.6,196.1 566.5,197.2 567,199 570.9,202.4 571.6,204.7 570.9,208.1 
		569.1,211.8 568.4,214.3 566.1,216.1 564.3,216.8 559,218.2 558.3,220 557.6,222.1 558.3,223.5 560.1,225.1 559.9,229.2 
		558.1,230.8 557.4,232.4 557.4,235.1 555.6,235.6 554,236.7 553.8,238.1 554,240.2 552.3,241.5 551.3,244.3 551.8,248 554.1,255.3 
		561.4,262.8 566.9,266.5 566.7,270.8 567.6,272.2 574,272.7 576.7,274.1 576,277.8 573.7,283.7 573,286.9 575.3,290.8 581.7,296.1 
		586.3,296.8 588.4,301.8 590.5,305 589.6,308 591.2,312.1 593,314.2 594.4,313.3 595.3,311.2 597.5,309.5 599.6,308.9 602.2,310.1 
		605.8,311.5 607,311.2 607.2,308.9 605.9,306.5 606.2,304.1 608,302.8 611,302 612.3,301.5 611.7,300.1 610.9,297.7 612.3,296.7 	
		"/>
	<polygon id="CT" class="st0" points="868.1,171.9 864.4,157 859.7,157.9 838.5,162.6 839.5,165.8 841,173.1 841.2,182.1 840,184.3 
		841.9,186.2 846.2,182.3 849.8,179.1 851.7,177 852.5,177.6 855.2,176.1 860.4,175 	"/>
	<polygon id="WI" class="st0" points="609.1,190.4 609,187.2 607.8,182.7 607.2,176.6 606.1,174.2 607.1,171.1 607.9,168.2 
		609.4,165.6 608.8,162.2 608.2,158.6 608.7,156.8 610.6,154.4 610.8,151.7 610,150.4 610.6,147.8 610.1,143.6 612.8,137.9 
		615.7,131.1 615.9,128.8 615.6,127.8 614.8,128.3 610.6,134.6 607.9,138.6 606,140.4 605.2,142.7 603.2,143.5 602.1,145.4 
		600.6,145.1 600.4,143.3 601.7,140.9 603.8,136.2 605.6,134.6 606.6,132.2 604,130.3 602,119.9 598.5,118.6 596.6,116.3 
		584.5,113.6 581.6,112.6 573.4,110.4 565.5,109.2 561.7,104.1 560.9,104.7 559.7,104.5 559.1,103.4 557.8,103.7 556.7,103.9 
		554.9,104.9 553.9,104.3 554.5,102.4 556.4,99.3 557.5,98.2 555.6,96.7 553.5,97.5 550.6,99.4 543.2,102.6 540.3,103.2 
		537.4,102.7 536.4,101.8 534.3,104.6 534.1,107.3 534.1,115.8 533,117.4 527.7,121.3 525.4,127.2 525.9,127.4 528.4,129.5 
		529.1,132.7 527.3,135.9 527.3,139.8 527.8,146.4 530.8,149.4 534.2,149.4 536,152.6 539.4,153.1 543.3,158.8 550.4,162.9 
		552.5,165.6 553.4,173 554.1,176.3 556.4,177.9 556.6,179.3 554.5,182.7 554.7,185.9 557.2,189.8 559.7,190.9 562.7,191.4 
		564,192.8 	"/>
	<path id="NC" class="st0" d="M829,287.3l2.1,4.9l3.6,6.5l2.4,2.4l0.6,2.3l-2.4,0.2l0.8,0.6l-0.3,4.2l-2.6,1.3l-0.6,2.1l-1.3,2.9
		l-3.7,1.6l-2.4-0.3l-1.5-0.2l-1.6-1.3l0.3,1.3v1h1.9l0.8,1.3l-1.9,6.3h4.2l0.6,1.6l2.3-2.3l1.3-0.5l-1.9,3.6l-3.1,4.8h-1.3
		l-1.1-0.5l-2.7,0.6l-5.2,2.4l-6.5,5.3l-3.4,4.7l-1.9,6.5L804,353l-4.7,0.5l-5.5,1.3l-9.9-8.2l-12.6-7.6l-2.9-0.8l-12.6,1.5
		l-4.3,0.8l-1.6-3.2l-3-2.1l-16.5,0.5l-7.3,0.8L714,341l-6.1,2.6l-21.2,2.6l0.5-4.1l1.8-1.5l2.7-0.6l0.6-3.7l4.2-2.7l3.9-1.5
		l4.2-3.6l4.4-2.1l0.6-3.1l3.9-3.9l0.6-0.2c0,0,0,1.1,0.8,1.1s1.9,0.3,1.9,0.3l2.3-3.6l2.1-0.6l2.3,0.3l1.6-3.6l2.9-2.6l0.5-2.1
		l0.2-3.6h4.3l7.2-0.9l15.8-2.3l15.1-2.1l21.6-4.7l20-4.3l11.2-2.4L829,287.3L829,287.3z M833.3,320.5l2.6-2.5l3.2-2.6l1.5-0.6
		l0.2-2l-0.6-6.1l-1.5-2.3l-0.6-1.9l0.7-0.2l2.7,5.5l0.4,4.4l-0.2,3.4l-3.4,1.5l-2.8,2.4l-1.1,1.2L833.3,320.5L833.3,320.5z"/>
	<polygon id="DC" class="st0" points="799.8,243.8 798,242 796.8,241.3 798.2,239.3 801.1,241.2 	"/>
	<path id="MA" class="st0" d="M893.6,166.3l2.2-0.7l0.5-1.7l1,0.1l1,2.3l-1.3,0.5l-3.9,0.1L893.6,166.3L893.6,166.3z M884.2,167.1
		l2.3-2.6h1.6l1.8,1.5l-2.4,1l-2.2,1L884.2,167.1L884.2,167.1z M849.5,145.1l17.6-4.6l2.3-0.6l1.9-2.8l3.7-1.7l2.9,4.4l-2.4,5.2
		l-0.3,1.5l1.9,2.6l1.1-0.8h1.8l2.3,2.6l3.9,6l3.6,0.5l2.3-1l1.8-1.8l-0.8-2.7l-2.1-1.6l-1.5,0.8l-1-1.3l0.5-0.5l2.1-0.2l1.8,0.8
		l1.9,2.4l1,2.9l0.3,2.4l-4.2,1.5L888,161l-3.9,4.5l-1.9,1.5v-1l2.4-1.5l0.5-1.8l-0.8-3.1l-2.9,1.5l-0.8,1.5l0.5,2.3l-2.1,1
		l-2.7-4.5l-3.4-4.4l-2.1-1.8l-6.5,1.9l-5.1,1.1l-20.7,4.6l-0.7-4.8l0.6-10.6l4.3-0.9L849.5,145.1L849.5,145.1z"/>
	<path id="TN" class="st0" d="M690.7,311.3l-51.9,5L623,318l-4.6,0.5h-3.9l-0.2,4.1l-8.2,0.3l-7,0.6l-8.1-0.1l-1.4,7.1L588,336
		l-3.3,2.8l-1.3,4.4l-0.3,2.6l-4,2.3l1.5,3.6l-1,4.4l-1,0.8l108.2-10.4l0.4-4l1.8-1.5l2.8-0.7l0.7-3.7l4.1-2.7l4-1.5l4.1-3.6l4.4-2
		l0.5-3.1l4.1-4l0.6-0.1c0,0,0,1.1,0.8,1.1s1.9,0.4,1.9,0.4l2.3-3.6l2.1-0.6l2.3,0.3l1.6-3.5l3-2.6l0.4-1.9l0.3-3.7l-2.1-0.2l-2.6,2
		h-7l-18.4,2.4L690.7,311.3L690.7,311.3z"/>
	<polygon id="AR" class="st0" points="587.8,336.1 583.8,336.8 578.7,336.2 579.1,334.6 582.1,332 583,328.3 581.2,325.3 
		502.8,327.8 504.4,334.7 504.4,342.9 505.8,353.9 506,391.7 508.3,393.6 511.3,392.2 514,393.3 514.7,399.9 570.3,398.8 
		571.4,396.7 571.1,393.2 569.3,390.2 570.9,388.7 569.3,386.2 570,383.7 571.4,378.1 573.9,376 573.2,373.7 576.9,368.3 
		579.6,366.9 579.5,365.4 579.2,363.6 582.1,358 584.5,356.7 584.9,353.3 586.7,352.1 583.6,351.6 582.3,347.6 585.1,345.2 
		585.7,343.2 587,339.2 	"/>
	<polygon id="MO" class="st0" points="552.4,241.1 549.9,238 548.8,235.7 484.4,238.1 482.1,238.2 483.4,240.7 483.2,243 
		485.7,246.9 488.8,251 491.9,253.7 494.1,253.9 495.6,254.8 495.6,257.8 493.8,259.4 493.3,261.7 495.4,265.1 497.9,268.1 
		500.4,269.9 501.8,281.6 502.1,317.7 502.3,322.4 502.8,327.8 525.2,326.9 548.4,326.2 569.2,325.4 580.9,325.2 583.1,328.6 
		582.4,331.9 579.3,334.3 578.7,336.1 584.1,336.6 588,335.9 589.7,330.4 590.4,324.5 592.5,321.9 595.1,320.4 595.2,317.3 
		596.2,315.4 594.5,312.9 593.2,313.9 591.2,311.7 589.9,306.9 590.7,304.4 588.8,301 587,296.4 582.2,295.6 575.2,290 573.5,285.9 
		574.3,282.7 576.4,276.6 576.9,273.7 575,272.7 568.1,271.9 567.1,270.2 567,266 561.5,262.6 554.5,254.8 552.2,247.5 552,243.3 	
		"/>
	<polygon id="GA" class="st0" points="666.3,348.6 666.3,350.8 666.5,352.9 667.1,356.3 670.5,364.2 672.9,374.1 674.4,380.2 
		676,385 677.5,392 679.6,398.3 682.2,401.7 682.7,405.1 684.6,405.9 684.8,408 683,412.8 682.5,416 682.3,417.9 683.9,422.3 
		684.2,427.6 683.4,430 684,430.8 685.5,431.6 685.7,434.8 687.9,438.1 690.2,440.3 698.1,440.5 709,440 730.5,438.7 735.9,438 
		740.5,438 740.7,440.9 743.3,441.7 743.6,437.3 742,432.8 743.1,431.2 748.9,432 753.9,432.3 753.1,426 755.4,416 756.9,411.8 
		756.4,409.2 759.7,403 759.2,401.6 757.3,402.3 754.7,401 754,399 752.7,395.4 750.4,393.3 747.8,392.7 746.2,387.9 743.3,381.6 
		739.1,379.7 737,377.8 735.7,375.2 733.6,373.3 731.3,372 729,369.1 725.9,366.8 721.4,365 720.9,363.5 718.5,360.6 718,359.1 
		714.6,354.1 711.1,354.2 707.3,351.8 705.9,350.5 705.6,348.7 706.5,346.8 708.7,345.7 708.1,343.6 	"/>
	<polygon id="SC" class="st0" points="758.9,401.2 757.1,402.2 754.5,400.9 753.9,398.8 752.6,395.2 750.3,393.1 747.7,392.5 
		746.1,387.7 743.4,381.7 739.2,379.8 737.1,377.9 735.8,375.3 733.7,373.4 731.4,372.1 729.1,369.2 726,366.9 721.5,365.1 
		721,363.6 718.6,360.7 718.1,359.2 714.7,354 711.3,354.2 707.3,351.8 706,350.5 705.7,348.7 706.5,346.8 708.8,345.8 708.3,343.5 
		714.1,341.2 723.2,336.6 731,335.8 747.1,335.4 749.7,337.3 751.4,340.7 755.7,340.1 768.3,338.6 771.2,339.4 783.8,347 
		793.9,355.1 788.5,360.6 785.9,366.7 785.4,373 783.8,373.8 782.7,376.5 780.3,377.1 778.2,380.7 775.5,383.4 773.2,386.8 
		771.6,387.6 768,391 765.1,391.2 766.1,394.4 761.1,399.9 	"/>
	<path id="KY" class="st0" d="M720,288.3l-2.3,2.4l-3.6,4l-4.9,5.5l-1.2,1.7l-0.1,2.1l-4.4,2.2l-5.7,3.4l-7.2,1.8l-51.9,4.9L623,318
		l-4.6,0.5h-3.9l-0.2,4.2l-8.2,0.1l-7,0.6l-8-0.1l1.2-1.3l2.5-1.5l0.2-3.2l0.9-1.8l-1.6-2.5l0.8-1.9l2.3-1.8l2.1-0.6l2.7,1.3
		l3.6,1.3l1.1-0.3l0.2-2.3l-1.3-2.4l0.3-2.3l1.9-1.5l2.6-0.6l1.6-0.6l-0.8-1.8l-0.6-1.9l1.5-1c0,0,1.3-3.5,1.2-3.7l3.1-1.5l5.3-1
		l4.5-0.5l1.4,1.6l1.5,0.9l1.6-3.1l3.2-1.3l2.2,1.5l0.4,1l1.2-0.3l-0.2-3l3.1-1.7l2.1-1.1l1.5,1.7h3.3l0.6-1.6l-0.4-2.3l2.6-4
		l4.8-3.4l0.7-4.8l2.9-0.5l3.8-1.6l2.4-1.7l-0.2-1.6l-1.1-1.5l0.6-3l4.2-0.1l2.3-0.7l3.3,1.4l2.1,4.4h5.1l2.1,2.2l1.6-0.1l2.6-1.3
		l5.2,0.6l2.6,0.2l1.7-2.1l2.6-1.4l1.9-0.7l0.6,2.8l2,1.1l2.6,2.1l0.1,5.7l0.8,1.6l2.6,1.6l0.8,2.3l4.2,3.4l1.8,3.6L720,288.3
		L720,288.3z"/>
	<polygon id="AL" class="st0" points="625.3,453.4 623.8,439.1 621.1,420.3 621.3,406.2 622.1,375.2 621.9,358.5 622.1,352.1 
		666.6,348.5 666.5,350.7 666.7,352.8 667.3,356.2 670.7,364.1 673.1,374 674.6,380.1 676.2,384.9 677.7,391.9 679.8,398.2 
		682.4,401.6 682.9,405 684.8,405.8 685,407.9 683.2,412.7 682.7,415.9 682.5,417.8 684.1,422.2 684.4,427.5 683.6,429.9 
		684.2,430.7 685.7,431.5 686,434.4 680.4,434 673.6,434.6 648.1,437.5 637.7,438.9 637.5,441.8 639.3,443.6 641.9,445.5 
		642.5,453.4 637,456 634,456 636.7,454.1 636.7,453.1 633.6,447.1 631.3,446.5 629.8,450.9 628.5,453.6 627.9,453.4 	"/>
	<path id="LA" class="st0" d="M602,452.2l-3.3-3.2l1-5.5l-0.7-0.9l-9.3,1l-25,0.5l-0.7-2.4l0.9-8.5l3.3-5.9l5-8.7l-0.6-2.4l1.3-0.7
		l0.5-2l-2.3-2.1l-0.1-1.9l-1.8-4.3l-0.1-6.3l-55.5,0.9v9.6l0.7,9.4l0.7,3.9l2.5,4.1l0.9,5l4.3,5.5l0.2,3.2l0.7,0.7l-0.7,8.5l-3,5
		l1.6,2.1l-0.7,2.5l-0.7,7.3l-1.4,3.2l0.1,3.6l4.7-1.5l12.1,0.2l10.3,3.6l6.5,1.1l3.7-1.5l3.2,1.1l3.2,1l0.8-2.1l-3.2-1.1l-2.6,0.5
		l-2.7-1.6c0,0,0.2-1.3,0.8-1.5s3.1-1,3.1-1l1.8,1.5l1.8-1l3.2,0.6l1.5,2.4l0.3,2.3l4.5,0.3l1.8,1.8l-0.8,1.6l-1.3,0.8l1.6,1.6
		l8.4,3.6l3.6-1.3l1-2.4l2.6-0.6l1.8-1.5l1.3,1l0.8,2.9l-2.3,0.8l0.6,0.6l3.4-1.3l2.3-3.4l0.8-0.5l-2.1-0.3l0.8-1.6l-0.2-1.5
		l2.1-0.5l1.1-1.3l0.6,0.8c0,0-0.2,3.1,0.6,3.1s4.2,0.6,4.2,0.6l4,1.9l1,1.5h2.9l1.1,1l2.3-3.1v-1.5h-1.3l-3.4-2.7l-5.8-0.8
		l-3.2-2.3l1.1-2.7l2.3,0.3l0.2-0.6l-1.8-1v-0.5h3.2l1.8-3.1l-1.3-1.9l-0.3-2.7l-1.5,0.2l-1.9,2.1l-0.6,2.6l-3.1-0.6l-1-1.8l1.8-1.9
		l1.9-3.4l-1.1-2.4L602,452.2L602,452.2z"/>
	<polygon id="MS" class="st0" points="625.6,452.3 625.3,453.6 620.1,453.6 618.6,452.8 616.5,452.5 609.7,454.4 607.9,453.6 
		605.3,457.8 604.2,458.6 603.1,456.1 602,452.2 598.6,449 599.7,443.5 599,442.6 597.2,442.8 589.3,443.7 564.8,444.1 564,441.9 
		564.9,433.5 568,427.8 573.2,418.7 572.8,416.3 574,415.6 574.4,413.7 572.1,411.6 572,409.5 570.2,405.4 570.1,399.4 571.4,396.9 
		571.2,393.5 569.4,390.4 570.9,388.9 569.3,386.4 569.8,384.7 571.4,378.2 573.9,376.2 573.3,373.8 577,368.5 579.8,367.1 
		579.6,365.4 579.3,363.7 582.2,358.1 584.5,356.9 584.7,356 622,352.1 622.2,358.4 622.4,375.1 621.6,406.1 621.4,420.2 624.1,439 
			"/>
	<polygon id="IA" class="st0" points="563.2,192.6 563.5,195.4 565.7,196 566.7,197.2 567.2,199.1 571,202.5 571.7,204.9 571,208.3 
		569.4,211.5 568.6,214.2 566.4,215.8 564.7,216.4 559.1,218.3 557.7,222.1 558.4,223.5 560.2,225.2 559.9,229.2 558.1,230.7 
		557.3,232.3 557.4,235.1 555.5,235.6 553.9,236.7 553.6,238.1 553.9,240.2 552.3,241.3 549.8,238.2 548.5,235.8 482.8,238.3 
		481.9,238.5 479.8,234 479.6,227.4 478,223.3 477.3,218 475,214.3 474.1,209.5 471.4,202 470.3,196.6 468.9,194.4 467.3,191.7 
		469.3,186.9 470.7,181.2 468,179.1 467.5,176.4 468.4,173.9 470.1,173.9 552.8,172.6 553.6,176.8 555.9,178.4 556.2,179.8 
		554.2,183.2 554.4,186.4 556.9,190.2 559.4,191.5 562.5,192 	"/>
	<polygon id="MN" class="st0" points="469.2,121.8 468.7,113.3 467,106 465.2,92.5 464.7,82.7 462.9,79.3 461.3,74.3 461.3,64 
		462,60.1 460.2,54.6 490.3,54.6 490.6,46.4 491.2,46.2 493.5,46.7 495.4,47.5 496.2,53 497.7,59.1 499.3,60.7 504.1,60.7 
		504.4,62.2 510.7,62.5 510.7,64.6 515.5,64.6 515.8,63.3 516.9,62.2 519.2,61.6 520.5,62.6 523.4,62.6 527.3,65.2 532.6,67.6 
		535,68.1 535.5,67.1 537,66.6 537.5,69.5 540.1,70.8 540.6,70.3 541.9,70.5 541.9,72.6 544.5,73.6 547.6,73.6 549.2,72.8 
		552.4,69.6 555,69.1 555.8,70.9 556.3,72.2 557.3,72.2 558.3,71.4 567.2,71.1 569,74.2 569.6,74.2 570.3,73.1 574.7,72.7 574.1,75 
		570.2,76.8 561,80.9 556.2,82.9 553.1,85.5 550.7,89.1 548.4,93 546.6,93.8 542.1,98.8 540.8,99 536.5,101.8 534,105 533.8,108.2 
		533.9,116.2 532.5,117.9 527.4,121.7 525.2,127.7 528.1,129.9 528.8,133.1 526.9,136.3 527.1,140 527.5,146.7 530.5,149.7 
		533.8,149.7 535.7,152.8 539.1,153.3 543,159 550.1,163.1 552.2,166 552.9,172.4 471.7,173.5 471.4,137.8 470.9,134.8 466.8,131.4 
		465.7,129.6 465.7,128 467.8,126.4 469.2,125 	"/>
	<polygon id="OK" class="st0" points="374.3,313.8 357.6,312.5 356.7,323.5 377.2,324.7 409.3,326 407,350.4 406.5,368.2 
		406.7,369.8 411,373.5 413.1,374.6 413.8,374.4 414.5,372.3 415.9,374.1 418,374.1 418,372.7 420.7,374.1 420.2,378 424.3,378.2 
		426.8,379.3 430.9,380 433.4,381.8 435.7,379.7 439.1,380.4 441.6,383.8 442.5,383.8 442.5,386.1 444.8,386.8 447.1,384.5 
		448.9,385.2 451.4,385.2 452.3,387.7 458.6,389.8 460,389.1 461.8,385 462.9,385 464,387.1 468.1,387.8 471.8,389.2 474.8,390.1 
		476.6,389.2 477.3,386.7 481.6,386.7 483.7,387.6 486.4,385.5 487.5,385.5 488.2,387.1 492.3,387.1 493.9,385 495.7,385.5 
		497.8,388 501,389.8 504.2,390.7 506.1,391.8 505.7,354.6 504.3,343.6 504.1,334.7 502.7,328.2 501.9,321 501.8,317.2 489.7,317.5 
		443.3,317 398.3,314.9 	"/>
	<path id="TX" class="st0" d="M355.5,323.6l22.7,1.1l31.1,1.1l-2.3,23.5l-0.3,18.2l0.1,2.1l4.3,3.8l2,1.4l1.2-0.6l0.4-1.8l1.1,1.8
		h2.1v-1.4l1.7,1l1.1,0.4l-0.4,4l4.1,0.1l2.9,1.2l4,0.5l2.4,2.1l2.1-2.1l3.7,0.6l2.2,3.2l1.1,0.3l-0.2,2l2.2,0.8l2.3-2.1l2.1,0.6
		h2.2l0.9,2.4l6.3,2.1l1.6-0.8l1.5-4.2h0.3l0.9,0.1l1.2,2.1l3.9,0.7l3.3,1.1l3.4,1.2l1.8-1l0.7-2.5h4.5l1.8,0.9l2.8-2.1h1.1l0.9,1.6
		h4.1l1.5-2l1.9,0.4l1.9,2.4l3.5,2l2.9,0.8l1.5,0.8l2.4,2l3-1.3l2.7,1.1l0.6,6.1v9.7l0.7,9.5l0.7,3.6l2.7,4.4l0.9,5l4.2,5.5l0.2,3.1
		l0.7,0.8l-0.7,8.4l-2.9,5l1.5,2.2l-0.6,2.3l-0.7,7.4l-1.5,3.3l0.3,3.5l-5.7,1.6l-9.9,4.5l-1,1.9l-2.6,1.9l-2.1,1.5l-1.3,0.8
		L492,491l-2.7,2.1l-5.3,3.2l-5.7,2.4l-6.3,3.4l-1.8,1.5l-5.8,3.6l-3.4,0.6l-3.9,5.5l-4,0.3l-1,1.9l2.3,1.9l-1.5,5.5l-1.3,4.5
		l-1.1,3.9l-0.8,4.5l0.8,2.4l1.8,7l1,6.1l1.8,2.7l-1,1.5l-3.1,1.9l-5.7-3.9l-5.5-1.1l-1.3,0.5l-3.2-0.6l-4.2-3.1l-5.2-1.1l-7.6-3.4
		l-2.1-3.9l-1.3-6.5l-3.2-1.9l-0.6-2.3l0.6-0.6l0.3-3.4l-1.3-0.6l-0.6-1l1.3-4.4l-1.6-2.3l-3.2-1.3l-3.4-4.4l-3.6-6.6l-4.2-2.6
		l0.2-1.9l-5.3-12.3l-0.8-4.2l-1.8-1.9l-0.2-1.5l-6-5.3l-2.6-3.1v-1.1l-2.6-2.1l-6.8-1.1l-7.4-0.6l-3.1-2.3l-4.5,1.8l-3.6,1.5
		l-2.3,3.2l-1,3.7l-4.4,6.1l-2.4,2.4l-2.6-1l-1.8-1.1l-1.9-0.6l-3.9-2.3v-0.6l-1.8-1.9l-5.2-2.1l-7.4-7.8l-2.3-4.7V454l-3.2-6.5
		l-0.5-2.7l-1.6-1l-1.1-2.1l-5-2.1l-1.3-1.6l-7.1-7.9l-1.3-3.2l-4.7-2.3l-1.5-4.4l-2.6-2.9l-1.9-0.5l-0.6-4.7l8,0.7l29,2.7l29,1.6
		l2.2-19.5l3.9-55.6l1.6-18.7h1.4L355.5,323.6z M455.7,553.2l-0.6-7.1l-2.7-7.2l-0.6-7l1.5-8.2l3.3-6.9l3.5-5.4l3.2-3.6l0.6,0.2
		l-4.8,6.6l-4.4,6.5l-2,6.6l-0.3,5.2l0.9,6.1l2.6,7.2l0.5,5.2l0.2,1.5L455.7,553.2L455.7,553.2z"/>
	<polygon id="NM" class="st0" points="282.2,417 281.4,412.3 290,412.8 320.2,415.7 347.5,417.4 349.7,398.7 353.6,342.8 
		355.3,323.4 356.9,323.5 357.7,312.3 253.7,301.7 236.2,422.1 251.7,424.1 253,414.1 	"/>
	<polygon id="KS" class="st0" points="501.9,317.4 489.3,317.6 443.2,317.1 398.6,315 374,313.7 377.9,249.1 400,249.8 440.3,250.6 
		484.6,251.6 489.7,251.6 491.9,253.8 493.9,253.8 495.5,254.8 495.4,257.8 493.6,259.5 493.3,261.7 495.1,265.1 498.1,268.3 
		500.4,269.9 501.7,281.1 	"/>
	<polygon id="NE" class="st0" points="480.1,233.7 483.3,240.7 483.2,243 486.7,248.5 489.4,251.7 484.4,251.7 440.9,250.8 
		400.1,249.9 377.8,249.1 378.9,227.8 346.6,224.9 350.9,180.9 366.4,181.9 386.5,183 404.3,184.1 428.1,185.2 438.8,184.7 
		440.9,187 445.7,190 446.8,190.9 451.1,189.5 455,189 457.7,188.8 459.5,190.2 463.6,191.8 466.6,193.4 467.1,195 468,197.1 
		469.8,197.1 470.6,197.1 471.5,201.8 474.4,210.3 475,214.1 477.5,217.9 478.1,223 479.7,227.2 	"/>
	<polygon id="SD" class="st0" points="470.4,197 470.4,196.4 467.5,191.6 469.4,186.9 470.9,181 468.1,178.9 467.7,176.2 
		468.5,173.6 471.7,173.6 471.6,168.6 471.3,138.4 470.7,134.6 466.6,131.3 465.6,129.6 465.5,128 467.5,126.5 469,124.8 
		469.2,122.1 410.9,120.5 356.1,117.1 350.8,180.8 365.4,181.7 385.3,182.9 403,183.8 426.8,185.1 438.8,184.7 440.8,186.9 
		446,190.2 446.8,190.9 451.3,189.4 457.8,188.8 459.5,190.1 463.7,191.7 466.6,193.3 467,194.8 468,197 	"/>
	<polygon id="ND" class="st0" points="469.3,121.9 468.7,113.5 467,106.7 465.1,93.7 464.6,82.7 462.9,79.6 461.1,74.4 461.1,64 
		461.7,60.2 459.9,54.7 431.3,54.1 412.7,53.5 386.2,52.2 363.3,50 356.3,117.2 411.2,120.5 	"/>
	<polygon id="WY" class="st0" points="354.4,136.3 247.7,122.8 233.6,211.3 346.9,224.9 	"/>
	<polygon id="MT" class="st0" points="363.2,50 332.5,47.2 303.2,43.6 273.9,39.6 241.6,34.3 223.2,30.9 190.5,24 186,45.3 
		189.4,52.8 188,57.4 189.8,62 193,63.4 197.6,74.2 200.3,77.4 200.8,78.5 204.2,79.6 204.7,81.7 197.6,99.3 197.6,101.8 200.1,105 
		201,105 205.8,102 206.5,100.9 208.1,101.6 207.9,106.9 210.6,119.5 213.6,122 214.5,122.7 216.3,125 215.8,128.4 216.5,131.8 
		217.6,132.7 219.9,130.4 222.6,130.4 225.8,132 228.3,131.1 232.4,131.1 236.1,132.7 238.8,132.2 239.3,129.2 242.3,128.5 
		243.7,129.9 244.2,133.1 245.6,133.9 247.5,122.9 354.2,136.3 	"/>
	<polygon id="CO" class="st0" points="374,314 378.9,227.7 265.5,215 253.3,302.9 	"/>
	<path id="ID" class="st0" d="M142.5,169.5l8.8-35.2l1.4-4.2l2.5-5.9l-1.3-2.3l-2.5,0.1l-0.8-1l0.5-1.1l0.3-3.1l4.5-5.5l1.8-0.5
		l1.1-1.1l0.6-3.2l0.9-0.7l3.9-5.8l3.9-4.3l0.2-3.8l-3.4-2.6l-1.5-4.4L177,21.6l13.5,2.5l-4.4,21.4l3.6,7.5l-1.6,4.7l2,4.6l3.1,1.3
		l3.8,9.6l3.5,4.4l0.5,1.1l3.3,1.1l0.4,2.1l-7,17.4l-0.2,2.6l2.6,3.3h0.9l4.9-3l0.7-1.1l1.6,0.7l-0.3,5.4l2.7,12.6l3.9,3.2l1.7,2.2
		l-0.7,4.1l1.1,2.8l1.1,1.1l2.5-2.4h2.8l2.9,1.3l2.8-0.7l3.8-0.2l4,1.6l2.7-0.3l0.5-3l2.9-0.8l1.3,1.5l0.4,2.9l1.4,1.2l-8.4,53.6
		C237.4,187.7,149.5,171,142.5,169.5L142.5,169.5z"/>
	<polygon id="UT" class="st0" points="253.5,303.1 169.8,291.2 190.4,178.7 237.2,187.4 235.7,198 233.4,211.2 241.2,212.1 
		257.6,213.9 265.8,214.8 	"/>
	<polygon id="AZ" class="st0" points="138.9,375.6 136.3,377.8 136,379.3 136.5,380.3 155.4,391 167.5,398.6 182.2,407.2 199,417.2 
		211.3,419.6 236.3,422.3 253.6,303.2 169.9,291.3 166.8,307.7 165.2,307.7 163.5,310.3 161,310.2 159.7,307.5 157,307.2 
		156.1,306.1 155,306.1 154.1,306.7 152.2,307.7 152.1,314.7 151.9,316.4 151.3,329 149.8,331.2 149.2,334.5 151.9,339.4 
		153.2,345.2 154,346.2 155,346.8 154.9,349.1 153.3,350.5 149.9,352.2 148,354.1 146.5,357.8 145.9,362.7 143,365.4 140.9,366.1 
		141,366.9 140.5,368.6 141,369.4 144.7,370 144.1,372.7 142.6,374.9 	"/>
	<polygon id="NV" class="st0" points="190.4,178.6 166.8,307.4 165,307.7 163.4,310.1 161,310.1 159.5,307.4 156.9,307 156.1,305.9 
		155.1,305.8 152.3,307.4 152,314.2 151.6,320 151.3,328.6 149.9,330.7 147.5,329.6 78.3,225.5 97.3,157.9 	"/>
	<polygon id="OR" class="st0" points="142.7,168.5 151.5,133.7 152.6,129.5 155,123.9 154.4,122.7 151.9,122.7 150.6,121 
		151.1,119.5 151.6,116.3 156.1,110.8 157.9,109.7 159,108.6 160.5,105 164.5,99.3 168.1,95.4 168.3,91.9 165,89.4 163.2,84.8 
		150.5,81.2 135.4,77.7 120,77.9 119.5,76.5 114,78.6 109.5,78 107.1,76.4 105.8,77.1 101.1,76.9 99.4,75.5 94.1,73.4 93.3,73.5 
		89.2,72 87.3,73.8 81.1,73.5 75.2,69.4 75.9,68.6 76.1,60.8 73.8,56.9 69.7,56.3 69,53.8 66.6,53.3 60.8,55.4 58.5,61.9 55.3,71.9 
		52.1,78.4 47.1,92.5 40.6,106 32.5,118.6 30.6,121.5 29.8,130.1 30.2,142.2 	"/>
	<path id="WA" class="st0" d="M96.1,0.6l4.4,1.5l9.7,2.7l8.6,1.9l20,5.7l23,5.7l15.2,3.2l-13.6,63.6L151,81.4l-15.5-3.6h-15.2
		l-0.5-1.3l-5.6,2.2l-4.6-0.7l-2.1-1.6L106,77l-4.7-0.1l-1.7-1.3l-5.3-2.1l-0.7,0.1L89.2,72l-1.9,1.8L81,73.5l-5.9-4.1l0.8-0.9
		l0.1-7.7L73.7,57l-4.1-0.6l-0.7-2.5l-2.3-0.5L63,54.6l-2.3-3.2l0.3-2.9l2.7-0.3l1.6-4L62.9,43l0.2-3.7l4.4-0.6L64.8,36l-1.5-7.1
		l0.6-2.9v-7.9l-1.8-3.2l2.3-9.4L66.5,6l2.4,2.9l2.7,2.6l3.2,1.9l4.5,2.1l3.1,0.6l2.9,1.5l3.4,1l2.3-0.2V16l1.3-1.1l2.1-1.3l0.3,1.1
		l0.3,1.8L92.7,17l-0.3,2.1l1.8,1.5l1.1,2.4l0.6,1.9l1.5-0.2l0.2-1.3l-1-1.3l-0.5-3.2l0.8-1.8l-0.6-1.5v-2.3l1.8-3.6L97,7.1
		l-2.4-4.8l0.3-0.8L96.1,0.6L96.1,0.6z M86.6,6.6l2-0.2l0.5,1.4l1.5-1.6H93l0.8,1.5l-1.5,1.7l0.6,0.8l-0.7,2l-1.4,0.4
		c0,0-0.9,0.1-0.9-0.2s1.5-2.6,1.5-2.6l-1.7-0.6l-0.3,1.5l-0.7,0.6L87.2,9L86.6,6.6L86.6,6.6z"/>
	<path id="CA" class="st0" d="M138.7,375.2l3.9-0.5l1.5-2l0.5-2.9l-3.6-0.6l-0.5-0.7l0.5-2l-0.2-0.6l1.9-0.6l3-2.8l0.6-5l1.4-3.4
		l1.9-2.2l3.5-1.6l1.7-1.6l0.1-2.1l-1-0.6l-1-1.1l-1.2-5.8l-2.7-4.8l0.6-3.5l-2.4-1L78.3,225.5l18.9-67.6l-67.1-15.7l-1.5,4.7
		l-0.2,7.4l-5.2,11.8l-3.1,2.6l-0.3,1.1l-1.8,0.8l-1.5,4.2l-0.8,3.2l2.7,4.2l1.6,4.2l1.1,3.6l-0.3,6.5l-1.8,3.1l-0.6,5.8l-1,3.7
		l1.8,3.9l2.7,4.5l2.3,4.8l1.3,4l-0.3,3.2l-0.3,0.5v2.1l5.7,6.3l-0.5,2.4l-0.6,2.3l-0.6,1.9l0.2,8.2l2.1,3.7l1.9,2.6l2.7,0.5l1,2.7
		l-1.1,3.6l-2.1,1.6h-1.1l-0.8,3.9l0.5,2.9l3.2,4.4l1.6,5.3l1.5,4.7l1.3,3.1l3.4,5.8l1.5,2.6l0.5,2.9l1.6,1v2.4l-0.8,1.9l-1.8,7.1
		l-0.5,1.9l2.4,2.7l4.2,0.5l4.5,1.8l3.9,2.1h2.9l2.9,3.1l2.6,4.8l1.1,2.3l3.9,2.1l4.8,0.8l1.5,2.1l0.6,3.2l-1.5,0.6l0.3,1l3.2,0.8
		l2.7,0.2l3.2-1.7l3.9,4.2l0.8,2.3l2.6,4.2l0.3,3.2v9.4l0.5,1.8l10,1.5l19.7,2.7L138.7,375.2L138.7,375.2z M50.6,331.5l1.3,1.5
		l-0.2,1.3l-3.2-0.1l-0.6-1.2l-0.6-1.5L50.6,331.5L50.6,331.5z M52.5,331.5l1.2-0.6l3.6,2.1l3.1,1.2l-0.9,0.6l-4.5-0.2l-1.6-1.6
		L52.5,331.5L52.5,331.5z M73.2,351.3l1.8,2.3l0.8,1l1.5,0.6l0.6-1.5l-1-1.8l-2.7-2l-1.1,0.2L73.2,351.3L73.2,351.3L73.2,351.3z
		 M71.7,359.9l1.8,3.2l1.2,1.9l-1.5,0.2l-1.3-1.2c0,0-0.7-1.5-0.7-1.9v-2.2H71.7L71.7,359.9z"/>
</g>
</svg>
